G75*
G70*
%OFA0B0*%
%FSLAX24Y24*%
%IPPOS*%
%LPD*%
%AMOC8*
5,1,8,0,0,1.08239X$1,22.5*
%
%ADD10R,0.0591X0.0512*%
%ADD11R,0.0500X0.0250*%
%ADD12R,0.0900X0.0960*%
%ADD13R,0.0630X0.1575*%
%ADD14R,0.0250X0.0500*%
%ADD15R,0.0960X0.0900*%
%ADD16R,0.0512X0.0591*%
%ADD17R,0.0472X0.0472*%
D10*
X004650Y010001D03*
X004650Y010749D03*
X012525Y014751D03*
X012525Y015499D03*
X013400Y015499D03*
X013400Y014751D03*
X025025Y010749D03*
X025025Y010001D03*
D11*
X013400Y016213D03*
X013400Y016537D03*
X012525Y016537D03*
X012525Y016213D03*
X009150Y005662D03*
X009150Y005338D03*
D12*
X009150Y005500D03*
X012525Y016375D03*
X013400Y016375D03*
D13*
X006900Y014523D03*
X006900Y011727D03*
X006900Y009523D03*
X003400Y011727D03*
X003400Y014523D03*
X010400Y009523D03*
X010400Y006727D03*
X006900Y006727D03*
X019400Y006727D03*
X022900Y006727D03*
X022900Y009523D03*
X022900Y011727D03*
X022900Y014523D03*
X026400Y014523D03*
X026400Y011727D03*
X019400Y009523D03*
D14*
X026988Y009250D03*
X027312Y009250D03*
X002937Y009250D03*
X002613Y009250D03*
D15*
X002775Y009250D03*
X027150Y009250D03*
D16*
X008274Y005125D03*
X007526Y005125D03*
D17*
X005612Y005125D03*
X006438Y005125D03*
M02*
