G75*
G70*
%OFA0B0*%
%FSLAX24Y24*%
%IPPOS*%
%LPD*%
%AMOC8*
5,1,8,0,0,1.08239X$1,22.5*
%
%ADD10C,0.0060*%
D10*
X021467Y014330D02*
X021467Y014920D01*
X021466Y014920D02*
X021470Y014939D01*
X021476Y014956D01*
X021486Y014973D01*
X021498Y014987D01*
X021513Y014999D01*
X021529Y015009D01*
X021547Y015015D01*
X021566Y015019D01*
X021585Y015019D01*
X022215Y015019D01*
X022234Y015019D01*
X022253Y015015D01*
X022271Y015009D01*
X022287Y014999D01*
X022302Y014987D01*
X022314Y014973D01*
X022324Y014956D01*
X022330Y014939D01*
X022334Y014920D01*
X022333Y014920D02*
X022333Y014330D01*
X022334Y014329D02*
X022330Y014311D01*
X022324Y014293D01*
X022314Y014276D01*
X022302Y014262D01*
X022287Y014249D01*
X022271Y014240D01*
X022253Y014234D01*
X022234Y014230D01*
X022215Y014230D01*
X022215Y014231D02*
X021585Y014231D01*
X021566Y014231D01*
X021547Y014235D01*
X021529Y014241D01*
X021513Y014251D01*
X021498Y014263D01*
X021486Y014277D01*
X021476Y014294D01*
X021470Y014311D01*
X021466Y014330D01*
X025840Y010385D02*
X026960Y010385D01*
X026960Y009865D01*
X025840Y009865D01*
X025840Y010385D01*
X017320Y019317D02*
X016730Y019317D01*
X016729Y019316D02*
X016711Y019320D01*
X016693Y019326D01*
X016676Y019336D01*
X016662Y019348D01*
X016649Y019363D01*
X016640Y019379D01*
X016634Y019397D01*
X016630Y019416D01*
X016630Y019435D01*
X016631Y019435D02*
X016631Y020065D01*
X016631Y020084D01*
X016635Y020103D01*
X016641Y020121D01*
X016651Y020137D01*
X016663Y020152D01*
X016677Y020164D01*
X016694Y020174D01*
X016711Y020180D01*
X016730Y020184D01*
X016730Y020183D02*
X017320Y020183D01*
X017320Y020184D02*
X017339Y020180D01*
X017356Y020174D01*
X017373Y020164D01*
X017387Y020152D01*
X017399Y020137D01*
X017409Y020121D01*
X017415Y020103D01*
X017419Y020084D01*
X017419Y020065D01*
X017419Y019435D01*
X017419Y019416D01*
X017415Y019397D01*
X017409Y019379D01*
X017399Y019363D01*
X017387Y019348D01*
X017373Y019336D01*
X017356Y019326D01*
X017339Y019320D01*
X017320Y019316D01*
M02*
