G75*
G70*
%OFA0B0*%
%FSLAX24Y24*%
%IPPOS*%
%LPD*%
%AMOC8*
5,1,8,0,0,1.08239X$1,22.5*
%
%ADD10C,0.0120*%
%ADD11C,0.0060*%
%ADD12C,0.0050*%
%ADD13C,0.0080*%
%ADD14C,0.0040*%
%ADD15C,0.0100*%
%ADD16C,0.0070*%
%ADD17C,0.0030*%
%ADD18R,0.0118X0.0059*%
%ADD19R,0.0118X0.0118*%
D10*
X014770Y005125D02*
X014770Y005375D01*
X014770Y005625D01*
X015020Y005625D02*
X015020Y005375D01*
X015020Y005125D01*
X015030Y007250D02*
X015030Y007500D01*
X015030Y007750D01*
X014780Y007750D02*
X014780Y007500D01*
X014780Y007250D01*
X010530Y016625D02*
X010530Y016875D01*
X010530Y017125D01*
X010280Y017125D02*
X010280Y016875D01*
X010280Y016625D01*
X007270Y016625D02*
X007270Y016875D01*
X007270Y017125D01*
X007020Y017125D02*
X007020Y016875D01*
X007020Y016625D01*
X019270Y016625D02*
X019270Y016875D01*
X019270Y017125D01*
X019520Y017125D02*
X019520Y016875D01*
X019520Y016625D01*
X022405Y016625D02*
X022405Y016875D01*
X022405Y017125D01*
X022655Y017125D02*
X022655Y016875D01*
X022655Y016625D01*
D11*
X022655Y016875D02*
X023125Y016875D01*
X022405Y016875D02*
X021925Y016875D01*
X021075Y015875D02*
X021077Y015858D01*
X021081Y015841D01*
X021088Y015825D01*
X021098Y015811D01*
X021111Y015798D01*
X021125Y015788D01*
X021141Y015781D01*
X021158Y015777D01*
X021175Y015775D01*
X023875Y015775D01*
X023892Y015777D01*
X023909Y015781D01*
X023925Y015788D01*
X023939Y015798D01*
X023952Y015811D01*
X023962Y015825D01*
X023969Y015841D01*
X023973Y015858D01*
X023975Y015875D01*
X023975Y017875D01*
X023973Y017892D01*
X023969Y017909D01*
X023962Y017925D01*
X023952Y017939D01*
X023939Y017952D01*
X023925Y017962D01*
X023909Y017969D01*
X023892Y017973D01*
X023875Y017975D01*
X021175Y017975D01*
X021158Y017973D01*
X021141Y017969D01*
X021125Y017962D01*
X021111Y017952D01*
X021098Y017939D01*
X021088Y017925D01*
X021081Y017909D01*
X021077Y017892D01*
X021075Y017875D01*
X021075Y015875D01*
X020850Y015875D02*
X020850Y017875D01*
X020848Y017892D01*
X020844Y017909D01*
X020837Y017925D01*
X020827Y017939D01*
X020814Y017952D01*
X020800Y017962D01*
X020784Y017969D01*
X020767Y017973D01*
X020750Y017975D01*
X018050Y017975D01*
X018033Y017973D01*
X018016Y017969D01*
X018000Y017962D01*
X017986Y017952D01*
X017973Y017939D01*
X017963Y017925D01*
X017956Y017909D01*
X017952Y017892D01*
X017950Y017875D01*
X017950Y015875D01*
X017952Y015858D01*
X017956Y015841D01*
X017963Y015825D01*
X017973Y015811D01*
X017986Y015798D01*
X018000Y015788D01*
X018016Y015781D01*
X018033Y015777D01*
X018050Y015775D01*
X020750Y015775D01*
X020767Y015777D01*
X020784Y015781D01*
X020800Y015788D01*
X020814Y015798D01*
X020827Y015811D01*
X020837Y015825D01*
X020844Y015841D01*
X020848Y015858D01*
X020850Y015875D01*
X020000Y016875D02*
X019520Y016875D01*
X019270Y016875D02*
X018800Y016875D01*
X013794Y016690D02*
X013794Y016060D01*
X013794Y016041D01*
X013790Y016022D01*
X013784Y016004D01*
X013774Y015988D01*
X013762Y015973D01*
X013748Y015961D01*
X013731Y015951D01*
X013714Y015945D01*
X013695Y015941D01*
X013695Y015942D02*
X013105Y015942D01*
X013105Y015941D02*
X013086Y015945D01*
X013069Y015951D01*
X013052Y015961D01*
X013038Y015973D01*
X013026Y015988D01*
X013016Y016004D01*
X013010Y016022D01*
X013006Y016041D01*
X013006Y016060D01*
X013006Y016690D01*
X012919Y016690D02*
X012919Y016060D01*
X012919Y016041D01*
X012915Y016022D01*
X012909Y016004D01*
X012899Y015988D01*
X012887Y015973D01*
X012873Y015961D01*
X012856Y015951D01*
X012839Y015945D01*
X012820Y015941D01*
X012820Y015942D02*
X012230Y015942D01*
X012230Y015941D02*
X012211Y015945D01*
X012194Y015951D01*
X012177Y015961D01*
X012163Y015973D01*
X012151Y015988D01*
X012141Y016004D01*
X012135Y016022D01*
X012131Y016041D01*
X012131Y016060D01*
X012131Y016690D01*
X012130Y016690D02*
X012130Y016709D01*
X012134Y016728D01*
X012140Y016746D01*
X012149Y016762D01*
X012162Y016777D01*
X012176Y016789D01*
X012193Y016799D01*
X012211Y016805D01*
X012229Y016809D01*
X012230Y016808D02*
X012820Y016808D01*
X012820Y016809D02*
X012839Y016805D01*
X012856Y016799D01*
X012873Y016789D01*
X012887Y016777D01*
X012899Y016762D01*
X012909Y016746D01*
X012915Y016728D01*
X012919Y016709D01*
X012919Y016690D01*
X013005Y016690D02*
X013005Y016709D01*
X013009Y016728D01*
X013015Y016746D01*
X013024Y016762D01*
X013037Y016777D01*
X013051Y016789D01*
X013068Y016799D01*
X013086Y016805D01*
X013104Y016809D01*
X013105Y016808D02*
X013695Y016808D01*
X013695Y016809D02*
X013714Y016805D01*
X013731Y016799D01*
X013748Y016789D01*
X013762Y016777D01*
X013774Y016762D01*
X013784Y016746D01*
X013790Y016728D01*
X013794Y016709D01*
X013794Y016690D01*
X011850Y015875D02*
X011850Y017875D01*
X011848Y017892D01*
X011844Y017909D01*
X011837Y017925D01*
X011827Y017939D01*
X011814Y017952D01*
X011800Y017962D01*
X011784Y017969D01*
X011767Y017973D01*
X011750Y017975D01*
X009050Y017975D01*
X009033Y017973D01*
X009016Y017969D01*
X009000Y017962D01*
X008986Y017952D01*
X008973Y017939D01*
X008963Y017925D01*
X008956Y017909D01*
X008952Y017892D01*
X008950Y017875D01*
X008950Y015875D01*
X008952Y015858D01*
X008956Y015841D01*
X008963Y015825D01*
X008973Y015811D01*
X008986Y015798D01*
X009000Y015788D01*
X009016Y015781D01*
X009033Y015777D01*
X009050Y015775D01*
X011750Y015775D01*
X011767Y015777D01*
X011784Y015781D01*
X011800Y015788D01*
X011814Y015798D01*
X011827Y015811D01*
X011837Y015825D01*
X011844Y015841D01*
X011848Y015858D01*
X011850Y015875D01*
X011000Y016875D02*
X010530Y016875D01*
X010280Y016875D02*
X009800Y016875D01*
X008600Y015875D02*
X008600Y017875D01*
X008598Y017892D01*
X008594Y017909D01*
X008587Y017925D01*
X008577Y017939D01*
X008564Y017952D01*
X008550Y017962D01*
X008534Y017969D01*
X008517Y017973D01*
X008500Y017975D01*
X005800Y017975D01*
X005783Y017973D01*
X005766Y017969D01*
X005750Y017962D01*
X005736Y017952D01*
X005723Y017939D01*
X005713Y017925D01*
X005706Y017909D01*
X005702Y017892D01*
X005700Y017875D01*
X005700Y015875D01*
X005702Y015858D01*
X005706Y015841D01*
X005713Y015825D01*
X005723Y015811D01*
X005736Y015798D01*
X005750Y015788D01*
X005766Y015781D01*
X005783Y015777D01*
X005800Y015775D01*
X008500Y015775D01*
X008517Y015777D01*
X008534Y015781D01*
X008550Y015788D01*
X008564Y015798D01*
X008577Y015811D01*
X008587Y015825D01*
X008594Y015841D01*
X008598Y015858D01*
X008600Y015875D01*
X007750Y016875D02*
X007270Y016875D01*
X007020Y016875D02*
X006550Y016875D01*
X001425Y019000D02*
X001427Y019073D01*
X001433Y019146D01*
X001443Y019218D01*
X001457Y019290D01*
X001474Y019361D01*
X001496Y019431D01*
X001521Y019500D01*
X001550Y019567D01*
X001582Y019632D01*
X001618Y019696D01*
X001658Y019758D01*
X001700Y019817D01*
X001746Y019874D01*
X001795Y019928D01*
X001847Y019980D01*
X001901Y020029D01*
X001958Y020075D01*
X002017Y020117D01*
X002079Y020157D01*
X002143Y020193D01*
X002208Y020225D01*
X002275Y020254D01*
X002344Y020279D01*
X002414Y020301D01*
X002485Y020318D01*
X002557Y020332D01*
X002629Y020342D01*
X002702Y020348D01*
X002775Y020350D01*
X002848Y020348D01*
X002921Y020342D01*
X002993Y020332D01*
X003065Y020318D01*
X003136Y020301D01*
X003206Y020279D01*
X003275Y020254D01*
X003342Y020225D01*
X003407Y020193D01*
X003471Y020157D01*
X003533Y020117D01*
X003592Y020075D01*
X003649Y020029D01*
X003703Y019980D01*
X003755Y019928D01*
X003804Y019874D01*
X003850Y019817D01*
X003892Y019758D01*
X003932Y019696D01*
X003968Y019632D01*
X004000Y019567D01*
X004029Y019500D01*
X004054Y019431D01*
X004076Y019361D01*
X004093Y019290D01*
X004107Y019218D01*
X004117Y019146D01*
X004123Y019073D01*
X004125Y019000D01*
X004123Y018927D01*
X004117Y018854D01*
X004107Y018782D01*
X004093Y018710D01*
X004076Y018639D01*
X004054Y018569D01*
X004029Y018500D01*
X004000Y018433D01*
X003968Y018368D01*
X003932Y018304D01*
X003892Y018242D01*
X003850Y018183D01*
X003804Y018126D01*
X003755Y018072D01*
X003703Y018020D01*
X003649Y017971D01*
X003592Y017925D01*
X003533Y017883D01*
X003471Y017843D01*
X003407Y017807D01*
X003342Y017775D01*
X003275Y017746D01*
X003206Y017721D01*
X003136Y017699D01*
X003065Y017682D01*
X002993Y017668D01*
X002921Y017658D01*
X002848Y017652D01*
X002775Y017650D01*
X002702Y017652D01*
X002629Y017658D01*
X002557Y017668D01*
X002485Y017682D01*
X002414Y017699D01*
X002344Y017721D01*
X002275Y017746D01*
X002208Y017775D01*
X002143Y017807D01*
X002079Y017843D01*
X002017Y017883D01*
X001958Y017925D01*
X001901Y017971D01*
X001847Y018020D01*
X001795Y018072D01*
X001746Y018126D01*
X001700Y018183D01*
X001658Y018242D01*
X001618Y018304D01*
X001582Y018368D01*
X001550Y018433D01*
X001521Y018500D01*
X001496Y018569D01*
X001474Y018639D01*
X001457Y018710D01*
X001443Y018782D01*
X001433Y018854D01*
X001427Y018927D01*
X001425Y019000D01*
X002460Y009644D02*
X003090Y009644D01*
X003090Y009645D02*
X003109Y009645D01*
X003128Y009641D01*
X003146Y009635D01*
X003162Y009626D01*
X003177Y009613D01*
X003189Y009599D01*
X003199Y009582D01*
X003205Y009564D01*
X003209Y009546D01*
X003208Y009545D02*
X003208Y008955D01*
X003209Y008955D02*
X003205Y008936D01*
X003199Y008919D01*
X003189Y008902D01*
X003177Y008888D01*
X003162Y008876D01*
X003146Y008866D01*
X003128Y008860D01*
X003109Y008856D01*
X003090Y008856D01*
X002460Y008856D01*
X002441Y008856D01*
X002422Y008860D01*
X002404Y008866D01*
X002388Y008876D01*
X002373Y008888D01*
X002361Y008902D01*
X002351Y008919D01*
X002345Y008936D01*
X002341Y008955D01*
X002342Y008955D02*
X002342Y009545D01*
X002341Y009545D02*
X002345Y009564D01*
X002351Y009581D01*
X002361Y009598D01*
X002373Y009612D01*
X002388Y009624D01*
X002404Y009634D01*
X002422Y009640D01*
X002441Y009644D01*
X002460Y009644D01*
X001425Y005500D02*
X001427Y005573D01*
X001433Y005646D01*
X001443Y005718D01*
X001457Y005790D01*
X001474Y005861D01*
X001496Y005931D01*
X001521Y006000D01*
X001550Y006067D01*
X001582Y006132D01*
X001618Y006196D01*
X001658Y006258D01*
X001700Y006317D01*
X001746Y006374D01*
X001795Y006428D01*
X001847Y006480D01*
X001901Y006529D01*
X001958Y006575D01*
X002017Y006617D01*
X002079Y006657D01*
X002143Y006693D01*
X002208Y006725D01*
X002275Y006754D01*
X002344Y006779D01*
X002414Y006801D01*
X002485Y006818D01*
X002557Y006832D01*
X002629Y006842D01*
X002702Y006848D01*
X002775Y006850D01*
X002848Y006848D01*
X002921Y006842D01*
X002993Y006832D01*
X003065Y006818D01*
X003136Y006801D01*
X003206Y006779D01*
X003275Y006754D01*
X003342Y006725D01*
X003407Y006693D01*
X003471Y006657D01*
X003533Y006617D01*
X003592Y006575D01*
X003649Y006529D01*
X003703Y006480D01*
X003755Y006428D01*
X003804Y006374D01*
X003850Y006317D01*
X003892Y006258D01*
X003932Y006196D01*
X003968Y006132D01*
X004000Y006067D01*
X004029Y006000D01*
X004054Y005931D01*
X004076Y005861D01*
X004093Y005790D01*
X004107Y005718D01*
X004117Y005646D01*
X004123Y005573D01*
X004125Y005500D01*
X004123Y005427D01*
X004117Y005354D01*
X004107Y005282D01*
X004093Y005210D01*
X004076Y005139D01*
X004054Y005069D01*
X004029Y005000D01*
X004000Y004933D01*
X003968Y004868D01*
X003932Y004804D01*
X003892Y004742D01*
X003850Y004683D01*
X003804Y004626D01*
X003755Y004572D01*
X003703Y004520D01*
X003649Y004471D01*
X003592Y004425D01*
X003533Y004383D01*
X003471Y004343D01*
X003407Y004307D01*
X003342Y004275D01*
X003275Y004246D01*
X003206Y004221D01*
X003136Y004199D01*
X003065Y004182D01*
X002993Y004168D01*
X002921Y004158D01*
X002848Y004152D01*
X002775Y004150D01*
X002702Y004152D01*
X002629Y004158D01*
X002557Y004168D01*
X002485Y004182D01*
X002414Y004199D01*
X002344Y004221D01*
X002275Y004246D01*
X002208Y004275D01*
X002143Y004307D01*
X002079Y004343D01*
X002017Y004383D01*
X001958Y004425D01*
X001901Y004471D01*
X001847Y004520D01*
X001795Y004572D01*
X001746Y004626D01*
X001700Y004683D01*
X001658Y004742D01*
X001618Y004804D01*
X001582Y004868D01*
X001550Y004933D01*
X001521Y005000D01*
X001496Y005069D01*
X001474Y005139D01*
X001457Y005210D01*
X001443Y005282D01*
X001433Y005354D01*
X001427Y005427D01*
X001425Y005500D01*
X008756Y005185D02*
X008756Y005815D01*
X008756Y005834D01*
X008760Y005853D01*
X008766Y005871D01*
X008776Y005887D01*
X008788Y005902D01*
X008802Y005914D01*
X008819Y005924D01*
X008836Y005930D01*
X008855Y005934D01*
X008855Y005933D02*
X009445Y005933D01*
X009445Y005934D02*
X009464Y005930D01*
X009481Y005924D01*
X009498Y005914D01*
X009512Y005902D01*
X009524Y005887D01*
X009534Y005871D01*
X009540Y005853D01*
X009544Y005834D01*
X009544Y005815D01*
X009544Y005185D01*
X009545Y005185D02*
X009545Y005166D01*
X009541Y005147D01*
X009535Y005129D01*
X009526Y005113D01*
X009513Y005098D01*
X009499Y005086D01*
X009482Y005076D01*
X009464Y005070D01*
X009446Y005066D01*
X009445Y005067D02*
X008855Y005067D01*
X008855Y005066D02*
X008836Y005070D01*
X008819Y005076D01*
X008802Y005086D01*
X008788Y005098D01*
X008776Y005113D01*
X008766Y005129D01*
X008760Y005147D01*
X008756Y005166D01*
X008756Y005185D01*
X013450Y004475D02*
X013450Y006275D01*
X013452Y006292D01*
X013456Y006309D01*
X013463Y006325D01*
X013473Y006339D01*
X013486Y006352D01*
X013500Y006362D01*
X013516Y006369D01*
X013533Y006373D01*
X013550Y006375D01*
X016250Y006375D01*
X016267Y006373D01*
X016284Y006369D01*
X016300Y006362D01*
X016314Y006352D01*
X016327Y006339D01*
X016337Y006325D01*
X016344Y006309D01*
X016348Y006292D01*
X016350Y006275D01*
X016350Y004475D01*
X016348Y004458D01*
X016344Y004441D01*
X016337Y004425D01*
X016327Y004411D01*
X016314Y004398D01*
X016300Y004388D01*
X016284Y004381D01*
X016267Y004377D01*
X016250Y004375D01*
X013550Y004375D01*
X013533Y004377D01*
X013516Y004381D01*
X013500Y004388D01*
X013486Y004398D01*
X013473Y004411D01*
X013463Y004425D01*
X013456Y004441D01*
X013452Y004458D01*
X013450Y004475D01*
X014300Y005375D02*
X014770Y005375D01*
X015020Y005375D02*
X015500Y005375D01*
X016250Y006500D02*
X013550Y006500D01*
X013533Y006502D01*
X013516Y006506D01*
X013500Y006513D01*
X013486Y006523D01*
X013473Y006536D01*
X013463Y006550D01*
X013456Y006566D01*
X013452Y006583D01*
X013450Y006600D01*
X013450Y008400D01*
X013452Y008417D01*
X013456Y008434D01*
X013463Y008450D01*
X013473Y008464D01*
X013486Y008477D01*
X013500Y008487D01*
X013516Y008494D01*
X013533Y008498D01*
X013550Y008500D01*
X016250Y008500D01*
X016267Y008498D01*
X016284Y008494D01*
X016300Y008487D01*
X016314Y008477D01*
X016327Y008464D01*
X016337Y008450D01*
X016344Y008434D01*
X016348Y008417D01*
X016350Y008400D01*
X016350Y006600D01*
X016348Y006583D01*
X016344Y006566D01*
X016337Y006550D01*
X016327Y006536D01*
X016314Y006523D01*
X016300Y006513D01*
X016284Y006506D01*
X016267Y006502D01*
X016250Y006500D01*
X015500Y007500D02*
X015030Y007500D01*
X014780Y007500D02*
X014300Y007500D01*
X026717Y008955D02*
X026717Y009545D01*
X026716Y009545D02*
X026720Y009564D01*
X026726Y009581D01*
X026736Y009598D01*
X026748Y009612D01*
X026763Y009624D01*
X026779Y009634D01*
X026797Y009640D01*
X026816Y009644D01*
X026835Y009644D01*
X027465Y009644D01*
X027484Y009644D01*
X027503Y009640D01*
X027521Y009634D01*
X027537Y009624D01*
X027552Y009612D01*
X027564Y009598D01*
X027574Y009581D01*
X027580Y009564D01*
X027584Y009545D01*
X027583Y009545D02*
X027583Y008955D01*
X027584Y008955D02*
X027580Y008936D01*
X027574Y008919D01*
X027564Y008902D01*
X027552Y008888D01*
X027537Y008876D01*
X027521Y008866D01*
X027503Y008860D01*
X027484Y008856D01*
X027465Y008856D01*
X026835Y008856D01*
X026835Y008855D02*
X026816Y008855D01*
X026797Y008859D01*
X026779Y008865D01*
X026763Y008874D01*
X026748Y008887D01*
X026736Y008901D01*
X026726Y008918D01*
X026720Y008936D01*
X026716Y008954D01*
X025675Y005500D02*
X025677Y005573D01*
X025683Y005646D01*
X025693Y005718D01*
X025707Y005790D01*
X025724Y005861D01*
X025746Y005931D01*
X025771Y006000D01*
X025800Y006067D01*
X025832Y006132D01*
X025868Y006196D01*
X025908Y006258D01*
X025950Y006317D01*
X025996Y006374D01*
X026045Y006428D01*
X026097Y006480D01*
X026151Y006529D01*
X026208Y006575D01*
X026267Y006617D01*
X026329Y006657D01*
X026393Y006693D01*
X026458Y006725D01*
X026525Y006754D01*
X026594Y006779D01*
X026664Y006801D01*
X026735Y006818D01*
X026807Y006832D01*
X026879Y006842D01*
X026952Y006848D01*
X027025Y006850D01*
X027098Y006848D01*
X027171Y006842D01*
X027243Y006832D01*
X027315Y006818D01*
X027386Y006801D01*
X027456Y006779D01*
X027525Y006754D01*
X027592Y006725D01*
X027657Y006693D01*
X027721Y006657D01*
X027783Y006617D01*
X027842Y006575D01*
X027899Y006529D01*
X027953Y006480D01*
X028005Y006428D01*
X028054Y006374D01*
X028100Y006317D01*
X028142Y006258D01*
X028182Y006196D01*
X028218Y006132D01*
X028250Y006067D01*
X028279Y006000D01*
X028304Y005931D01*
X028326Y005861D01*
X028343Y005790D01*
X028357Y005718D01*
X028367Y005646D01*
X028373Y005573D01*
X028375Y005500D01*
X028373Y005427D01*
X028367Y005354D01*
X028357Y005282D01*
X028343Y005210D01*
X028326Y005139D01*
X028304Y005069D01*
X028279Y005000D01*
X028250Y004933D01*
X028218Y004868D01*
X028182Y004804D01*
X028142Y004742D01*
X028100Y004683D01*
X028054Y004626D01*
X028005Y004572D01*
X027953Y004520D01*
X027899Y004471D01*
X027842Y004425D01*
X027783Y004383D01*
X027721Y004343D01*
X027657Y004307D01*
X027592Y004275D01*
X027525Y004246D01*
X027456Y004221D01*
X027386Y004199D01*
X027315Y004182D01*
X027243Y004168D01*
X027171Y004158D01*
X027098Y004152D01*
X027025Y004150D01*
X026952Y004152D01*
X026879Y004158D01*
X026807Y004168D01*
X026735Y004182D01*
X026664Y004199D01*
X026594Y004221D01*
X026525Y004246D01*
X026458Y004275D01*
X026393Y004307D01*
X026329Y004343D01*
X026267Y004383D01*
X026208Y004425D01*
X026151Y004471D01*
X026097Y004520D01*
X026045Y004572D01*
X025996Y004626D01*
X025950Y004683D01*
X025908Y004742D01*
X025868Y004804D01*
X025832Y004868D01*
X025800Y004933D01*
X025771Y005000D01*
X025746Y005069D01*
X025724Y005139D01*
X025707Y005210D01*
X025693Y005282D01*
X025683Y005354D01*
X025677Y005427D01*
X025675Y005500D01*
X025675Y019000D02*
X025677Y019073D01*
X025683Y019146D01*
X025693Y019218D01*
X025707Y019290D01*
X025724Y019361D01*
X025746Y019431D01*
X025771Y019500D01*
X025800Y019567D01*
X025832Y019632D01*
X025868Y019696D01*
X025908Y019758D01*
X025950Y019817D01*
X025996Y019874D01*
X026045Y019928D01*
X026097Y019980D01*
X026151Y020029D01*
X026208Y020075D01*
X026267Y020117D01*
X026329Y020157D01*
X026393Y020193D01*
X026458Y020225D01*
X026525Y020254D01*
X026594Y020279D01*
X026664Y020301D01*
X026735Y020318D01*
X026807Y020332D01*
X026879Y020342D01*
X026952Y020348D01*
X027025Y020350D01*
X027098Y020348D01*
X027171Y020342D01*
X027243Y020332D01*
X027315Y020318D01*
X027386Y020301D01*
X027456Y020279D01*
X027525Y020254D01*
X027592Y020225D01*
X027657Y020193D01*
X027721Y020157D01*
X027783Y020117D01*
X027842Y020075D01*
X027899Y020029D01*
X027953Y019980D01*
X028005Y019928D01*
X028054Y019874D01*
X028100Y019817D01*
X028142Y019758D01*
X028182Y019696D01*
X028218Y019632D01*
X028250Y019567D01*
X028279Y019500D01*
X028304Y019431D01*
X028326Y019361D01*
X028343Y019290D01*
X028357Y019218D01*
X028367Y019146D01*
X028373Y019073D01*
X028375Y019000D01*
X028373Y018927D01*
X028367Y018854D01*
X028357Y018782D01*
X028343Y018710D01*
X028326Y018639D01*
X028304Y018569D01*
X028279Y018500D01*
X028250Y018433D01*
X028218Y018368D01*
X028182Y018304D01*
X028142Y018242D01*
X028100Y018183D01*
X028054Y018126D01*
X028005Y018072D01*
X027953Y018020D01*
X027899Y017971D01*
X027842Y017925D01*
X027783Y017883D01*
X027721Y017843D01*
X027657Y017807D01*
X027592Y017775D01*
X027525Y017746D01*
X027456Y017721D01*
X027386Y017699D01*
X027315Y017682D01*
X027243Y017668D01*
X027171Y017658D01*
X027098Y017652D01*
X027025Y017650D01*
X026952Y017652D01*
X026879Y017658D01*
X026807Y017668D01*
X026735Y017682D01*
X026664Y017699D01*
X026594Y017721D01*
X026525Y017746D01*
X026458Y017775D01*
X026393Y017807D01*
X026329Y017843D01*
X026267Y017883D01*
X026208Y017925D01*
X026151Y017971D01*
X026097Y018020D01*
X026045Y018072D01*
X025996Y018126D01*
X025950Y018183D01*
X025908Y018242D01*
X025868Y018304D01*
X025832Y018368D01*
X025800Y018433D01*
X025771Y018500D01*
X025746Y018569D01*
X025724Y018639D01*
X025707Y018710D01*
X025693Y018782D01*
X025683Y018854D01*
X025677Y018927D01*
X025675Y019000D01*
D12*
X020975Y015487D02*
X017825Y015487D01*
X017825Y010763D01*
X020975Y010763D01*
X020975Y015487D01*
X011975Y015487D02*
X011975Y010763D01*
X008825Y010763D01*
X008825Y015487D01*
X011975Y015487D01*
D13*
X002106Y019000D02*
X002108Y019051D01*
X002114Y019102D01*
X002124Y019152D01*
X002137Y019202D01*
X002155Y019250D01*
X002175Y019297D01*
X002200Y019342D01*
X002228Y019385D01*
X002259Y019426D01*
X002293Y019464D01*
X002330Y019499D01*
X002369Y019532D01*
X002411Y019562D01*
X002455Y019588D01*
X002501Y019610D01*
X002549Y019630D01*
X002598Y019645D01*
X002648Y019657D01*
X002698Y019665D01*
X002749Y019669D01*
X002801Y019669D01*
X002852Y019665D01*
X002902Y019657D01*
X002952Y019645D01*
X003001Y019630D01*
X003049Y019610D01*
X003095Y019588D01*
X003139Y019562D01*
X003181Y019532D01*
X003220Y019499D01*
X003257Y019464D01*
X003291Y019426D01*
X003322Y019385D01*
X003350Y019342D01*
X003375Y019297D01*
X003395Y019250D01*
X003413Y019202D01*
X003426Y019152D01*
X003436Y019102D01*
X003442Y019051D01*
X003444Y019000D01*
X003442Y018949D01*
X003436Y018898D01*
X003426Y018848D01*
X003413Y018798D01*
X003395Y018750D01*
X003375Y018703D01*
X003350Y018658D01*
X003322Y018615D01*
X003291Y018574D01*
X003257Y018536D01*
X003220Y018501D01*
X003181Y018468D01*
X003139Y018438D01*
X003095Y018412D01*
X003049Y018390D01*
X003001Y018370D01*
X002952Y018355D01*
X002902Y018343D01*
X002852Y018335D01*
X002801Y018331D01*
X002749Y018331D01*
X002698Y018335D01*
X002648Y018343D01*
X002598Y018355D01*
X002549Y018370D01*
X002501Y018390D01*
X002455Y018412D01*
X002411Y018438D01*
X002369Y018468D01*
X002330Y018501D01*
X002293Y018536D01*
X002259Y018574D01*
X002228Y018615D01*
X002200Y018658D01*
X002175Y018703D01*
X002155Y018750D01*
X002137Y018798D01*
X002124Y018848D01*
X002114Y018898D01*
X002108Y018949D01*
X002106Y019000D01*
X002106Y005500D02*
X002108Y005551D01*
X002114Y005602D01*
X002124Y005652D01*
X002137Y005702D01*
X002155Y005750D01*
X002175Y005797D01*
X002200Y005842D01*
X002228Y005885D01*
X002259Y005926D01*
X002293Y005964D01*
X002330Y005999D01*
X002369Y006032D01*
X002411Y006062D01*
X002455Y006088D01*
X002501Y006110D01*
X002549Y006130D01*
X002598Y006145D01*
X002648Y006157D01*
X002698Y006165D01*
X002749Y006169D01*
X002801Y006169D01*
X002852Y006165D01*
X002902Y006157D01*
X002952Y006145D01*
X003001Y006130D01*
X003049Y006110D01*
X003095Y006088D01*
X003139Y006062D01*
X003181Y006032D01*
X003220Y005999D01*
X003257Y005964D01*
X003291Y005926D01*
X003322Y005885D01*
X003350Y005842D01*
X003375Y005797D01*
X003395Y005750D01*
X003413Y005702D01*
X003426Y005652D01*
X003436Y005602D01*
X003442Y005551D01*
X003444Y005500D01*
X003442Y005449D01*
X003436Y005398D01*
X003426Y005348D01*
X003413Y005298D01*
X003395Y005250D01*
X003375Y005203D01*
X003350Y005158D01*
X003322Y005115D01*
X003291Y005074D01*
X003257Y005036D01*
X003220Y005001D01*
X003181Y004968D01*
X003139Y004938D01*
X003095Y004912D01*
X003049Y004890D01*
X003001Y004870D01*
X002952Y004855D01*
X002902Y004843D01*
X002852Y004835D01*
X002801Y004831D01*
X002749Y004831D01*
X002698Y004835D01*
X002648Y004843D01*
X002598Y004855D01*
X002549Y004870D01*
X002501Y004890D01*
X002455Y004912D01*
X002411Y004938D01*
X002369Y004968D01*
X002330Y005001D01*
X002293Y005036D01*
X002259Y005074D01*
X002228Y005115D01*
X002200Y005158D01*
X002175Y005203D01*
X002155Y005250D01*
X002137Y005298D01*
X002124Y005348D01*
X002114Y005398D01*
X002108Y005449D01*
X002106Y005500D01*
X026356Y005500D02*
X026358Y005551D01*
X026364Y005602D01*
X026374Y005652D01*
X026387Y005702D01*
X026405Y005750D01*
X026425Y005797D01*
X026450Y005842D01*
X026478Y005885D01*
X026509Y005926D01*
X026543Y005964D01*
X026580Y005999D01*
X026619Y006032D01*
X026661Y006062D01*
X026705Y006088D01*
X026751Y006110D01*
X026799Y006130D01*
X026848Y006145D01*
X026898Y006157D01*
X026948Y006165D01*
X026999Y006169D01*
X027051Y006169D01*
X027102Y006165D01*
X027152Y006157D01*
X027202Y006145D01*
X027251Y006130D01*
X027299Y006110D01*
X027345Y006088D01*
X027389Y006062D01*
X027431Y006032D01*
X027470Y005999D01*
X027507Y005964D01*
X027541Y005926D01*
X027572Y005885D01*
X027600Y005842D01*
X027625Y005797D01*
X027645Y005750D01*
X027663Y005702D01*
X027676Y005652D01*
X027686Y005602D01*
X027692Y005551D01*
X027694Y005500D01*
X027692Y005449D01*
X027686Y005398D01*
X027676Y005348D01*
X027663Y005298D01*
X027645Y005250D01*
X027625Y005203D01*
X027600Y005158D01*
X027572Y005115D01*
X027541Y005074D01*
X027507Y005036D01*
X027470Y005001D01*
X027431Y004968D01*
X027389Y004938D01*
X027345Y004912D01*
X027299Y004890D01*
X027251Y004870D01*
X027202Y004855D01*
X027152Y004843D01*
X027102Y004835D01*
X027051Y004831D01*
X026999Y004831D01*
X026948Y004835D01*
X026898Y004843D01*
X026848Y004855D01*
X026799Y004870D01*
X026751Y004890D01*
X026705Y004912D01*
X026661Y004938D01*
X026619Y004968D01*
X026580Y005001D01*
X026543Y005036D01*
X026509Y005074D01*
X026478Y005115D01*
X026450Y005158D01*
X026425Y005203D01*
X026405Y005250D01*
X026387Y005298D01*
X026374Y005348D01*
X026364Y005398D01*
X026358Y005449D01*
X026356Y005500D01*
X026356Y019000D02*
X026358Y019051D01*
X026364Y019102D01*
X026374Y019152D01*
X026387Y019202D01*
X026405Y019250D01*
X026425Y019297D01*
X026450Y019342D01*
X026478Y019385D01*
X026509Y019426D01*
X026543Y019464D01*
X026580Y019499D01*
X026619Y019532D01*
X026661Y019562D01*
X026705Y019588D01*
X026751Y019610D01*
X026799Y019630D01*
X026848Y019645D01*
X026898Y019657D01*
X026948Y019665D01*
X026999Y019669D01*
X027051Y019669D01*
X027102Y019665D01*
X027152Y019657D01*
X027202Y019645D01*
X027251Y019630D01*
X027299Y019610D01*
X027345Y019588D01*
X027389Y019562D01*
X027431Y019532D01*
X027470Y019499D01*
X027507Y019464D01*
X027541Y019426D01*
X027572Y019385D01*
X027600Y019342D01*
X027625Y019297D01*
X027645Y019250D01*
X027663Y019202D01*
X027676Y019152D01*
X027686Y019102D01*
X027692Y019051D01*
X027694Y019000D01*
X027692Y018949D01*
X027686Y018898D01*
X027676Y018848D01*
X027663Y018798D01*
X027645Y018750D01*
X027625Y018703D01*
X027600Y018658D01*
X027572Y018615D01*
X027541Y018574D01*
X027507Y018536D01*
X027470Y018501D01*
X027431Y018468D01*
X027389Y018438D01*
X027345Y018412D01*
X027299Y018390D01*
X027251Y018370D01*
X027202Y018355D01*
X027152Y018343D01*
X027102Y018335D01*
X027051Y018331D01*
X026999Y018331D01*
X026948Y018335D01*
X026898Y018343D01*
X026848Y018355D01*
X026799Y018370D01*
X026751Y018390D01*
X026705Y018412D01*
X026661Y018438D01*
X026619Y018468D01*
X026580Y018501D01*
X026543Y018536D01*
X026509Y018574D01*
X026478Y018615D01*
X026450Y018658D01*
X026425Y018703D01*
X026405Y018750D01*
X026387Y018798D01*
X026374Y018848D01*
X026364Y018898D01*
X026358Y018949D01*
X026356Y019000D01*
D14*
X026006Y014739D02*
X024786Y014739D01*
X024786Y012416D01*
X025691Y011511D01*
X026006Y011511D01*
X026794Y011511D02*
X027109Y011511D01*
X028014Y012416D01*
X028014Y014739D01*
X026794Y014739D01*
X026046Y014641D02*
X025969Y014621D01*
X025894Y014598D01*
X025820Y014570D01*
X025748Y014539D01*
X025677Y014504D01*
X025608Y014466D01*
X025542Y014424D01*
X025477Y014379D01*
X025415Y014331D01*
X025355Y014279D01*
X025298Y014225D01*
X025244Y014168D01*
X025192Y014108D01*
X025144Y014046D01*
X025099Y013981D01*
X025058Y013914D01*
X025020Y013845D01*
X024985Y013774D01*
X024954Y013702D01*
X024926Y013628D01*
X024903Y013553D01*
X024883Y013477D01*
X024867Y013399D01*
X024855Y013321D01*
X024847Y013243D01*
X024843Y013164D01*
X024843Y013086D01*
X024847Y013007D01*
X024855Y012929D01*
X024867Y012851D01*
X024883Y012773D01*
X024903Y012697D01*
X024926Y012622D01*
X024954Y012548D01*
X024985Y012476D01*
X025020Y012405D01*
X025058Y012336D01*
X025099Y012269D01*
X025144Y012204D01*
X025192Y012142D01*
X025244Y012082D01*
X025298Y012025D01*
X025355Y011971D01*
X025415Y011919D01*
X025477Y011871D01*
X025542Y011826D01*
X025608Y011784D01*
X025677Y011746D01*
X025748Y011711D01*
X025820Y011680D01*
X025894Y011652D01*
X025969Y011629D01*
X026046Y011609D01*
X024514Y012416D02*
X023609Y011511D01*
X023294Y011511D01*
X022506Y011511D02*
X022191Y011511D01*
X021286Y012416D01*
X021286Y014739D01*
X022506Y014739D01*
X023294Y014739D02*
X024514Y014739D01*
X024514Y012416D01*
X023254Y011609D02*
X023331Y011629D01*
X023406Y011652D01*
X023480Y011680D01*
X023552Y011711D01*
X023623Y011746D01*
X023692Y011784D01*
X023758Y011826D01*
X023823Y011871D01*
X023885Y011919D01*
X023945Y011971D01*
X024002Y012025D01*
X024056Y012082D01*
X024108Y012142D01*
X024156Y012204D01*
X024201Y012269D01*
X024242Y012336D01*
X024280Y012405D01*
X024315Y012476D01*
X024346Y012548D01*
X024374Y012622D01*
X024397Y012697D01*
X024417Y012773D01*
X024433Y012851D01*
X024445Y012929D01*
X024453Y013007D01*
X024457Y013086D01*
X024457Y013164D01*
X024453Y013243D01*
X024445Y013321D01*
X024433Y013399D01*
X024417Y013477D01*
X024397Y013553D01*
X024374Y013628D01*
X024346Y013702D01*
X024315Y013774D01*
X024280Y013845D01*
X024242Y013914D01*
X024201Y013981D01*
X024156Y014046D01*
X024108Y014108D01*
X024056Y014168D01*
X024002Y014225D01*
X023945Y014279D01*
X023885Y014331D01*
X023823Y014379D01*
X023758Y014424D01*
X023692Y014466D01*
X023623Y014504D01*
X023552Y014539D01*
X023480Y014570D01*
X023406Y014598D01*
X023331Y014621D01*
X023254Y014641D01*
X022546Y014641D02*
X022469Y014621D01*
X022394Y014598D01*
X022320Y014570D01*
X022248Y014539D01*
X022177Y014504D01*
X022108Y014466D01*
X022042Y014424D01*
X021977Y014379D01*
X021915Y014331D01*
X021855Y014279D01*
X021798Y014225D01*
X021744Y014168D01*
X021692Y014108D01*
X021644Y014046D01*
X021599Y013981D01*
X021558Y013914D01*
X021520Y013845D01*
X021485Y013774D01*
X021454Y013702D01*
X021426Y013628D01*
X021403Y013553D01*
X021383Y013477D01*
X021367Y013399D01*
X021355Y013321D01*
X021347Y013243D01*
X021343Y013164D01*
X021343Y013086D01*
X021347Y013007D01*
X021355Y012929D01*
X021367Y012851D01*
X021383Y012773D01*
X021403Y012697D01*
X021426Y012622D01*
X021454Y012548D01*
X021485Y012476D01*
X021520Y012405D01*
X021558Y012336D01*
X021599Y012269D01*
X021644Y012204D01*
X021692Y012142D01*
X021744Y012082D01*
X021798Y012025D01*
X021855Y011971D01*
X021915Y011919D01*
X021977Y011871D01*
X022042Y011826D01*
X022108Y011784D01*
X022177Y011746D01*
X022248Y011711D01*
X022320Y011680D01*
X022394Y011652D01*
X022469Y011629D01*
X022546Y011609D01*
X022506Y009739D02*
X021286Y009739D01*
X021286Y007416D01*
X022191Y006511D01*
X022506Y006511D01*
X023294Y006511D02*
X023609Y006511D01*
X024514Y007416D01*
X024514Y009739D01*
X023294Y009739D01*
X022546Y009641D02*
X022469Y009621D01*
X022394Y009598D01*
X022320Y009570D01*
X022248Y009539D01*
X022177Y009504D01*
X022108Y009466D01*
X022042Y009424D01*
X021977Y009379D01*
X021915Y009331D01*
X021855Y009279D01*
X021798Y009225D01*
X021744Y009168D01*
X021692Y009108D01*
X021644Y009046D01*
X021599Y008981D01*
X021558Y008914D01*
X021520Y008845D01*
X021485Y008774D01*
X021454Y008702D01*
X021426Y008628D01*
X021403Y008553D01*
X021383Y008477D01*
X021367Y008399D01*
X021355Y008321D01*
X021347Y008243D01*
X021343Y008164D01*
X021343Y008086D01*
X021347Y008007D01*
X021355Y007929D01*
X021367Y007851D01*
X021383Y007773D01*
X021403Y007697D01*
X021426Y007622D01*
X021454Y007548D01*
X021485Y007476D01*
X021520Y007405D01*
X021558Y007336D01*
X021599Y007269D01*
X021644Y007204D01*
X021692Y007142D01*
X021744Y007082D01*
X021798Y007025D01*
X021855Y006971D01*
X021915Y006919D01*
X021977Y006871D01*
X022042Y006826D01*
X022108Y006784D01*
X022177Y006746D01*
X022248Y006711D01*
X022320Y006680D01*
X022394Y006652D01*
X022469Y006629D01*
X022546Y006609D01*
X021014Y007416D02*
X020109Y006511D01*
X019794Y006511D01*
X019006Y006511D02*
X018691Y006511D01*
X017786Y007416D01*
X017786Y009739D01*
X019006Y009739D01*
X019794Y009739D02*
X021014Y009739D01*
X021014Y007416D01*
X019754Y006609D02*
X019831Y006629D01*
X019906Y006652D01*
X019980Y006680D01*
X020052Y006711D01*
X020123Y006746D01*
X020192Y006784D01*
X020258Y006826D01*
X020323Y006871D01*
X020385Y006919D01*
X020445Y006971D01*
X020502Y007025D01*
X020556Y007082D01*
X020608Y007142D01*
X020656Y007204D01*
X020701Y007269D01*
X020742Y007336D01*
X020780Y007405D01*
X020815Y007476D01*
X020846Y007548D01*
X020874Y007622D01*
X020897Y007697D01*
X020917Y007773D01*
X020933Y007851D01*
X020945Y007929D01*
X020953Y008007D01*
X020957Y008086D01*
X020957Y008164D01*
X020953Y008243D01*
X020945Y008321D01*
X020933Y008399D01*
X020917Y008477D01*
X020897Y008553D01*
X020874Y008628D01*
X020846Y008702D01*
X020815Y008774D01*
X020780Y008845D01*
X020742Y008914D01*
X020701Y008981D01*
X020656Y009046D01*
X020608Y009108D01*
X020556Y009168D01*
X020502Y009225D01*
X020445Y009279D01*
X020385Y009331D01*
X020323Y009379D01*
X020258Y009424D01*
X020192Y009466D01*
X020123Y009504D01*
X020052Y009539D01*
X019980Y009570D01*
X019906Y009598D01*
X019831Y009621D01*
X019754Y009641D01*
X019046Y009641D02*
X018969Y009621D01*
X018894Y009598D01*
X018820Y009570D01*
X018748Y009539D01*
X018677Y009504D01*
X018608Y009466D01*
X018542Y009424D01*
X018477Y009379D01*
X018415Y009331D01*
X018355Y009279D01*
X018298Y009225D01*
X018244Y009168D01*
X018192Y009108D01*
X018144Y009046D01*
X018099Y008981D01*
X018058Y008914D01*
X018020Y008845D01*
X017985Y008774D01*
X017954Y008702D01*
X017926Y008628D01*
X017903Y008553D01*
X017883Y008477D01*
X017867Y008399D01*
X017855Y008321D01*
X017847Y008243D01*
X017843Y008164D01*
X017843Y008086D01*
X017847Y008007D01*
X017855Y007929D01*
X017867Y007851D01*
X017883Y007773D01*
X017903Y007697D01*
X017926Y007622D01*
X017954Y007548D01*
X017985Y007476D01*
X018020Y007405D01*
X018058Y007336D01*
X018099Y007269D01*
X018144Y007204D01*
X018192Y007142D01*
X018244Y007082D01*
X018298Y007025D01*
X018355Y006971D01*
X018415Y006919D01*
X018477Y006871D01*
X018542Y006826D01*
X018608Y006784D01*
X018677Y006746D01*
X018748Y006711D01*
X018820Y006680D01*
X018894Y006652D01*
X018969Y006629D01*
X019046Y006609D01*
X023254Y006609D02*
X023331Y006629D01*
X023406Y006652D01*
X023480Y006680D01*
X023552Y006711D01*
X023623Y006746D01*
X023692Y006784D01*
X023758Y006826D01*
X023823Y006871D01*
X023885Y006919D01*
X023945Y006971D01*
X024002Y007025D01*
X024056Y007082D01*
X024108Y007142D01*
X024156Y007204D01*
X024201Y007269D01*
X024242Y007336D01*
X024280Y007405D01*
X024315Y007476D01*
X024346Y007548D01*
X024374Y007622D01*
X024397Y007697D01*
X024417Y007773D01*
X024433Y007851D01*
X024445Y007929D01*
X024453Y008007D01*
X024457Y008086D01*
X024457Y008164D01*
X024453Y008243D01*
X024445Y008321D01*
X024433Y008399D01*
X024417Y008477D01*
X024397Y008553D01*
X024374Y008628D01*
X024346Y008702D01*
X024315Y008774D01*
X024280Y008845D01*
X024242Y008914D01*
X024201Y008981D01*
X024156Y009046D01*
X024108Y009108D01*
X024056Y009168D01*
X024002Y009225D01*
X023945Y009279D01*
X023885Y009331D01*
X023823Y009379D01*
X023758Y009424D01*
X023692Y009466D01*
X023623Y009504D01*
X023552Y009539D01*
X023480Y009570D01*
X023406Y009598D01*
X023331Y009621D01*
X023254Y009641D01*
X026754Y011609D02*
X026831Y011629D01*
X026906Y011652D01*
X026980Y011680D01*
X027052Y011711D01*
X027123Y011746D01*
X027192Y011784D01*
X027258Y011826D01*
X027323Y011871D01*
X027385Y011919D01*
X027445Y011971D01*
X027502Y012025D01*
X027556Y012082D01*
X027608Y012142D01*
X027656Y012204D01*
X027701Y012269D01*
X027742Y012336D01*
X027780Y012405D01*
X027815Y012476D01*
X027846Y012548D01*
X027874Y012622D01*
X027897Y012697D01*
X027917Y012773D01*
X027933Y012851D01*
X027945Y012929D01*
X027953Y013007D01*
X027957Y013086D01*
X027957Y013164D01*
X027953Y013243D01*
X027945Y013321D01*
X027933Y013399D01*
X027917Y013477D01*
X027897Y013553D01*
X027874Y013628D01*
X027846Y013702D01*
X027815Y013774D01*
X027780Y013845D01*
X027742Y013914D01*
X027701Y013981D01*
X027656Y014046D01*
X027608Y014108D01*
X027556Y014168D01*
X027502Y014225D01*
X027445Y014279D01*
X027385Y014331D01*
X027323Y014379D01*
X027258Y014424D01*
X027192Y014466D01*
X027123Y014504D01*
X027052Y014539D01*
X026980Y014570D01*
X026906Y014598D01*
X026831Y014621D01*
X026754Y014641D01*
X012014Y009739D02*
X012014Y007416D01*
X011109Y006511D01*
X010794Y006511D01*
X010006Y006511D02*
X009691Y006511D01*
X008786Y007416D01*
X008786Y009739D01*
X010006Y009739D01*
X010794Y009739D02*
X012014Y009739D01*
X010754Y009641D02*
X010831Y009621D01*
X010906Y009598D01*
X010980Y009570D01*
X011052Y009539D01*
X011123Y009504D01*
X011192Y009466D01*
X011258Y009424D01*
X011323Y009379D01*
X011385Y009331D01*
X011445Y009279D01*
X011502Y009225D01*
X011556Y009168D01*
X011608Y009108D01*
X011656Y009046D01*
X011701Y008981D01*
X011742Y008914D01*
X011780Y008845D01*
X011815Y008774D01*
X011846Y008702D01*
X011874Y008628D01*
X011897Y008553D01*
X011917Y008477D01*
X011933Y008399D01*
X011945Y008321D01*
X011953Y008243D01*
X011957Y008164D01*
X011957Y008086D01*
X011953Y008007D01*
X011945Y007929D01*
X011933Y007851D01*
X011917Y007773D01*
X011897Y007697D01*
X011874Y007622D01*
X011846Y007548D01*
X011815Y007476D01*
X011780Y007405D01*
X011742Y007336D01*
X011701Y007269D01*
X011656Y007204D01*
X011608Y007142D01*
X011556Y007082D01*
X011502Y007025D01*
X011445Y006971D01*
X011385Y006919D01*
X011323Y006871D01*
X011258Y006826D01*
X011192Y006784D01*
X011123Y006746D01*
X011052Y006711D01*
X010980Y006680D01*
X010906Y006652D01*
X010831Y006629D01*
X010754Y006609D01*
X010046Y006609D02*
X009969Y006629D01*
X009894Y006652D01*
X009820Y006680D01*
X009748Y006711D01*
X009677Y006746D01*
X009608Y006784D01*
X009542Y006826D01*
X009477Y006871D01*
X009415Y006919D01*
X009355Y006971D01*
X009298Y007025D01*
X009244Y007082D01*
X009192Y007142D01*
X009144Y007204D01*
X009099Y007269D01*
X009058Y007336D01*
X009020Y007405D01*
X008985Y007476D01*
X008954Y007548D01*
X008926Y007622D01*
X008903Y007697D01*
X008883Y007773D01*
X008867Y007851D01*
X008855Y007929D01*
X008847Y008007D01*
X008843Y008086D01*
X008843Y008164D01*
X008847Y008243D01*
X008855Y008321D01*
X008867Y008399D01*
X008883Y008477D01*
X008903Y008553D01*
X008926Y008628D01*
X008954Y008702D01*
X008985Y008774D01*
X009020Y008845D01*
X009058Y008914D01*
X009099Y008981D01*
X009144Y009046D01*
X009192Y009108D01*
X009244Y009168D01*
X009298Y009225D01*
X009355Y009279D01*
X009415Y009331D01*
X009477Y009379D01*
X009542Y009424D01*
X009608Y009466D01*
X009677Y009504D01*
X009748Y009539D01*
X009820Y009570D01*
X009894Y009598D01*
X009969Y009621D01*
X010046Y009641D01*
X008514Y009739D02*
X008514Y007416D01*
X007609Y006511D01*
X007294Y006511D01*
X006506Y006511D02*
X006191Y006511D01*
X005286Y007416D01*
X005286Y009739D01*
X006506Y009739D01*
X007294Y009739D02*
X008514Y009739D01*
X007609Y011511D02*
X007294Y011511D01*
X007609Y011511D02*
X008514Y012416D01*
X008514Y014739D01*
X007294Y014739D01*
X006506Y014739D02*
X005286Y014739D01*
X005286Y012416D01*
X006191Y011511D01*
X006506Y011511D01*
X005014Y012416D02*
X004109Y011511D01*
X003794Y011511D01*
X003006Y011511D02*
X002691Y011511D01*
X001786Y012416D01*
X001786Y014739D01*
X003006Y014739D01*
X003794Y014739D02*
X005014Y014739D01*
X005014Y012416D01*
X003754Y011609D02*
X003831Y011629D01*
X003906Y011652D01*
X003980Y011680D01*
X004052Y011711D01*
X004123Y011746D01*
X004192Y011784D01*
X004258Y011826D01*
X004323Y011871D01*
X004385Y011919D01*
X004445Y011971D01*
X004502Y012025D01*
X004556Y012082D01*
X004608Y012142D01*
X004656Y012204D01*
X004701Y012269D01*
X004742Y012336D01*
X004780Y012405D01*
X004815Y012476D01*
X004846Y012548D01*
X004874Y012622D01*
X004897Y012697D01*
X004917Y012773D01*
X004933Y012851D01*
X004945Y012929D01*
X004953Y013007D01*
X004957Y013086D01*
X004957Y013164D01*
X004953Y013243D01*
X004945Y013321D01*
X004933Y013399D01*
X004917Y013477D01*
X004897Y013553D01*
X004874Y013628D01*
X004846Y013702D01*
X004815Y013774D01*
X004780Y013845D01*
X004742Y013914D01*
X004701Y013981D01*
X004656Y014046D01*
X004608Y014108D01*
X004556Y014168D01*
X004502Y014225D01*
X004445Y014279D01*
X004385Y014331D01*
X004323Y014379D01*
X004258Y014424D01*
X004192Y014466D01*
X004123Y014504D01*
X004052Y014539D01*
X003980Y014570D01*
X003906Y014598D01*
X003831Y014621D01*
X003754Y014641D01*
X003046Y014641D02*
X002969Y014621D01*
X002894Y014598D01*
X002820Y014570D01*
X002748Y014539D01*
X002677Y014504D01*
X002608Y014466D01*
X002542Y014424D01*
X002477Y014379D01*
X002415Y014331D01*
X002355Y014279D01*
X002298Y014225D01*
X002244Y014168D01*
X002192Y014108D01*
X002144Y014046D01*
X002099Y013981D01*
X002058Y013914D01*
X002020Y013845D01*
X001985Y013774D01*
X001954Y013702D01*
X001926Y013628D01*
X001903Y013553D01*
X001883Y013477D01*
X001867Y013399D01*
X001855Y013321D01*
X001847Y013243D01*
X001843Y013164D01*
X001843Y013086D01*
X001847Y013007D01*
X001855Y012929D01*
X001867Y012851D01*
X001883Y012773D01*
X001903Y012697D01*
X001926Y012622D01*
X001954Y012548D01*
X001985Y012476D01*
X002020Y012405D01*
X002058Y012336D01*
X002099Y012269D01*
X002144Y012204D01*
X002192Y012142D01*
X002244Y012082D01*
X002298Y012025D01*
X002355Y011971D01*
X002415Y011919D01*
X002477Y011871D01*
X002542Y011826D01*
X002608Y011784D01*
X002677Y011746D01*
X002748Y011711D01*
X002820Y011680D01*
X002894Y011652D01*
X002969Y011629D01*
X003046Y011609D01*
X006546Y011609D02*
X006469Y011629D01*
X006394Y011652D01*
X006320Y011680D01*
X006248Y011711D01*
X006177Y011746D01*
X006108Y011784D01*
X006042Y011826D01*
X005977Y011871D01*
X005915Y011919D01*
X005855Y011971D01*
X005798Y012025D01*
X005744Y012082D01*
X005692Y012142D01*
X005644Y012204D01*
X005599Y012269D01*
X005558Y012336D01*
X005520Y012405D01*
X005485Y012476D01*
X005454Y012548D01*
X005426Y012622D01*
X005403Y012697D01*
X005383Y012773D01*
X005367Y012851D01*
X005355Y012929D01*
X005347Y013007D01*
X005343Y013086D01*
X005343Y013164D01*
X005347Y013243D01*
X005355Y013321D01*
X005367Y013399D01*
X005383Y013477D01*
X005403Y013553D01*
X005426Y013628D01*
X005454Y013702D01*
X005485Y013774D01*
X005520Y013845D01*
X005558Y013914D01*
X005599Y013981D01*
X005644Y014046D01*
X005692Y014108D01*
X005744Y014168D01*
X005798Y014225D01*
X005855Y014279D01*
X005915Y014331D01*
X005977Y014379D01*
X006042Y014424D01*
X006108Y014466D01*
X006177Y014504D01*
X006248Y014539D01*
X006320Y014570D01*
X006394Y014598D01*
X006469Y014621D01*
X006546Y014641D01*
X007254Y014641D02*
X007331Y014621D01*
X007406Y014598D01*
X007480Y014570D01*
X007552Y014539D01*
X007623Y014504D01*
X007692Y014466D01*
X007758Y014424D01*
X007823Y014379D01*
X007885Y014331D01*
X007945Y014279D01*
X008002Y014225D01*
X008056Y014168D01*
X008108Y014108D01*
X008156Y014046D01*
X008201Y013981D01*
X008242Y013914D01*
X008280Y013845D01*
X008315Y013774D01*
X008346Y013702D01*
X008374Y013628D01*
X008397Y013553D01*
X008417Y013477D01*
X008433Y013399D01*
X008445Y013321D01*
X008453Y013243D01*
X008457Y013164D01*
X008457Y013086D01*
X008453Y013007D01*
X008445Y012929D01*
X008433Y012851D01*
X008417Y012773D01*
X008397Y012697D01*
X008374Y012622D01*
X008346Y012548D01*
X008315Y012476D01*
X008280Y012405D01*
X008242Y012336D01*
X008201Y012269D01*
X008156Y012204D01*
X008108Y012142D01*
X008056Y012082D01*
X008002Y012025D01*
X007945Y011971D01*
X007885Y011919D01*
X007823Y011871D01*
X007758Y011826D01*
X007692Y011784D01*
X007623Y011746D01*
X007552Y011711D01*
X007480Y011680D01*
X007406Y011652D01*
X007331Y011629D01*
X007254Y011609D01*
X006546Y009641D02*
X006469Y009621D01*
X006394Y009598D01*
X006320Y009570D01*
X006248Y009539D01*
X006177Y009504D01*
X006108Y009466D01*
X006042Y009424D01*
X005977Y009379D01*
X005915Y009331D01*
X005855Y009279D01*
X005798Y009225D01*
X005744Y009168D01*
X005692Y009108D01*
X005644Y009046D01*
X005599Y008981D01*
X005558Y008914D01*
X005520Y008845D01*
X005485Y008774D01*
X005454Y008702D01*
X005426Y008628D01*
X005403Y008553D01*
X005383Y008477D01*
X005367Y008399D01*
X005355Y008321D01*
X005347Y008243D01*
X005343Y008164D01*
X005343Y008086D01*
X005347Y008007D01*
X005355Y007929D01*
X005367Y007851D01*
X005383Y007773D01*
X005403Y007697D01*
X005426Y007622D01*
X005454Y007548D01*
X005485Y007476D01*
X005520Y007405D01*
X005558Y007336D01*
X005599Y007269D01*
X005644Y007204D01*
X005692Y007142D01*
X005744Y007082D01*
X005798Y007025D01*
X005855Y006971D01*
X005915Y006919D01*
X005977Y006871D01*
X006042Y006826D01*
X006108Y006784D01*
X006177Y006746D01*
X006248Y006711D01*
X006320Y006680D01*
X006394Y006652D01*
X006469Y006629D01*
X006546Y006609D01*
X007254Y006609D02*
X007331Y006629D01*
X007406Y006652D01*
X007480Y006680D01*
X007552Y006711D01*
X007623Y006746D01*
X007692Y006784D01*
X007758Y006826D01*
X007823Y006871D01*
X007885Y006919D01*
X007945Y006971D01*
X008002Y007025D01*
X008056Y007082D01*
X008108Y007142D01*
X008156Y007204D01*
X008201Y007269D01*
X008242Y007336D01*
X008280Y007405D01*
X008315Y007476D01*
X008346Y007548D01*
X008374Y007622D01*
X008397Y007697D01*
X008417Y007773D01*
X008433Y007851D01*
X008445Y007929D01*
X008453Y008007D01*
X008457Y008086D01*
X008457Y008164D01*
X008453Y008243D01*
X008445Y008321D01*
X008433Y008399D01*
X008417Y008477D01*
X008397Y008553D01*
X008374Y008628D01*
X008346Y008702D01*
X008315Y008774D01*
X008280Y008845D01*
X008242Y008914D01*
X008201Y008981D01*
X008156Y009046D01*
X008108Y009108D01*
X008056Y009168D01*
X008002Y009225D01*
X007945Y009279D01*
X007885Y009331D01*
X007823Y009379D01*
X007758Y009424D01*
X007692Y009466D01*
X007623Y009504D01*
X007552Y009539D01*
X007480Y009570D01*
X007406Y009598D01*
X007331Y009621D01*
X007254Y009641D01*
D15*
X010900Y004750D02*
X010900Y003500D01*
X011250Y003500D01*
X011250Y001050D01*
X011380Y000910D01*
X011400Y000350D02*
X011500Y000150D01*
X011880Y000150D01*
X011920Y000150D01*
X011880Y000150D02*
X012300Y000150D01*
X012400Y000350D01*
X012400Y003500D01*
X012900Y003500D01*
X012900Y004750D01*
X012650Y004750D01*
X012650Y004500D01*
X012150Y004500D01*
X012150Y004750D01*
X011650Y004750D01*
X011650Y004500D01*
X011150Y004500D01*
X011150Y004750D01*
X010900Y004750D01*
X011250Y003500D02*
X012400Y003500D01*
X012550Y003500D02*
X012550Y001050D01*
X012420Y000910D01*
X011400Y000350D02*
X011400Y003500D01*
X016900Y003500D02*
X017250Y003500D01*
X017250Y001050D01*
X017380Y000910D01*
X017400Y000350D02*
X017500Y000150D01*
X017880Y000150D01*
X017920Y000150D01*
X017880Y000150D02*
X018300Y000150D01*
X018400Y000350D01*
X018400Y003500D01*
X018900Y003500D01*
X018900Y004750D01*
X018650Y004750D01*
X018650Y004500D01*
X018150Y004500D01*
X018150Y004750D01*
X017650Y004750D01*
X017650Y004500D01*
X017150Y004500D01*
X017150Y004750D01*
X016900Y004750D01*
X016900Y003500D01*
X017250Y003500D02*
X018400Y003500D01*
X018550Y003500D02*
X018550Y001050D01*
X018420Y000910D01*
X017400Y000350D02*
X017400Y003500D01*
X018400Y019500D02*
X018650Y019500D01*
X018650Y019750D01*
X019150Y019750D01*
X019150Y019500D01*
X019650Y019500D01*
X019650Y019750D01*
X020150Y019750D01*
X020150Y019500D01*
X020400Y019500D01*
X020400Y020750D01*
X020050Y020750D01*
X020050Y023200D01*
X019920Y023340D01*
X019900Y023900D02*
X019800Y024100D01*
X019420Y024100D01*
X019380Y024100D01*
X019420Y024100D02*
X019000Y024100D01*
X018900Y023900D01*
X018900Y020750D01*
X018400Y020750D01*
X018400Y019500D01*
X018750Y020750D02*
X018750Y023200D01*
X018880Y023340D01*
X019900Y023900D02*
X019900Y020750D01*
X020050Y020750D02*
X018900Y020750D01*
X015900Y020750D02*
X015900Y019500D01*
X015650Y019500D01*
X015650Y019750D01*
X015150Y019750D01*
X015150Y019500D01*
X014650Y019500D01*
X014650Y019750D01*
X014150Y019750D01*
X014150Y019500D01*
X013900Y019500D01*
X013900Y020750D01*
X014400Y020750D01*
X014400Y023900D01*
X014500Y024100D01*
X014920Y024100D01*
X014880Y024100D01*
X014920Y024100D02*
X015300Y024100D01*
X015400Y023900D01*
X015400Y020750D01*
X015550Y020750D02*
X015550Y023200D01*
X015420Y023340D01*
X014380Y023340D02*
X014250Y023200D01*
X014250Y020750D01*
X014400Y020750D02*
X015550Y020750D01*
X015900Y020750D01*
X011400Y020750D02*
X011400Y019500D01*
X011150Y019500D01*
X011150Y019750D01*
X010650Y019750D01*
X010650Y019500D01*
X010150Y019500D01*
X010150Y019750D01*
X009650Y019750D01*
X009650Y019500D01*
X009400Y019500D01*
X009400Y020750D01*
X009900Y020750D01*
X009900Y023900D01*
X010000Y024100D01*
X010420Y024100D01*
X010380Y024100D01*
X010420Y024100D02*
X010800Y024100D01*
X010900Y023900D01*
X010900Y020750D01*
X011050Y020750D02*
X011050Y023200D01*
X010920Y023340D01*
X009880Y023340D02*
X009750Y023200D01*
X009750Y020750D01*
X009900Y020750D02*
X011050Y020750D01*
X011400Y020750D01*
D16*
X011036Y020361D02*
X011036Y020074D01*
X010749Y020361D01*
X010677Y020361D01*
X010605Y020290D01*
X010605Y020146D01*
X010677Y020074D01*
X010056Y020124D02*
X010056Y020411D01*
X010056Y020268D02*
X009625Y020268D01*
X009769Y020124D01*
X014125Y020268D02*
X014556Y020268D01*
X014556Y020411D02*
X014556Y020124D01*
X014269Y020124D02*
X014125Y020268D01*
X015105Y020290D02*
X015105Y020146D01*
X015177Y020074D01*
X015105Y020290D02*
X015177Y020361D01*
X015249Y020361D01*
X015536Y020074D01*
X015536Y020361D01*
X018625Y020268D02*
X018769Y020124D01*
X018625Y020268D02*
X019056Y020268D01*
X019056Y020411D02*
X019056Y020124D01*
X019605Y020146D02*
X019677Y020074D01*
X019605Y020146D02*
X019605Y020290D01*
X019677Y020361D01*
X019749Y020361D01*
X020036Y020074D01*
X020036Y020361D01*
X018674Y004022D02*
X018674Y003735D01*
X018674Y003879D02*
X018244Y003879D01*
X018387Y003735D01*
X017694Y003785D02*
X017407Y004072D01*
X017336Y004072D01*
X017264Y004000D01*
X017264Y003857D01*
X017336Y003785D01*
X017694Y003785D02*
X017694Y004072D01*
X012674Y004022D02*
X012674Y003735D01*
X012674Y003879D02*
X012244Y003879D01*
X012387Y003735D01*
X011694Y003785D02*
X011407Y004072D01*
X011336Y004072D01*
X011264Y004000D01*
X011264Y003857D01*
X011336Y003785D01*
X011694Y003785D02*
X011694Y004072D01*
D17*
X006948Y004763D02*
X006701Y004763D01*
X006825Y004640D02*
X006825Y004887D01*
D18*
X005966Y004889D03*
X005966Y005361D03*
D19*
X005966Y005125D03*
M02*
