%
M48
M72
T01C0.0118
T02C0.0197
T03C0.0315
T04C0.0320
T05C0.0400
T06C0.1260
%
T01
X26400Y10500
T02
X21275Y7875
X21275Y7500
X21275Y7125
X20900Y7125
X20900Y7500
X20525Y7500
X20525Y7125
X20525Y7875
X20900Y7875
X15680Y11363
X15180Y11387
X15168Y11863
X15680Y11875
X14668Y11887
X14156Y11875
X14156Y11363
X14668Y11375
X13025Y12250
X12650Y12250
X12650Y12625
X13025Y12625
X12900Y13375
X12900Y13750
X12525Y13750
X12525Y13375
X12525Y14500
X12525Y15750
X13400Y15750
X15025Y14875
X15400Y14875
X15400Y14500
X15025Y14500
X15650Y15750
X15650Y16125
X15650Y16500
X16900Y18500
X16900Y18875
X17275Y18875
X17275Y18500
X17275Y13750
X17275Y13375
X16900Y13375
X16900Y13750
X16775Y12625
X17150Y12625
X17150Y12250
X16775Y12250
X9275Y7875
X8900Y7875
X8525Y7875
X8525Y7500
X8525Y7125
X8900Y7125
X8900Y7500
X9275Y7500
X9275Y7125
T03
X9691Y11747
X11069Y14503
X18691Y11747
X20069Y14503
T04
X20400Y16875
X21525Y16875
X23525Y16875
X18400Y16875
X11400Y16875
X9400Y16875
X8150Y16875
X6150Y16875
X13900Y7500
X15900Y7500
X15900Y5375
X13900Y5375
T05
X12400Y5500
X11400Y5500
X17400Y5500
X18400Y5500
X18900Y18750
X19900Y18750
X15400Y18750
X14400Y18750
X10900Y18750
X9900Y18750
T06
X2775Y5500
X2775Y19000
X27025Y19000
X27025Y5500
M30
