G75*
G70*
%OFA0B0*%
%FSLAX24Y24*%
%IPPOS*%
%LPD*%
%AMOC8*
5,1,8,0,0,1.08239X$1,22.5*
%
%ADD10C,0.0000*%
%ADD11R,0.0157X0.0276*%
%ADD12R,0.0551X0.0354*%
%ADD13R,0.0220X0.0500*%
%ADD14R,0.0500X0.0220*%
%ADD15C,0.0252*%
%ADD16C,0.0035*%
%ADD17R,0.0512X0.0591*%
%ADD18R,0.0630X0.0512*%
%ADD19R,0.0600X0.0600*%
%ADD20C,0.0600*%
%ADD21R,0.0500X0.0250*%
%ADD22R,0.0250X0.0500*%
%ADD23R,0.0276X0.0669*%
%ADD24R,0.0260X0.0800*%
%ADD25C,0.0594*%
%ADD26R,0.0740X0.0740*%
%ADD27OC8,0.0740*%
%ADD28C,0.0740*%
%ADD29R,0.0512X0.0630*%
%ADD30R,0.0394X0.0591*%
%ADD31C,0.0394*%
%ADD32R,0.0354X0.0315*%
%ADD33R,0.0315X0.0354*%
%ADD34R,0.0984X0.0866*%
%ADD35R,0.0197X0.0787*%
%ADD36R,0.0472X0.1260*%
%ADD37R,0.0866X0.2205*%
%ADD38R,0.1063X0.0630*%
%ADD39C,0.0650*%
%ADD40R,0.0472X0.0472*%
%ADD41R,0.0591X0.0512*%
%ADD42C,0.0100*%
%ADD43OC8,0.0278*%
%ADD44C,0.0320*%
%ADD45OC8,0.0357*%
%ADD46C,0.0240*%
%ADD47C,0.0400*%
%ADD48C,0.0500*%
%ADD49C,0.0160*%
%ADD50C,0.0560*%
%ADD51C,0.0120*%
D10*
X004525Y003150D02*
X028767Y003150D01*
X028839Y003152D01*
X028911Y003158D01*
X028982Y003167D01*
X029053Y003180D01*
X029123Y003197D01*
X029192Y003217D01*
X029260Y003241D01*
X029326Y003269D01*
X029391Y003300D01*
X029455Y003334D01*
X029516Y003372D01*
X029575Y003413D01*
X029632Y003456D01*
X029687Y003503D01*
X029739Y003553D01*
X029789Y003605D01*
X029836Y003660D01*
X029879Y003717D01*
X029920Y003776D01*
X029958Y003838D01*
X029992Y003901D01*
X030023Y003966D01*
X030051Y004032D01*
X030075Y004100D01*
X030095Y004169D01*
X030112Y004239D01*
X030125Y004310D01*
X030134Y004381D01*
X030140Y004453D01*
X030142Y004525D01*
X030142Y018020D01*
X028145Y018025D02*
X028147Y018075D01*
X028153Y018125D01*
X028163Y018174D01*
X028177Y018222D01*
X028194Y018269D01*
X028215Y018314D01*
X028240Y018358D01*
X028268Y018399D01*
X028300Y018438D01*
X028334Y018475D01*
X028371Y018509D01*
X028411Y018539D01*
X028453Y018566D01*
X028497Y018590D01*
X028543Y018611D01*
X028590Y018627D01*
X028638Y018640D01*
X028688Y018649D01*
X028737Y018654D01*
X028788Y018655D01*
X028838Y018652D01*
X028887Y018645D01*
X028936Y018634D01*
X028984Y018619D01*
X029030Y018601D01*
X029075Y018579D01*
X029118Y018553D01*
X029159Y018524D01*
X029198Y018492D01*
X029234Y018457D01*
X029266Y018419D01*
X029296Y018379D01*
X029323Y018336D01*
X029346Y018292D01*
X029365Y018246D01*
X029381Y018198D01*
X029393Y018149D01*
X029401Y018100D01*
X029405Y018050D01*
X029405Y018000D01*
X029401Y017950D01*
X029393Y017901D01*
X029381Y017852D01*
X029365Y017804D01*
X029346Y017758D01*
X029323Y017714D01*
X029296Y017671D01*
X029266Y017631D01*
X029234Y017593D01*
X029198Y017558D01*
X029159Y017526D01*
X029118Y017497D01*
X029075Y017471D01*
X029030Y017449D01*
X028984Y017431D01*
X028936Y017416D01*
X028887Y017405D01*
X028838Y017398D01*
X028788Y017395D01*
X028737Y017396D01*
X028688Y017401D01*
X028638Y017410D01*
X028590Y017423D01*
X028543Y017439D01*
X028497Y017460D01*
X028453Y017484D01*
X028411Y017511D01*
X028371Y017541D01*
X028334Y017575D01*
X028300Y017612D01*
X028268Y017651D01*
X028240Y017692D01*
X028215Y017736D01*
X028194Y017781D01*
X028177Y017828D01*
X028163Y017876D01*
X028153Y017925D01*
X028147Y017975D01*
X028145Y018025D01*
X028767Y019395D02*
X028839Y019393D01*
X028911Y019387D01*
X028982Y019378D01*
X029053Y019365D01*
X029123Y019348D01*
X029192Y019328D01*
X029260Y019304D01*
X029326Y019276D01*
X029391Y019245D01*
X029455Y019211D01*
X029516Y019173D01*
X029575Y019132D01*
X029632Y019089D01*
X029687Y019042D01*
X029739Y018992D01*
X029789Y018940D01*
X029836Y018885D01*
X029879Y018828D01*
X029920Y018769D01*
X029958Y018708D01*
X029992Y018644D01*
X030023Y018579D01*
X030051Y018513D01*
X030075Y018445D01*
X030095Y018376D01*
X030112Y018306D01*
X030125Y018235D01*
X030134Y018164D01*
X030140Y018092D01*
X030142Y018020D01*
X028767Y019395D02*
X004525Y019395D01*
X003895Y018025D02*
X003897Y018075D01*
X003903Y018125D01*
X003913Y018174D01*
X003927Y018222D01*
X003944Y018269D01*
X003965Y018314D01*
X003990Y018358D01*
X004018Y018399D01*
X004050Y018438D01*
X004084Y018475D01*
X004121Y018509D01*
X004161Y018539D01*
X004203Y018566D01*
X004247Y018590D01*
X004293Y018611D01*
X004340Y018627D01*
X004388Y018640D01*
X004438Y018649D01*
X004487Y018654D01*
X004538Y018655D01*
X004588Y018652D01*
X004637Y018645D01*
X004686Y018634D01*
X004734Y018619D01*
X004780Y018601D01*
X004825Y018579D01*
X004868Y018553D01*
X004909Y018524D01*
X004948Y018492D01*
X004984Y018457D01*
X005016Y018419D01*
X005046Y018379D01*
X005073Y018336D01*
X005096Y018292D01*
X005115Y018246D01*
X005131Y018198D01*
X005143Y018149D01*
X005151Y018100D01*
X005155Y018050D01*
X005155Y018000D01*
X005151Y017950D01*
X005143Y017901D01*
X005131Y017852D01*
X005115Y017804D01*
X005096Y017758D01*
X005073Y017714D01*
X005046Y017671D01*
X005016Y017631D01*
X004984Y017593D01*
X004948Y017558D01*
X004909Y017526D01*
X004868Y017497D01*
X004825Y017471D01*
X004780Y017449D01*
X004734Y017431D01*
X004686Y017416D01*
X004637Y017405D01*
X004588Y017398D01*
X004538Y017395D01*
X004487Y017396D01*
X004438Y017401D01*
X004388Y017410D01*
X004340Y017423D01*
X004293Y017439D01*
X004247Y017460D01*
X004203Y017484D01*
X004161Y017511D01*
X004121Y017541D01*
X004084Y017575D01*
X004050Y017612D01*
X004018Y017651D01*
X003990Y017692D01*
X003965Y017736D01*
X003944Y017781D01*
X003927Y017828D01*
X003913Y017876D01*
X003903Y017925D01*
X003897Y017975D01*
X003895Y018025D01*
X003150Y018020D02*
X003152Y018092D01*
X003158Y018164D01*
X003167Y018235D01*
X003180Y018306D01*
X003197Y018376D01*
X003217Y018445D01*
X003241Y018513D01*
X003269Y018579D01*
X003300Y018644D01*
X003334Y018708D01*
X003372Y018769D01*
X003413Y018828D01*
X003456Y018885D01*
X003503Y018940D01*
X003553Y018992D01*
X003605Y019042D01*
X003660Y019089D01*
X003717Y019132D01*
X003776Y019173D01*
X003837Y019211D01*
X003901Y019245D01*
X003966Y019276D01*
X004032Y019304D01*
X004100Y019328D01*
X004169Y019348D01*
X004239Y019365D01*
X004310Y019378D01*
X004381Y019387D01*
X004453Y019393D01*
X004525Y019395D01*
X003150Y018020D02*
X003150Y004525D01*
X003895Y004525D02*
X003897Y004575D01*
X003903Y004625D01*
X003913Y004674D01*
X003927Y004722D01*
X003944Y004769D01*
X003965Y004814D01*
X003990Y004858D01*
X004018Y004899D01*
X004050Y004938D01*
X004084Y004975D01*
X004121Y005009D01*
X004161Y005039D01*
X004203Y005066D01*
X004247Y005090D01*
X004293Y005111D01*
X004340Y005127D01*
X004388Y005140D01*
X004438Y005149D01*
X004487Y005154D01*
X004538Y005155D01*
X004588Y005152D01*
X004637Y005145D01*
X004686Y005134D01*
X004734Y005119D01*
X004780Y005101D01*
X004825Y005079D01*
X004868Y005053D01*
X004909Y005024D01*
X004948Y004992D01*
X004984Y004957D01*
X005016Y004919D01*
X005046Y004879D01*
X005073Y004836D01*
X005096Y004792D01*
X005115Y004746D01*
X005131Y004698D01*
X005143Y004649D01*
X005151Y004600D01*
X005155Y004550D01*
X005155Y004500D01*
X005151Y004450D01*
X005143Y004401D01*
X005131Y004352D01*
X005115Y004304D01*
X005096Y004258D01*
X005073Y004214D01*
X005046Y004171D01*
X005016Y004131D01*
X004984Y004093D01*
X004948Y004058D01*
X004909Y004026D01*
X004868Y003997D01*
X004825Y003971D01*
X004780Y003949D01*
X004734Y003931D01*
X004686Y003916D01*
X004637Y003905D01*
X004588Y003898D01*
X004538Y003895D01*
X004487Y003896D01*
X004438Y003901D01*
X004388Y003910D01*
X004340Y003923D01*
X004293Y003939D01*
X004247Y003960D01*
X004203Y003984D01*
X004161Y004011D01*
X004121Y004041D01*
X004084Y004075D01*
X004050Y004112D01*
X004018Y004151D01*
X003990Y004192D01*
X003965Y004236D01*
X003944Y004281D01*
X003927Y004328D01*
X003913Y004376D01*
X003903Y004425D01*
X003897Y004475D01*
X003895Y004525D01*
X003150Y004525D02*
X003152Y004453D01*
X003158Y004381D01*
X003167Y004310D01*
X003180Y004239D01*
X003197Y004169D01*
X003217Y004100D01*
X003241Y004032D01*
X003269Y003966D01*
X003300Y003901D01*
X003334Y003838D01*
X003372Y003776D01*
X003413Y003717D01*
X003456Y003660D01*
X003503Y003605D01*
X003553Y003553D01*
X003605Y003503D01*
X003660Y003456D01*
X003717Y003413D01*
X003776Y003372D01*
X003837Y003334D01*
X003901Y003300D01*
X003966Y003269D01*
X004032Y003241D01*
X004100Y003217D01*
X004169Y003197D01*
X004239Y003180D01*
X004310Y003167D01*
X004381Y003158D01*
X004453Y003152D01*
X004525Y003150D01*
X023508Y004044D02*
X023510Y004073D01*
X023516Y004101D01*
X023525Y004129D01*
X023538Y004155D01*
X023555Y004178D01*
X023574Y004200D01*
X023596Y004219D01*
X023621Y004234D01*
X023647Y004247D01*
X023675Y004255D01*
X023703Y004260D01*
X023732Y004261D01*
X023761Y004258D01*
X023789Y004251D01*
X023816Y004241D01*
X023842Y004227D01*
X023865Y004210D01*
X023886Y004190D01*
X023904Y004167D01*
X023919Y004142D01*
X023930Y004115D01*
X023938Y004087D01*
X023942Y004058D01*
X023942Y004030D01*
X023938Y004001D01*
X023930Y003973D01*
X023919Y003946D01*
X023904Y003921D01*
X023886Y003898D01*
X023865Y003878D01*
X023842Y003861D01*
X023816Y003847D01*
X023789Y003837D01*
X023761Y003830D01*
X023732Y003827D01*
X023703Y003828D01*
X023675Y003833D01*
X023647Y003841D01*
X023621Y003854D01*
X023596Y003869D01*
X023574Y003888D01*
X023555Y003910D01*
X023538Y003933D01*
X023525Y003959D01*
X023516Y003987D01*
X023510Y004015D01*
X023508Y004044D01*
X025358Y004044D02*
X025360Y004073D01*
X025366Y004101D01*
X025375Y004129D01*
X025388Y004155D01*
X025405Y004178D01*
X025424Y004200D01*
X025446Y004219D01*
X025471Y004234D01*
X025497Y004247D01*
X025525Y004255D01*
X025553Y004260D01*
X025582Y004261D01*
X025611Y004258D01*
X025639Y004251D01*
X025666Y004241D01*
X025692Y004227D01*
X025715Y004210D01*
X025736Y004190D01*
X025754Y004167D01*
X025769Y004142D01*
X025780Y004115D01*
X025788Y004087D01*
X025792Y004058D01*
X025792Y004030D01*
X025788Y004001D01*
X025780Y003973D01*
X025769Y003946D01*
X025754Y003921D01*
X025736Y003898D01*
X025715Y003878D01*
X025692Y003861D01*
X025666Y003847D01*
X025639Y003837D01*
X025611Y003830D01*
X025582Y003827D01*
X025553Y003828D01*
X025525Y003833D01*
X025497Y003841D01*
X025471Y003854D01*
X025446Y003869D01*
X025424Y003888D01*
X025405Y003910D01*
X025388Y003933D01*
X025375Y003959D01*
X025366Y003987D01*
X025360Y004015D01*
X025358Y004044D01*
X028145Y004525D02*
X028147Y004575D01*
X028153Y004625D01*
X028163Y004674D01*
X028177Y004722D01*
X028194Y004769D01*
X028215Y004814D01*
X028240Y004858D01*
X028268Y004899D01*
X028300Y004938D01*
X028334Y004975D01*
X028371Y005009D01*
X028411Y005039D01*
X028453Y005066D01*
X028497Y005090D01*
X028543Y005111D01*
X028590Y005127D01*
X028638Y005140D01*
X028688Y005149D01*
X028737Y005154D01*
X028788Y005155D01*
X028838Y005152D01*
X028887Y005145D01*
X028936Y005134D01*
X028984Y005119D01*
X029030Y005101D01*
X029075Y005079D01*
X029118Y005053D01*
X029159Y005024D01*
X029198Y004992D01*
X029234Y004957D01*
X029266Y004919D01*
X029296Y004879D01*
X029323Y004836D01*
X029346Y004792D01*
X029365Y004746D01*
X029381Y004698D01*
X029393Y004649D01*
X029401Y004600D01*
X029405Y004550D01*
X029405Y004500D01*
X029401Y004450D01*
X029393Y004401D01*
X029381Y004352D01*
X029365Y004304D01*
X029346Y004258D01*
X029323Y004214D01*
X029296Y004171D01*
X029266Y004131D01*
X029234Y004093D01*
X029198Y004058D01*
X029159Y004026D01*
X029118Y003997D01*
X029075Y003971D01*
X029030Y003949D01*
X028984Y003931D01*
X028936Y003916D01*
X028887Y003905D01*
X028838Y003898D01*
X028788Y003895D01*
X028737Y003896D01*
X028688Y003901D01*
X028638Y003910D01*
X028590Y003923D01*
X028543Y003939D01*
X028497Y003960D01*
X028453Y003984D01*
X028411Y004011D01*
X028371Y004041D01*
X028334Y004075D01*
X028300Y004112D01*
X028268Y004151D01*
X028240Y004192D01*
X028215Y004236D01*
X028194Y004281D01*
X028177Y004328D01*
X028163Y004376D01*
X028153Y004425D01*
X028147Y004475D01*
X028145Y004525D01*
D11*
X027406Y007815D03*
X026894Y007815D03*
X026894Y008485D03*
X027150Y008485D03*
X027406Y008485D03*
X028894Y008485D03*
X029150Y008485D03*
X029406Y008485D03*
X029406Y007815D03*
X028894Y007815D03*
X025406Y009565D03*
X024894Y009565D03*
X024894Y010235D03*
X025150Y010235D03*
X025406Y010235D03*
X022906Y010235D03*
X022650Y010235D03*
X022394Y010235D03*
X022394Y009565D03*
X022906Y009565D03*
X020406Y009565D03*
X019894Y009565D03*
X019894Y010235D03*
X020150Y010235D03*
X020406Y010235D03*
X017906Y010235D03*
X017650Y010235D03*
X017394Y010235D03*
X017394Y009565D03*
X017906Y009565D03*
X018644Y014315D03*
X019156Y014315D03*
X019156Y014985D03*
X018900Y014985D03*
X018644Y014985D03*
X016656Y014985D03*
X016400Y014985D03*
X016144Y014985D03*
X016144Y014315D03*
X016656Y014315D03*
X021144Y014315D03*
X021656Y014315D03*
X021656Y014985D03*
X021400Y014985D03*
X021144Y014985D03*
X023644Y014985D03*
X023900Y014985D03*
X024156Y014985D03*
X024156Y014315D03*
X023644Y014315D03*
D12*
X027650Y014276D03*
X027650Y015024D03*
X028650Y015024D03*
X028650Y014276D03*
D13*
X012752Y011840D03*
X012437Y011840D03*
X012122Y011840D03*
X011807Y011840D03*
X011493Y011840D03*
X011178Y011840D03*
X010863Y011840D03*
X010548Y011840D03*
X010548Y008460D03*
X010863Y008460D03*
X011178Y008460D03*
X011493Y008460D03*
X011807Y008460D03*
X012122Y008460D03*
X012437Y008460D03*
X012752Y008460D03*
D14*
X013340Y009048D03*
X013340Y009363D03*
X013340Y009678D03*
X013340Y009993D03*
X013340Y010307D03*
X013340Y010622D03*
X013340Y010937D03*
X013340Y011252D03*
X009960Y011252D03*
X009960Y010937D03*
X009960Y010622D03*
X009960Y010307D03*
X009960Y009993D03*
X009960Y009678D03*
X009960Y009363D03*
X009960Y009048D03*
D15*
X006154Y008146D02*
X005146Y008146D01*
X005146Y009154D01*
X006154Y009154D01*
X006154Y008146D01*
X006154Y008397D02*
X005146Y008397D01*
X005146Y008648D02*
X006154Y008648D01*
X006154Y008899D02*
X005146Y008899D01*
X005146Y009150D02*
X006154Y009150D01*
D16*
X006455Y009184D02*
X006657Y009184D01*
X006657Y009100D01*
X006455Y009100D01*
X006455Y009184D01*
X006455Y009134D02*
X006657Y009134D01*
X006657Y009168D02*
X006455Y009168D01*
X006455Y009381D02*
X006657Y009381D01*
X006657Y009297D01*
X006455Y009297D01*
X006455Y009381D01*
X006455Y009331D02*
X006657Y009331D01*
X006657Y009365D02*
X006455Y009365D01*
X006297Y009455D02*
X006297Y009657D01*
X006381Y009657D01*
X006381Y009455D01*
X006297Y009455D01*
X006297Y009489D02*
X006381Y009489D01*
X006381Y009523D02*
X006297Y009523D01*
X006297Y009557D02*
X006381Y009557D01*
X006381Y009591D02*
X006297Y009591D01*
X006297Y009625D02*
X006381Y009625D01*
X006100Y009657D02*
X006100Y009455D01*
X006100Y009657D02*
X006184Y009657D01*
X006184Y009455D01*
X006100Y009455D01*
X006100Y009489D02*
X006184Y009489D01*
X006184Y009523D02*
X006100Y009523D01*
X006100Y009557D02*
X006184Y009557D01*
X006184Y009591D02*
X006100Y009591D01*
X006100Y009625D02*
X006184Y009625D01*
X005903Y009657D02*
X005903Y009455D01*
X005903Y009657D02*
X005987Y009657D01*
X005987Y009455D01*
X005903Y009455D01*
X005903Y009489D02*
X005987Y009489D01*
X005987Y009523D02*
X005903Y009523D01*
X005903Y009557D02*
X005987Y009557D01*
X005987Y009591D02*
X005903Y009591D01*
X005903Y009625D02*
X005987Y009625D01*
X005706Y009657D02*
X005706Y009455D01*
X005706Y009657D02*
X005790Y009657D01*
X005790Y009455D01*
X005706Y009455D01*
X005706Y009489D02*
X005790Y009489D01*
X005790Y009523D02*
X005706Y009523D01*
X005706Y009557D02*
X005790Y009557D01*
X005790Y009591D02*
X005706Y009591D01*
X005706Y009625D02*
X005790Y009625D01*
X005510Y009657D02*
X005510Y009455D01*
X005510Y009657D02*
X005594Y009657D01*
X005594Y009455D01*
X005510Y009455D01*
X005510Y009489D02*
X005594Y009489D01*
X005594Y009523D02*
X005510Y009523D01*
X005510Y009557D02*
X005594Y009557D01*
X005594Y009591D02*
X005510Y009591D01*
X005510Y009625D02*
X005594Y009625D01*
X005313Y009657D02*
X005313Y009455D01*
X005313Y009657D02*
X005397Y009657D01*
X005397Y009455D01*
X005313Y009455D01*
X005313Y009489D02*
X005397Y009489D01*
X005397Y009523D02*
X005313Y009523D01*
X005313Y009557D02*
X005397Y009557D01*
X005397Y009591D02*
X005313Y009591D01*
X005313Y009625D02*
X005397Y009625D01*
X005116Y009657D02*
X005116Y009455D01*
X005116Y009657D02*
X005200Y009657D01*
X005200Y009455D01*
X005116Y009455D01*
X005116Y009489D02*
X005200Y009489D01*
X005200Y009523D02*
X005116Y009523D01*
X005116Y009557D02*
X005200Y009557D01*
X005200Y009591D02*
X005116Y009591D01*
X005116Y009625D02*
X005200Y009625D01*
X004919Y009657D02*
X004919Y009455D01*
X004919Y009657D02*
X005003Y009657D01*
X005003Y009455D01*
X004919Y009455D01*
X004919Y009489D02*
X005003Y009489D01*
X005003Y009523D02*
X004919Y009523D01*
X004919Y009557D02*
X005003Y009557D01*
X005003Y009591D02*
X004919Y009591D01*
X004919Y009625D02*
X005003Y009625D01*
X004845Y009297D02*
X004643Y009297D01*
X004643Y009381D01*
X004845Y009381D01*
X004845Y009297D01*
X004845Y009331D02*
X004643Y009331D01*
X004643Y009365D02*
X004845Y009365D01*
X004845Y009100D02*
X004643Y009100D01*
X004643Y009184D01*
X004845Y009184D01*
X004845Y009100D01*
X004845Y009134D02*
X004643Y009134D01*
X004643Y009168D02*
X004845Y009168D01*
X004845Y008903D02*
X004643Y008903D01*
X004643Y008987D01*
X004845Y008987D01*
X004845Y008903D01*
X004845Y008937D02*
X004643Y008937D01*
X004643Y008971D02*
X004845Y008971D01*
X004845Y008706D02*
X004643Y008706D01*
X004643Y008790D01*
X004845Y008790D01*
X004845Y008706D01*
X004845Y008740D02*
X004643Y008740D01*
X004643Y008774D02*
X004845Y008774D01*
X004845Y008510D02*
X004643Y008510D01*
X004643Y008594D01*
X004845Y008594D01*
X004845Y008510D01*
X004845Y008544D02*
X004643Y008544D01*
X004643Y008578D02*
X004845Y008578D01*
X004845Y008313D02*
X004643Y008313D01*
X004643Y008397D01*
X004845Y008397D01*
X004845Y008313D01*
X004845Y008347D02*
X004643Y008347D01*
X004643Y008381D02*
X004845Y008381D01*
X004845Y008116D02*
X004643Y008116D01*
X004643Y008200D01*
X004845Y008200D01*
X004845Y008116D01*
X004845Y008150D02*
X004643Y008150D01*
X004643Y008184D02*
X004845Y008184D01*
X004845Y007919D02*
X004643Y007919D01*
X004643Y008003D01*
X004845Y008003D01*
X004845Y007919D01*
X004845Y007953D02*
X004643Y007953D01*
X004643Y007987D02*
X004845Y007987D01*
X005003Y007845D02*
X005003Y007643D01*
X004919Y007643D01*
X004919Y007845D01*
X005003Y007845D01*
X005003Y007677D02*
X004919Y007677D01*
X004919Y007711D02*
X005003Y007711D01*
X005003Y007745D02*
X004919Y007745D01*
X004919Y007779D02*
X005003Y007779D01*
X005003Y007813D02*
X004919Y007813D01*
X005200Y007845D02*
X005200Y007643D01*
X005116Y007643D01*
X005116Y007845D01*
X005200Y007845D01*
X005200Y007677D02*
X005116Y007677D01*
X005116Y007711D02*
X005200Y007711D01*
X005200Y007745D02*
X005116Y007745D01*
X005116Y007779D02*
X005200Y007779D01*
X005200Y007813D02*
X005116Y007813D01*
X005397Y007845D02*
X005397Y007643D01*
X005313Y007643D01*
X005313Y007845D01*
X005397Y007845D01*
X005397Y007677D02*
X005313Y007677D01*
X005313Y007711D02*
X005397Y007711D01*
X005397Y007745D02*
X005313Y007745D01*
X005313Y007779D02*
X005397Y007779D01*
X005397Y007813D02*
X005313Y007813D01*
X005594Y007845D02*
X005594Y007643D01*
X005510Y007643D01*
X005510Y007845D01*
X005594Y007845D01*
X005594Y007677D02*
X005510Y007677D01*
X005510Y007711D02*
X005594Y007711D01*
X005594Y007745D02*
X005510Y007745D01*
X005510Y007779D02*
X005594Y007779D01*
X005594Y007813D02*
X005510Y007813D01*
X005790Y007845D02*
X005790Y007643D01*
X005706Y007643D01*
X005706Y007845D01*
X005790Y007845D01*
X005790Y007677D02*
X005706Y007677D01*
X005706Y007711D02*
X005790Y007711D01*
X005790Y007745D02*
X005706Y007745D01*
X005706Y007779D02*
X005790Y007779D01*
X005790Y007813D02*
X005706Y007813D01*
X005987Y007845D02*
X005987Y007643D01*
X005903Y007643D01*
X005903Y007845D01*
X005987Y007845D01*
X005987Y007677D02*
X005903Y007677D01*
X005903Y007711D02*
X005987Y007711D01*
X005987Y007745D02*
X005903Y007745D01*
X005903Y007779D02*
X005987Y007779D01*
X005987Y007813D02*
X005903Y007813D01*
X006184Y007845D02*
X006184Y007643D01*
X006100Y007643D01*
X006100Y007845D01*
X006184Y007845D01*
X006184Y007677D02*
X006100Y007677D01*
X006100Y007711D02*
X006184Y007711D01*
X006184Y007745D02*
X006100Y007745D01*
X006100Y007779D02*
X006184Y007779D01*
X006184Y007813D02*
X006100Y007813D01*
X006381Y007845D02*
X006381Y007643D01*
X006297Y007643D01*
X006297Y007845D01*
X006381Y007845D01*
X006381Y007677D02*
X006297Y007677D01*
X006297Y007711D02*
X006381Y007711D01*
X006381Y007745D02*
X006297Y007745D01*
X006297Y007779D02*
X006381Y007779D01*
X006381Y007813D02*
X006297Y007813D01*
X006455Y008003D02*
X006657Y008003D01*
X006657Y007919D01*
X006455Y007919D01*
X006455Y008003D01*
X006455Y007953D02*
X006657Y007953D01*
X006657Y007987D02*
X006455Y007987D01*
X006455Y008200D02*
X006657Y008200D01*
X006657Y008116D01*
X006455Y008116D01*
X006455Y008200D01*
X006455Y008150D02*
X006657Y008150D01*
X006657Y008184D02*
X006455Y008184D01*
X006455Y008397D02*
X006657Y008397D01*
X006657Y008313D01*
X006455Y008313D01*
X006455Y008397D01*
X006455Y008347D02*
X006657Y008347D01*
X006657Y008381D02*
X006455Y008381D01*
X006455Y008594D02*
X006657Y008594D01*
X006657Y008510D01*
X006455Y008510D01*
X006455Y008594D01*
X006455Y008544D02*
X006657Y008544D01*
X006657Y008578D02*
X006455Y008578D01*
X006455Y008790D02*
X006657Y008790D01*
X006657Y008706D01*
X006455Y008706D01*
X006455Y008790D01*
X006455Y008740D02*
X006657Y008740D01*
X006657Y008774D02*
X006455Y008774D01*
X006455Y008987D02*
X006657Y008987D01*
X006657Y008903D01*
X006455Y008903D01*
X006455Y008987D01*
X006455Y008937D02*
X006657Y008937D01*
X006657Y008971D02*
X006455Y008971D01*
D17*
X007565Y008900D03*
X008235Y008900D03*
X008235Y007650D03*
X007565Y007650D03*
X010815Y006900D03*
X011485Y006900D03*
X012315Y013025D03*
X012985Y013025D03*
D18*
X008400Y012024D03*
X008400Y011276D03*
X007400Y011276D03*
X007400Y012024D03*
X006400Y012024D03*
X006400Y011276D03*
X005400Y011276D03*
X005400Y012024D03*
X004400Y012024D03*
X004400Y011276D03*
X014400Y006149D03*
X014400Y005401D03*
X015400Y005401D03*
X015400Y006149D03*
X024775Y011381D03*
X024775Y012169D03*
D19*
X012650Y016150D03*
D20*
X011650Y016150D03*
X010650Y016150D03*
X010650Y015150D03*
X011650Y015150D03*
X012650Y015150D03*
D21*
X017650Y015250D03*
X017650Y014900D03*
X017650Y014550D03*
X020150Y014550D03*
X020150Y014900D03*
X020150Y015250D03*
X022650Y015250D03*
X022650Y014900D03*
X022650Y014550D03*
X025150Y014550D03*
X025150Y014900D03*
X025150Y015250D03*
X023900Y010500D03*
X023900Y010150D03*
X023900Y009800D03*
X021400Y009800D03*
X021400Y010150D03*
X021400Y010500D03*
X018900Y010500D03*
X018900Y010150D03*
X018900Y009800D03*
X026400Y009800D03*
X026400Y010150D03*
X026400Y010500D03*
D22*
X024077Y012650D03*
X023723Y012650D03*
X021577Y012650D03*
X021223Y012650D03*
X019077Y012650D03*
X018723Y012650D03*
X016577Y012650D03*
X016223Y012650D03*
X017363Y016525D03*
X017687Y016525D03*
X017827Y007900D03*
X017473Y007900D03*
X019973Y007900D03*
X020327Y007900D03*
X022473Y007900D03*
X022827Y007900D03*
X024973Y007900D03*
X025327Y007900D03*
D23*
X013872Y007400D03*
X013400Y007400D03*
X012928Y007400D03*
D24*
X027400Y009690D03*
X027900Y009690D03*
X028400Y009690D03*
X028900Y009690D03*
X028900Y012110D03*
X028400Y012110D03*
X027900Y012110D03*
X027400Y012110D03*
D25*
X019150Y017650D03*
X018150Y017650D03*
X017150Y017650D03*
X016150Y017650D03*
X015150Y017650D03*
X014150Y017650D03*
X013150Y017650D03*
X012150Y017650D03*
X012150Y018650D03*
X013150Y018650D03*
X014150Y018650D03*
X015150Y018650D03*
X016150Y018650D03*
X017150Y018650D03*
X018150Y018650D03*
X019150Y018650D03*
D26*
X009150Y018525D03*
X011900Y004325D03*
D27*
X009150Y017525D03*
X008150Y017525D03*
X007150Y017525D03*
X007150Y018525D03*
X008150Y018525D03*
D28*
X012900Y004225D03*
X013900Y004325D03*
X014900Y004225D03*
X015900Y004325D03*
X016900Y004225D03*
X017900Y004325D03*
X018900Y004225D03*
D29*
X012649Y005525D03*
X011901Y005525D03*
X015776Y016525D03*
X016524Y016525D03*
D30*
X016400Y006145D03*
X016400Y005405D03*
D31*
X014275Y009650D03*
D32*
X006544Y013776D03*
X005717Y014150D03*
X005044Y013776D03*
X004217Y014150D03*
X005044Y014524D03*
X005044Y015276D03*
X005717Y015650D03*
X005044Y016024D03*
X004217Y015650D03*
X006544Y015276D03*
X006544Y014524D03*
X006544Y016024D03*
D33*
X007776Y015256D03*
X008524Y015256D03*
X008150Y014583D03*
X007776Y013756D03*
X008524Y013756D03*
X008150Y016083D03*
D34*
X006996Y005937D03*
X006996Y003851D03*
X010304Y003851D03*
X010304Y005937D03*
D35*
X009280Y006036D03*
X008965Y006036D03*
X008650Y006036D03*
X008335Y006036D03*
X008020Y006036D03*
D36*
X024158Y006150D03*
X025142Y006150D03*
D37*
X026422Y004496D03*
X022878Y004496D03*
D38*
X020775Y004724D03*
X020775Y005826D03*
X015025Y014474D03*
X015025Y015576D03*
X010650Y017474D03*
X010650Y018576D03*
D39*
X022158Y018650D03*
X023142Y018650D03*
X025158Y018650D03*
X026142Y018650D03*
D40*
X014938Y016525D03*
X014112Y016525D03*
D41*
X004025Y008610D03*
X004025Y007940D03*
D42*
X003680Y008234D02*
X004370Y008234D01*
X004440Y008304D01*
X004440Y008699D01*
X004534Y008793D01*
X004534Y008819D01*
X004587Y008766D01*
X004900Y008766D01*
X004900Y008731D01*
X004587Y008731D01*
X004506Y008650D01*
X004506Y008453D01*
X004506Y008256D01*
X004506Y008059D01*
X004506Y007863D01*
X004587Y007782D01*
X004782Y007782D01*
X004782Y007587D01*
X004863Y007506D01*
X005059Y007506D01*
X005059Y007506D01*
X005059Y007506D01*
X005256Y007506D01*
X005256Y007506D01*
X005453Y007506D01*
X005453Y007506D01*
X005650Y007506D01*
X005775Y007506D01*
X005775Y007159D01*
X005891Y007044D01*
X005891Y006918D01*
X006043Y006766D01*
X006257Y006766D01*
X006409Y006918D01*
X006409Y007026D01*
X006580Y006855D01*
X007830Y006855D01*
X007942Y006742D01*
X007844Y006742D01*
X007794Y006722D01*
X007793Y006722D01*
X007792Y006721D01*
X007741Y006700D01*
X007663Y006621D01*
X007642Y006571D01*
X007641Y006570D01*
X007641Y006569D01*
X007620Y006518D01*
X007620Y005782D01*
X007641Y005731D01*
X007641Y005730D01*
X007642Y005729D01*
X007663Y005679D01*
X007741Y005600D01*
X007792Y005579D01*
X007793Y005578D01*
X007794Y005578D01*
X007831Y005563D01*
X007872Y005522D01*
X007872Y005023D01*
X007114Y005023D01*
X007084Y004994D01*
X007084Y004404D01*
X006455Y004404D01*
X006384Y004334D01*
X006384Y003368D01*
X006432Y003320D01*
X005633Y003320D01*
X005888Y003596D01*
X006102Y004039D01*
X006175Y004525D01*
X006102Y005011D01*
X006102Y005011D01*
X005888Y005454D01*
X005888Y005454D01*
X005554Y005815D01*
X005554Y005815D01*
X005128Y006061D01*
X005128Y006061D01*
X004648Y006170D01*
X004158Y006134D01*
X003700Y005954D01*
X003320Y005651D01*
X003320Y016899D01*
X003700Y016596D01*
X004158Y016416D01*
X004648Y016380D01*
X004648Y016380D01*
X005128Y016489D01*
X005554Y016735D01*
X005888Y017096D01*
X006102Y017539D01*
X006175Y018025D01*
X006102Y018511D01*
X006102Y018511D01*
X005888Y018954D01*
X005888Y018954D01*
X005637Y019225D01*
X014400Y019225D01*
X014400Y018990D01*
X014386Y019003D01*
X014233Y019067D01*
X014067Y019067D01*
X013914Y019003D01*
X013797Y018886D01*
X013733Y018733D01*
X013733Y018567D01*
X013797Y018414D01*
X013914Y018297D01*
X014067Y018233D01*
X014233Y018233D01*
X014386Y018297D01*
X014400Y018310D01*
X014400Y017990D01*
X014386Y018003D01*
X014233Y018067D01*
X014067Y018067D01*
X013914Y018003D01*
X013797Y017886D01*
X013733Y017733D01*
X013733Y017567D01*
X013797Y017414D01*
X013914Y017297D01*
X014067Y017233D01*
X014233Y017233D01*
X014386Y017297D01*
X014400Y017310D01*
X014400Y015967D01*
X014374Y015941D01*
X014374Y015212D01*
X014444Y015141D01*
X015606Y015141D01*
X015676Y015212D01*
X015676Y015400D01*
X017280Y015400D01*
X017280Y015075D01*
X017280Y015075D01*
X017280Y015070D01*
X017170Y015070D01*
X016673Y014573D01*
X016570Y014573D01*
X016570Y014727D01*
X016784Y014727D01*
X016855Y014797D01*
X016855Y015172D01*
X016784Y015242D01*
X016272Y015242D01*
X016201Y015172D01*
X016201Y014797D01*
X016230Y014768D01*
X016230Y014573D01*
X016016Y014573D01*
X015945Y014503D01*
X015945Y014128D01*
X015974Y014099D01*
X015974Y013715D01*
X015150Y012890D01*
X014720Y013320D01*
X014346Y013320D01*
X014257Y013409D01*
X014043Y013409D01*
X013891Y013257D01*
X013891Y013043D01*
X014043Y012891D01*
X014257Y012891D01*
X014346Y012980D01*
X014580Y012980D01*
X015080Y012480D01*
X015978Y012480D01*
X015978Y012350D01*
X016008Y012320D01*
X014845Y012320D01*
X014445Y012720D01*
X014445Y012720D01*
X014345Y012820D01*
X013580Y012820D01*
X013544Y012784D01*
X013418Y012784D01*
X013266Y012632D01*
X013266Y012524D01*
X013220Y012570D01*
X012205Y012570D01*
X012052Y012417D01*
X012047Y012413D01*
X012047Y012458D01*
X012199Y012610D01*
X012621Y012610D01*
X012691Y012680D01*
X012691Y013325D01*
X012784Y013418D01*
X012784Y013632D01*
X012632Y013784D01*
X012418Y013784D01*
X012266Y013632D01*
X012266Y013605D01*
X012139Y013478D01*
X012101Y013440D01*
X012010Y013440D01*
X011939Y013370D01*
X011939Y013029D01*
X011672Y012761D01*
X011672Y012761D01*
X011604Y012693D01*
X011567Y012605D01*
X011567Y011352D01*
X011604Y011264D01*
X011672Y011197D01*
X011760Y011160D01*
X011891Y011160D01*
X011891Y011105D01*
X012043Y010953D01*
X012257Y010953D01*
X012409Y011105D01*
X012409Y011160D01*
X012448Y011160D01*
X012536Y011197D01*
X012603Y011264D01*
X012640Y011352D01*
X012640Y011448D01*
X012631Y011470D01*
X012912Y011470D01*
X012982Y011540D01*
X012982Y011641D01*
X013007Y011641D01*
X013159Y011793D01*
X013159Y012007D01*
X013007Y012159D01*
X012963Y012159D01*
X012912Y012210D01*
X012325Y012210D01*
X012345Y012230D01*
X013080Y012230D01*
X013830Y011480D01*
X021720Y011480D01*
X021820Y011580D01*
X022720Y012480D01*
X023478Y012480D01*
X023478Y012350D01*
X023548Y012280D01*
X023898Y012280D01*
X023900Y012282D01*
X023902Y012280D01*
X024252Y012280D01*
X024322Y012350D01*
X024322Y012950D01*
X024252Y013020D01*
X024247Y013020D01*
X024247Y013186D01*
X024293Y013141D01*
X024507Y013141D01*
X024659Y013293D01*
X024659Y013507D01*
X024507Y013659D01*
X024293Y013659D01*
X024204Y013570D01*
X024070Y013570D01*
X024070Y014058D01*
X024284Y014058D01*
X024355Y014128D01*
X024355Y014274D01*
X024793Y014712D01*
X024850Y014655D01*
X025450Y014655D01*
X025520Y014725D01*
X025520Y015075D01*
X025520Y015400D01*
X025530Y015400D01*
X025530Y013326D01*
X025586Y013190D01*
X025690Y013086D01*
X026030Y012747D01*
X026030Y011770D01*
X023951Y011770D01*
X023831Y011720D01*
X022586Y011720D01*
X022469Y011671D01*
X022379Y011581D01*
X022142Y011345D01*
X018836Y011345D01*
X018719Y011296D01*
X018629Y011206D01*
X018580Y011089D01*
X018580Y010961D01*
X018629Y010844D01*
X018660Y010812D01*
X018660Y010745D01*
X018600Y010745D01*
X018530Y010675D01*
X018530Y010325D01*
X018530Y010325D01*
X018530Y010320D01*
X018420Y010320D01*
X017923Y009823D01*
X017820Y009823D01*
X017820Y009977D01*
X018034Y009977D01*
X018105Y010047D01*
X018105Y010422D01*
X018034Y010492D01*
X017522Y010492D01*
X017451Y010422D01*
X017451Y010047D01*
X017480Y010018D01*
X017480Y009823D01*
X017266Y009823D01*
X017195Y009753D01*
X017195Y009378D01*
X017224Y009349D01*
X017224Y008965D01*
X016580Y008320D01*
X016346Y008320D01*
X016257Y008409D01*
X016043Y008409D01*
X015891Y008257D01*
X015891Y008043D01*
X016043Y007891D01*
X016257Y007891D01*
X016346Y007980D01*
X016580Y007980D01*
X016830Y007730D01*
X017228Y007730D01*
X017228Y007600D01*
X017258Y007570D01*
X016470Y007570D01*
X016320Y007720D01*
X016220Y007820D01*
X015846Y007820D01*
X015757Y007909D01*
X015543Y007909D01*
X015391Y007757D01*
X015391Y007543D01*
X015543Y007391D01*
X015757Y007391D01*
X015846Y007480D01*
X016080Y007480D01*
X016151Y007409D01*
X016043Y007409D01*
X015891Y007257D01*
X015891Y007043D01*
X016043Y006891D01*
X016257Y006891D01*
X016346Y006980D01*
X017240Y006980D01*
X017230Y006970D01*
X017169Y006909D01*
X017043Y006909D01*
X016891Y006757D01*
X016891Y006543D01*
X017043Y006391D01*
X017151Y006391D01*
X017105Y006345D01*
X017105Y005846D01*
X017016Y005757D01*
X017016Y005543D01*
X017113Y005446D01*
X016717Y005446D01*
X016717Y005750D01*
X016692Y005775D01*
X016717Y005800D01*
X016717Y006490D01*
X016647Y006560D01*
X016230Y006560D01*
X015320Y007470D01*
X015320Y008595D01*
X014820Y009095D01*
X014820Y009845D01*
X014220Y010445D01*
X014188Y010477D01*
X013710Y010477D01*
X013710Y010767D01*
X014417Y010767D01*
X014605Y010580D01*
X014605Y010580D01*
X014705Y010480D01*
X015220Y010480D01*
X015381Y010641D01*
X015507Y010641D01*
X015659Y010793D01*
X015659Y011007D01*
X015507Y011159D01*
X015293Y011159D01*
X015275Y011141D01*
X015132Y011284D01*
X015006Y011284D01*
X014868Y011422D01*
X013700Y011422D01*
X013640Y011482D01*
X013040Y011482D01*
X012970Y011412D01*
X012970Y010163D01*
X012878Y010163D01*
X012820Y010220D01*
X012820Y010454D01*
X012909Y010543D01*
X012909Y010757D01*
X012757Y010909D01*
X012543Y010909D01*
X012391Y010757D01*
X012391Y010543D01*
X012480Y010454D01*
X012480Y010080D01*
X012580Y009980D01*
X012737Y009823D01*
X012970Y009823D01*
X012970Y008888D01*
X013040Y008818D01*
X013640Y008818D01*
X013691Y008869D01*
X014230Y008330D01*
X014230Y006525D01*
X014035Y006525D01*
X013965Y006455D01*
X013965Y005843D01*
X014033Y005775D01*
X013965Y005707D01*
X013965Y005206D01*
X013730Y004971D01*
X013730Y004785D01*
X013622Y004740D01*
X013485Y004603D01*
X013410Y004422D01*
X013410Y004228D01*
X013485Y004047D01*
X013622Y003910D01*
X013803Y003835D01*
X013997Y003835D01*
X014178Y003910D01*
X014315Y004047D01*
X014390Y004228D01*
X014390Y004422D01*
X014315Y004603D01*
X014178Y004740D01*
X014070Y004785D01*
X014070Y004831D01*
X014265Y005025D01*
X014765Y005025D01*
X014835Y005095D01*
X014835Y005707D01*
X014767Y005775D01*
X014835Y005843D01*
X014835Y006455D01*
X014765Y006525D01*
X014570Y006525D01*
X014570Y008470D01*
X013922Y009118D01*
X013848Y009193D01*
X013867Y009193D01*
X014730Y008330D01*
X014730Y006830D01*
X014830Y006730D01*
X015035Y006525D01*
X014965Y006455D01*
X014965Y005843D01*
X015033Y005775D01*
X014965Y005707D01*
X014965Y005095D01*
X015035Y005025D01*
X015230Y005025D01*
X015230Y004830D01*
X015330Y004730D01*
X015477Y004583D01*
X015410Y004422D01*
X015410Y004228D01*
X015485Y004047D01*
X015622Y003910D01*
X015803Y003835D01*
X015997Y003835D01*
X016178Y003910D01*
X016315Y004047D01*
X016390Y004228D01*
X016390Y004422D01*
X016315Y004603D01*
X016178Y004740D01*
X015997Y004815D01*
X015803Y004815D01*
X015748Y004792D01*
X015570Y004970D01*
X015570Y005025D01*
X015765Y005025D01*
X015835Y005095D01*
X015835Y005707D01*
X015767Y005775D01*
X015835Y005843D01*
X015835Y006455D01*
X015765Y006525D01*
X015515Y006525D01*
X015070Y006970D01*
X015070Y007240D01*
X015080Y007230D01*
X016083Y006226D01*
X016083Y005800D01*
X016108Y005775D01*
X016083Y005750D01*
X016083Y005060D01*
X016153Y004990D01*
X016647Y004990D01*
X016717Y005060D01*
X016717Y005106D01*
X017329Y005106D01*
X017673Y004761D01*
X017622Y004740D01*
X017485Y004603D01*
X017410Y004422D01*
X017410Y004228D01*
X017485Y004047D01*
X017622Y003910D01*
X017803Y003835D01*
X017997Y003835D01*
X018178Y003910D01*
X018315Y004047D01*
X018390Y004228D01*
X018390Y004422D01*
X018315Y004603D01*
X018178Y004740D01*
X018070Y004785D01*
X018070Y004845D01*
X017970Y004945D01*
X017569Y005346D01*
X017469Y005446D01*
X017437Y005446D01*
X017534Y005543D01*
X017534Y005757D01*
X017445Y005846D01*
X017445Y005989D01*
X017543Y005891D01*
X017757Y005891D01*
X017909Y006043D01*
X017909Y006169D01*
X017970Y006230D01*
X021095Y006230D01*
X021195Y006330D01*
X021595Y006730D01*
X022027Y006730D01*
X022004Y006706D01*
X021594Y006296D01*
X021504Y006206D01*
X021455Y006089D01*
X021455Y005283D01*
X021331Y005159D01*
X020469Y005159D01*
X020139Y005489D01*
X020089Y005610D01*
X019985Y005714D01*
X019849Y005770D01*
X019701Y005770D01*
X019565Y005714D01*
X019461Y005610D01*
X019405Y005474D01*
X019405Y004826D01*
X019461Y004690D01*
X019565Y004586D01*
X019701Y004530D01*
X019849Y004530D01*
X019985Y004586D01*
X020060Y004662D01*
X020124Y004599D01*
X020124Y004359D01*
X020194Y004289D01*
X021356Y004289D01*
X021426Y004359D01*
X021426Y004455D01*
X021464Y004455D01*
X021581Y004504D01*
X021671Y004594D01*
X022046Y004969D01*
X022095Y005086D01*
X022095Y005892D01*
X022408Y006205D01*
X022839Y006205D01*
X022891Y006227D01*
X022899Y006227D01*
X022904Y006232D01*
X022956Y006254D01*
X023046Y006344D01*
X023068Y006396D01*
X023073Y006401D01*
X023073Y006409D01*
X023095Y006461D01*
X023095Y006589D01*
X023073Y006641D01*
X023073Y006649D01*
X023068Y006654D01*
X023046Y006706D01*
X023023Y006730D01*
X023470Y006730D01*
X023570Y006830D01*
X023595Y006855D01*
X023827Y006855D01*
X023802Y006830D01*
X023802Y005680D01*
X023792Y005680D01*
X023774Y005698D01*
X023526Y005698D01*
X023352Y005524D01*
X023352Y005276D01*
X023526Y005102D01*
X023774Y005102D01*
X023792Y005120D01*
X024008Y005120D01*
X024026Y005102D01*
X024274Y005102D01*
X024448Y005276D01*
X024448Y005405D01*
X024514Y005470D01*
X024514Y006830D01*
X024489Y006855D01*
X028595Y006855D01*
X028695Y006955D01*
X028972Y007232D01*
X028974Y007232D01*
X029022Y007281D01*
X029070Y007330D01*
X029070Y007332D01*
X029072Y007334D01*
X029070Y007402D01*
X029070Y007470D01*
X029068Y007472D01*
X029065Y007600D01*
X029093Y007628D01*
X029093Y007924D01*
X029206Y007811D01*
X029206Y007733D01*
X029207Y007731D01*
X029207Y007628D01*
X029277Y007558D01*
X029534Y007558D01*
X029605Y007628D01*
X029605Y007731D01*
X029606Y007733D01*
X029606Y007977D01*
X029605Y007978D01*
X029605Y008003D01*
X029534Y008073D01*
X029510Y008073D01*
X029356Y008227D01*
X029534Y008227D01*
X029605Y008297D01*
X029605Y008672D01*
X029534Y008742D01*
X029320Y008742D01*
X029320Y008830D01*
X029570Y009080D01*
X029570Y009204D01*
X029659Y009293D01*
X029659Y009507D01*
X029507Y009659D01*
X029293Y009659D01*
X029150Y009516D01*
X029150Y010140D01*
X029080Y010210D01*
X028720Y010210D01*
X028650Y010140D01*
X028580Y010210D01*
X028575Y010210D01*
X028775Y010409D01*
X028793Y010391D01*
X029007Y010391D01*
X029159Y010543D01*
X029159Y010757D01*
X029007Y010909D01*
X028793Y010909D01*
X028641Y010757D01*
X028641Y010756D01*
X028330Y010445D01*
X028230Y010345D01*
X028230Y010210D01*
X028220Y010210D01*
X028150Y010140D01*
X028080Y010210D01*
X027720Y010210D01*
X027650Y010140D01*
X027580Y010210D01*
X027570Y010210D01*
X027570Y010455D01*
X028095Y010980D01*
X029470Y010980D01*
X029720Y011230D01*
X029820Y011330D01*
X029820Y014970D01*
X029972Y014970D01*
X029972Y014872D02*
X029820Y014872D01*
X029820Y014970D02*
X029390Y015400D01*
X029972Y015400D01*
X029972Y005634D01*
X029804Y005815D01*
X029804Y005815D01*
X029378Y006061D01*
X029378Y006061D01*
X028898Y006170D01*
X028408Y006134D01*
X027950Y005954D01*
X027565Y005647D01*
X027288Y005241D01*
X027143Y004771D01*
X027143Y004279D01*
X027288Y003809D01*
X027565Y003403D01*
X027565Y003403D01*
X027565Y003403D01*
X027669Y003320D01*
X010868Y003320D01*
X010916Y003368D01*
X010916Y004334D01*
X010845Y004404D01*
X010216Y004404D01*
X010216Y004994D01*
X010186Y005023D01*
X009428Y005023D01*
X009428Y005653D01*
X009399Y005682D01*
X009183Y005682D01*
X009183Y006479D01*
X009113Y006550D01*
X008820Y006550D01*
X008820Y006845D01*
X008720Y006945D01*
X008659Y007006D01*
X008659Y007132D01*
X008507Y007284D01*
X008293Y007284D01*
X008141Y007132D01*
X008141Y007024D01*
X008070Y007095D01*
X007970Y007195D01*
X006720Y007195D01*
X006590Y007325D01*
X007189Y007325D01*
X007189Y007305D01*
X007260Y007235D01*
X007871Y007235D01*
X007941Y007305D01*
X007941Y007995D01*
X007871Y008065D01*
X007260Y008065D01*
X007189Y007995D01*
X007189Y007725D01*
X006580Y007725D01*
X006519Y007786D01*
X006519Y007819D01*
X006518Y007820D01*
X006518Y007902D01*
X006441Y007979D01*
X006713Y007979D01*
X006722Y007988D01*
X007103Y007988D01*
X007345Y008230D01*
X008704Y008230D01*
X008793Y008141D01*
X009007Y008141D01*
X009159Y008293D01*
X009159Y008507D01*
X009007Y008659D01*
X008793Y008659D01*
X008704Y008570D01*
X007941Y008570D01*
X007941Y009245D01*
X007871Y009315D01*
X007260Y009315D01*
X007189Y009245D01*
X007189Y009159D01*
X007168Y009159D01*
X007016Y009007D01*
X007016Y008793D01*
X007097Y008712D01*
X006909Y008525D01*
X006722Y008525D01*
X006713Y008534D01*
X006400Y008534D01*
X006400Y008569D01*
X006713Y008569D01*
X006794Y008650D01*
X006794Y008847D01*
X006794Y009044D01*
X006794Y009241D01*
X006713Y009321D01*
X006441Y009321D01*
X006518Y009398D01*
X006518Y009713D01*
X006437Y009794D01*
X006241Y009794D01*
X006241Y009794D01*
X006241Y009794D01*
X006044Y009794D01*
X006044Y009794D01*
X005847Y009794D01*
X005847Y009794D01*
X005650Y009794D01*
X005534Y009794D01*
X006220Y010480D01*
X006720Y010480D01*
X007140Y010900D01*
X007765Y010900D01*
X007835Y010970D01*
X007835Y011582D01*
X007767Y011650D01*
X007835Y011718D01*
X007835Y012330D01*
X007765Y012400D01*
X007659Y012400D01*
X007659Y012507D01*
X007507Y012659D01*
X007293Y012659D01*
X007195Y012561D01*
X007195Y012579D01*
X007284Y012668D01*
X007284Y012882D01*
X007132Y013034D01*
X006918Y013034D01*
X006766Y012882D01*
X006766Y012775D01*
X006632Y012909D01*
X006418Y012909D01*
X006266Y012757D01*
X006266Y012695D01*
X004830Y012695D01*
X004730Y012595D01*
X004535Y012400D01*
X004035Y012400D01*
X003965Y012330D01*
X003965Y011718D01*
X004033Y011650D01*
X003965Y011582D01*
X003965Y010970D01*
X004035Y010900D01*
X004230Y010900D01*
X004230Y010470D01*
X004105Y010345D01*
X004105Y009330D01*
X004276Y009159D01*
X004168Y009159D01*
X004079Y009070D01*
X003933Y009070D01*
X003897Y009084D01*
X003865Y009070D01*
X003830Y009070D01*
X003803Y009043D01*
X003768Y009028D01*
X003755Y008995D01*
X003745Y008986D01*
X003680Y008986D01*
X003610Y008915D01*
X003610Y008304D01*
X003680Y008234D01*
X003642Y008272D02*
X003320Y008272D01*
X003320Y008174D02*
X004506Y008174D01*
X004506Y008256D02*
X004506Y008256D01*
X004506Y008256D01*
X004506Y008272D02*
X004408Y008272D01*
X004440Y008371D02*
X004506Y008371D01*
X004506Y008453D02*
X004506Y008453D01*
X004506Y008453D01*
X004506Y008469D02*
X004440Y008469D01*
X004440Y008568D02*
X004506Y008568D01*
X004522Y008666D02*
X004440Y008666D01*
X004506Y008765D02*
X004900Y008765D01*
X004744Y008744D02*
X005431Y008744D01*
X005963Y008556D02*
X006525Y008556D01*
X006400Y008568D02*
X006952Y008568D01*
X007051Y008666D02*
X006794Y008666D01*
X006794Y008765D02*
X007044Y008765D01*
X007016Y008863D02*
X006794Y008863D01*
X006794Y008847D02*
X006794Y008847D01*
X006794Y008847D01*
X006794Y008962D02*
X007016Y008962D01*
X007069Y009060D02*
X006794Y009060D01*
X006794Y009044D02*
X006794Y009044D01*
X006794Y009044D01*
X006794Y009159D02*
X007167Y009159D01*
X007201Y009257D02*
X006777Y009257D01*
X006475Y009356D02*
X008579Y009356D01*
X008580Y009355D02*
X009205Y009355D01*
X009367Y009193D01*
X009590Y009193D01*
X009590Y008888D01*
X009660Y008818D01*
X010260Y008818D01*
X010320Y008878D01*
X010368Y008878D01*
X010845Y009355D01*
X010881Y009391D01*
X010882Y009391D01*
X011034Y009543D01*
X011034Y009757D01*
X010882Y009909D01*
X010668Y009909D01*
X010516Y009757D01*
X010516Y009543D01*
X010534Y009525D01*
X010330Y009320D01*
X010330Y010137D01*
X011297Y010137D01*
X011391Y010044D01*
X011391Y009918D01*
X011543Y009766D01*
X011757Y009766D01*
X011909Y009918D01*
X011909Y010132D01*
X011829Y010212D01*
X011909Y010293D01*
X011909Y010507D01*
X011757Y010659D01*
X011631Y010659D01*
X011595Y010695D01*
X011374Y010695D01*
X011409Y010730D01*
X011409Y010945D01*
X011320Y011034D01*
X011320Y011470D01*
X011337Y011470D01*
X011408Y011540D01*
X011408Y012140D01*
X011337Y012210D01*
X011033Y012210D01*
X011033Y012542D01*
X011695Y013205D01*
X011695Y013516D01*
X011757Y013516D01*
X011909Y013668D01*
X011909Y013882D01*
X011757Y014034D01*
X011543Y014034D01*
X011391Y013882D01*
X011391Y013756D01*
X011355Y013720D01*
X011355Y013345D01*
X010693Y012683D01*
X010693Y012210D01*
X010388Y012210D01*
X010318Y012140D01*
X010318Y011540D01*
X010378Y011480D01*
X010378Y011182D01*
X010516Y011044D01*
X010516Y011024D01*
X010433Y011107D01*
X010330Y011107D01*
X010330Y011412D01*
X010260Y011482D01*
X010257Y011482D01*
X010257Y012267D01*
X011131Y013141D01*
X011132Y013141D01*
X011284Y013293D01*
X011284Y013507D01*
X011204Y013587D01*
X011284Y013668D01*
X011284Y013882D01*
X011132Y014034D01*
X010918Y014034D01*
X010766Y013882D01*
X010766Y013756D01*
X010480Y013470D01*
X010480Y013220D01*
X010400Y013141D01*
X010257Y013284D01*
X010043Y013284D01*
X009954Y013195D01*
X009409Y013195D01*
X009409Y013257D01*
X009257Y013409D01*
X009043Y013409D01*
X009007Y013374D01*
X009007Y013551D01*
X009043Y013516D01*
X009257Y013516D01*
X009409Y013668D01*
X009409Y013757D01*
X009707Y013980D01*
X009954Y013980D01*
X010043Y013891D01*
X010257Y013891D01*
X010409Y014043D01*
X010409Y014150D01*
X010543Y014016D01*
X010757Y014016D01*
X010909Y014168D01*
X010909Y014294D01*
X011220Y014605D01*
X011320Y014705D01*
X011320Y014886D01*
X011412Y014794D01*
X011566Y014730D01*
X011734Y014730D01*
X011888Y014794D01*
X012006Y014912D01*
X012070Y015066D01*
X012070Y015234D01*
X012042Y015301D01*
X012220Y015480D01*
X012386Y015480D01*
X012294Y015388D01*
X012230Y015234D01*
X012230Y015066D01*
X012294Y014912D01*
X012412Y014794D01*
X012566Y014730D01*
X012734Y014730D01*
X012888Y014794D01*
X013006Y014912D01*
X013070Y015066D01*
X013070Y015234D01*
X013006Y015388D01*
X012914Y015480D01*
X012955Y015480D01*
X013205Y015230D01*
X013704Y015230D01*
X013793Y015141D01*
X014007Y015141D01*
X014159Y015293D01*
X014159Y015507D01*
X014007Y015659D01*
X013793Y015659D01*
X013704Y015570D01*
X013345Y015570D01*
X013195Y015720D01*
X013095Y015820D01*
X013070Y015820D01*
X013070Y016500D01*
X013000Y016570D01*
X012300Y016570D01*
X012230Y016500D01*
X012230Y015820D01*
X012080Y015820D01*
X011980Y015720D01*
X011801Y015542D01*
X011734Y015570D01*
X011566Y015570D01*
X011412Y015506D01*
X011320Y015414D01*
X011320Y015580D01*
X011499Y015758D01*
X011498Y015758D01*
X011499Y015758D02*
X011566Y015730D01*
X011734Y015730D01*
X011888Y015794D01*
X012006Y015912D01*
X012070Y016066D01*
X012070Y016234D01*
X012006Y016388D01*
X011888Y016506D01*
X011734Y016570D01*
X011566Y016570D01*
X011412Y016506D01*
X011294Y016388D01*
X011230Y016234D01*
X011230Y016066D01*
X011258Y015999D01*
X010980Y015720D01*
X010980Y014845D01*
X010669Y014534D01*
X010631Y014534D01*
X010470Y014695D01*
X009471Y014695D01*
X009382Y014784D01*
X009168Y014784D01*
X009016Y014632D01*
X009016Y014418D01*
X009168Y014266D01*
X009382Y014266D01*
X009471Y014355D01*
X009989Y014355D01*
X009954Y014320D01*
X009662Y014320D01*
X009604Y014328D01*
X009593Y014320D01*
X009580Y014320D01*
X009538Y014279D01*
X009212Y014034D01*
X009043Y014034D01*
X009007Y013999D01*
X009007Y014705D01*
X010271Y015968D01*
X010294Y015912D01*
X010412Y015794D01*
X010566Y015730D01*
X010734Y015730D01*
X010888Y015794D01*
X011006Y015912D01*
X011070Y016066D01*
X011070Y016234D01*
X011006Y016388D01*
X010888Y016506D01*
X010734Y016570D01*
X010566Y016570D01*
X010412Y016506D01*
X010294Y016388D01*
X010266Y016320D01*
X010142Y016320D01*
X009820Y015998D01*
X009820Y016079D01*
X009909Y016168D01*
X009909Y016382D01*
X009757Y016534D01*
X009543Y016534D01*
X009391Y016382D01*
X009391Y016168D01*
X009480Y016079D01*
X009480Y015970D01*
X008830Y015320D01*
X008801Y015320D01*
X008801Y015483D01*
X008731Y015553D01*
X008317Y015553D01*
X008247Y015483D01*
X008247Y015029D01*
X008317Y014959D01*
X008354Y014959D01*
X008354Y014880D01*
X007946Y014880D01*
X007946Y014959D01*
X007983Y014959D01*
X008053Y015029D01*
X008053Y015483D01*
X007983Y015553D01*
X007570Y015553D01*
X007570Y016330D01*
X008275Y017035D01*
X008353Y017035D01*
X008480Y017162D01*
X008480Y017080D01*
X008580Y016980D01*
X008730Y016830D01*
X008730Y016096D01*
X008641Y016007D01*
X008641Y015793D01*
X008793Y015641D01*
X009007Y015641D01*
X009159Y015793D01*
X009159Y016007D01*
X009070Y016096D01*
X009070Y016970D01*
X009005Y017035D01*
X009353Y017035D01*
X009443Y017125D01*
X009999Y017125D01*
X009999Y017109D01*
X010069Y017039D01*
X011231Y017039D01*
X011301Y017109D01*
X011301Y017838D01*
X011231Y017909D01*
X010769Y017909D01*
X010730Y017925D01*
X009443Y017925D01*
X009353Y018015D01*
X008947Y018015D01*
X008820Y017888D01*
X008820Y018035D01*
X009570Y018035D01*
X009640Y018105D01*
X009640Y018945D01*
X009570Y019015D01*
X008730Y019015D01*
X008660Y018945D01*
X008660Y018355D01*
X008640Y018370D01*
X008640Y018728D01*
X008353Y019015D01*
X007947Y019015D01*
X007660Y018728D01*
X007660Y018322D01*
X007947Y018035D01*
X008353Y018035D01*
X008425Y018107D01*
X008480Y018065D01*
X008480Y017888D01*
X008353Y018015D01*
X007947Y018015D01*
X007660Y017728D01*
X007660Y017322D01*
X007871Y017111D01*
X007330Y016570D01*
X007330Y016570D01*
X007230Y016470D01*
X007230Y015220D01*
X007070Y015060D01*
X007070Y015720D01*
X006970Y015820D01*
X006841Y015820D01*
X006841Y016231D01*
X006771Y016301D01*
X006317Y016301D01*
X006247Y016231D01*
X006247Y016194D01*
X005341Y016194D01*
X005341Y016231D01*
X005271Y016301D01*
X004817Y016301D01*
X004747Y016231D01*
X004747Y016034D01*
X004668Y016034D01*
X004516Y015882D01*
X004516Y015668D01*
X004668Y015516D01*
X004779Y015516D01*
X004747Y015483D01*
X004747Y015069D01*
X004817Y014999D01*
X005271Y014999D01*
X005341Y015069D01*
X005341Y015106D01*
X005730Y015106D01*
X005730Y015096D01*
X005641Y015007D01*
X005641Y014793D01*
X005740Y014694D01*
X005341Y014694D01*
X005341Y014731D01*
X005271Y014801D01*
X004817Y014801D01*
X004747Y014731D01*
X004747Y014487D01*
X004580Y014320D01*
X004480Y014220D01*
X004480Y013721D01*
X004391Y013632D01*
X004391Y013418D01*
X004543Y013266D01*
X004757Y013266D01*
X004909Y013418D01*
X004909Y013499D01*
X004980Y013499D01*
X004980Y013345D01*
X004919Y013284D01*
X004793Y013284D01*
X004641Y013132D01*
X004641Y012918D01*
X004793Y012766D01*
X005007Y012766D01*
X005159Y012918D01*
X005159Y013044D01*
X005220Y013105D01*
X005220Y013105D01*
X005320Y013205D01*
X005320Y013548D01*
X005341Y013569D01*
X005341Y013606D01*
X005490Y013606D01*
X005391Y013507D01*
X005391Y013293D01*
X005543Y013141D01*
X005757Y013141D01*
X005846Y013230D01*
X006970Y013230D01*
X007470Y013730D01*
X007499Y013758D01*
X007499Y013529D01*
X007569Y013459D01*
X007980Y013459D01*
X007980Y012596D01*
X007891Y012507D01*
X007891Y012293D01*
X007965Y012219D01*
X007965Y011718D01*
X008033Y011650D01*
X007965Y011582D01*
X007965Y010970D01*
X008035Y010900D01*
X008230Y010900D01*
X008230Y010481D01*
X008070Y010654D01*
X008070Y010658D01*
X008023Y010705D01*
X007977Y010755D01*
X007973Y010755D01*
X007970Y010757D01*
X007903Y010757D01*
X007836Y010760D01*
X007834Y010757D01*
X007596Y010757D01*
X007507Y010847D01*
X007293Y010847D01*
X007141Y010695D01*
X007141Y010525D01*
X007132Y010534D01*
X006918Y010534D01*
X006766Y010382D01*
X006766Y010168D01*
X006918Y010016D01*
X007132Y010016D01*
X007221Y010105D01*
X007830Y010105D01*
X008580Y009355D01*
X008481Y009454D02*
X006518Y009454D01*
X006518Y009553D02*
X008382Y009553D01*
X008284Y009651D02*
X006518Y009651D01*
X006481Y009750D02*
X008185Y009750D01*
X008087Y009848D02*
X005588Y009848D01*
X005650Y009794D02*
X005650Y009794D01*
X005650Y009794D01*
X005687Y009947D02*
X007988Y009947D01*
X007890Y010045D02*
X007161Y010045D01*
X007025Y010275D02*
X007900Y010275D01*
X008650Y009525D01*
X009275Y009525D01*
X009437Y009363D01*
X009960Y009363D01*
X009960Y009678D02*
X009497Y009678D01*
X009400Y009775D01*
X008650Y009775D01*
X007900Y010588D01*
X007400Y010588D01*
X007141Y010636D02*
X006876Y010636D01*
X006778Y010538D02*
X007141Y010538D01*
X007181Y010735D02*
X006975Y010735D01*
X007073Y010833D02*
X007279Y010833D01*
X007521Y010833D02*
X008230Y010833D01*
X008230Y010735D02*
X007996Y010735D01*
X008087Y010636D02*
X008230Y010636D01*
X008230Y010538D02*
X008177Y010538D01*
X008400Y010400D02*
X008400Y011276D01*
X008401Y011275D01*
X008650Y011275D01*
X008900Y011525D01*
X008900Y012775D01*
X008838Y012775D01*
X008838Y014775D01*
X010213Y016150D01*
X010650Y016150D01*
X011070Y016152D02*
X011230Y016152D01*
X011235Y016054D02*
X011065Y016054D01*
X011024Y015955D02*
X011215Y015955D01*
X011116Y015857D02*
X010951Y015857D01*
X011018Y015758D02*
X010801Y015758D01*
X010980Y015660D02*
X009962Y015660D01*
X010061Y015758D02*
X010499Y015758D01*
X010349Y015857D02*
X010159Y015857D01*
X010258Y015955D02*
X010276Y015955D01*
X009974Y016152D02*
X009893Y016152D01*
X009909Y016251D02*
X010073Y016251D01*
X009909Y016349D02*
X010278Y016349D01*
X010354Y016448D02*
X009844Y016448D01*
X009650Y016275D02*
X009650Y015900D01*
X008900Y015150D01*
X008630Y015150D01*
X008524Y015256D01*
X008524Y013756D01*
X009007Y013493D02*
X010502Y013493D01*
X010480Y013394D02*
X009272Y013394D01*
X009371Y013296D02*
X010480Y013296D01*
X010457Y013197D02*
X010344Y013197D01*
X010150Y013025D02*
X009275Y013025D01*
X009150Y013150D01*
X009409Y013197D02*
X009956Y013197D01*
X010650Y013150D02*
X010650Y013400D01*
X011025Y013775D01*
X011207Y013591D02*
X011355Y013591D01*
X011355Y013493D02*
X011284Y013493D01*
X011284Y013394D02*
X011355Y013394D01*
X011305Y013296D02*
X011284Y013296D01*
X011207Y013197D02*
X011188Y013197D01*
X011108Y013099D02*
X011089Y013099D01*
X011010Y013000D02*
X010990Y013000D01*
X010911Y012902D02*
X010892Y012902D01*
X010813Y012803D02*
X010793Y012803D01*
X010714Y012705D02*
X010695Y012705D01*
X010693Y012606D02*
X010596Y012606D01*
X010693Y012508D02*
X010498Y012508D01*
X010399Y012409D02*
X010693Y012409D01*
X010693Y012311D02*
X010301Y012311D01*
X010257Y012212D02*
X010693Y012212D01*
X011033Y012212D02*
X011567Y012212D01*
X011567Y012114D02*
X011408Y012114D01*
X011408Y012015D02*
X011567Y012015D01*
X011567Y011917D02*
X011408Y011917D01*
X011408Y011818D02*
X011567Y011818D01*
X011567Y011720D02*
X011408Y011720D01*
X011408Y011621D02*
X011567Y011621D01*
X011567Y011523D02*
X011390Y011523D01*
X011320Y011424D02*
X011567Y011424D01*
X011579Y011326D02*
X011320Y011326D01*
X011320Y011227D02*
X011641Y011227D01*
X011891Y011129D02*
X011320Y011129D01*
X011324Y011030D02*
X011966Y011030D01*
X012334Y011030D02*
X012970Y011030D01*
X012970Y010932D02*
X011409Y010932D01*
X011409Y010833D02*
X012467Y010833D01*
X012391Y010735D02*
X011409Y010735D01*
X011525Y010525D02*
X011650Y010400D01*
X011525Y010525D02*
X010775Y010525D01*
X010363Y010937D01*
X009960Y010937D01*
X009932Y010650D02*
X009650Y010650D01*
X009525Y010775D01*
X009525Y011400D01*
X009900Y011775D01*
X009900Y012400D01*
X010650Y013150D01*
X011025Y013275D02*
X010088Y012338D01*
X010088Y011380D01*
X009960Y011252D01*
X010330Y011227D02*
X010378Y011227D01*
X010378Y011326D02*
X010330Y011326D01*
X010318Y011424D02*
X010378Y011424D01*
X010335Y011523D02*
X010257Y011523D01*
X010257Y011621D02*
X010318Y011621D01*
X010318Y011720D02*
X010257Y011720D01*
X010257Y011818D02*
X010318Y011818D01*
X010318Y011917D02*
X010257Y011917D01*
X010257Y012015D02*
X010318Y012015D01*
X010318Y012114D02*
X010257Y012114D01*
X010548Y011840D02*
X010548Y011252D01*
X010775Y011025D01*
X010516Y011030D02*
X010510Y011030D01*
X010431Y011129D02*
X010330Y011129D01*
X009932Y010650D02*
X009960Y010622D01*
X009960Y010307D02*
X011368Y010307D01*
X011650Y010025D01*
X011839Y009848D02*
X012712Y009848D01*
X012613Y009947D02*
X011909Y009947D01*
X011909Y010045D02*
X012515Y010045D01*
X012480Y010144D02*
X011898Y010144D01*
X011858Y010242D02*
X012480Y010242D01*
X012480Y010341D02*
X011909Y010341D01*
X011909Y010439D02*
X012480Y010439D01*
X012396Y010538D02*
X011879Y010538D01*
X011780Y010636D02*
X012391Y010636D01*
X012650Y010650D02*
X012650Y010150D01*
X012807Y009993D01*
X013340Y009993D01*
X013340Y010307D02*
X014118Y010307D01*
X014150Y010275D02*
X014650Y009775D01*
X014650Y009025D01*
X015150Y008525D01*
X015150Y007400D01*
X016400Y006150D01*
X016400Y006145D01*
X016717Y006105D02*
X017105Y006105D01*
X017105Y006007D02*
X016717Y006007D01*
X016717Y005908D02*
X017105Y005908D01*
X017068Y005810D02*
X016717Y005810D01*
X016717Y005711D02*
X017016Y005711D01*
X017016Y005613D02*
X016717Y005613D01*
X016717Y005514D02*
X017045Y005514D01*
X017275Y005650D02*
X017275Y006275D01*
X017650Y006650D01*
X020900Y006650D01*
X021400Y007150D01*
X023400Y007150D01*
X023525Y007275D01*
X026650Y007275D01*
X026894Y007519D01*
X026894Y007815D01*
X026695Y007780D02*
X025572Y007780D01*
X025572Y007878D02*
X026695Y007878D01*
X026695Y007977D02*
X025572Y007977D01*
X025572Y008075D02*
X026980Y008075D01*
X026980Y008073D02*
X026766Y008073D01*
X026695Y008003D01*
X026695Y007628D01*
X026724Y007599D01*
X026724Y007590D01*
X026580Y007445D01*
X023685Y007445D01*
X023970Y007730D01*
X024728Y007730D01*
X024728Y007600D01*
X024798Y007530D01*
X025148Y007530D01*
X025150Y007532D01*
X025152Y007530D01*
X025502Y007530D01*
X025572Y007600D01*
X025572Y008200D01*
X025502Y008270D01*
X025497Y008270D01*
X025497Y008436D01*
X025543Y008391D01*
X025757Y008391D01*
X025909Y008543D01*
X025909Y008757D01*
X025757Y008909D01*
X025543Y008909D01*
X025454Y008820D01*
X025320Y008820D01*
X025320Y009308D01*
X025534Y009308D01*
X025605Y009378D01*
X025605Y009524D01*
X026043Y009962D01*
X026100Y009905D01*
X026700Y009905D01*
X026770Y009975D01*
X026770Y010325D01*
X026770Y010675D01*
X026700Y010745D01*
X026640Y010745D01*
X026640Y010821D01*
X026785Y010676D01*
X026785Y008977D01*
X026822Y008889D01*
X026889Y008822D01*
X026977Y008785D01*
X027700Y008785D01*
X027700Y008350D01*
X027605Y008350D01*
X027605Y008672D01*
X027534Y008742D01*
X027022Y008742D01*
X026951Y008672D01*
X026951Y008297D01*
X026980Y008268D01*
X026980Y008073D01*
X026980Y008174D02*
X025572Y008174D01*
X025497Y008272D02*
X026976Y008272D01*
X026951Y008371D02*
X025497Y008371D01*
X025327Y008473D02*
X025150Y008650D01*
X025150Y010235D01*
X024951Y010242D02*
X024270Y010242D01*
X024270Y010325D02*
X024270Y010325D01*
X024270Y010675D01*
X024200Y010745D01*
X024140Y010745D01*
X024140Y011030D01*
X024386Y011030D01*
X024410Y011005D01*
X025140Y011005D01*
X025164Y011030D01*
X026160Y011030D01*
X026160Y010745D01*
X026100Y010745D01*
X026030Y010675D01*
X026030Y010325D01*
X026030Y010325D01*
X026030Y010320D01*
X025920Y010320D01*
X025423Y009823D01*
X025320Y009823D01*
X025320Y009977D01*
X025534Y009977D01*
X025605Y010047D01*
X025605Y010422D01*
X025534Y010492D01*
X025022Y010492D01*
X024951Y010422D01*
X024951Y010047D01*
X024980Y010018D01*
X024980Y009823D01*
X024766Y009823D01*
X024695Y009753D01*
X024695Y009378D01*
X024724Y009349D01*
X024724Y008965D01*
X023830Y008070D01*
X023330Y007570D01*
X023042Y007570D01*
X023072Y007600D01*
X023072Y008200D01*
X023002Y008270D01*
X022997Y008270D01*
X022997Y008436D01*
X023043Y008391D01*
X023257Y008391D01*
X023409Y008543D01*
X023409Y008757D01*
X023257Y008909D01*
X023043Y008909D01*
X022954Y008820D01*
X022820Y008820D01*
X022820Y009308D01*
X023034Y009308D01*
X023105Y009378D01*
X023105Y009524D01*
X023543Y009962D01*
X023600Y009905D01*
X024200Y009905D01*
X024270Y009975D01*
X024270Y010325D01*
X024270Y010325D01*
X024270Y010341D02*
X024951Y010341D01*
X024968Y010439D02*
X024270Y010439D01*
X024270Y010538D02*
X026030Y010538D01*
X026030Y010636D02*
X024270Y010636D01*
X024210Y010735D02*
X026090Y010735D01*
X026160Y010833D02*
X024140Y010833D01*
X024140Y010932D02*
X026160Y010932D01*
X026710Y010735D02*
X026726Y010735D01*
X026770Y010636D02*
X026785Y010636D01*
X026785Y010538D02*
X026770Y010538D01*
X026770Y010439D02*
X026785Y010439D01*
X026785Y010341D02*
X026770Y010341D01*
X026770Y010325D02*
X026770Y010325D01*
X026770Y010325D01*
X026770Y010242D02*
X026785Y010242D01*
X026785Y010144D02*
X026770Y010144D01*
X026770Y010045D02*
X026785Y010045D01*
X026785Y009947D02*
X026741Y009947D01*
X026785Y009848D02*
X025929Y009848D01*
X026027Y009947D02*
X026059Y009947D01*
X025991Y010150D02*
X025406Y009565D01*
X025605Y009454D02*
X026785Y009454D01*
X026785Y009356D02*
X025582Y009356D01*
X025633Y009553D02*
X026785Y009553D01*
X026785Y009651D02*
X025732Y009651D01*
X025830Y009750D02*
X026785Y009750D01*
X026400Y010150D02*
X025991Y010150D01*
X025842Y010242D02*
X025605Y010242D01*
X025605Y010144D02*
X025744Y010144D01*
X025645Y010045D02*
X025603Y010045D01*
X025547Y009947D02*
X025320Y009947D01*
X025320Y009848D02*
X025448Y009848D01*
X024980Y009848D02*
X023429Y009848D01*
X023527Y009947D02*
X023559Y009947D01*
X023491Y010150D02*
X022906Y009565D01*
X023105Y009454D02*
X024695Y009454D01*
X024695Y009553D02*
X023133Y009553D01*
X023232Y009651D02*
X024695Y009651D01*
X024695Y009750D02*
X023330Y009750D01*
X023047Y009947D02*
X022820Y009947D01*
X022820Y009977D02*
X022820Y009823D01*
X022923Y009823D01*
X023420Y010320D01*
X023530Y010320D01*
X023530Y010325D01*
X023530Y010325D01*
X023530Y010675D01*
X023600Y010745D01*
X023660Y010745D01*
X023660Y011080D01*
X022783Y011080D01*
X022456Y010754D01*
X022339Y010705D01*
X021740Y010705D01*
X021770Y010675D01*
X021770Y010325D01*
X021770Y010325D01*
X021770Y010325D01*
X021770Y009975D01*
X021700Y009905D01*
X021100Y009905D01*
X021043Y009962D01*
X020605Y009524D01*
X020605Y009378D01*
X020534Y009308D01*
X020320Y009308D01*
X020320Y008820D01*
X020454Y008820D01*
X020543Y008909D01*
X020757Y008909D01*
X020909Y008757D01*
X020909Y008543D01*
X020757Y008391D01*
X020543Y008391D01*
X020497Y008436D01*
X020497Y008270D01*
X020502Y008270D01*
X020572Y008200D01*
X020572Y007600D01*
X020502Y007530D01*
X020152Y007530D01*
X020150Y007532D01*
X020148Y007530D01*
X019798Y007530D01*
X019728Y007600D01*
X019728Y007730D01*
X018970Y007730D01*
X018570Y007330D01*
X018560Y007320D01*
X020580Y007320D01*
X021230Y007970D01*
X021330Y008070D01*
X021330Y008070D01*
X022224Y008965D01*
X022224Y009349D01*
X022195Y009378D01*
X022195Y009753D01*
X022266Y009823D01*
X022480Y009823D01*
X022480Y010018D01*
X022451Y010047D01*
X022451Y010422D01*
X022522Y010492D01*
X023034Y010492D01*
X023105Y010422D01*
X023105Y010047D01*
X023034Y009977D01*
X022820Y009977D01*
X022820Y009848D02*
X022948Y009848D01*
X023103Y010045D02*
X023145Y010045D01*
X023105Y010144D02*
X023244Y010144D01*
X023342Y010242D02*
X023105Y010242D01*
X023105Y010341D02*
X023530Y010341D01*
X023530Y010325D02*
X023530Y010325D01*
X023530Y010439D02*
X023088Y010439D01*
X023530Y010538D02*
X021770Y010538D01*
X021770Y010636D02*
X023530Y010636D01*
X023590Y010735D02*
X022410Y010735D01*
X022536Y010833D02*
X023660Y010833D01*
X023660Y010932D02*
X022634Y010932D01*
X022733Y011030D02*
X023660Y011030D01*
X022585Y011720D02*
X021960Y011720D01*
X022058Y011818D02*
X026030Y011818D01*
X026030Y011917D02*
X022157Y011917D01*
X022255Y012015D02*
X026030Y012015D01*
X026030Y012114D02*
X022354Y012114D01*
X022452Y012212D02*
X026030Y012212D01*
X026030Y012311D02*
X024282Y012311D01*
X024322Y012409D02*
X026030Y012409D01*
X026030Y012508D02*
X024322Y012508D01*
X024322Y012606D02*
X026030Y012606D01*
X026030Y012705D02*
X024322Y012705D01*
X024322Y012803D02*
X025974Y012803D01*
X025875Y012902D02*
X024322Y012902D01*
X024272Y013000D02*
X025777Y013000D01*
X025678Y013099D02*
X024247Y013099D01*
X024077Y013223D02*
X023900Y013400D01*
X024400Y013400D01*
X024659Y013394D02*
X025530Y013394D01*
X025530Y013493D02*
X024659Y013493D01*
X024575Y013591D02*
X025530Y013591D01*
X025530Y013690D02*
X024070Y013690D01*
X024070Y013788D02*
X025530Y013788D01*
X025530Y013887D02*
X024070Y013887D01*
X024070Y013985D02*
X025530Y013985D01*
X025530Y014084D02*
X024310Y014084D01*
X024355Y014182D02*
X025530Y014182D01*
X025530Y014281D02*
X024361Y014281D01*
X024460Y014379D02*
X025530Y014379D01*
X025530Y014478D02*
X024558Y014478D01*
X024657Y014576D02*
X025530Y014576D01*
X025530Y014675D02*
X025469Y014675D01*
X025520Y014773D02*
X025530Y014773D01*
X025520Y014872D02*
X025530Y014872D01*
X025520Y014970D02*
X025530Y014970D01*
X025520Y015069D02*
X025530Y015069D01*
X025520Y015075D02*
X025520Y015075D01*
X025520Y015075D01*
X025520Y015167D02*
X025530Y015167D01*
X025520Y015266D02*
X025530Y015266D01*
X025520Y015364D02*
X025530Y015364D01*
X025150Y014900D02*
X024741Y014900D01*
X024156Y014315D01*
X024173Y014573D02*
X024070Y014573D01*
X024070Y014727D01*
X024284Y014727D01*
X024355Y014797D01*
X024355Y015172D01*
X024284Y015242D01*
X023772Y015242D01*
X023701Y015172D01*
X023701Y014797D01*
X023730Y014768D01*
X023730Y014573D01*
X023516Y014573D01*
X023445Y014503D01*
X023445Y014128D01*
X023474Y014099D01*
X023474Y013715D01*
X022580Y012820D01*
X021580Y011820D01*
X019560Y011820D01*
X019570Y011830D01*
X020220Y012480D01*
X020978Y012480D01*
X020978Y012350D01*
X021048Y012280D01*
X021398Y012280D01*
X021400Y012282D01*
X021402Y012280D01*
X021752Y012280D01*
X021822Y012350D01*
X021822Y012950D01*
X021752Y013020D01*
X021747Y013020D01*
X021747Y013186D01*
X021793Y013141D01*
X022007Y013141D01*
X022159Y013293D01*
X022159Y013507D01*
X022007Y013659D01*
X021793Y013659D01*
X021704Y013570D01*
X021570Y013570D01*
X021570Y014058D01*
X021784Y014058D01*
X021855Y014128D01*
X021855Y014274D01*
X022293Y014712D01*
X022350Y014655D01*
X022950Y014655D01*
X023020Y014725D01*
X023020Y015075D01*
X023020Y015400D01*
X024780Y015400D01*
X024780Y015075D01*
X024780Y015075D01*
X024780Y015070D01*
X024670Y015070D01*
X024173Y014573D01*
X024176Y014576D02*
X024070Y014576D01*
X024070Y014675D02*
X024275Y014675D01*
X024331Y014773D02*
X024373Y014773D01*
X024355Y014872D02*
X024472Y014872D01*
X024570Y014970D02*
X024355Y014970D01*
X024355Y015069D02*
X024669Y015069D01*
X024780Y015075D02*
X024780Y015075D01*
X024780Y015167D02*
X024355Y015167D01*
X023900Y014985D02*
X023900Y013400D01*
X024077Y013223D02*
X024077Y012650D01*
X023723Y012650D02*
X022650Y012650D01*
X021650Y011650D01*
X013900Y011650D01*
X013150Y012400D01*
X012275Y012400D01*
X012122Y012247D01*
X012122Y011840D01*
X012437Y011840D02*
X012437Y011437D01*
X012400Y011400D01*
X012566Y011227D02*
X012970Y011227D01*
X012970Y011129D02*
X012409Y011129D01*
X012629Y011326D02*
X012970Y011326D01*
X012982Y011424D02*
X012640Y011424D01*
X012965Y011523D02*
X013787Y011523D01*
X013698Y011424D02*
X022221Y011424D01*
X022320Y011523D02*
X021763Y011523D01*
X021861Y011621D02*
X022418Y011621D01*
X021873Y012114D02*
X019854Y012114D01*
X019952Y012212D02*
X021972Y012212D01*
X022070Y012311D02*
X021782Y012311D01*
X021822Y012409D02*
X022169Y012409D01*
X022267Y012508D02*
X021822Y012508D01*
X021822Y012606D02*
X022366Y012606D01*
X022464Y012705D02*
X021822Y012705D01*
X021822Y012803D02*
X022563Y012803D01*
X022661Y012902D02*
X021822Y012902D01*
X021772Y013000D02*
X022760Y013000D01*
X022858Y013099D02*
X021747Y013099D01*
X021577Y013223D02*
X021400Y013400D01*
X021900Y013400D01*
X022159Y013394D02*
X023154Y013394D01*
X023252Y013493D02*
X022159Y013493D01*
X022075Y013591D02*
X023351Y013591D01*
X023449Y013690D02*
X021570Y013690D01*
X021570Y013788D02*
X023474Y013788D01*
X023474Y013887D02*
X021570Y013887D01*
X021570Y013985D02*
X023474Y013985D01*
X023474Y014084D02*
X021810Y014084D01*
X021855Y014182D02*
X023445Y014182D01*
X023445Y014281D02*
X021861Y014281D01*
X021960Y014379D02*
X023445Y014379D01*
X023445Y014478D02*
X022058Y014478D01*
X022157Y014576D02*
X023730Y014576D01*
X023730Y014675D02*
X022969Y014675D01*
X023020Y014773D02*
X023725Y014773D01*
X023701Y014872D02*
X023020Y014872D01*
X023020Y014970D02*
X023701Y014970D01*
X023701Y015069D02*
X023020Y015069D01*
X023020Y015075D02*
X023020Y015075D01*
X023020Y015075D01*
X023020Y015167D02*
X023701Y015167D01*
X023020Y015266D02*
X024780Y015266D01*
X024780Y015364D02*
X023020Y015364D01*
X022650Y014900D02*
X022241Y014900D01*
X021656Y014315D01*
X021673Y014573D02*
X021570Y014573D01*
X021570Y014727D01*
X021784Y014727D01*
X021855Y014797D01*
X021855Y015172D01*
X021784Y015242D01*
X021272Y015242D01*
X021201Y015172D01*
X021201Y014797D01*
X021230Y014768D01*
X021230Y014573D01*
X021016Y014573D01*
X020945Y014503D01*
X020945Y014128D01*
X020974Y014099D01*
X020974Y013715D01*
X020080Y012820D01*
X019980Y012720D01*
X019330Y012070D01*
X017310Y012070D01*
X017720Y012480D01*
X018478Y012480D01*
X018478Y012350D01*
X018548Y012280D01*
X018898Y012280D01*
X018900Y012282D01*
X018902Y012280D01*
X019252Y012280D01*
X019322Y012350D01*
X019322Y012950D01*
X019252Y013020D01*
X019247Y013020D01*
X019247Y013186D01*
X019293Y013141D01*
X019507Y013141D01*
X019659Y013293D01*
X019659Y013507D01*
X019507Y013659D01*
X019293Y013659D01*
X019204Y013570D01*
X019070Y013570D01*
X019070Y014058D01*
X019284Y014058D01*
X019355Y014128D01*
X019355Y014274D01*
X019793Y014712D01*
X019850Y014655D01*
X020450Y014655D01*
X020520Y014725D01*
X020520Y015075D01*
X020520Y015400D01*
X022280Y015400D01*
X022280Y015075D01*
X022280Y015075D01*
X022280Y015070D01*
X022170Y015070D01*
X021673Y014573D01*
X021676Y014576D02*
X021570Y014576D01*
X021570Y014675D02*
X021775Y014675D01*
X021831Y014773D02*
X021873Y014773D01*
X021855Y014872D02*
X021972Y014872D01*
X022070Y014970D02*
X021855Y014970D01*
X021855Y015069D02*
X022169Y015069D01*
X022280Y015075D02*
X022280Y015075D01*
X022280Y015167D02*
X021855Y015167D01*
X021400Y014985D02*
X021400Y013400D01*
X021577Y013223D02*
X021577Y012650D01*
X021223Y012650D02*
X020150Y012650D01*
X019400Y011900D01*
X014275Y011900D01*
X013900Y012150D01*
X013492Y011818D02*
X013159Y011818D01*
X013159Y011917D02*
X013393Y011917D01*
X013295Y012015D02*
X013151Y012015D01*
X013196Y012114D02*
X013053Y012114D01*
X013098Y012212D02*
X012327Y012212D01*
X012752Y011840D02*
X012840Y011840D01*
X012900Y011900D01*
X013086Y011720D02*
X013590Y011720D01*
X013689Y011621D02*
X012982Y011621D01*
X013340Y011252D02*
X014798Y011252D01*
X015025Y011025D01*
X015189Y011227D02*
X018649Y011227D01*
X018597Y011129D02*
X015538Y011129D01*
X015636Y011030D02*
X018580Y011030D01*
X018592Y010932D02*
X015659Y010932D01*
X015659Y010833D02*
X018639Y010833D01*
X018590Y010735D02*
X015601Y010735D01*
X015376Y010636D02*
X018530Y010636D01*
X018530Y010538D02*
X015278Y010538D01*
X015150Y010650D02*
X014775Y010650D01*
X014488Y010937D01*
X013340Y010937D01*
X012970Y010833D02*
X012833Y010833D01*
X012909Y010735D02*
X012970Y010735D01*
X012970Y010636D02*
X012909Y010636D01*
X012904Y010538D02*
X012970Y010538D01*
X012970Y010439D02*
X012820Y010439D01*
X012820Y010341D02*
X012970Y010341D01*
X012970Y010242D02*
X012820Y010242D01*
X012970Y009750D02*
X011034Y009750D01*
X011034Y009651D02*
X012970Y009651D01*
X012970Y009553D02*
X011034Y009553D01*
X010945Y009454D02*
X011463Y009454D01*
X011454Y009445D02*
X011205Y009445D01*
X011105Y009345D01*
X010693Y008933D01*
X010693Y008830D01*
X010388Y008830D01*
X010318Y008760D01*
X010318Y008160D01*
X010378Y008100D01*
X010378Y007688D01*
X010368Y007634D01*
X010378Y007619D01*
X010378Y007602D01*
X010391Y007589D01*
X010391Y007418D01*
X010543Y007266D01*
X010757Y007266D01*
X010909Y007418D01*
X010909Y007632D01*
X010757Y007784D01*
X010718Y007784D01*
X010718Y008090D01*
X011022Y008090D01*
X011093Y008160D01*
X011093Y008760D01*
X011046Y008806D01*
X011345Y009105D01*
X011454Y009105D01*
X011543Y009016D01*
X011757Y009016D01*
X011909Y009168D01*
X011909Y009382D01*
X011757Y009534D01*
X011543Y009534D01*
X011454Y009445D01*
X011275Y009275D02*
X011650Y009275D01*
X011837Y009454D02*
X012970Y009454D01*
X012970Y009356D02*
X011909Y009356D01*
X011909Y009257D02*
X012970Y009257D01*
X012970Y009159D02*
X011900Y009159D01*
X011801Y009060D02*
X012970Y009060D01*
X012970Y008962D02*
X011202Y008962D01*
X011300Y009060D02*
X011499Y009060D01*
X011652Y008830D02*
X011333Y008830D01*
X011263Y008760D01*
X011263Y008532D01*
X011253Y008508D01*
X011253Y007760D01*
X011266Y007727D01*
X011266Y007668D01*
X011285Y007649D01*
X011285Y007526D01*
X011266Y007507D01*
X011266Y007315D01*
X011179Y007315D01*
X011109Y007245D01*
X011109Y006555D01*
X011179Y006485D01*
X011790Y006485D01*
X011861Y006555D01*
X011861Y007245D01*
X011790Y007315D01*
X011784Y007315D01*
X011784Y007320D01*
X012189Y007725D01*
X012258Y007754D01*
X012296Y007791D01*
X012670Y007417D01*
X012670Y007016D01*
X012740Y006945D01*
X013115Y006945D01*
X013185Y007016D01*
X013185Y007730D01*
X013580Y007730D01*
X013615Y007695D01*
X013615Y007016D01*
X013685Y006945D01*
X014060Y006945D01*
X014130Y007016D01*
X014130Y007784D01*
X014060Y007855D01*
X013936Y007855D01*
X013720Y008070D01*
X013220Y008070D01*
X012982Y008308D01*
X012982Y008760D01*
X012912Y008830D01*
X011963Y008830D01*
X011892Y008760D01*
X011892Y008532D01*
X011882Y008508D01*
X011882Y008097D01*
X011733Y007947D01*
X011733Y008508D01*
X011723Y008532D01*
X011723Y008760D01*
X011652Y008830D01*
X011718Y008765D02*
X011897Y008765D01*
X011892Y008666D02*
X011723Y008666D01*
X011723Y008568D02*
X011892Y008568D01*
X011882Y008469D02*
X011733Y008469D01*
X011733Y008371D02*
X011882Y008371D01*
X011882Y008272D02*
X011733Y008272D01*
X011733Y008174D02*
X011882Y008174D01*
X011861Y008075D02*
X011733Y008075D01*
X011733Y007977D02*
X011762Y007977D01*
X011525Y007775D02*
X011493Y007807D01*
X011253Y007780D02*
X010762Y007780D01*
X010718Y007878D02*
X011253Y007878D01*
X011253Y007977D02*
X010718Y007977D01*
X010718Y008075D02*
X011253Y008075D01*
X011253Y008174D02*
X011093Y008174D01*
X011093Y008272D02*
X011253Y008272D01*
X011253Y008371D02*
X011093Y008371D01*
X011093Y008469D02*
X011253Y008469D01*
X011263Y008568D02*
X011093Y008568D01*
X011093Y008666D02*
X011263Y008666D01*
X011267Y008765D02*
X011088Y008765D01*
X011103Y008863D02*
X012995Y008863D01*
X012978Y008765D02*
X013795Y008765D01*
X013697Y008863D02*
X013685Y008863D01*
X013752Y009048D02*
X013340Y009048D01*
X013340Y009363D02*
X013937Y009363D01*
X014900Y008400D01*
X014900Y006900D01*
X015400Y006400D01*
X015400Y006149D01*
X015835Y006105D02*
X016083Y006105D01*
X016083Y006007D02*
X015835Y006007D01*
X015835Y005908D02*
X016083Y005908D01*
X016083Y005810D02*
X015801Y005810D01*
X015831Y005711D02*
X016083Y005711D01*
X016083Y005613D02*
X015835Y005613D01*
X015835Y005514D02*
X016083Y005514D01*
X016083Y005416D02*
X015835Y005416D01*
X015835Y005317D02*
X016083Y005317D01*
X016083Y005219D02*
X015835Y005219D01*
X015835Y005120D02*
X016083Y005120D01*
X016122Y005022D02*
X015570Y005022D01*
X015617Y004923D02*
X017512Y004923D01*
X017610Y004825D02*
X015716Y004825D01*
X015400Y004900D02*
X015400Y005401D01*
X014965Y005416D02*
X014835Y005416D01*
X014835Y005514D02*
X014965Y005514D01*
X014965Y005613D02*
X014835Y005613D01*
X014831Y005711D02*
X014969Y005711D01*
X014999Y005810D02*
X014801Y005810D01*
X014835Y005908D02*
X014965Y005908D01*
X014965Y006007D02*
X014835Y006007D01*
X014835Y006105D02*
X014965Y006105D01*
X014965Y006204D02*
X014835Y006204D01*
X014835Y006302D02*
X014965Y006302D01*
X014965Y006401D02*
X014835Y006401D01*
X014791Y006499D02*
X015009Y006499D01*
X014962Y006598D02*
X014570Y006598D01*
X014570Y006696D02*
X014864Y006696D01*
X014830Y006730D02*
X014830Y006730D01*
X014765Y006795D02*
X014570Y006795D01*
X014570Y006893D02*
X014730Y006893D01*
X014730Y006992D02*
X014570Y006992D01*
X014570Y007090D02*
X014730Y007090D01*
X014730Y007189D02*
X014570Y007189D01*
X014570Y007287D02*
X014730Y007287D01*
X014730Y007386D02*
X014570Y007386D01*
X014570Y007484D02*
X014730Y007484D01*
X014730Y007583D02*
X014570Y007583D01*
X014570Y007681D02*
X014730Y007681D01*
X014730Y007780D02*
X014570Y007780D01*
X014570Y007878D02*
X014730Y007878D01*
X014730Y007977D02*
X014570Y007977D01*
X014570Y008075D02*
X014730Y008075D01*
X014730Y008174D02*
X014570Y008174D01*
X014570Y008272D02*
X014730Y008272D01*
X014689Y008371D02*
X014570Y008371D01*
X014570Y008469D02*
X014591Y008469D01*
X014492Y008568D02*
X014473Y008568D01*
X014394Y008666D02*
X014374Y008666D01*
X014295Y008765D02*
X014276Y008765D01*
X014197Y008863D02*
X014177Y008863D01*
X014098Y008962D02*
X014079Y008962D01*
X014000Y009060D02*
X013980Y009060D01*
X013901Y009159D02*
X013882Y009159D01*
X013752Y009048D02*
X014400Y008400D01*
X014400Y006149D01*
X013965Y006105D02*
X012909Y006105D01*
X012909Y006043D02*
X012909Y006257D01*
X012757Y006409D01*
X012543Y006409D01*
X012391Y006257D01*
X012391Y006043D01*
X012474Y005960D01*
X012343Y005960D01*
X012275Y005892D01*
X012207Y005960D01*
X011595Y005960D01*
X011525Y005890D01*
X011525Y005160D01*
X011595Y005090D01*
X011731Y005090D01*
X011730Y004815D01*
X011480Y004815D01*
X011410Y004745D01*
X011410Y003905D01*
X011480Y003835D01*
X012320Y003835D01*
X012390Y003905D01*
X012390Y004745D01*
X012320Y004815D01*
X012070Y004815D01*
X012071Y005090D01*
X012207Y005090D01*
X012275Y005158D01*
X012343Y005090D01*
X012955Y005090D01*
X013025Y005160D01*
X013025Y005890D01*
X012955Y005960D01*
X012826Y005960D01*
X012909Y006043D01*
X012873Y006007D02*
X013965Y006007D01*
X013965Y005908D02*
X013007Y005908D01*
X013025Y005810D02*
X013999Y005810D01*
X013969Y005711D02*
X013025Y005711D01*
X013025Y005613D02*
X013965Y005613D01*
X013965Y005514D02*
X013025Y005514D01*
X013025Y005416D02*
X013965Y005416D01*
X013965Y005317D02*
X013025Y005317D01*
X013025Y005219D02*
X013965Y005219D01*
X013879Y005120D02*
X012985Y005120D01*
X012649Y005525D02*
X012650Y006150D01*
X012864Y006302D02*
X013965Y006302D01*
X013965Y006204D02*
X012909Y006204D01*
X012766Y006401D02*
X013965Y006401D01*
X014009Y006499D02*
X011805Y006499D01*
X011861Y006598D02*
X014230Y006598D01*
X014230Y006696D02*
X011861Y006696D01*
X011861Y006795D02*
X014230Y006795D01*
X014230Y006893D02*
X011861Y006893D01*
X011861Y006992D02*
X012694Y006992D01*
X012670Y007090D02*
X011861Y007090D01*
X011861Y007189D02*
X012670Y007189D01*
X012670Y007287D02*
X011819Y007287D01*
X011850Y007386D02*
X012670Y007386D01*
X012603Y007484D02*
X011948Y007484D01*
X012047Y007583D02*
X012505Y007583D01*
X012406Y007681D02*
X012145Y007681D01*
X012284Y007780D02*
X012308Y007780D01*
X012437Y007890D02*
X012928Y007400D01*
X013185Y007386D02*
X013615Y007386D01*
X013615Y007484D02*
X013185Y007484D01*
X013185Y007583D02*
X013615Y007583D01*
X013615Y007681D02*
X013185Y007681D01*
X013150Y007900D02*
X013650Y007900D01*
X013900Y007650D01*
X013900Y007178D01*
X013872Y007400D01*
X014130Y007386D02*
X014230Y007386D01*
X014230Y007484D02*
X014130Y007484D01*
X014130Y007583D02*
X014230Y007583D01*
X014230Y007681D02*
X014130Y007681D01*
X014130Y007780D02*
X014230Y007780D01*
X014230Y007878D02*
X013912Y007878D01*
X013814Y007977D02*
X014230Y007977D01*
X014230Y008075D02*
X013215Y008075D01*
X013117Y008174D02*
X014230Y008174D01*
X014230Y008272D02*
X013018Y008272D01*
X012982Y008371D02*
X014189Y008371D01*
X014091Y008469D02*
X012982Y008469D01*
X012982Y008568D02*
X013992Y008568D01*
X013894Y008666D02*
X012982Y008666D01*
X012752Y008460D02*
X012752Y008298D01*
X013150Y007900D01*
X012437Y007890D02*
X012437Y008460D01*
X011266Y007681D02*
X010860Y007681D01*
X010909Y007583D02*
X011285Y007583D01*
X011266Y007484D02*
X010909Y007484D01*
X010877Y007386D02*
X011266Y007386D01*
X011151Y007287D02*
X010778Y007287D01*
X010522Y007287D02*
X007923Y007287D01*
X007941Y007386D02*
X010423Y007386D01*
X010391Y007484D02*
X007941Y007484D01*
X007941Y007583D02*
X010391Y007583D01*
X010376Y007681D02*
X007941Y007681D01*
X007941Y007780D02*
X010378Y007780D01*
X010378Y007878D02*
X007941Y007878D01*
X007941Y007977D02*
X010378Y007977D01*
X010378Y008075D02*
X007190Y008075D01*
X007189Y007977D02*
X006443Y007977D01*
X006518Y007878D02*
X007189Y007878D01*
X007189Y007780D02*
X006525Y007780D01*
X006142Y007744D02*
X006142Y007533D01*
X006650Y007025D01*
X007900Y007025D01*
X008335Y006590D01*
X008335Y006036D01*
X008650Y006036D02*
X008650Y006775D01*
X008400Y007025D01*
X008197Y007189D02*
X007977Y007189D01*
X008075Y007090D02*
X008141Y007090D01*
X007890Y006795D02*
X006286Y006795D01*
X006384Y006893D02*
X006542Y006893D01*
X006443Y006992D02*
X006409Y006992D01*
X006150Y007025D02*
X005945Y007230D01*
X005945Y007744D01*
X005775Y007484D02*
X003320Y007484D01*
X003320Y007386D02*
X005775Y007386D01*
X005775Y007287D02*
X003320Y007287D01*
X003320Y007189D02*
X005775Y007189D01*
X005845Y007090D02*
X003320Y007090D01*
X003320Y006992D02*
X005891Y006992D01*
X005916Y006893D02*
X003320Y006893D01*
X003320Y006795D02*
X006014Y006795D01*
X006384Y006420D02*
X006455Y006490D01*
X007538Y006490D01*
X007609Y006420D01*
X007609Y005455D01*
X007538Y005384D01*
X006455Y005384D01*
X006384Y005455D01*
X006384Y006420D01*
X006384Y006401D02*
X003320Y006401D01*
X003320Y006499D02*
X007620Y006499D01*
X007609Y006401D02*
X007620Y006401D01*
X007609Y006302D02*
X007620Y006302D01*
X007609Y006204D02*
X007620Y006204D01*
X007609Y006105D02*
X007620Y006105D01*
X007609Y006007D02*
X007620Y006007D01*
X007609Y005908D02*
X007620Y005908D01*
X007609Y005810D02*
X007620Y005810D01*
X007609Y005711D02*
X007649Y005711D01*
X007609Y005613D02*
X007729Y005613D01*
X007609Y005514D02*
X007872Y005514D01*
X007872Y005416D02*
X007569Y005416D01*
X007872Y005317D02*
X005954Y005317D01*
X005907Y005416D02*
X006423Y005416D01*
X006384Y005514D02*
X005833Y005514D01*
X005742Y005613D02*
X006384Y005613D01*
X006384Y005711D02*
X005650Y005711D01*
X005559Y005810D02*
X006384Y005810D01*
X006384Y005908D02*
X005393Y005908D01*
X005222Y006007D02*
X006384Y006007D01*
X006384Y006105D02*
X004935Y006105D01*
X004648Y006170D02*
X004648Y006170D01*
X004158Y006134D02*
X004158Y006134D01*
X004085Y006105D02*
X003320Y006105D01*
X003320Y006007D02*
X003834Y006007D01*
X003700Y005954D02*
X003700Y005954D01*
X003642Y005908D02*
X003320Y005908D01*
X003320Y005810D02*
X003519Y005810D01*
X003395Y005711D02*
X003320Y005711D01*
X003320Y006204D02*
X006384Y006204D01*
X006384Y006302D02*
X003320Y006302D01*
X003320Y006598D02*
X007653Y006598D01*
X007738Y006696D02*
X003320Y006696D01*
X003320Y007583D02*
X004787Y007583D01*
X004782Y007681D02*
X003320Y007681D01*
X003320Y007780D02*
X004782Y007780D01*
X004506Y007878D02*
X003320Y007878D01*
X003320Y007977D02*
X004506Y007977D01*
X004506Y008059D02*
X004506Y008059D01*
X004506Y008059D01*
X004506Y008075D02*
X003320Y008075D01*
X003320Y008371D02*
X003610Y008371D01*
X003610Y008469D02*
X003320Y008469D01*
X003320Y008568D02*
X003610Y008568D01*
X003610Y008666D02*
X003320Y008666D01*
X003320Y008765D02*
X003610Y008765D01*
X003610Y008863D02*
X003320Y008863D01*
X003320Y008962D02*
X003656Y008962D01*
X003820Y009060D02*
X003320Y009060D01*
X003320Y009159D02*
X004167Y009159D01*
X004178Y009257D02*
X003320Y009257D01*
X003320Y009356D02*
X004105Y009356D01*
X004105Y009454D02*
X003320Y009454D01*
X003320Y009553D02*
X004105Y009553D01*
X004105Y009651D02*
X003320Y009651D01*
X003320Y009750D02*
X004105Y009750D01*
X004105Y009848D02*
X003320Y009848D01*
X003320Y009947D02*
X004105Y009947D01*
X004105Y010045D02*
X003320Y010045D01*
X003320Y010144D02*
X004105Y010144D01*
X004105Y010242D02*
X003320Y010242D01*
X003320Y010341D02*
X004105Y010341D01*
X004199Y010439D02*
X003320Y010439D01*
X003320Y010538D02*
X004230Y010538D01*
X004230Y010636D02*
X003320Y010636D01*
X003320Y010735D02*
X004230Y010735D01*
X004230Y010833D02*
X003320Y010833D01*
X003320Y010932D02*
X004004Y010932D01*
X003965Y011030D02*
X003320Y011030D01*
X003320Y011129D02*
X003965Y011129D01*
X003965Y011227D02*
X003320Y011227D01*
X003320Y011326D02*
X003965Y011326D01*
X003965Y011424D02*
X003320Y011424D01*
X003320Y011523D02*
X003965Y011523D01*
X004004Y011621D02*
X003320Y011621D01*
X003320Y011720D02*
X003965Y011720D01*
X003965Y011818D02*
X003320Y011818D01*
X003320Y011917D02*
X003965Y011917D01*
X003965Y012015D02*
X003320Y012015D01*
X003320Y012114D02*
X003965Y012114D01*
X003965Y012212D02*
X003320Y012212D01*
X003320Y012311D02*
X003965Y012311D01*
X004400Y012024D02*
X004524Y012024D01*
X004525Y012025D01*
X004525Y012150D01*
X004900Y012525D01*
X006400Y012525D01*
X006525Y012650D01*
X006738Y012803D02*
X006766Y012803D01*
X006785Y012902D02*
X006640Y012902D01*
X006410Y012902D02*
X005143Y012902D01*
X005159Y013000D02*
X006884Y013000D01*
X007025Y012775D02*
X007025Y012400D01*
X006649Y012024D01*
X006400Y012024D01*
X005400Y012024D01*
X004544Y012409D02*
X003320Y012409D01*
X003320Y012508D02*
X004642Y012508D01*
X004741Y012606D02*
X003320Y012606D01*
X003320Y012705D02*
X006266Y012705D01*
X006312Y012803D02*
X005044Y012803D01*
X004900Y013025D02*
X005150Y013275D01*
X005150Y013670D01*
X005044Y013776D01*
X006544Y013776D01*
X006900Y014150D02*
X005717Y014150D01*
X005661Y014773D02*
X005299Y014773D01*
X005641Y014872D02*
X003320Y014872D01*
X003320Y014970D02*
X005641Y014970D01*
X005702Y015069D02*
X005341Y015069D01*
X005044Y015276D02*
X005900Y015276D01*
X005900Y014900D01*
X005900Y015276D02*
X006544Y015276D01*
X006900Y015650D02*
X005717Y015650D01*
X005044Y016024D02*
X005024Y016024D01*
X004775Y015775D01*
X004589Y015955D02*
X003320Y015955D01*
X003320Y015857D02*
X004516Y015857D01*
X004516Y015758D02*
X003320Y015758D01*
X003320Y015660D02*
X004524Y015660D01*
X004623Y015561D02*
X003320Y015561D01*
X003320Y015463D02*
X004747Y015463D01*
X004747Y015364D02*
X003320Y015364D01*
X003320Y015266D02*
X004747Y015266D01*
X004747Y015167D02*
X003320Y015167D01*
X003320Y015069D02*
X004747Y015069D01*
X004788Y014773D02*
X003320Y014773D01*
X003320Y014675D02*
X004747Y014675D01*
X004747Y014576D02*
X003320Y014576D01*
X003320Y014478D02*
X004737Y014478D01*
X004639Y014379D02*
X003320Y014379D01*
X003320Y014281D02*
X004540Y014281D01*
X004480Y014182D02*
X003320Y014182D01*
X003320Y014084D02*
X004480Y014084D01*
X004480Y013985D02*
X003320Y013985D01*
X003320Y013887D02*
X004480Y013887D01*
X004480Y013788D02*
X003320Y013788D01*
X003320Y013690D02*
X004448Y013690D01*
X004391Y013591D02*
X003320Y013591D01*
X003320Y013493D02*
X004391Y013493D01*
X004415Y013394D02*
X003320Y013394D01*
X003320Y013296D02*
X004513Y013296D01*
X004706Y013197D02*
X003320Y013197D01*
X003320Y013099D02*
X004641Y013099D01*
X004641Y013000D02*
X003320Y013000D01*
X003320Y012902D02*
X004657Y012902D01*
X004756Y012803D02*
X003320Y012803D01*
X004650Y013525D02*
X004650Y014150D01*
X005024Y014524D01*
X005044Y014524D01*
X006544Y014524D01*
X006900Y014150D02*
X007025Y014150D01*
X006900Y014150D02*
X006900Y015650D01*
X007070Y015660D02*
X007230Y015660D01*
X007230Y015758D02*
X007032Y015758D01*
X007070Y015561D02*
X007230Y015561D01*
X007230Y015463D02*
X007070Y015463D01*
X007070Y015364D02*
X007230Y015364D01*
X007230Y015266D02*
X007070Y015266D01*
X007070Y015167D02*
X007177Y015167D01*
X007078Y015069D02*
X007070Y015069D01*
X007150Y014900D02*
X007400Y015150D01*
X007400Y016400D01*
X008150Y017150D01*
X008150Y017525D01*
X007660Y017531D02*
X006098Y017531D01*
X006102Y017539D02*
X006102Y017539D01*
X006115Y017630D02*
X007660Y017630D01*
X007660Y017728D02*
X006130Y017728D01*
X006145Y017827D02*
X007759Y017827D01*
X007857Y017925D02*
X006160Y017925D01*
X006175Y018024D02*
X008480Y018024D01*
X008480Y017925D02*
X008443Y017925D01*
X008650Y018150D02*
X008150Y018525D01*
X008640Y018516D02*
X008660Y018516D01*
X008660Y018418D02*
X008640Y018418D01*
X008640Y018615D02*
X008660Y018615D01*
X008660Y018713D02*
X008640Y018713D01*
X008660Y018812D02*
X008556Y018812D01*
X008458Y018910D02*
X008660Y018910D01*
X008724Y019009D02*
X008359Y019009D01*
X007941Y019009D02*
X007359Y019009D01*
X007353Y019015D02*
X006947Y019015D01*
X006660Y018728D01*
X006660Y018322D01*
X006947Y018035D01*
X007353Y018035D01*
X007640Y018322D01*
X007640Y018728D01*
X007353Y019015D01*
X007458Y018910D02*
X007842Y018910D01*
X007744Y018812D02*
X007556Y018812D01*
X007640Y018713D02*
X007660Y018713D01*
X007660Y018615D02*
X007640Y018615D01*
X007640Y018516D02*
X007660Y018516D01*
X007660Y018418D02*
X007640Y018418D01*
X007637Y018319D02*
X007663Y018319D01*
X007761Y018221D02*
X007539Y018221D01*
X007440Y018122D02*
X007860Y018122D01*
X008650Y018150D02*
X008650Y017150D01*
X008900Y016900D01*
X008900Y015900D01*
X009113Y016054D02*
X009480Y016054D01*
X009465Y015955D02*
X009159Y015955D01*
X009159Y015857D02*
X009366Y015857D01*
X009268Y015758D02*
X009124Y015758D01*
X009169Y015660D02*
X009026Y015660D01*
X009071Y015561D02*
X007570Y015561D01*
X007570Y015660D02*
X008774Y015660D01*
X008676Y015758D02*
X007570Y015758D01*
X007570Y015857D02*
X008641Y015857D01*
X008641Y015955D02*
X007570Y015955D01*
X007570Y016054D02*
X008687Y016054D01*
X008730Y016152D02*
X007570Y016152D01*
X007570Y016251D02*
X008730Y016251D01*
X008730Y016349D02*
X007589Y016349D01*
X007688Y016448D02*
X008730Y016448D01*
X008730Y016546D02*
X007786Y016546D01*
X007885Y016645D02*
X008730Y016645D01*
X008730Y016743D02*
X007983Y016743D01*
X008082Y016842D02*
X008718Y016842D01*
X008620Y016940D02*
X008180Y016940D01*
X008356Y017039D02*
X008521Y017039D01*
X008480Y017137D02*
X008455Y017137D01*
X007845Y017137D02*
X005908Y017137D01*
X005888Y017096D02*
X005888Y017096D01*
X005835Y017039D02*
X007798Y017039D01*
X007700Y016940D02*
X005744Y016940D01*
X005653Y016842D02*
X007601Y016842D01*
X007503Y016743D02*
X005561Y016743D01*
X005554Y016735D02*
X005554Y016735D01*
X005554Y016735D01*
X005397Y016645D02*
X007404Y016645D01*
X007306Y016546D02*
X005226Y016546D01*
X005128Y016489D02*
X005128Y016489D01*
X004946Y016448D02*
X007230Y016448D01*
X007230Y016349D02*
X003320Y016349D01*
X003320Y016251D02*
X004766Y016251D01*
X004747Y016152D02*
X003320Y016152D01*
X003320Y016054D02*
X004747Y016054D01*
X005044Y016024D02*
X006544Y016024D01*
X006841Y016054D02*
X007230Y016054D01*
X007230Y016152D02*
X006841Y016152D01*
X006822Y016251D02*
X007230Y016251D01*
X007230Y015955D02*
X006841Y015955D01*
X006841Y015857D02*
X007230Y015857D01*
X006266Y016251D02*
X005322Y016251D01*
X005956Y017236D02*
X007746Y017236D01*
X007660Y017334D02*
X006003Y017334D01*
X006051Y017433D02*
X007660Y017433D01*
X006860Y018122D02*
X006160Y018122D01*
X006146Y018221D02*
X006761Y018221D01*
X006663Y018319D02*
X006131Y018319D01*
X006116Y018418D02*
X006660Y018418D01*
X006660Y018516D02*
X006099Y018516D01*
X006052Y018615D02*
X006660Y018615D01*
X006660Y018713D02*
X006005Y018713D01*
X005957Y018812D02*
X006744Y018812D01*
X006842Y018910D02*
X005910Y018910D01*
X005838Y019009D02*
X006941Y019009D01*
X005747Y019107D02*
X014400Y019107D01*
X014400Y019009D02*
X014374Y019009D01*
X014400Y019206D02*
X005655Y019206D01*
X008820Y018024D02*
X011963Y018024D01*
X011914Y018003D02*
X011797Y017886D01*
X011733Y017733D01*
X011733Y017567D01*
X011797Y017414D01*
X011914Y017297D01*
X012067Y017233D01*
X012233Y017233D01*
X012386Y017297D01*
X012503Y017414D01*
X012567Y017567D01*
X012567Y017733D01*
X012503Y017886D01*
X012386Y018003D01*
X012233Y018067D01*
X012067Y018067D01*
X011914Y018003D01*
X011836Y017925D02*
X009443Y017925D01*
X009640Y018122D02*
X014400Y018122D01*
X014400Y018024D02*
X014337Y018024D01*
X014400Y018221D02*
X009640Y018221D01*
X009640Y018319D02*
X011891Y018319D01*
X011914Y018297D02*
X012067Y018233D01*
X012233Y018233D01*
X012386Y018297D01*
X012503Y018414D01*
X012567Y018567D01*
X012567Y018733D01*
X012503Y018886D01*
X012386Y019003D01*
X012233Y019067D01*
X012067Y019067D01*
X011914Y019003D01*
X011797Y018886D01*
X011733Y018733D01*
X011733Y018567D01*
X011797Y018414D01*
X011914Y018297D01*
X011795Y018418D02*
X009640Y018418D01*
X009640Y018516D02*
X011754Y018516D01*
X011733Y018615D02*
X009640Y018615D01*
X009640Y018713D02*
X011733Y018713D01*
X011766Y018812D02*
X009640Y018812D01*
X009640Y018910D02*
X011821Y018910D01*
X011926Y019009D02*
X009576Y019009D01*
X008857Y017925D02*
X008820Y017925D01*
X009070Y016940D02*
X014400Y016940D01*
X014400Y016842D02*
X009070Y016842D01*
X009070Y016743D02*
X014400Y016743D01*
X014400Y016645D02*
X009070Y016645D01*
X009070Y016546D02*
X010509Y016546D01*
X010791Y016546D02*
X011509Y016546D01*
X011354Y016448D02*
X010946Y016448D01*
X011022Y016349D02*
X011278Y016349D01*
X011237Y016251D02*
X011063Y016251D01*
X011650Y016150D02*
X011150Y015650D01*
X011150Y014775D01*
X010650Y014275D01*
X010400Y014525D01*
X009275Y014525D01*
X009016Y014478D02*
X009007Y014478D01*
X009007Y014576D02*
X009016Y014576D01*
X009007Y014675D02*
X009058Y014675D01*
X009076Y014773D02*
X009157Y014773D01*
X009174Y014872D02*
X010980Y014872D01*
X010980Y014970D02*
X009273Y014970D01*
X009371Y015069D02*
X010980Y015069D01*
X010980Y015167D02*
X009470Y015167D01*
X009568Y015266D02*
X010980Y015266D01*
X010980Y015364D02*
X009667Y015364D01*
X009765Y015463D02*
X010980Y015463D01*
X010980Y015561D02*
X009864Y015561D01*
X009876Y016054D02*
X009820Y016054D01*
X009407Y016152D02*
X009070Y016152D01*
X009070Y016251D02*
X009391Y016251D01*
X009391Y016349D02*
X009070Y016349D01*
X009070Y016448D02*
X009456Y016448D01*
X009356Y017039D02*
X014400Y017039D01*
X014400Y017137D02*
X011301Y017137D01*
X011301Y017236D02*
X012061Y017236D01*
X012239Y017236D02*
X013061Y017236D01*
X013067Y017233D02*
X013233Y017233D01*
X013386Y017297D01*
X013503Y017414D01*
X013567Y017567D01*
X013567Y017733D01*
X013503Y017886D01*
X013386Y018003D01*
X013233Y018067D01*
X013067Y018067D01*
X012914Y018003D01*
X012797Y017886D01*
X012733Y017733D01*
X012733Y017567D01*
X012797Y017414D01*
X012914Y017297D01*
X013067Y017233D01*
X013239Y017236D02*
X014061Y017236D01*
X014239Y017236D02*
X014400Y017236D01*
X014650Y017236D02*
X015061Y017236D01*
X015067Y017233D02*
X015233Y017233D01*
X015386Y017297D01*
X015503Y017414D01*
X015567Y017567D01*
X015567Y017733D01*
X015503Y017886D01*
X015386Y018003D01*
X015233Y018067D01*
X015067Y018067D01*
X014914Y018003D01*
X014797Y017886D01*
X014733Y017733D01*
X014733Y017567D01*
X014797Y017414D01*
X014914Y017297D01*
X015067Y017233D01*
X015239Y017236D02*
X016061Y017236D01*
X016067Y017233D02*
X016233Y017233D01*
X016386Y017297D01*
X016503Y017414D01*
X016567Y017567D01*
X016567Y017733D01*
X016503Y017886D01*
X016386Y018003D01*
X016233Y018067D01*
X016067Y018067D01*
X015914Y018003D01*
X015797Y017886D01*
X015733Y017733D01*
X015733Y017567D01*
X015797Y017414D01*
X015914Y017297D01*
X016067Y017233D01*
X016239Y017236D02*
X017061Y017236D01*
X017067Y017233D02*
X017233Y017233D01*
X017386Y017297D01*
X017503Y017414D01*
X017567Y017567D01*
X017567Y017733D01*
X017503Y017886D01*
X017386Y018003D01*
X017233Y018067D01*
X017067Y018067D01*
X016914Y018003D01*
X016797Y017886D01*
X016733Y017733D01*
X016733Y017567D01*
X016797Y017414D01*
X016914Y017297D01*
X017067Y017233D01*
X017239Y017236D02*
X018061Y017236D01*
X018067Y017233D02*
X018233Y017233D01*
X018386Y017297D01*
X018503Y017414D01*
X018567Y017567D01*
X018567Y017733D01*
X018503Y017886D01*
X018386Y018003D01*
X018233Y018067D01*
X018067Y018067D01*
X017914Y018003D01*
X017797Y017886D01*
X017733Y017733D01*
X017733Y017567D01*
X017797Y017414D01*
X017914Y017297D01*
X018067Y017233D01*
X018239Y017236D02*
X019061Y017236D01*
X019067Y017233D02*
X019233Y017233D01*
X019386Y017297D01*
X019503Y017414D01*
X019567Y017567D01*
X019567Y017733D01*
X019503Y017886D01*
X019386Y018003D01*
X019233Y018067D01*
X019067Y018067D01*
X018914Y018003D01*
X018797Y017886D01*
X018733Y017733D01*
X018733Y017567D01*
X018797Y017414D01*
X018914Y017297D01*
X019067Y017233D01*
X019239Y017236D02*
X027339Y017236D01*
X027288Y017309D02*
X027565Y016903D01*
X027565Y016903D01*
X027565Y016903D01*
X027950Y016596D01*
X028408Y016416D01*
X028898Y016380D01*
X029378Y016489D01*
X029804Y016735D01*
X029972Y016916D01*
X029972Y015650D01*
X026641Y015650D01*
X026632Y015659D01*
X026418Y015659D01*
X026409Y015650D01*
X014650Y015650D01*
X014650Y016171D01*
X014652Y016169D01*
X015224Y016169D01*
X015295Y016239D01*
X015295Y016325D01*
X015400Y016325D01*
X015400Y016160D01*
X015470Y016090D01*
X016082Y016090D01*
X016150Y016158D01*
X016218Y016090D01*
X016830Y016090D01*
X016900Y016160D01*
X016900Y016325D01*
X017118Y016325D01*
X017118Y016225D01*
X017188Y016155D01*
X017538Y016155D01*
X017608Y016225D01*
X017608Y016825D01*
X017538Y016895D01*
X017188Y016895D01*
X017118Y016825D01*
X017118Y016725D01*
X016900Y016725D01*
X016900Y016890D01*
X016830Y016960D01*
X016218Y016960D01*
X016150Y016892D01*
X016082Y016960D01*
X015470Y016960D01*
X015400Y016890D01*
X015400Y016725D01*
X015295Y016725D01*
X015295Y016811D01*
X015224Y016881D01*
X014652Y016881D01*
X014650Y016879D01*
X014650Y019225D01*
X027663Y019225D01*
X027565Y019147D01*
X027288Y018741D01*
X027143Y018271D01*
X027143Y017779D01*
X027288Y017309D01*
X027288Y017309D01*
X027281Y017334D02*
X019424Y017334D01*
X019511Y017433D02*
X027250Y017433D01*
X027220Y017531D02*
X019552Y017531D01*
X019567Y017630D02*
X027190Y017630D01*
X027159Y017728D02*
X019567Y017728D01*
X019528Y017827D02*
X027143Y017827D01*
X027143Y017925D02*
X019464Y017925D01*
X019337Y018024D02*
X027143Y018024D01*
X027143Y018122D02*
X014650Y018122D01*
X014650Y018024D02*
X014963Y018024D01*
X014836Y017925D02*
X014650Y017925D01*
X014650Y017827D02*
X014772Y017827D01*
X014733Y017728D02*
X014650Y017728D01*
X014650Y017630D02*
X014733Y017630D01*
X014748Y017531D02*
X014650Y017531D01*
X014650Y017433D02*
X014789Y017433D01*
X014876Y017334D02*
X014650Y017334D01*
X014650Y017137D02*
X027406Y017137D01*
X027473Y017039D02*
X014650Y017039D01*
X014650Y016940D02*
X015450Y016940D01*
X015400Y016842D02*
X015264Y016842D01*
X015295Y016743D02*
X015400Y016743D01*
X015400Y016251D02*
X015295Y016251D01*
X015408Y016152D02*
X014650Y016152D01*
X014650Y016054D02*
X029972Y016054D01*
X029972Y016152D02*
X016892Y016152D01*
X016900Y016251D02*
X017118Y016251D01*
X017608Y016251D02*
X029972Y016251D01*
X029972Y016349D02*
X017608Y016349D01*
X017608Y016448D02*
X028328Y016448D01*
X028077Y016546D02*
X017608Y016546D01*
X017650Y016488D02*
X017687Y016525D01*
X017608Y016645D02*
X027889Y016645D01*
X027950Y016596D02*
X027950Y016596D01*
X027766Y016743D02*
X017608Y016743D01*
X017591Y016842D02*
X027642Y016842D01*
X027540Y016940D02*
X016850Y016940D01*
X016900Y016842D02*
X017135Y016842D01*
X017118Y016743D02*
X016900Y016743D01*
X016876Y017334D02*
X016424Y017334D01*
X016511Y017433D02*
X016789Y017433D01*
X016748Y017531D02*
X016552Y017531D01*
X016567Y017630D02*
X016733Y017630D01*
X016733Y017728D02*
X016567Y017728D01*
X016528Y017827D02*
X016772Y017827D01*
X016836Y017925D02*
X016464Y017925D01*
X016337Y018024D02*
X016963Y018024D01*
X017337Y018024D02*
X017963Y018024D01*
X017836Y017925D02*
X017464Y017925D01*
X017528Y017827D02*
X017772Y017827D01*
X017733Y017728D02*
X017567Y017728D01*
X017567Y017630D02*
X017733Y017630D01*
X017748Y017531D02*
X017552Y017531D01*
X017511Y017433D02*
X017789Y017433D01*
X017876Y017334D02*
X017424Y017334D01*
X018424Y017334D02*
X018876Y017334D01*
X018789Y017433D02*
X018511Y017433D01*
X018552Y017531D02*
X018748Y017531D01*
X018733Y017630D02*
X018567Y017630D01*
X018567Y017728D02*
X018733Y017728D01*
X018772Y017827D02*
X018528Y017827D01*
X018464Y017925D02*
X018836Y017925D01*
X018963Y018024D02*
X018337Y018024D01*
X016198Y016940D02*
X016102Y016940D01*
X015876Y017334D02*
X015424Y017334D01*
X015511Y017433D02*
X015789Y017433D01*
X015748Y017531D02*
X015552Y017531D01*
X015567Y017630D02*
X015733Y017630D01*
X015733Y017728D02*
X015567Y017728D01*
X015528Y017827D02*
X015772Y017827D01*
X015836Y017925D02*
X015464Y017925D01*
X015337Y018024D02*
X015963Y018024D01*
X014650Y018221D02*
X022032Y018221D01*
X022069Y018205D02*
X022246Y018205D01*
X022410Y018273D01*
X022535Y018398D01*
X022603Y018562D01*
X022603Y018738D01*
X022535Y018902D01*
X022410Y019027D01*
X022246Y019095D01*
X022069Y019095D01*
X021906Y019027D01*
X021781Y018902D01*
X021713Y018738D01*
X021713Y018562D01*
X021781Y018398D01*
X021906Y018273D01*
X022069Y018205D01*
X022283Y018221D02*
X023017Y018221D01*
X023054Y018205D02*
X023231Y018205D01*
X023394Y018273D01*
X023519Y018398D01*
X023587Y018562D01*
X023587Y018738D01*
X023519Y018902D01*
X023394Y019027D01*
X023231Y019095D01*
X023054Y019095D01*
X022890Y019027D01*
X022765Y018902D01*
X022697Y018738D01*
X022697Y018562D01*
X022765Y018398D01*
X022890Y018273D01*
X023054Y018205D01*
X023268Y018221D02*
X025032Y018221D01*
X025069Y018205D02*
X024906Y018273D01*
X024781Y018398D01*
X024713Y018562D01*
X024713Y018738D01*
X024781Y018902D01*
X024906Y019027D01*
X025069Y019095D01*
X025246Y019095D01*
X025410Y019027D01*
X025535Y018902D01*
X025603Y018738D01*
X025603Y018562D01*
X025535Y018398D01*
X025410Y018273D01*
X025246Y018205D01*
X025069Y018205D01*
X025283Y018221D02*
X026017Y018221D01*
X026054Y018205D02*
X026231Y018205D01*
X026394Y018273D01*
X026519Y018398D01*
X026587Y018562D01*
X026587Y018738D01*
X026519Y018902D01*
X026394Y019027D01*
X026231Y019095D01*
X026054Y019095D01*
X025890Y019027D01*
X025765Y018902D01*
X025697Y018738D01*
X025697Y018562D01*
X025765Y018398D01*
X025890Y018273D01*
X026054Y018205D01*
X026268Y018221D02*
X027143Y018221D01*
X027158Y018319D02*
X026440Y018319D01*
X026527Y018418D02*
X027189Y018418D01*
X027219Y018516D02*
X026568Y018516D01*
X026587Y018615D02*
X027249Y018615D01*
X027280Y018713D02*
X026587Y018713D01*
X026557Y018812D02*
X027337Y018812D01*
X027288Y018741D02*
X027288Y018741D01*
X027404Y018910D02*
X026511Y018910D01*
X026413Y019009D02*
X027471Y019009D01*
X027538Y019107D02*
X014650Y019107D01*
X014650Y019009D02*
X021887Y019009D01*
X021789Y018910D02*
X014650Y018910D01*
X014650Y018812D02*
X021743Y018812D01*
X021713Y018713D02*
X014650Y018713D01*
X014650Y018615D02*
X021713Y018615D01*
X021732Y018516D02*
X014650Y018516D01*
X014650Y018418D02*
X021773Y018418D01*
X021860Y018319D02*
X014650Y018319D01*
X013963Y018024D02*
X013337Y018024D01*
X013464Y017925D02*
X013836Y017925D01*
X013772Y017827D02*
X013528Y017827D01*
X013567Y017728D02*
X013733Y017728D01*
X013733Y017630D02*
X013567Y017630D01*
X013552Y017531D02*
X013748Y017531D01*
X013789Y017433D02*
X013511Y017433D01*
X013424Y017334D02*
X013876Y017334D01*
X012876Y017334D02*
X012424Y017334D01*
X012511Y017433D02*
X012789Y017433D01*
X012748Y017531D02*
X012552Y017531D01*
X012567Y017630D02*
X012733Y017630D01*
X012733Y017728D02*
X012567Y017728D01*
X012528Y017827D02*
X012772Y017827D01*
X012836Y017925D02*
X012464Y017925D01*
X012337Y018024D02*
X012963Y018024D01*
X013067Y018233D02*
X013233Y018233D01*
X013386Y018297D01*
X013503Y018414D01*
X013567Y018567D01*
X013567Y018733D01*
X013503Y018886D01*
X013386Y019003D01*
X013233Y019067D01*
X013067Y019067D01*
X012914Y019003D01*
X012797Y018886D01*
X012733Y018733D01*
X012733Y018567D01*
X012797Y018414D01*
X012914Y018297D01*
X013067Y018233D01*
X012891Y018319D02*
X012409Y018319D01*
X012505Y018418D02*
X012795Y018418D01*
X012754Y018516D02*
X012546Y018516D01*
X012567Y018615D02*
X012733Y018615D01*
X012733Y018713D02*
X012567Y018713D01*
X012534Y018812D02*
X012766Y018812D01*
X012821Y018910D02*
X012479Y018910D01*
X012374Y019009D02*
X012926Y019009D01*
X013374Y019009D02*
X013926Y019009D01*
X013821Y018910D02*
X013479Y018910D01*
X013534Y018812D02*
X013766Y018812D01*
X013733Y018713D02*
X013567Y018713D01*
X013567Y018615D02*
X013733Y018615D01*
X013754Y018516D02*
X013546Y018516D01*
X013505Y018418D02*
X013795Y018418D01*
X013891Y018319D02*
X013409Y018319D01*
X014650Y019206D02*
X027639Y019206D01*
X027565Y019147D02*
X027565Y019147D01*
X025872Y019009D02*
X025428Y019009D01*
X025527Y018910D02*
X025773Y018910D01*
X025728Y018812D02*
X025572Y018812D01*
X025603Y018713D02*
X025697Y018713D01*
X025697Y018615D02*
X025603Y018615D01*
X025584Y018516D02*
X025716Y018516D01*
X025757Y018418D02*
X025543Y018418D01*
X025456Y018319D02*
X025844Y018319D01*
X024860Y018319D02*
X023440Y018319D01*
X023527Y018418D02*
X024773Y018418D01*
X024732Y018516D02*
X023568Y018516D01*
X023587Y018615D02*
X024713Y018615D01*
X024713Y018713D02*
X023587Y018713D01*
X023557Y018812D02*
X024743Y018812D01*
X024789Y018910D02*
X023511Y018910D01*
X023413Y019009D02*
X024887Y019009D01*
X022872Y019009D02*
X022428Y019009D01*
X022527Y018910D02*
X022773Y018910D01*
X022728Y018812D02*
X022572Y018812D01*
X022603Y018713D02*
X022697Y018713D01*
X022697Y018615D02*
X022603Y018615D01*
X022584Y018516D02*
X022716Y018516D01*
X022757Y018418D02*
X022543Y018418D01*
X022456Y018319D02*
X022844Y018319D01*
X022280Y015364D02*
X020520Y015364D01*
X020520Y015266D02*
X022280Y015266D01*
X022255Y014675D02*
X022331Y014675D01*
X021230Y014675D02*
X020469Y014675D01*
X020520Y014773D02*
X021225Y014773D01*
X021201Y014872D02*
X020520Y014872D01*
X020520Y014970D02*
X021201Y014970D01*
X021201Y015069D02*
X020520Y015069D01*
X020520Y015075D02*
X020520Y015075D01*
X020520Y015075D01*
X020520Y015167D02*
X021201Y015167D01*
X021230Y014576D02*
X019657Y014576D01*
X019558Y014478D02*
X020945Y014478D01*
X020945Y014379D02*
X019460Y014379D01*
X019361Y014281D02*
X020945Y014281D01*
X020945Y014182D02*
X019355Y014182D01*
X019310Y014084D02*
X020974Y014084D01*
X020974Y013985D02*
X019070Y013985D01*
X019070Y013887D02*
X020974Y013887D01*
X020974Y013788D02*
X019070Y013788D01*
X019070Y013690D02*
X020949Y013690D01*
X020851Y013591D02*
X019575Y013591D01*
X019659Y013493D02*
X020752Y013493D01*
X020654Y013394D02*
X019659Y013394D01*
X019659Y013296D02*
X020555Y013296D01*
X020457Y013197D02*
X019563Y013197D01*
X019400Y013400D02*
X018900Y013400D01*
X019077Y013223D01*
X019077Y012650D01*
X019322Y012606D02*
X019866Y012606D01*
X019964Y012705D02*
X019322Y012705D01*
X019322Y012803D02*
X020063Y012803D01*
X020161Y012902D02*
X019322Y012902D01*
X019272Y013000D02*
X020260Y013000D01*
X020358Y013099D02*
X019247Y013099D01*
X018900Y013400D02*
X018900Y014985D01*
X018701Y014970D02*
X018020Y014970D01*
X018020Y014872D02*
X018701Y014872D01*
X018701Y014797D02*
X018730Y014768D01*
X018730Y014573D01*
X018516Y014573D01*
X018445Y014503D01*
X018445Y014128D01*
X018474Y014099D01*
X018474Y013715D01*
X017580Y012820D01*
X017080Y012320D01*
X016792Y012320D01*
X016822Y012350D01*
X016822Y012950D01*
X016752Y013020D01*
X016747Y013020D01*
X016747Y013186D01*
X016793Y013141D01*
X017007Y013141D01*
X017159Y013293D01*
X017159Y013507D01*
X017007Y013659D01*
X016793Y013659D01*
X016704Y013570D01*
X016570Y013570D01*
X016570Y014058D01*
X016784Y014058D01*
X016855Y014128D01*
X016855Y014274D01*
X017293Y014712D01*
X017350Y014655D01*
X017950Y014655D01*
X018020Y014725D01*
X018020Y015075D01*
X018020Y015400D01*
X019780Y015400D01*
X019780Y015075D01*
X019780Y015075D01*
X019780Y015070D01*
X019670Y015070D01*
X019173Y014573D01*
X019070Y014573D01*
X019070Y014727D01*
X019284Y014727D01*
X019355Y014797D01*
X019355Y015172D01*
X019284Y015242D01*
X018772Y015242D01*
X018701Y015172D01*
X018701Y014797D01*
X018725Y014773D02*
X018020Y014773D01*
X017969Y014675D02*
X018730Y014675D01*
X018730Y014576D02*
X017157Y014576D01*
X017058Y014478D02*
X018445Y014478D01*
X018445Y014379D02*
X016960Y014379D01*
X016861Y014281D02*
X018445Y014281D01*
X018445Y014182D02*
X016855Y014182D01*
X016810Y014084D02*
X018474Y014084D01*
X018474Y013985D02*
X016570Y013985D01*
X016570Y013887D02*
X018474Y013887D01*
X018474Y013788D02*
X016570Y013788D01*
X016570Y013690D02*
X018449Y013690D01*
X018351Y013591D02*
X017075Y013591D01*
X017159Y013493D02*
X018252Y013493D01*
X018154Y013394D02*
X017159Y013394D01*
X017159Y013296D02*
X018055Y013296D01*
X017957Y013197D02*
X017063Y013197D01*
X016900Y013400D02*
X016400Y013400D01*
X016577Y013223D01*
X016577Y012650D01*
X016822Y012606D02*
X017366Y012606D01*
X017464Y012705D02*
X016822Y012705D01*
X016822Y012803D02*
X017563Y012803D01*
X017661Y012902D02*
X016822Y012902D01*
X016772Y013000D02*
X017760Y013000D01*
X017858Y013099D02*
X016747Y013099D01*
X016400Y013400D02*
X016400Y014985D01*
X016201Y014970D02*
X013030Y014970D01*
X013070Y015069D02*
X016201Y015069D01*
X016201Y015167D02*
X015632Y015167D01*
X015676Y015266D02*
X017280Y015266D01*
X017280Y015364D02*
X015676Y015364D01*
X016201Y014872D02*
X012965Y014872D01*
X012837Y014773D02*
X016225Y014773D01*
X016230Y014675D02*
X011290Y014675D01*
X011320Y014773D02*
X011463Y014773D01*
X011335Y014872D02*
X011320Y014872D01*
X010908Y014773D02*
X009393Y014773D01*
X009055Y014379D02*
X009007Y014379D01*
X009007Y014281D02*
X009153Y014281D01*
X009007Y014182D02*
X009409Y014182D01*
X009397Y014281D02*
X009540Y014281D01*
X009650Y014150D02*
X009150Y013775D01*
X009332Y013591D02*
X010601Y013591D01*
X010699Y013690D02*
X009409Y013690D01*
X009451Y013788D02*
X010766Y013788D01*
X010770Y013887D02*
X009582Y013887D01*
X009278Y014084D02*
X009007Y014084D01*
X009650Y014150D02*
X010150Y014150D01*
X010351Y013985D02*
X010869Y013985D01*
X010825Y014084D02*
X015974Y014084D01*
X015974Y013985D02*
X011806Y013985D01*
X011905Y013887D02*
X015974Y013887D01*
X015974Y013788D02*
X011909Y013788D01*
X011909Y013690D02*
X012323Y013690D01*
X012252Y013591D02*
X011832Y013591D01*
X011695Y013493D02*
X012153Y013493D01*
X011963Y013394D02*
X011695Y013394D01*
X011695Y013296D02*
X011939Y013296D01*
X011939Y013197D02*
X011687Y013197D01*
X011589Y013099D02*
X011939Y013099D01*
X011911Y013000D02*
X011490Y013000D01*
X011392Y012902D02*
X011812Y012902D01*
X011714Y012803D02*
X011293Y012803D01*
X011195Y012705D02*
X011615Y012705D01*
X011568Y012606D02*
X011096Y012606D01*
X011033Y012508D02*
X011567Y012508D01*
X011567Y012409D02*
X011033Y012409D01*
X011033Y012311D02*
X011567Y012311D01*
X012097Y012508D02*
X012142Y012508D01*
X012195Y012606D02*
X013266Y012606D01*
X013338Y012705D02*
X012691Y012705D01*
X012691Y012803D02*
X013563Y012803D01*
X013650Y012650D02*
X013525Y012525D01*
X013650Y012650D02*
X014275Y012650D01*
X014775Y012150D01*
X017150Y012150D01*
X017650Y012650D01*
X018723Y012650D01*
X018478Y012409D02*
X017649Y012409D01*
X017551Y012311D02*
X018518Y012311D01*
X019282Y012311D02*
X019570Y012311D01*
X019669Y012409D02*
X019322Y012409D01*
X019322Y012508D02*
X019767Y012508D01*
X020051Y012311D02*
X021018Y012311D01*
X020978Y012409D02*
X020149Y012409D01*
X020150Y012650D02*
X021144Y013644D01*
X021144Y014315D01*
X021570Y013591D02*
X021725Y013591D01*
X022063Y013197D02*
X022957Y013197D01*
X023055Y013296D02*
X022159Y013296D01*
X022650Y012650D02*
X023644Y013644D01*
X023644Y014315D01*
X024070Y013591D02*
X024225Y013591D01*
X024563Y013197D02*
X025584Y013197D01*
X025543Y013296D02*
X024659Y013296D01*
X023478Y012409D02*
X022649Y012409D01*
X022551Y012311D02*
X023518Y012311D01*
X021775Y012015D02*
X019755Y012015D01*
X019657Y011917D02*
X021676Y011917D01*
X021060Y010705D02*
X021030Y010675D01*
X021030Y010325D01*
X021030Y010325D01*
X021030Y010320D01*
X020920Y010320D01*
X020423Y009823D01*
X020320Y009823D01*
X020320Y009977D01*
X020534Y009977D01*
X020605Y010047D01*
X020605Y010422D01*
X020534Y010492D01*
X020022Y010492D01*
X019951Y010422D01*
X019951Y010047D01*
X019980Y010018D01*
X019980Y009823D01*
X019766Y009823D01*
X019695Y009753D01*
X019695Y009378D01*
X019724Y009349D01*
X019724Y008965D01*
X018830Y008070D01*
X018730Y007970D01*
X018330Y007570D01*
X018042Y007570D01*
X018072Y007600D01*
X018072Y008200D01*
X018002Y008270D01*
X017997Y008270D01*
X017997Y008436D01*
X018043Y008391D01*
X018257Y008391D01*
X018409Y008543D01*
X018409Y008757D01*
X018257Y008909D01*
X018043Y008909D01*
X017954Y008820D01*
X017820Y008820D01*
X017820Y009308D01*
X018034Y009308D01*
X018105Y009378D01*
X018105Y009524D01*
X018543Y009962D01*
X018600Y009905D01*
X019200Y009905D01*
X019270Y009975D01*
X019270Y010325D01*
X019270Y010675D01*
X019240Y010705D01*
X021060Y010705D01*
X021030Y010636D02*
X019270Y010636D01*
X019270Y010538D02*
X021030Y010538D01*
X021030Y010439D02*
X020588Y010439D01*
X020605Y010341D02*
X021030Y010341D01*
X021030Y010325D02*
X021030Y010325D01*
X020991Y010150D02*
X020406Y009565D01*
X020605Y009454D02*
X022195Y009454D01*
X022195Y009553D02*
X020633Y009553D01*
X020732Y009651D02*
X022195Y009651D01*
X022195Y009750D02*
X020830Y009750D01*
X020929Y009848D02*
X022480Y009848D01*
X022480Y009947D02*
X021741Y009947D01*
X021770Y010045D02*
X022453Y010045D01*
X022451Y010144D02*
X021770Y010144D01*
X021770Y010242D02*
X022451Y010242D01*
X022451Y010341D02*
X021770Y010341D01*
X021770Y010439D02*
X022468Y010439D01*
X022650Y010235D02*
X022650Y008650D01*
X022827Y008473D01*
X022827Y007900D01*
X023072Y007878D02*
X023638Y007878D01*
X023736Y007977D02*
X023072Y007977D01*
X023072Y008075D02*
X023835Y008075D01*
X023933Y008174D02*
X023072Y008174D01*
X022997Y008272D02*
X024032Y008272D01*
X024130Y008371D02*
X022997Y008371D01*
X023150Y008650D02*
X022650Y008650D01*
X022820Y008863D02*
X022997Y008863D01*
X022820Y008962D02*
X024721Y008962D01*
X024724Y009060D02*
X022820Y009060D01*
X022820Y009159D02*
X024724Y009159D01*
X024724Y009257D02*
X022820Y009257D01*
X023082Y009356D02*
X024718Y009356D01*
X024894Y009565D02*
X024894Y008894D01*
X023900Y007900D01*
X023400Y007400D01*
X021275Y007400D01*
X020775Y006900D01*
X017400Y006900D01*
X017150Y006650D01*
X016935Y006499D02*
X016708Y006499D01*
X016717Y006401D02*
X017033Y006401D01*
X017105Y006302D02*
X016717Y006302D01*
X016717Y006204D02*
X017105Y006204D01*
X017445Y005908D02*
X017526Y005908D01*
X017482Y005810D02*
X021455Y005810D01*
X021455Y005908D02*
X017774Y005908D01*
X017873Y006007D02*
X021455Y006007D01*
X021462Y006105D02*
X017909Y006105D01*
X017944Y006204D02*
X021503Y006204D01*
X021599Y006302D02*
X021167Y006302D01*
X021266Y006401D02*
X021698Y006401D01*
X021796Y006499D02*
X021364Y006499D01*
X021463Y006598D02*
X021895Y006598D01*
X021993Y006696D02*
X021561Y006696D01*
X021525Y006900D02*
X021025Y006400D01*
X017900Y006400D01*
X017650Y006150D01*
X017534Y005711D02*
X019563Y005711D01*
X019464Y005613D02*
X017534Y005613D01*
X017505Y005514D02*
X019422Y005514D01*
X019405Y005416D02*
X017500Y005416D01*
X017598Y005317D02*
X019405Y005317D01*
X019405Y005219D02*
X017697Y005219D01*
X017795Y005120D02*
X019405Y005120D01*
X019405Y005022D02*
X017894Y005022D01*
X017992Y004923D02*
X019405Y004923D01*
X019406Y004825D02*
X018070Y004825D01*
X018192Y004726D02*
X019447Y004726D01*
X019524Y004628D02*
X018290Y004628D01*
X018346Y004529D02*
X020124Y004529D01*
X020124Y004431D02*
X018387Y004431D01*
X018390Y004332D02*
X020151Y004332D01*
X020095Y004628D02*
X020026Y004628D01*
X020409Y005219D02*
X021391Y005219D01*
X021455Y005317D02*
X020311Y005317D01*
X020212Y005416D02*
X021455Y005416D01*
X021455Y005514D02*
X020128Y005514D01*
X020086Y005613D02*
X021455Y005613D01*
X021455Y005711D02*
X019987Y005711D01*
X021426Y004431D02*
X027143Y004431D01*
X027143Y004529D02*
X021607Y004529D01*
X021705Y004628D02*
X027143Y004628D01*
X027143Y004726D02*
X021804Y004726D01*
X021902Y004825D02*
X027160Y004825D01*
X027143Y004771D02*
X027143Y004771D01*
X027190Y004923D02*
X022001Y004923D01*
X022068Y005022D02*
X027221Y005022D01*
X027251Y005120D02*
X024292Y005120D01*
X024391Y005219D02*
X027281Y005219D01*
X027340Y005317D02*
X024448Y005317D01*
X024459Y005416D02*
X027407Y005416D01*
X027475Y005514D02*
X024514Y005514D01*
X024514Y005613D02*
X027542Y005613D01*
X027565Y005647D02*
X027565Y005647D01*
X027645Y005711D02*
X024514Y005711D01*
X024514Y005810D02*
X027769Y005810D01*
X027892Y005908D02*
X024514Y005908D01*
X024514Y006007D02*
X028084Y006007D01*
X028335Y006105D02*
X024514Y006105D01*
X024514Y006204D02*
X029972Y006204D01*
X029972Y006302D02*
X024514Y006302D01*
X024514Y006401D02*
X029972Y006401D01*
X029972Y006499D02*
X024514Y006499D01*
X024514Y006598D02*
X029972Y006598D01*
X029972Y006696D02*
X024514Y006696D01*
X024514Y006795D02*
X029972Y006795D01*
X029972Y006893D02*
X028633Y006893D01*
X028732Y006992D02*
X029972Y006992D01*
X029972Y007090D02*
X028830Y007090D01*
X028929Y007189D02*
X029972Y007189D01*
X029972Y007287D02*
X029027Y007287D01*
X029070Y007386D02*
X029972Y007386D01*
X029972Y007484D02*
X029068Y007484D01*
X029066Y007583D02*
X029253Y007583D01*
X029207Y007681D02*
X029093Y007681D01*
X029093Y007780D02*
X029206Y007780D01*
X029139Y007878D02*
X029093Y007878D01*
X028894Y007815D02*
X028894Y007656D01*
X028900Y007400D01*
X028525Y007025D01*
X023525Y007025D01*
X023400Y006900D01*
X021525Y006900D01*
X020650Y007150D02*
X016150Y007150D01*
X015942Y006992D02*
X015799Y006992D01*
X015891Y007090D02*
X015700Y007090D01*
X015602Y007189D02*
X015891Y007189D01*
X015921Y007287D02*
X015503Y007287D01*
X015405Y007386D02*
X016019Y007386D01*
X016150Y007650D02*
X016400Y007400D01*
X018400Y007400D01*
X018900Y007900D01*
X019973Y007900D01*
X019728Y007681D02*
X018921Y007681D01*
X018823Y007583D02*
X019746Y007583D01*
X020327Y007900D02*
X020327Y008473D01*
X020150Y008650D01*
X020650Y008650D01*
X020835Y008469D02*
X021729Y008469D01*
X021827Y008568D02*
X020909Y008568D01*
X020909Y008666D02*
X021926Y008666D01*
X022024Y008765D02*
X020902Y008765D01*
X020803Y008863D02*
X022123Y008863D01*
X022221Y008962D02*
X020320Y008962D01*
X020320Y009060D02*
X022224Y009060D01*
X022224Y009159D02*
X020320Y009159D01*
X020320Y009257D02*
X022224Y009257D01*
X022218Y009356D02*
X020582Y009356D01*
X020497Y008863D02*
X020320Y008863D01*
X020150Y008650D02*
X020150Y010235D01*
X019951Y010242D02*
X019270Y010242D01*
X019270Y010325D02*
X019270Y010325D01*
X019270Y010325D01*
X019270Y010341D02*
X019951Y010341D01*
X019968Y010439D02*
X019270Y010439D01*
X019270Y010144D02*
X019951Y010144D01*
X019953Y010045D02*
X019270Y010045D01*
X019241Y009947D02*
X019980Y009947D01*
X019980Y009848D02*
X018429Y009848D01*
X018330Y009750D02*
X019695Y009750D01*
X019695Y009651D02*
X018232Y009651D01*
X018133Y009553D02*
X019695Y009553D01*
X019695Y009454D02*
X018105Y009454D01*
X018082Y009356D02*
X019718Y009356D01*
X019724Y009257D02*
X017820Y009257D01*
X017820Y009159D02*
X019724Y009159D01*
X019724Y009060D02*
X017820Y009060D01*
X017820Y008962D02*
X019721Y008962D01*
X019623Y008863D02*
X018303Y008863D01*
X018402Y008765D02*
X019524Y008765D01*
X019426Y008666D02*
X018409Y008666D01*
X018409Y008568D02*
X019327Y008568D01*
X019229Y008469D02*
X018335Y008469D01*
X018150Y008650D02*
X017650Y008650D01*
X017827Y008473D01*
X017827Y007900D01*
X018072Y007878D02*
X018638Y007878D01*
X018736Y007977D02*
X018072Y007977D01*
X018072Y008075D02*
X018835Y008075D01*
X018933Y008174D02*
X018072Y008174D01*
X017997Y008272D02*
X019032Y008272D01*
X019130Y008371D02*
X017997Y008371D01*
X017650Y008650D02*
X017650Y010235D01*
X017451Y010242D02*
X014423Y010242D01*
X014325Y010341D02*
X017451Y010341D01*
X017468Y010439D02*
X014226Y010439D01*
X014220Y010445D02*
X014220Y010445D01*
X014450Y010735D02*
X013710Y010735D01*
X013710Y010636D02*
X014549Y010636D01*
X014647Y010538D02*
X013710Y010538D01*
X014522Y010144D02*
X017451Y010144D01*
X017453Y010045D02*
X014620Y010045D01*
X014719Y009947D02*
X017480Y009947D01*
X017480Y009848D02*
X014817Y009848D01*
X014820Y009750D02*
X017195Y009750D01*
X017195Y009651D02*
X014820Y009651D01*
X014820Y009553D02*
X017195Y009553D01*
X017195Y009454D02*
X014820Y009454D01*
X014820Y009356D02*
X017218Y009356D01*
X017224Y009257D02*
X014820Y009257D01*
X014820Y009159D02*
X017224Y009159D01*
X017224Y009060D02*
X014855Y009060D01*
X014954Y008962D02*
X017221Y008962D01*
X017123Y008863D02*
X015052Y008863D01*
X015151Y008765D02*
X017024Y008765D01*
X016926Y008666D02*
X015249Y008666D01*
X015320Y008568D02*
X016827Y008568D01*
X016729Y008469D02*
X015320Y008469D01*
X015320Y008371D02*
X016004Y008371D01*
X015906Y008272D02*
X015320Y008272D01*
X015320Y008174D02*
X015891Y008174D01*
X015891Y008075D02*
X015320Y008075D01*
X015320Y007977D02*
X015957Y007977D01*
X015788Y007878D02*
X016682Y007878D01*
X016780Y007780D02*
X016261Y007780D01*
X016359Y007681D02*
X017228Y007681D01*
X017246Y007583D02*
X016458Y007583D01*
X016150Y007650D02*
X015650Y007650D01*
X015450Y007484D02*
X015320Y007484D01*
X015320Y007583D02*
X015391Y007583D01*
X015391Y007681D02*
X015320Y007681D01*
X015320Y007780D02*
X015413Y007780D01*
X015320Y007878D02*
X015512Y007878D01*
X016150Y008150D02*
X016650Y008150D01*
X016900Y007900D01*
X017473Y007900D01*
X018072Y007780D02*
X018539Y007780D01*
X018441Y007681D02*
X018072Y007681D01*
X018054Y007583D02*
X018342Y007583D01*
X018626Y007386D02*
X020645Y007386D01*
X020744Y007484D02*
X018724Y007484D01*
X018900Y007900D02*
X019894Y008894D01*
X019894Y009565D01*
X020320Y009848D02*
X020448Y009848D01*
X020547Y009947D02*
X020320Y009947D01*
X020603Y010045D02*
X020645Y010045D01*
X020605Y010144D02*
X020744Y010144D01*
X020842Y010242D02*
X020605Y010242D01*
X020991Y010150D02*
X021400Y010150D01*
X021059Y009947D02*
X021027Y009947D01*
X022394Y009565D02*
X022394Y008894D01*
X021400Y007900D01*
X022473Y007900D01*
X023072Y007780D02*
X023539Y007780D01*
X023441Y007681D02*
X023072Y007681D01*
X023054Y007583D02*
X023342Y007583D01*
X023724Y007484D02*
X026619Y007484D01*
X026717Y007583D02*
X025554Y007583D01*
X025572Y007681D02*
X026695Y007681D01*
X027150Y007525D02*
X027275Y007400D01*
X027650Y007400D01*
X028025Y007775D01*
X027150Y007525D02*
X027150Y008485D01*
X026951Y008469D02*
X025835Y008469D01*
X025909Y008568D02*
X026951Y008568D01*
X026951Y008666D02*
X025909Y008666D01*
X025902Y008765D02*
X027700Y008765D01*
X027700Y008666D02*
X027605Y008666D01*
X027605Y008568D02*
X027700Y008568D01*
X027700Y008469D02*
X027605Y008469D01*
X027605Y008371D02*
X027700Y008371D01*
X028100Y008371D02*
X028951Y008371D01*
X028951Y008350D02*
X028100Y008350D01*
X028100Y008785D01*
X028948Y008785D01*
X028980Y008798D01*
X028980Y008701D01*
X028951Y008672D01*
X028951Y008350D01*
X028951Y008469D02*
X028100Y008469D01*
X028100Y008568D02*
X028951Y008568D01*
X028951Y008666D02*
X028100Y008666D01*
X028100Y008765D02*
X028980Y008765D01*
X029150Y008900D02*
X029150Y008485D01*
X028894Y008485D02*
X028815Y008485D01*
X029150Y008900D02*
X029400Y009150D01*
X029400Y009400D01*
X029186Y009553D02*
X029150Y009553D01*
X029150Y009651D02*
X029285Y009651D01*
X029150Y009750D02*
X029972Y009750D01*
X029972Y009848D02*
X029150Y009848D01*
X029150Y009947D02*
X029972Y009947D01*
X029972Y010045D02*
X029150Y010045D01*
X029146Y010144D02*
X029972Y010144D01*
X029972Y010242D02*
X028607Y010242D01*
X028646Y010144D02*
X028654Y010144D01*
X028650Y010140D02*
X028650Y009265D01*
X028650Y010140D01*
X028650Y010045D02*
X028650Y010045D01*
X028650Y009947D02*
X028650Y009947D01*
X028650Y009848D02*
X028650Y009848D01*
X028650Y009750D02*
X028650Y009750D01*
X028650Y009651D02*
X028650Y009651D01*
X028650Y009553D02*
X028650Y009553D01*
X028650Y009454D02*
X028650Y009454D01*
X028650Y009356D02*
X028650Y009356D01*
X028650Y009265D02*
X028650Y009265D01*
X028900Y009025D02*
X028900Y009690D01*
X029515Y009651D02*
X029972Y009651D01*
X029972Y009553D02*
X029614Y009553D01*
X029659Y009454D02*
X029972Y009454D01*
X029972Y009356D02*
X029659Y009356D01*
X029623Y009257D02*
X029972Y009257D01*
X029972Y009159D02*
X029570Y009159D01*
X029550Y009060D02*
X029972Y009060D01*
X029972Y008962D02*
X029452Y008962D01*
X029353Y008863D02*
X029972Y008863D01*
X029972Y008765D02*
X029320Y008765D01*
X029605Y008666D02*
X029972Y008666D01*
X029972Y008568D02*
X029605Y008568D01*
X029605Y008469D02*
X029972Y008469D01*
X029972Y008371D02*
X029605Y008371D01*
X029580Y008272D02*
X029972Y008272D01*
X029972Y008174D02*
X029409Y008174D01*
X029508Y008075D02*
X029972Y008075D01*
X029972Y007977D02*
X029606Y007977D01*
X029606Y007878D02*
X029972Y007878D01*
X029972Y007780D02*
X029606Y007780D01*
X029605Y007681D02*
X029972Y007681D01*
X029972Y007583D02*
X029559Y007583D01*
X029185Y006105D02*
X029972Y006105D01*
X029972Y006007D02*
X029472Y006007D01*
X029643Y005908D02*
X029972Y005908D01*
X029972Y005810D02*
X029809Y005810D01*
X029900Y005711D02*
X029972Y005711D01*
X028898Y006170D02*
X028898Y006170D01*
X028408Y006134D02*
X028408Y006134D01*
X027143Y004332D02*
X025834Y004332D01*
X025794Y004371D02*
X025652Y004430D01*
X025498Y004430D01*
X025356Y004371D01*
X025248Y004263D01*
X025189Y004121D01*
X025189Y003967D01*
X025248Y003825D01*
X025356Y003716D01*
X025498Y003657D01*
X025652Y003657D01*
X025794Y003716D01*
X025903Y003825D01*
X025962Y003967D01*
X025962Y004121D01*
X025903Y004263D01*
X025794Y004371D01*
X025915Y004234D02*
X027157Y004234D01*
X027188Y004135D02*
X025956Y004135D01*
X025962Y004037D02*
X027218Y004037D01*
X027249Y003938D02*
X025950Y003938D01*
X025909Y003840D02*
X027279Y003840D01*
X027288Y003809D02*
X027288Y003809D01*
X027335Y003741D02*
X025819Y003741D01*
X025331Y003741D02*
X023969Y003741D01*
X023944Y003716D02*
X024052Y003825D01*
X024111Y003967D01*
X024111Y004121D01*
X024052Y004263D01*
X023944Y004371D01*
X023802Y004430D01*
X023648Y004430D01*
X023506Y004371D01*
X023397Y004263D01*
X023338Y004121D01*
X023338Y003967D01*
X023397Y003825D01*
X023506Y003716D01*
X023648Y003657D01*
X023802Y003657D01*
X023944Y003716D01*
X024059Y003840D02*
X025241Y003840D01*
X025201Y003938D02*
X024099Y003938D01*
X024111Y004037D02*
X025189Y004037D01*
X025195Y004135D02*
X024105Y004135D01*
X024065Y004234D02*
X025235Y004234D01*
X025317Y004332D02*
X023983Y004332D01*
X023466Y004332D02*
X021399Y004332D01*
X022095Y005120D02*
X023508Y005120D01*
X023409Y005219D02*
X022095Y005219D01*
X022095Y005317D02*
X023352Y005317D01*
X023352Y005416D02*
X022095Y005416D01*
X022095Y005514D02*
X023352Y005514D01*
X023440Y005613D02*
X022095Y005613D01*
X022095Y005711D02*
X023802Y005711D01*
X023802Y005810D02*
X022095Y005810D01*
X022111Y005908D02*
X023802Y005908D01*
X023802Y006007D02*
X022209Y006007D01*
X022308Y006105D02*
X023802Y006105D01*
X023802Y006204D02*
X022406Y006204D01*
X023005Y006302D02*
X023802Y006302D01*
X023802Y006401D02*
X023073Y006401D01*
X023095Y006499D02*
X023802Y006499D01*
X023802Y006598D02*
X023091Y006598D01*
X023051Y006696D02*
X023802Y006696D01*
X023802Y006795D02*
X023535Y006795D01*
X023823Y007583D02*
X024746Y007583D01*
X024728Y007681D02*
X023921Y007681D01*
X023900Y007900D02*
X024973Y007900D01*
X025327Y007900D02*
X025327Y008473D01*
X025150Y008650D02*
X025650Y008650D01*
X025803Y008863D02*
X026848Y008863D01*
X026792Y008962D02*
X025320Y008962D01*
X025320Y009060D02*
X026785Y009060D01*
X026785Y009159D02*
X025320Y009159D01*
X025320Y009257D02*
X026785Y009257D01*
X027400Y009690D02*
X027400Y010525D01*
X028025Y011150D01*
X029400Y011150D01*
X029650Y011400D01*
X029650Y014900D01*
X029150Y015400D01*
X026525Y015400D01*
X027650Y015024D02*
X028025Y015025D01*
X028150Y014900D01*
X028150Y013400D01*
X027900Y013150D01*
X027900Y012110D01*
X028400Y012110D02*
X028400Y013025D01*
X028650Y013275D01*
X028650Y014150D01*
X028650Y014276D01*
X029275Y014775D02*
X029025Y015025D01*
X028650Y015024D01*
X029275Y014775D02*
X029275Y013400D01*
X028900Y013025D01*
X028900Y012110D01*
X029820Y012114D02*
X029972Y012114D01*
X029972Y012212D02*
X029820Y012212D01*
X029820Y012311D02*
X029972Y012311D01*
X029972Y012409D02*
X029820Y012409D01*
X029820Y012508D02*
X029972Y012508D01*
X029972Y012606D02*
X029820Y012606D01*
X029820Y012705D02*
X029972Y012705D01*
X029972Y012803D02*
X029820Y012803D01*
X029820Y012902D02*
X029972Y012902D01*
X029972Y013000D02*
X029820Y013000D01*
X029820Y013099D02*
X029972Y013099D01*
X029972Y013197D02*
X029820Y013197D01*
X029820Y013296D02*
X029972Y013296D01*
X029972Y013394D02*
X029820Y013394D01*
X029820Y013493D02*
X029972Y013493D01*
X029972Y013591D02*
X029820Y013591D01*
X029820Y013690D02*
X029972Y013690D01*
X029972Y013788D02*
X029820Y013788D01*
X029820Y013887D02*
X029972Y013887D01*
X029972Y013985D02*
X029820Y013985D01*
X029820Y014084D02*
X029972Y014084D01*
X029972Y014182D02*
X029820Y014182D01*
X029820Y014281D02*
X029972Y014281D01*
X029972Y014379D02*
X029820Y014379D01*
X029820Y014478D02*
X029972Y014478D01*
X029972Y014576D02*
X029820Y014576D01*
X029820Y014675D02*
X029972Y014675D01*
X029972Y014773D02*
X029820Y014773D01*
X029722Y015069D02*
X029972Y015069D01*
X029972Y015167D02*
X029623Y015167D01*
X029525Y015266D02*
X029972Y015266D01*
X029972Y015364D02*
X029426Y015364D01*
X029972Y015660D02*
X014650Y015660D01*
X014650Y015758D02*
X029972Y015758D01*
X029972Y015857D02*
X014650Y015857D01*
X014650Y015955D02*
X029972Y015955D01*
X029972Y016448D02*
X029196Y016448D01*
X029378Y016489D02*
X029378Y016489D01*
X029476Y016546D02*
X029972Y016546D01*
X029972Y016645D02*
X029647Y016645D01*
X029811Y016743D02*
X029972Y016743D01*
X029972Y016842D02*
X029903Y016842D01*
X027650Y014525D02*
X027650Y014276D01*
X027650Y014275D01*
X027440Y014065D01*
X027440Y012360D01*
X027400Y012110D01*
X026419Y012381D02*
X026400Y012400D01*
X028047Y010932D02*
X029972Y010932D01*
X029972Y011030D02*
X029520Y011030D01*
X029619Y011129D02*
X029972Y011129D01*
X029972Y011227D02*
X029717Y011227D01*
X029816Y011326D02*
X029972Y011326D01*
X029972Y011424D02*
X029820Y011424D01*
X029820Y011523D02*
X029972Y011523D01*
X029972Y011621D02*
X029820Y011621D01*
X029820Y011720D02*
X029972Y011720D01*
X029972Y011818D02*
X029820Y011818D01*
X029820Y011917D02*
X029972Y011917D01*
X029972Y012015D02*
X029820Y012015D01*
X029972Y010833D02*
X029083Y010833D01*
X029159Y010735D02*
X029972Y010735D01*
X029972Y010636D02*
X029159Y010636D01*
X029154Y010538D02*
X029972Y010538D01*
X029972Y010439D02*
X029055Y010439D01*
X028900Y010650D02*
X028775Y010650D01*
X028400Y010275D01*
X028400Y009690D01*
X028150Y009651D02*
X028150Y009651D01*
X028150Y009553D02*
X028150Y009553D01*
X028150Y009454D02*
X028150Y009454D01*
X028150Y009356D02*
X028150Y009356D01*
X028150Y009265D02*
X028150Y010140D01*
X028150Y009265D01*
X028150Y009265D01*
X027650Y009265D02*
X027650Y009265D01*
X027650Y010140D01*
X027650Y009265D01*
X027650Y009356D02*
X027650Y009356D01*
X027650Y009454D02*
X027650Y009454D01*
X027650Y009553D02*
X027650Y009553D01*
X027650Y009651D02*
X027650Y009651D01*
X027650Y009750D02*
X027650Y009750D01*
X027650Y009848D02*
X027650Y009848D01*
X027650Y009947D02*
X027650Y009947D01*
X027650Y010045D02*
X027650Y010045D01*
X027646Y010144D02*
X027654Y010144D01*
X027570Y010242D02*
X028230Y010242D01*
X028230Y010341D02*
X027570Y010341D01*
X027570Y010439D02*
X028324Y010439D01*
X028422Y010538D02*
X027653Y010538D01*
X027751Y010636D02*
X028521Y010636D01*
X028619Y010735D02*
X027850Y010735D01*
X027948Y010833D02*
X028717Y010833D01*
X028706Y010341D02*
X029972Y010341D01*
X028154Y010144D02*
X028146Y010144D01*
X028150Y010045D02*
X028150Y010045D01*
X028150Y009947D02*
X028150Y009947D01*
X028150Y009848D02*
X028150Y009848D01*
X028150Y009750D02*
X028150Y009750D01*
X026030Y010325D02*
X026030Y010325D01*
X026030Y010341D02*
X025605Y010341D01*
X025588Y010439D02*
X026030Y010439D01*
X024951Y010144D02*
X024270Y010144D01*
X024270Y010045D02*
X024953Y010045D01*
X024980Y009947D02*
X024241Y009947D01*
X023900Y010150D02*
X023491Y010150D01*
X023303Y008863D02*
X024623Y008863D01*
X024524Y008765D02*
X023402Y008765D01*
X023409Y008666D02*
X024426Y008666D01*
X024327Y008568D02*
X023409Y008568D01*
X023335Y008469D02*
X024229Y008469D01*
X025320Y008863D02*
X025497Y008863D01*
X021630Y008371D02*
X020497Y008371D01*
X020497Y008272D02*
X021532Y008272D01*
X021433Y008174D02*
X020572Y008174D01*
X020572Y008075D02*
X021335Y008075D01*
X021236Y007977D02*
X020572Y007977D01*
X020572Y007878D02*
X021138Y007878D01*
X021039Y007780D02*
X020572Y007780D01*
X020572Y007681D02*
X020941Y007681D01*
X020842Y007583D02*
X020554Y007583D01*
X020650Y007150D02*
X021400Y007900D01*
X018559Y009947D02*
X018527Y009947D01*
X018491Y010150D02*
X017906Y009565D01*
X017948Y009848D02*
X017820Y009848D01*
X017820Y009947D02*
X018047Y009947D01*
X018103Y010045D02*
X018145Y010045D01*
X018105Y010144D02*
X018244Y010144D01*
X018342Y010242D02*
X018105Y010242D01*
X018105Y010341D02*
X018530Y010341D01*
X018530Y010325D02*
X018530Y010325D01*
X018530Y010439D02*
X018088Y010439D01*
X018491Y010150D02*
X018900Y010150D01*
X018789Y011326D02*
X014965Y011326D01*
X015400Y010900D02*
X015150Y010650D01*
X014372Y009678D02*
X013340Y009678D01*
X014275Y009650D02*
X014372Y009678D01*
X016296Y008371D02*
X016630Y008371D01*
X016650Y008150D02*
X017394Y008894D01*
X017394Y009565D01*
X017820Y008863D02*
X017997Y008863D01*
X016583Y007977D02*
X016343Y007977D01*
X015121Y007189D02*
X015070Y007189D01*
X015070Y007090D02*
X015220Y007090D01*
X015318Y006992D02*
X015070Y006992D01*
X015147Y006893D02*
X015417Y006893D01*
X015515Y006795D02*
X015246Y006795D01*
X015344Y006696D02*
X015614Y006696D01*
X015712Y006598D02*
X015443Y006598D01*
X015791Y006499D02*
X015811Y006499D01*
X015835Y006401D02*
X015909Y006401D01*
X015835Y006302D02*
X016008Y006302D01*
X016083Y006204D02*
X015835Y006204D01*
X016193Y006598D02*
X016891Y006598D01*
X016891Y006696D02*
X016094Y006696D01*
X015996Y006795D02*
X016928Y006795D01*
X017027Y006893D02*
X016259Y006893D01*
X016041Y006893D02*
X015897Y006893D01*
X014230Y006992D02*
X014106Y006992D01*
X014130Y007090D02*
X014230Y007090D01*
X014230Y007189D02*
X014130Y007189D01*
X014130Y007287D02*
X014230Y007287D01*
X013615Y007287D02*
X013185Y007287D01*
X013185Y007189D02*
X013615Y007189D01*
X013615Y007090D02*
X013185Y007090D01*
X013161Y006992D02*
X013639Y006992D01*
X012534Y006401D02*
X010916Y006401D01*
X010916Y006420D02*
X010845Y006490D01*
X009762Y006490D01*
X009691Y006420D01*
X009691Y005455D01*
X009762Y005384D01*
X010845Y005384D01*
X010916Y005455D01*
X010916Y006420D01*
X010916Y006302D02*
X012436Y006302D01*
X012391Y006204D02*
X010916Y006204D01*
X010916Y006105D02*
X012391Y006105D01*
X012427Y006007D02*
X010916Y006007D01*
X010916Y005908D02*
X011543Y005908D01*
X011525Y005810D02*
X010916Y005810D01*
X010916Y005711D02*
X011525Y005711D01*
X011525Y005613D02*
X010916Y005613D01*
X010916Y005514D02*
X011525Y005514D01*
X011525Y005416D02*
X010877Y005416D01*
X011525Y005317D02*
X009428Y005317D01*
X009428Y005219D02*
X011525Y005219D01*
X011565Y005120D02*
X009428Y005120D01*
X009428Y005416D02*
X009731Y005416D01*
X009691Y005514D02*
X009428Y005514D01*
X009428Y005613D02*
X009691Y005613D01*
X009691Y005711D02*
X009183Y005711D01*
X009183Y005810D02*
X009691Y005810D01*
X009691Y005908D02*
X009183Y005908D01*
X009183Y006007D02*
X009691Y006007D01*
X009691Y006105D02*
X009183Y006105D01*
X009183Y006204D02*
X009691Y006204D01*
X009691Y006302D02*
X009183Y006302D01*
X009183Y006401D02*
X009691Y006401D01*
X009164Y006499D02*
X011165Y006499D01*
X011109Y006598D02*
X008820Y006598D01*
X008820Y006696D02*
X011109Y006696D01*
X011109Y006795D02*
X008820Y006795D01*
X008772Y006893D02*
X011109Y006893D01*
X011109Y006992D02*
X008674Y006992D01*
X008659Y007090D02*
X011109Y007090D01*
X011109Y007189D02*
X008603Y007189D01*
X008760Y008174D02*
X007289Y008174D01*
X007275Y008400D02*
X007033Y008158D01*
X006556Y008158D01*
X006556Y008355D02*
X006980Y008355D01*
X007275Y008650D01*
X007275Y008900D01*
X007565Y008900D01*
X007941Y008863D02*
X009615Y008863D01*
X009590Y008962D02*
X007941Y008962D01*
X007941Y009060D02*
X009590Y009060D01*
X009590Y009159D02*
X007941Y009159D01*
X007929Y009257D02*
X009303Y009257D01*
X009798Y009048D02*
X009960Y009048D01*
X010298Y009048D01*
X010775Y009525D01*
X010775Y009650D01*
X010516Y009651D02*
X010330Y009651D01*
X010330Y009553D02*
X010516Y009553D01*
X010464Y009454D02*
X010330Y009454D01*
X010330Y009356D02*
X010365Y009356D01*
X010649Y009159D02*
X010918Y009159D01*
X011017Y009257D02*
X010747Y009257D01*
X010846Y009356D02*
X011115Y009356D01*
X011275Y009275D02*
X010863Y008863D01*
X010863Y008460D01*
X010548Y008460D02*
X010548Y007673D01*
X010650Y007525D01*
X010318Y008174D02*
X009040Y008174D01*
X009138Y008272D02*
X010318Y008272D01*
X010318Y008371D02*
X009159Y008371D01*
X009159Y008469D02*
X010318Y008469D01*
X010318Y008568D02*
X009099Y008568D01*
X008900Y008400D02*
X007275Y008400D01*
X007941Y008666D02*
X010318Y008666D01*
X010322Y008765D02*
X007941Y008765D01*
X006044Y009794D02*
X006044Y009794D01*
X005847Y009794D02*
X005847Y009794D01*
X005785Y010045D02*
X006889Y010045D01*
X006790Y010144D02*
X005884Y010144D01*
X005982Y010242D02*
X006766Y010242D01*
X006766Y010341D02*
X006081Y010341D01*
X006179Y010439D02*
X006823Y010439D01*
X006650Y010650D02*
X007150Y011150D01*
X007400Y011276D01*
X007835Y011227D02*
X007965Y011227D01*
X007965Y011129D02*
X007835Y011129D01*
X007835Y011030D02*
X007965Y011030D01*
X008004Y010932D02*
X007796Y010932D01*
X007835Y011326D02*
X007965Y011326D01*
X007965Y011424D02*
X007835Y011424D01*
X007835Y011523D02*
X007965Y011523D01*
X008004Y011621D02*
X007796Y011621D01*
X007835Y011720D02*
X007965Y011720D01*
X007965Y011818D02*
X007835Y011818D01*
X007835Y011917D02*
X007965Y011917D01*
X007965Y012015D02*
X007835Y012015D01*
X007835Y012114D02*
X007965Y012114D01*
X007965Y012212D02*
X007835Y012212D01*
X007835Y012311D02*
X007891Y012311D01*
X007891Y012409D02*
X007659Y012409D01*
X007659Y012508D02*
X007891Y012508D01*
X007980Y012606D02*
X007560Y012606D01*
X007400Y012400D02*
X007400Y012024D01*
X008150Y012400D02*
X008400Y012150D01*
X008400Y012024D01*
X008150Y012400D02*
X008150Y014583D01*
X007776Y014650D02*
X007525Y014650D01*
X007776Y014650D02*
X007776Y015256D01*
X007776Y013756D01*
X007499Y013690D02*
X007430Y013690D01*
X007499Y013591D02*
X007331Y013591D01*
X007233Y013493D02*
X007535Y013493D01*
X007134Y013394D02*
X007980Y013394D01*
X007980Y013296D02*
X007036Y013296D01*
X006900Y013400D02*
X007400Y013900D01*
X007400Y014275D01*
X007150Y014525D01*
X007150Y014900D01*
X007994Y014970D02*
X008306Y014970D01*
X008247Y015069D02*
X008053Y015069D01*
X008053Y015167D02*
X008247Y015167D01*
X008247Y015266D02*
X008053Y015266D01*
X008053Y015364D02*
X008247Y015364D01*
X008247Y015463D02*
X008053Y015463D01*
X008801Y015463D02*
X008972Y015463D01*
X008874Y015364D02*
X008801Y015364D01*
X010491Y014675D02*
X010809Y014675D01*
X010711Y014576D02*
X010589Y014576D01*
X010909Y014281D02*
X015945Y014281D01*
X015945Y014379D02*
X010994Y014379D01*
X011093Y014478D02*
X015945Y014478D01*
X016144Y014315D02*
X016144Y013644D01*
X015150Y012650D01*
X014650Y013150D01*
X014150Y013150D01*
X013934Y013000D02*
X012691Y013000D01*
X012691Y012902D02*
X014032Y012902D01*
X014268Y012902D02*
X014658Y012902D01*
X014757Y012803D02*
X014362Y012803D01*
X014461Y012705D02*
X014855Y012705D01*
X014954Y012606D02*
X014559Y012606D01*
X014658Y012508D02*
X015052Y012508D01*
X015150Y012650D02*
X016223Y012650D01*
X015978Y012409D02*
X014756Y012409D01*
X015139Y012902D02*
X015161Y012902D01*
X015260Y013000D02*
X015040Y013000D01*
X014942Y013099D02*
X015358Y013099D01*
X015457Y013197D02*
X014843Y013197D01*
X014745Y013296D02*
X015555Y013296D01*
X015654Y013394D02*
X014272Y013394D01*
X014028Y013394D02*
X012760Y013394D01*
X012784Y013493D02*
X015752Y013493D01*
X015851Y013591D02*
X012784Y013591D01*
X012727Y013690D02*
X015949Y013690D01*
X015945Y014182D02*
X010909Y014182D01*
X011181Y013985D02*
X011494Y013985D01*
X011395Y013887D02*
X011280Y013887D01*
X011284Y013788D02*
X011391Y013788D01*
X011355Y013690D02*
X011284Y013690D01*
X011525Y013650D02*
X011525Y013275D01*
X010863Y012613D01*
X010863Y011840D01*
X011178Y011840D02*
X011178Y011678D01*
X011150Y011650D01*
X011150Y010838D01*
X011390Y010045D02*
X010330Y010045D01*
X010330Y009947D02*
X011391Y009947D01*
X011461Y009848D02*
X010943Y009848D01*
X010607Y009848D02*
X010330Y009848D01*
X010330Y009750D02*
X010516Y009750D01*
X009960Y009993D02*
X008807Y009993D01*
X008400Y010400D01*
X008400Y011276D02*
X008274Y011276D01*
X006650Y010650D02*
X006150Y010650D01*
X005355Y009855D01*
X005355Y009556D01*
X005158Y009556D02*
X005158Y010142D01*
X005150Y010150D01*
X006150Y011150D01*
X006400Y011276D01*
X005400Y011276D02*
X005400Y010900D01*
X004961Y010461D01*
X004961Y009556D01*
X004744Y009339D02*
X004711Y009339D01*
X004525Y009525D01*
X004525Y009775D01*
X004650Y009900D01*
X004275Y010275D02*
X004275Y009400D01*
X004533Y009142D01*
X004744Y009142D01*
X004275Y008900D02*
X003900Y008900D01*
X004025Y008610D01*
X005256Y007506D02*
X005256Y007506D01*
X005453Y007506D02*
X005453Y007506D01*
X005650Y007506D02*
X005650Y007506D01*
X005650Y007506D01*
X006628Y007287D02*
X007207Y007287D01*
X007872Y005219D02*
X006002Y005219D01*
X006049Y005120D02*
X007872Y005120D01*
X007112Y005022D02*
X006097Y005022D01*
X006115Y004923D02*
X007084Y004923D01*
X007084Y004825D02*
X006130Y004825D01*
X006145Y004726D02*
X007084Y004726D01*
X007084Y004628D02*
X006160Y004628D01*
X006174Y004529D02*
X007084Y004529D01*
X007084Y004431D02*
X006161Y004431D01*
X006146Y004332D02*
X006384Y004332D01*
X006384Y004234D02*
X006131Y004234D01*
X006116Y004135D02*
X006384Y004135D01*
X006384Y004037D02*
X006101Y004037D01*
X006102Y004039D02*
X006102Y004039D01*
X006053Y003938D02*
X006384Y003938D01*
X006384Y003840D02*
X006006Y003840D01*
X005958Y003741D02*
X006384Y003741D01*
X006384Y003643D02*
X005911Y003643D01*
X005888Y003596D02*
X005888Y003596D01*
X005840Y003544D02*
X006384Y003544D01*
X006384Y003446D02*
X005749Y003446D01*
X005658Y003347D02*
X006405Y003347D01*
X010216Y004431D02*
X011410Y004431D01*
X011410Y004529D02*
X010216Y004529D01*
X010216Y004628D02*
X011410Y004628D01*
X011410Y004726D02*
X010216Y004726D01*
X010216Y004825D02*
X011730Y004825D01*
X011730Y004923D02*
X010216Y004923D01*
X010188Y005022D02*
X011731Y005022D01*
X012071Y005022D02*
X013780Y005022D01*
X013730Y004923D02*
X012070Y004923D01*
X012070Y004825D02*
X013730Y004825D01*
X013608Y004726D02*
X012390Y004726D01*
X012390Y004628D02*
X013510Y004628D01*
X013454Y004529D02*
X012390Y004529D01*
X012390Y004431D02*
X013413Y004431D01*
X013410Y004332D02*
X012390Y004332D01*
X012390Y004234D02*
X013410Y004234D01*
X013448Y004135D02*
X012390Y004135D01*
X012390Y004037D02*
X013496Y004037D01*
X013594Y003938D02*
X012390Y003938D01*
X012324Y003840D02*
X013792Y003840D01*
X014008Y003840D02*
X015792Y003840D01*
X016008Y003840D02*
X017792Y003840D01*
X018008Y003840D02*
X023391Y003840D01*
X023350Y003938D02*
X018206Y003938D01*
X018304Y004037D02*
X023338Y004037D01*
X023344Y004135D02*
X018352Y004135D01*
X018390Y004234D02*
X023385Y004234D01*
X023481Y003741D02*
X010916Y003741D01*
X010916Y003643D02*
X027402Y003643D01*
X027469Y003544D02*
X010916Y003544D01*
X010916Y003446D02*
X027536Y003446D01*
X027635Y003347D02*
X010895Y003347D01*
X010916Y003840D02*
X011476Y003840D01*
X011410Y003938D02*
X010916Y003938D01*
X010916Y004037D02*
X011410Y004037D01*
X011410Y004135D02*
X010916Y004135D01*
X010916Y004234D02*
X011410Y004234D01*
X011410Y004332D02*
X010916Y004332D01*
X011900Y004325D02*
X011901Y005525D01*
X012237Y005120D02*
X012313Y005120D01*
X012291Y005908D02*
X012259Y005908D01*
X013900Y004901D02*
X014400Y005401D01*
X014835Y005317D02*
X014965Y005317D01*
X014965Y005219D02*
X014835Y005219D01*
X014835Y005120D02*
X014965Y005120D01*
X015230Y005022D02*
X014261Y005022D01*
X014162Y004923D02*
X015230Y004923D01*
X015235Y004825D02*
X014070Y004825D01*
X014192Y004726D02*
X015334Y004726D01*
X015432Y004628D02*
X014290Y004628D01*
X014346Y004529D02*
X015454Y004529D01*
X015413Y004431D02*
X014387Y004431D01*
X014390Y004332D02*
X015410Y004332D01*
X015410Y004234D02*
X014390Y004234D01*
X014352Y004135D02*
X015448Y004135D01*
X015496Y004037D02*
X014304Y004037D01*
X014206Y003938D02*
X015594Y003938D01*
X015900Y004325D02*
X015900Y004400D01*
X015400Y004900D01*
X016192Y004726D02*
X017608Y004726D01*
X017510Y004628D02*
X016290Y004628D01*
X016346Y004529D02*
X017454Y004529D01*
X017413Y004431D02*
X016387Y004431D01*
X016390Y004332D02*
X017410Y004332D01*
X017410Y004234D02*
X016390Y004234D01*
X016352Y004135D02*
X017448Y004135D01*
X017496Y004037D02*
X016304Y004037D01*
X016206Y003938D02*
X017594Y003938D01*
X017900Y004325D02*
X017900Y004775D01*
X017399Y005276D01*
X016524Y005276D01*
X016400Y005400D01*
X016678Y005022D02*
X017413Y005022D01*
X013900Y004901D02*
X013900Y004325D01*
X010693Y008863D02*
X010305Y008863D01*
X010452Y008962D02*
X010721Y008962D01*
X010820Y009060D02*
X010550Y009060D01*
X007980Y012705D02*
X007284Y012705D01*
X007284Y012803D02*
X007980Y012803D01*
X007980Y012902D02*
X007265Y012902D01*
X007166Y013000D02*
X007980Y013000D01*
X007980Y013099D02*
X005214Y013099D01*
X005312Y013197D02*
X005487Y013197D01*
X005391Y013296D02*
X005320Y013296D01*
X005320Y013394D02*
X005391Y013394D01*
X005391Y013493D02*
X005320Y013493D01*
X005341Y013591D02*
X005475Y013591D01*
X005650Y013400D02*
X006900Y013400D01*
X007222Y012606D02*
X007240Y012606D01*
X007980Y013197D02*
X005813Y013197D01*
X004980Y013394D02*
X004885Y013394D01*
X004909Y013493D02*
X004980Y013493D01*
X004930Y013296D02*
X004787Y013296D01*
X004400Y011276D02*
X004400Y010400D01*
X004275Y010275D01*
X008775Y012775D02*
X008838Y012775D01*
X009007Y013394D02*
X009028Y013394D01*
X010409Y014084D02*
X010475Y014084D01*
X011191Y014576D02*
X016230Y014576D01*
X016570Y014576D02*
X016676Y014576D01*
X016775Y014675D02*
X016570Y014675D01*
X016831Y014773D02*
X016873Y014773D01*
X016855Y014872D02*
X016972Y014872D01*
X017070Y014970D02*
X016855Y014970D01*
X016855Y015069D02*
X017169Y015069D01*
X017280Y015075D02*
X017280Y015075D01*
X017280Y015167D02*
X016855Y015167D01*
X017241Y014900D02*
X016656Y014315D01*
X017255Y014675D02*
X017331Y014675D01*
X017241Y014900D02*
X017650Y014900D01*
X018020Y015069D02*
X018701Y015069D01*
X018701Y015167D02*
X018020Y015167D01*
X018020Y015075D02*
X018020Y015075D01*
X018020Y015075D01*
X018020Y015266D02*
X019780Y015266D01*
X019780Y015364D02*
X018020Y015364D01*
X019070Y014675D02*
X019275Y014675D01*
X019331Y014773D02*
X019373Y014773D01*
X019355Y014872D02*
X019472Y014872D01*
X019570Y014970D02*
X019355Y014970D01*
X019355Y015069D02*
X019669Y015069D01*
X019780Y015075D02*
X019780Y015075D01*
X019780Y015167D02*
X019355Y015167D01*
X019741Y014900D02*
X019156Y014315D01*
X019176Y014576D02*
X019070Y014576D01*
X018644Y014315D02*
X018644Y013644D01*
X017650Y012650D01*
X017267Y012508D02*
X016822Y012508D01*
X016822Y012409D02*
X017169Y012409D01*
X017452Y012212D02*
X019472Y012212D01*
X019373Y012114D02*
X017354Y012114D01*
X016725Y013591D02*
X016570Y013591D01*
X019070Y013591D02*
X019225Y013591D01*
X019755Y014675D02*
X019831Y014675D01*
X019741Y014900D02*
X020150Y014900D01*
X016156Y016152D02*
X016144Y016152D01*
X014400Y016152D02*
X013070Y016152D01*
X013070Y016054D02*
X014400Y016054D01*
X014388Y015955D02*
X013070Y015955D01*
X013070Y015857D02*
X014374Y015857D01*
X014374Y015758D02*
X013157Y015758D01*
X013256Y015660D02*
X014374Y015660D01*
X014374Y015561D02*
X014105Y015561D01*
X014159Y015463D02*
X014374Y015463D01*
X014374Y015364D02*
X014159Y015364D01*
X014132Y015266D02*
X014374Y015266D01*
X014418Y015167D02*
X014033Y015167D01*
X013767Y015167D02*
X013070Y015167D01*
X013057Y015266D02*
X013169Y015266D01*
X013071Y015364D02*
X013016Y015364D01*
X012972Y015463D02*
X012931Y015463D01*
X013025Y015650D02*
X012150Y015650D01*
X011650Y015150D01*
X012070Y015167D02*
X012230Y015167D01*
X012230Y015069D02*
X012070Y015069D01*
X012030Y014970D02*
X012270Y014970D01*
X012335Y014872D02*
X011965Y014872D01*
X011837Y014773D02*
X012463Y014773D01*
X012243Y015266D02*
X012057Y015266D01*
X012104Y015364D02*
X012284Y015364D01*
X012203Y015463D02*
X012369Y015463D01*
X011980Y015720D02*
X011980Y015720D01*
X012018Y015758D02*
X011801Y015758D01*
X011919Y015660D02*
X011400Y015660D01*
X011320Y015561D02*
X011545Y015561D01*
X011369Y015463D02*
X011320Y015463D01*
X011755Y015561D02*
X011821Y015561D01*
X011951Y015857D02*
X012230Y015857D01*
X012230Y015955D02*
X012024Y015955D01*
X012065Y016054D02*
X012230Y016054D01*
X012230Y016152D02*
X012070Y016152D01*
X012063Y016251D02*
X012230Y016251D01*
X012230Y016349D02*
X012022Y016349D01*
X011946Y016448D02*
X012230Y016448D01*
X012276Y016546D02*
X011791Y016546D01*
X011876Y017334D02*
X011301Y017334D01*
X011301Y017433D02*
X011789Y017433D01*
X011748Y017531D02*
X011301Y017531D01*
X011301Y017630D02*
X011733Y017630D01*
X011733Y017728D02*
X011301Y017728D01*
X011301Y017827D02*
X011772Y017827D01*
X013024Y016546D02*
X014400Y016546D01*
X014400Y016448D02*
X013070Y016448D01*
X013070Y016349D02*
X014400Y016349D01*
X014400Y016251D02*
X013070Y016251D01*
X013025Y015650D02*
X013275Y015400D01*
X013900Y015400D01*
X011650Y013775D02*
X011525Y013650D01*
X011025Y013400D02*
X011025Y013275D01*
X012691Y013296D02*
X013929Y013296D01*
X013891Y013197D02*
X012691Y013197D01*
X012691Y013099D02*
X013891Y013099D01*
X004158Y016416D02*
X004158Y016416D01*
X004078Y016448D02*
X003320Y016448D01*
X003320Y016546D02*
X003827Y016546D01*
X003700Y016596D02*
X003700Y016596D01*
X003639Y016645D02*
X003320Y016645D01*
X003320Y016743D02*
X003516Y016743D01*
X003392Y016842D02*
X003320Y016842D01*
X024755Y014675D02*
X024831Y014675D01*
D43*
X026525Y015400D03*
X027650Y014525D03*
X028650Y014150D03*
X028150Y013400D03*
X029275Y013400D03*
X028900Y010650D03*
X029400Y009400D03*
X028650Y008525D03*
X028025Y007775D03*
X025900Y007900D03*
X025650Y008650D03*
X023400Y007900D03*
X023150Y008650D03*
X020900Y007900D03*
X020650Y008650D03*
X018400Y007900D03*
X018150Y008650D03*
X016525Y008650D03*
X016150Y008150D03*
X015650Y007650D03*
X016150Y007150D03*
X017150Y006650D03*
X017650Y006150D03*
X017275Y005650D03*
X012650Y006150D03*
X011525Y007400D03*
X011525Y007775D03*
X010650Y007525D03*
X009400Y006463D03*
X009400Y006150D03*
X009400Y005838D03*
X007900Y005838D03*
X007900Y006150D03*
X007900Y006463D03*
X008400Y007025D03*
X008900Y008400D03*
X008838Y009150D03*
X009150Y009150D03*
X008525Y009150D03*
X008275Y009400D03*
X007963Y009400D03*
X007275Y008900D03*
X007025Y010275D03*
X007400Y010588D03*
X007400Y012400D03*
X007025Y012775D03*
X006525Y012650D03*
X005650Y013400D03*
X004900Y013025D03*
X004650Y013525D03*
X005900Y014900D03*
X007025Y014150D03*
X007525Y014650D03*
X009275Y014525D03*
X009150Y013775D03*
X009150Y013150D03*
X008775Y012775D03*
X008150Y012400D03*
X010150Y013025D03*
X011025Y013400D03*
X011025Y013775D03*
X010650Y014275D03*
X010150Y014150D03*
X011650Y013775D03*
X012525Y013525D03*
X013525Y012525D03*
X013900Y012150D03*
X012900Y011900D03*
X012150Y011213D03*
X012650Y010650D03*
X011650Y010400D03*
X011650Y010025D03*
X011650Y009275D03*
X010775Y009650D03*
X011150Y010838D03*
X010775Y011025D03*
X014150Y013150D03*
X014275Y013650D03*
X014275Y014025D03*
X013900Y015400D03*
X016900Y013400D03*
X017150Y012650D03*
X019400Y013400D03*
X019650Y012650D03*
X021900Y013400D03*
X022150Y012650D03*
X024400Y013400D03*
X024650Y012650D03*
X015400Y010900D03*
X015025Y011025D03*
X008900Y015900D03*
X009650Y016275D03*
X010275Y017525D03*
X010650Y017525D03*
X010650Y018525D03*
X010275Y018525D03*
X004775Y015775D03*
X004650Y009900D03*
X004275Y008900D03*
X005150Y007275D03*
X005525Y007275D03*
X006150Y007025D03*
D44*
X006775Y005775D02*
X006996Y005871D01*
X007900Y005838D02*
X007900Y006150D01*
X007900Y006463D01*
X009400Y006463D02*
X009400Y006150D01*
X009400Y005838D01*
X023650Y005400D02*
X024150Y005400D01*
X024150Y006142D01*
X024158Y006150D01*
X026326Y012826D02*
X026400Y012900D01*
D45*
X024025Y011400D03*
X023650Y011400D03*
X022775Y006525D03*
X022275Y006525D03*
X023025Y006025D03*
X023525Y006025D03*
X023650Y005400D03*
X024150Y005400D03*
X025150Y006650D03*
X025650Y006650D03*
X026150Y006650D03*
X021025Y005900D03*
X020525Y005900D03*
X019775Y005400D03*
X019775Y004900D03*
X010525Y005775D03*
X010025Y005775D03*
X007275Y005775D03*
X006775Y005775D03*
X006775Y003650D03*
X007275Y003650D03*
X010025Y003650D03*
X010525Y003650D03*
D46*
X011485Y006900D02*
X011525Y006940D01*
X011525Y007400D01*
X012082Y007957D01*
X012122Y007957D01*
X012122Y008460D01*
X011493Y008460D02*
X011493Y007807D01*
X011525Y007775D02*
X011525Y007400D01*
X012150Y011213D02*
X012275Y011400D01*
X012400Y011400D01*
X012275Y011400D02*
X011807Y011400D01*
X011807Y011840D01*
X011807Y012557D01*
X012275Y013025D01*
X012275Y013275D01*
X012525Y013525D01*
X012315Y013025D02*
X012275Y013025D01*
X017650Y015250D02*
X017650Y016025D01*
X020150Y016400D02*
X020150Y015250D01*
X022650Y015250D02*
X022650Y016400D01*
X025150Y016400D02*
X025150Y015250D01*
X024025Y011400D02*
X023900Y011400D01*
X023900Y010500D01*
X021400Y010500D02*
X021400Y011025D01*
X018900Y011025D02*
X018900Y010500D01*
X026400Y010500D02*
X026400Y011400D01*
X027025Y010775D01*
X027025Y009025D01*
X027900Y009025D01*
X028900Y009025D01*
D47*
X024025Y011400D02*
X023650Y011400D01*
X022650Y011400D01*
X022275Y011025D01*
X021400Y011025D01*
X018900Y011025D01*
X022275Y006525D02*
X021775Y006025D01*
X021775Y005150D01*
X021400Y004775D01*
X020826Y004775D01*
X020775Y004724D01*
X020474Y004701D01*
X019775Y005400D01*
X022275Y006525D02*
X022775Y006525D01*
X022650Y016400D02*
X020150Y016400D01*
X020150Y017650D01*
X019150Y018650D01*
X022650Y016400D02*
X025150Y016400D01*
X025900Y016400D01*
D48*
X025900Y013400D01*
X026400Y012900D01*
X026400Y012400D01*
X026400Y011400D01*
X024025Y011400D01*
X019775Y005400D02*
X019775Y004900D01*
D49*
X027406Y007815D02*
X027406Y007906D01*
X027650Y008150D01*
X027900Y008150D01*
X027900Y009025D01*
X027900Y009690D01*
X027900Y008150D02*
X029150Y008150D01*
X029406Y007894D01*
X029406Y007815D01*
X017363Y016525D02*
X016524Y016525D01*
X015776Y016525D02*
X014938Y016525D01*
X007525Y007650D02*
X007400Y007525D01*
X006525Y007525D01*
X007900Y006150D02*
X008014Y006036D01*
X008020Y006036D01*
D50*
X009150Y017525D02*
X010275Y017525D01*
X010650Y017525D01*
D51*
X006339Y007744D02*
X006339Y007711D01*
X006525Y007525D01*
M02*
