%
M48
M72
T01C0.0118
T02C0.0197
T03C0.0394
T04C0.0400
T05C0.0433
T06C0.1260
%
T01
X7900Y5838
X7900Y6150
X7900Y6463
X8400Y7025
X9400Y6463
X9400Y6150
X9400Y5838
X11525Y7400
X11525Y7775
X10650Y7525
X8900Y8400
X8838Y9150
X9150Y9150
X8525Y9150
X8275Y9400
X7963Y9400
X7275Y8900
X7025Y10275
X7400Y10588
X7400Y12400
X7025Y12775
X6525Y12650
X5650Y13400
X4900Y13025
X4650Y13525
X5900Y14900
X7025Y14150
X7525Y14650
X9275Y14525
X9150Y13775
X9150Y13150
X8775Y12775
X8150Y12400
X10150Y13025
X11025Y13400
X11025Y13775
X10650Y14275
X10150Y14150
X11650Y13775
X12525Y13525
X13525Y12525
X13900Y12150
X12900Y11900
X12150Y11213
X12650Y10650
X11650Y10400
X11650Y10025
X11650Y9275
X10775Y9650
X11150Y10838
X10775Y11025
X14150Y13150
X14275Y13650
X14275Y14025
X13900Y15400
X16900Y13400
X17150Y12650
X19400Y13400
X19650Y12650
X21900Y13400
X22150Y12650
X24400Y13400
X24650Y12650
X27650Y14525
X28650Y14150
X28150Y13400
X29275Y13400
X26525Y15400
X28900Y10650
X29400Y9400
X28650Y8525
X28025Y7775
X25900Y7900
X25650Y8650
X23400Y7900
X23150Y8650
X20900Y7900
X20650Y8650
X18400Y7900
X18150Y8650
X16525Y8650
X16150Y8150
X15650Y7650
X16150Y7150
X17150Y6650
X17650Y6150
X17275Y5650
X12650Y6150
X6150Y7025
X5525Y7275
X5150Y7275
X4275Y8900
X4650Y9900
X4775Y15775
X8900Y15900
X9650Y16275
X10275Y17525
X10650Y17525
X10650Y18525
X10275Y18525
X15025Y11025
X15400Y10900
T02
X22275Y6525
X22775Y6525
X23025Y6025
X23525Y6025
X23650Y5400
X24150Y5400
X25150Y6650
X25650Y6650
X26150Y6650
X21025Y5900
X20525Y5900
X19775Y5400
X19775Y4900
X10525Y5775
X10025Y5775
X7275Y5775
X6775Y5775
X6775Y3650
X7275Y3650
X10025Y3650
X10525Y3650
X23650Y11400
X24025Y11400
T03
X19150Y17650
X18150Y17650
X17150Y17650
X16150Y17650
X15150Y17650
X14150Y17650
X13150Y17650
X12150Y17650
X12150Y18650
X13150Y18650
X14150Y18650
X15150Y18650
X16150Y18650
X17150Y18650
X18150Y18650
X19150Y18650
T04
X12650Y16150
X11650Y16150
X10650Y16150
X10650Y15150
X11650Y15150
X12650Y15150
X9150Y17525
X8150Y17525
X7150Y17525
X7150Y18525
X8150Y18525
X9150Y18525
X11900Y4325
X12900Y4225
X13900Y4325
X14900Y4225
X15900Y4325
X16900Y4225
X17900Y4325
X18900Y4225
T05
X23725Y4044
X25575Y4044
X25158Y18650
X26142Y18650
X23142Y18650
X22158Y18650
T06
X4525Y4525
X4525Y18025
X28775Y18025
X28775Y4525
M30
