G75*
G70*
%OFA0B0*%
%FSLAX24Y24*%
%IPPOS*%
%LPD*%
%AMOC8*
5,1,8,0,0,1.08239X$1,22.5*
%
%ADD10R,0.0157X0.0276*%
%ADD11R,0.0551X0.0354*%
%ADD12R,0.0220X0.0500*%
%ADD13R,0.0500X0.0220*%
%ADD14R,0.0236X0.0118*%
%ADD15C,0.0040*%
%ADD16R,0.0512X0.0591*%
%ADD17R,0.0630X0.0512*%
%ADD18R,0.0276X0.0669*%
%ADD19R,0.0260X0.0800*%
%ADD20R,0.0512X0.0630*%
%ADD21R,0.0394X0.0591*%
%ADD22R,0.0354X0.0315*%
%ADD23R,0.0315X0.0354*%
%ADD24R,0.0984X0.0866*%
%ADD25R,0.0197X0.0787*%
%ADD26R,0.0472X0.1260*%
%ADD27R,0.0866X0.2205*%
%ADD28R,0.1063X0.0630*%
%ADD29R,0.0472X0.0472*%
%ADD30R,0.0250X0.0500*%
%ADD31R,0.0960X0.0900*%
%ADD32R,0.0591X0.0512*%
D10*
X017394Y009565D03*
X017906Y009565D03*
X017906Y010235D03*
X017650Y010235D03*
X017394Y010235D03*
X019894Y010235D03*
X020150Y010235D03*
X020406Y010235D03*
X020406Y009565D03*
X019894Y009565D03*
X022394Y009565D03*
X022906Y009565D03*
X022906Y010235D03*
X022650Y010235D03*
X022394Y010235D03*
X024894Y010235D03*
X025150Y010235D03*
X025406Y010235D03*
X025406Y009565D03*
X024894Y009565D03*
X026894Y008485D03*
X027150Y008485D03*
X027406Y008485D03*
X027406Y007815D03*
X026894Y007815D03*
X028894Y007815D03*
X029406Y007815D03*
X029406Y008485D03*
X029150Y008485D03*
X028894Y008485D03*
X024156Y014315D03*
X023644Y014315D03*
X023644Y014985D03*
X023900Y014985D03*
X024156Y014985D03*
X021656Y014985D03*
X021400Y014985D03*
X021144Y014985D03*
X021144Y014315D03*
X021656Y014315D03*
X019156Y014315D03*
X018644Y014315D03*
X018644Y014985D03*
X018900Y014985D03*
X019156Y014985D03*
X016656Y014985D03*
X016400Y014985D03*
X016144Y014985D03*
X016144Y014315D03*
X016656Y014315D03*
D11*
X027650Y014276D03*
X027650Y015024D03*
X028650Y015024D03*
X028650Y014276D03*
D12*
X012752Y011840D03*
X012437Y011840D03*
X012122Y011840D03*
X011807Y011840D03*
X011493Y011840D03*
X011178Y011840D03*
X010863Y011840D03*
X010548Y011840D03*
X010548Y008460D03*
X010863Y008460D03*
X011178Y008460D03*
X011493Y008460D03*
X011807Y008460D03*
X012122Y008460D03*
X012437Y008460D03*
X012752Y008460D03*
D13*
X013340Y009048D03*
X013340Y009363D03*
X013340Y009678D03*
X013340Y009993D03*
X013340Y010307D03*
X013340Y010622D03*
X013340Y010937D03*
X013340Y011252D03*
X009960Y011252D03*
X009960Y010937D03*
X009960Y010622D03*
X009960Y010307D03*
X009960Y009993D03*
X009960Y009678D03*
X009960Y009363D03*
X009960Y009048D03*
D14*
X006044Y009142D03*
X006044Y008945D03*
X006044Y008748D03*
X006044Y008552D03*
X006044Y008355D03*
X006044Y008158D03*
X005650Y008158D03*
X005650Y008355D03*
X005650Y008552D03*
X005650Y008748D03*
X005650Y008945D03*
X005650Y009142D03*
X005256Y009142D03*
X005256Y008945D03*
X005256Y008748D03*
X005256Y008552D03*
X005256Y008355D03*
X005256Y008158D03*
D15*
X005187Y007833D02*
X005187Y007656D01*
X005128Y007656D01*
X005128Y007833D01*
X005187Y007833D01*
X005187Y007809D02*
X005128Y007809D01*
X005128Y007770D02*
X005187Y007770D01*
X005187Y007732D02*
X005128Y007732D01*
X005128Y007693D02*
X005187Y007693D01*
X005325Y007693D02*
X005384Y007693D01*
X005384Y007656D02*
X005325Y007656D01*
X005325Y007833D01*
X005384Y007833D01*
X005384Y007656D01*
X005384Y007732D02*
X005325Y007732D01*
X005325Y007770D02*
X005384Y007770D01*
X005384Y007809D02*
X005325Y007809D01*
X005522Y007809D02*
X005581Y007809D01*
X005581Y007833D02*
X005581Y007656D01*
X005522Y007656D01*
X005522Y007833D01*
X005581Y007833D01*
X005581Y007770D02*
X005522Y007770D01*
X005522Y007732D02*
X005581Y007732D01*
X005581Y007693D02*
X005522Y007693D01*
X005719Y007693D02*
X005778Y007693D01*
X005778Y007656D02*
X005719Y007656D01*
X005719Y007833D01*
X005778Y007833D01*
X005778Y007656D01*
X005778Y007732D02*
X005719Y007732D01*
X005719Y007770D02*
X005778Y007770D01*
X005778Y007809D02*
X005719Y007809D01*
X005916Y007809D02*
X005975Y007809D01*
X005975Y007833D02*
X005975Y007656D01*
X005916Y007656D01*
X005916Y007833D01*
X005975Y007833D01*
X005975Y007770D02*
X005916Y007770D01*
X005916Y007732D02*
X005975Y007732D01*
X005975Y007693D02*
X005916Y007693D01*
X006113Y007693D02*
X006172Y007693D01*
X006172Y007656D02*
X006113Y007656D01*
X006113Y007833D01*
X006172Y007833D01*
X006172Y007656D01*
X006172Y007732D02*
X006113Y007732D01*
X006113Y007770D02*
X006172Y007770D01*
X006172Y007809D02*
X006113Y007809D01*
X006309Y007809D02*
X006369Y007809D01*
X006369Y007813D02*
X006349Y007833D01*
X006309Y007833D01*
X006309Y007656D01*
X006369Y007656D01*
X006369Y007813D01*
X006369Y007770D02*
X006309Y007770D01*
X006309Y007732D02*
X006369Y007732D01*
X006369Y007693D02*
X006309Y007693D01*
X006487Y007931D02*
X006467Y007951D01*
X006467Y007991D01*
X006644Y007991D01*
X006644Y007931D01*
X006487Y007931D01*
X006467Y007963D02*
X006644Y007963D01*
X006644Y008128D02*
X006467Y008128D01*
X006467Y008187D01*
X006644Y008187D01*
X006644Y008128D01*
X006644Y008155D02*
X006467Y008155D01*
X006467Y008325D02*
X006467Y008384D01*
X006644Y008384D01*
X006644Y008325D01*
X006467Y008325D01*
X006467Y008348D02*
X006644Y008348D01*
X006644Y008522D02*
X006644Y008581D01*
X006467Y008581D01*
X006467Y008522D01*
X006644Y008522D01*
X006644Y008540D02*
X006467Y008540D01*
X006467Y008579D02*
X006644Y008579D01*
X006644Y008719D02*
X006644Y008778D01*
X006467Y008778D01*
X006467Y008719D01*
X006644Y008719D01*
X006644Y008733D02*
X006467Y008733D01*
X006467Y008771D02*
X006644Y008771D01*
X006644Y008916D02*
X006467Y008916D01*
X006467Y008975D01*
X006644Y008975D01*
X006644Y008916D01*
X006644Y008925D02*
X006467Y008925D01*
X006467Y008964D02*
X006644Y008964D01*
X006644Y009113D02*
X006467Y009113D01*
X006467Y009172D01*
X006644Y009172D01*
X006644Y009113D01*
X006644Y009118D02*
X006467Y009118D01*
X006467Y009156D02*
X006644Y009156D01*
X006644Y009309D02*
X006467Y009309D01*
X006467Y009349D01*
X006487Y009369D01*
X006644Y009369D01*
X006644Y009309D01*
X006644Y009310D02*
X006467Y009310D01*
X006467Y009349D02*
X006644Y009349D01*
X006369Y009487D02*
X006369Y009644D01*
X006309Y009644D01*
X006309Y009467D01*
X006349Y009467D01*
X006369Y009487D01*
X006369Y009503D02*
X006309Y009503D01*
X006309Y009541D02*
X006369Y009541D01*
X006369Y009580D02*
X006309Y009580D01*
X006309Y009618D02*
X006369Y009618D01*
X006172Y009618D02*
X006113Y009618D01*
X006113Y009644D02*
X006172Y009644D01*
X006172Y009467D01*
X006113Y009467D01*
X006113Y009644D01*
X006113Y009580D02*
X006172Y009580D01*
X006172Y009541D02*
X006113Y009541D01*
X006113Y009503D02*
X006172Y009503D01*
X005975Y009503D02*
X005916Y009503D01*
X005916Y009467D02*
X005916Y009644D01*
X005975Y009644D01*
X005975Y009467D01*
X005916Y009467D01*
X005916Y009541D02*
X005975Y009541D01*
X005975Y009580D02*
X005916Y009580D01*
X005916Y009618D02*
X005975Y009618D01*
X005778Y009618D02*
X005719Y009618D01*
X005719Y009644D02*
X005778Y009644D01*
X005778Y009467D01*
X005719Y009467D01*
X005719Y009644D01*
X005719Y009580D02*
X005778Y009580D01*
X005778Y009541D02*
X005719Y009541D01*
X005719Y009503D02*
X005778Y009503D01*
X005581Y009503D02*
X005522Y009503D01*
X005522Y009467D02*
X005522Y009644D01*
X005581Y009644D01*
X005581Y009467D01*
X005522Y009467D01*
X005522Y009541D02*
X005581Y009541D01*
X005581Y009580D02*
X005522Y009580D01*
X005522Y009618D02*
X005581Y009618D01*
X005384Y009618D02*
X005325Y009618D01*
X005325Y009644D02*
X005384Y009644D01*
X005384Y009467D01*
X005325Y009467D01*
X005325Y009644D01*
X005325Y009580D02*
X005384Y009580D01*
X005384Y009541D02*
X005325Y009541D01*
X005325Y009503D02*
X005384Y009503D01*
X005187Y009503D02*
X005128Y009503D01*
X005128Y009467D02*
X005128Y009644D01*
X005187Y009644D01*
X005187Y009467D01*
X005128Y009467D01*
X005128Y009541D02*
X005187Y009541D01*
X005187Y009580D02*
X005128Y009580D01*
X005128Y009618D02*
X005187Y009618D01*
X004991Y009618D02*
X004931Y009618D01*
X004931Y009644D02*
X004991Y009644D01*
X004991Y009467D01*
X004951Y009467D01*
X004931Y009487D01*
X004931Y009644D01*
X004931Y009580D02*
X004991Y009580D01*
X004991Y009541D02*
X004931Y009541D01*
X004931Y009503D02*
X004991Y009503D01*
X004833Y009349D02*
X004833Y009309D01*
X004656Y009309D01*
X004656Y009369D01*
X004813Y009369D01*
X004833Y009349D01*
X004656Y009349D01*
X004656Y009310D02*
X004833Y009310D01*
X004833Y009172D02*
X004833Y009113D01*
X004656Y009113D01*
X004656Y009172D01*
X004833Y009172D01*
X004833Y009156D02*
X004656Y009156D01*
X004656Y009118D02*
X004833Y009118D01*
X004833Y008975D02*
X004833Y008916D01*
X004656Y008916D01*
X004656Y008975D01*
X004833Y008975D01*
X004833Y008964D02*
X004656Y008964D01*
X004656Y008925D02*
X004833Y008925D01*
X004833Y008778D02*
X004833Y008719D01*
X004656Y008719D01*
X004656Y008778D01*
X004833Y008778D01*
X004833Y008771D02*
X004656Y008771D01*
X004656Y008733D02*
X004833Y008733D01*
X004833Y008581D02*
X004833Y008522D01*
X004656Y008522D01*
X004656Y008581D01*
X004833Y008581D01*
X004833Y008579D02*
X004656Y008579D01*
X004656Y008540D02*
X004833Y008540D01*
X004833Y008384D02*
X004833Y008325D01*
X004656Y008325D01*
X004656Y008384D01*
X004833Y008384D01*
X004833Y008348D02*
X004656Y008348D01*
X004656Y008187D02*
X004656Y008128D01*
X004833Y008128D01*
X004833Y008187D01*
X004656Y008187D01*
X004656Y008155D02*
X004833Y008155D01*
X004833Y007991D02*
X004656Y007991D01*
X004656Y007931D01*
X004813Y007931D01*
X004833Y007951D01*
X004833Y007991D01*
X004833Y007963D02*
X004656Y007963D01*
X004931Y007813D02*
X004951Y007833D01*
X004991Y007833D01*
X004991Y007656D01*
X004931Y007656D01*
X004931Y007813D01*
X004931Y007809D02*
X004991Y007809D01*
X004991Y007770D02*
X004931Y007770D01*
X004931Y007732D02*
X004991Y007732D01*
X004991Y007693D02*
X004931Y007693D01*
D16*
X007565Y007650D03*
X008235Y007650D03*
X008235Y008900D03*
X007565Y008900D03*
X010815Y006900D03*
X011485Y006900D03*
X012315Y013025D03*
X012985Y013025D03*
D17*
X008400Y012024D03*
X008400Y011276D03*
X007400Y011276D03*
X007400Y012024D03*
X006400Y012024D03*
X006400Y011276D03*
X005400Y011276D03*
X005400Y012024D03*
X004400Y012024D03*
X004400Y011276D03*
X014400Y006149D03*
X014400Y005401D03*
X015400Y005401D03*
X015400Y006149D03*
X024775Y011381D03*
X024775Y012169D03*
D18*
X013872Y007400D03*
X013400Y007400D03*
X012928Y007400D03*
D19*
X027400Y009690D03*
X027900Y009690D03*
X028400Y009690D03*
X028900Y009690D03*
X028900Y012110D03*
X028400Y012110D03*
X027900Y012110D03*
X027400Y012110D03*
D20*
X016524Y016525D03*
X015776Y016525D03*
X012649Y005525D03*
X011901Y005525D03*
D21*
X016400Y005405D03*
X016400Y006145D03*
D22*
X006544Y013776D03*
X005717Y014150D03*
X005044Y013776D03*
X004217Y014150D03*
X005044Y014524D03*
X005044Y015276D03*
X005717Y015650D03*
X005044Y016024D03*
X004217Y015650D03*
X006544Y015276D03*
X006544Y014524D03*
X006544Y016024D03*
D23*
X007776Y015256D03*
X008524Y015256D03*
X008150Y014583D03*
X007776Y013756D03*
X008524Y013756D03*
X008150Y016083D03*
D24*
X006996Y003851D03*
X006996Y005937D03*
X010304Y005937D03*
X010304Y003851D03*
D25*
X009280Y006036D03*
X008965Y006036D03*
X008650Y006036D03*
X008335Y006036D03*
X008020Y006036D03*
D26*
X024158Y006150D03*
X025142Y006150D03*
D27*
X026422Y004496D03*
X022878Y004496D03*
D28*
X020775Y004724D03*
X020775Y005826D03*
X015025Y014474D03*
X015025Y015576D03*
X010650Y017474D03*
X010650Y018576D03*
D29*
X014112Y016525D03*
X014938Y016525D03*
D30*
X017363Y016525D03*
X017687Y016525D03*
D31*
X017525Y016525D03*
D32*
X004025Y008610D03*
X004025Y007940D03*
M02*
