G75*
G70*
%OFA0B0*%
%FSLAX24Y24*%
%IPPOS*%
%LPD*%
%AMOC8*
5,1,8,0,0,1.08239X$1,22.5*
%
%ADD10R,0.0010X0.0070*%
%ADD11R,0.0010X0.0060*%
%ADD12R,0.0010X0.0270*%
%ADD13R,0.0010X0.0190*%
%ADD14R,0.0010X0.0120*%
%ADD15R,0.0010X0.0130*%
%ADD16R,0.0010X0.0220*%
%ADD17R,0.0010X0.0150*%
%ADD18R,0.0010X0.0240*%
%ADD19R,0.0010X0.0170*%
%ADD20R,0.0010X0.0250*%
%ADD21R,0.0010X0.0260*%
%ADD22R,0.0010X0.0080*%
%ADD23R,0.0010X0.0090*%
%ADD24R,0.0010X0.0050*%
%ADD25R,0.0010X0.0230*%
%ADD26R,0.0010X0.0210*%
%ADD27R,0.0010X0.0200*%
%ADD28R,0.0010X0.0110*%
%ADD29R,0.0010X0.0160*%
%ADD30R,0.0010X0.0180*%
%ADD31R,0.0010X0.0140*%
%ADD32R,0.0010X0.0030*%
%ADD33R,0.0010X0.0100*%
%ADD34R,0.2500X0.1875*%
%ADD35R,0.9250X0.0375*%
%ADD36R,0.7750X0.0375*%
%ADD37C,0.0240*%
%ADD38R,0.0592X0.0710*%
%ADD39R,0.0592X0.0671*%
%ADD40C,0.1340*%
%ADD41R,0.0710X0.0867*%
%ADD42R,0.0680X0.0680*%
%ADD43C,0.0680*%
%ADD44C,0.0674*%
%ADD45R,0.0820X0.0820*%
%ADD46OC8,0.0820*%
%ADD47C,0.0820*%
%ADD48R,0.0474X0.0789*%
%ADD49R,0.0671X0.0592*%
%ADD50R,0.0710X0.0592*%
%ADD51R,0.0330X0.0580*%
%ADD52R,0.0560X0.0960*%
%ADD53R,0.1497X0.0946*%
%ADD54C,0.0513*%
%ADD55R,0.1143X0.0710*%
%ADD56R,0.0659X0.0580*%
%ADD57C,0.0730*%
%ADD58OC8,0.0358*%
%ADD59OC8,0.0437*%
D10*
X020030Y012155D03*
X020040Y012165D03*
X020050Y012165D03*
X020070Y012175D03*
X020080Y012175D03*
X020090Y012175D03*
X020100Y012175D03*
X020110Y012175D03*
X020120Y012175D03*
X020150Y012165D03*
X020170Y012155D03*
X020250Y012135D03*
X020260Y012145D03*
X020280Y012155D03*
X020290Y012155D03*
X020300Y012155D03*
X020330Y012155D03*
X020340Y012155D03*
X020350Y012155D03*
X020360Y012155D03*
X020370Y012145D03*
X020350Y012305D03*
X020340Y012305D03*
X020370Y012315D03*
X020380Y012325D03*
X020380Y012475D03*
X020370Y012485D03*
X020360Y012485D03*
X020340Y012495D03*
X020330Y012495D03*
X020320Y012495D03*
X020310Y012495D03*
X020300Y012495D03*
X020290Y012495D03*
X020270Y012485D03*
X020260Y012485D03*
X020240Y012475D03*
X020230Y012475D03*
X020220Y012465D03*
X020210Y012455D03*
X020200Y012455D03*
X020190Y012445D03*
X020180Y012435D03*
X020170Y012435D03*
X020160Y012425D03*
X020150Y012415D03*
X020140Y012405D03*
X020130Y012405D03*
X020120Y012395D03*
X020110Y012385D03*
X020090Y012375D03*
X020080Y012365D03*
X020070Y012355D03*
X020040Y012335D03*
X020100Y012625D03*
X020110Y012625D03*
X020120Y012625D03*
X020130Y012625D03*
X020140Y012625D03*
X020150Y012625D03*
X020160Y012625D03*
X020170Y012625D03*
X020180Y012625D03*
X020190Y012625D03*
X020200Y012625D03*
X020210Y012625D03*
X020220Y012625D03*
X020230Y012625D03*
X020240Y012625D03*
X020250Y012625D03*
X020260Y012625D03*
X020270Y012625D03*
X020280Y012625D03*
X020290Y012625D03*
X020300Y012625D03*
X020340Y012635D03*
X020350Y012635D03*
X020370Y012645D03*
X020380Y012655D03*
X020440Y012725D03*
X020390Y012785D03*
X020380Y012795D03*
X020360Y012805D03*
X020340Y012815D03*
X020330Y012815D03*
X020280Y012825D03*
X020270Y012825D03*
X020260Y012825D03*
X020250Y012825D03*
X020240Y012825D03*
X020230Y012825D03*
X020220Y012825D03*
X020210Y012825D03*
X020200Y012825D03*
X020190Y012825D03*
X020180Y012825D03*
X020170Y012825D03*
X020160Y012825D03*
X020150Y012825D03*
X020140Y012825D03*
X020130Y012825D03*
X020120Y012825D03*
X020070Y012815D03*
X020060Y012815D03*
X020040Y012805D03*
X020030Y012805D03*
X020020Y012795D03*
X020010Y012785D03*
X019960Y012725D03*
X020020Y012655D03*
X020030Y012645D03*
X020050Y012635D03*
X020060Y012635D03*
X020060Y013065D03*
X020070Y013065D03*
X020080Y013065D03*
X020090Y013065D03*
X020100Y013065D03*
X020110Y013065D03*
X020120Y013065D03*
X020130Y013065D03*
X020140Y013065D03*
X020150Y013065D03*
X020160Y013065D03*
X020170Y013065D03*
X020180Y013065D03*
X020190Y013065D03*
X020200Y013065D03*
X020210Y013065D03*
X020220Y013065D03*
X020230Y013065D03*
X020240Y013065D03*
X020250Y013065D03*
X020260Y013065D03*
X020270Y013065D03*
X020280Y013065D03*
X020290Y013065D03*
X020300Y013065D03*
X020310Y013065D03*
X020320Y013065D03*
X020330Y013065D03*
X020340Y013065D03*
X020350Y013065D03*
X020360Y013065D03*
X020370Y013065D03*
X020210Y013305D03*
X020060Y013295D03*
X020050Y013295D03*
X020030Y013305D03*
X019960Y013385D03*
X020030Y013465D03*
X020050Y013475D03*
X020060Y013475D03*
X020090Y013485D03*
X020100Y013485D03*
X020110Y013485D03*
X020120Y013485D03*
X020130Y013485D03*
X020140Y013485D03*
X020170Y013475D03*
X020180Y013475D03*
X020190Y013475D03*
X020200Y013465D03*
X020050Y013065D03*
X020040Y013065D03*
X020030Y013065D03*
X020020Y013065D03*
X020010Y013065D03*
X020000Y013065D03*
X019990Y013065D03*
X019980Y013065D03*
X019970Y013065D03*
X020830Y012335D03*
X020840Y012335D03*
X020850Y012345D03*
X020860Y012345D03*
X020870Y012345D03*
X020880Y012345D03*
X020890Y012345D03*
X020900Y012345D03*
X020910Y012345D03*
X020920Y012345D03*
X020930Y012335D03*
X021110Y012345D03*
X021120Y012345D03*
X021130Y012345D03*
X021150Y012335D03*
X021160Y012335D03*
X021170Y012325D03*
X021170Y012135D03*
X021160Y012135D03*
X021150Y012125D03*
X021140Y012125D03*
X021130Y012125D03*
X021100Y012125D03*
X021090Y012125D03*
X021080Y012125D03*
X021070Y012135D03*
X020860Y012115D03*
X020850Y012115D03*
X020840Y012125D03*
X021020Y011625D03*
X021070Y011635D03*
X021120Y011645D03*
X021170Y011655D03*
X021180Y011655D03*
X021210Y011665D03*
X021220Y011665D03*
X021230Y011665D03*
X021210Y011465D03*
X021200Y011465D03*
X021150Y011275D03*
X021140Y011275D03*
X021100Y011285D03*
X021090Y011285D03*
X021050Y011295D03*
X021040Y011295D03*
X020990Y011305D03*
X020940Y011315D03*
X021190Y011265D03*
X021200Y011265D03*
X021210Y011265D03*
X021240Y011255D03*
X020800Y011575D03*
X020790Y011575D03*
X020780Y011575D03*
X020770Y011575D03*
D11*
X020920Y011540D03*
X020940Y011530D03*
X020950Y011530D03*
X020960Y011530D03*
X020980Y011520D03*
X020990Y011520D03*
X021000Y011520D03*
X021020Y011510D03*
X021030Y011510D03*
X021040Y011510D03*
X021050Y011510D03*
X021060Y011500D03*
X021070Y011500D03*
X021080Y011500D03*
X021090Y011500D03*
X021090Y011430D03*
X021100Y011430D03*
X021080Y011430D03*
X021070Y011420D03*
X021060Y011420D03*
X021050Y011420D03*
X021040Y011420D03*
X021020Y011410D03*
X021010Y011410D03*
X021000Y011410D03*
X020980Y011400D03*
X020970Y011400D03*
X020960Y011400D03*
X020940Y011390D03*
X020930Y011390D03*
X020920Y011390D03*
X020920Y011320D03*
X020930Y011320D03*
X020910Y011320D03*
X020950Y011310D03*
X020960Y011310D03*
X020970Y011310D03*
X020980Y011310D03*
X021000Y011300D03*
X021010Y011300D03*
X021020Y011300D03*
X021030Y011300D03*
X021060Y011290D03*
X021070Y011290D03*
X021080Y011290D03*
X021110Y011280D03*
X021120Y011280D03*
X021130Y011280D03*
X021160Y011270D03*
X021170Y011270D03*
X021180Y011270D03*
X021220Y011260D03*
X021230Y011260D03*
X021230Y011460D03*
X021240Y011460D03*
X021220Y011460D03*
X021160Y011650D03*
X021150Y011650D03*
X021140Y011650D03*
X021130Y011650D03*
X021110Y011640D03*
X021100Y011640D03*
X021090Y011640D03*
X021080Y011640D03*
X021060Y011630D03*
X021050Y011630D03*
X021040Y011630D03*
X021030Y011630D03*
X021010Y011620D03*
X021000Y011620D03*
X020990Y011620D03*
X020980Y011620D03*
X020970Y011620D03*
X020960Y011610D03*
X020950Y011610D03*
X020940Y011610D03*
X020930Y011610D03*
X020920Y011610D03*
X020920Y011790D03*
X020930Y011790D03*
X020940Y011790D03*
X020950Y011790D03*
X020960Y011790D03*
X020970Y011790D03*
X020980Y011790D03*
X021040Y011790D03*
X021050Y011790D03*
X021060Y011790D03*
X021070Y011790D03*
X021080Y011790D03*
X021090Y011790D03*
X021100Y011790D03*
X021110Y011790D03*
X021120Y011790D03*
X021130Y011790D03*
X021140Y011790D03*
X021150Y011790D03*
X021160Y011790D03*
X021170Y011790D03*
X021180Y011790D03*
X021190Y011790D03*
X021190Y011660D03*
X021200Y011660D03*
X021240Y011670D03*
X020910Y011790D03*
X020900Y011790D03*
X020890Y011790D03*
X020880Y011790D03*
X020870Y011790D03*
X020860Y011790D03*
X020850Y011790D03*
X020840Y011790D03*
X020830Y011790D03*
X020820Y011790D03*
X020780Y011350D03*
X020770Y011350D03*
X020390Y011290D03*
X020380Y011290D03*
X020370Y011290D03*
X020360Y011290D03*
X020350Y011290D03*
X020340Y011290D03*
X020330Y011290D03*
X020320Y011290D03*
X020310Y011290D03*
X020300Y011290D03*
X020290Y011290D03*
X020280Y011290D03*
X020270Y011290D03*
X020260Y011290D03*
X020250Y011290D03*
X020240Y011290D03*
X020230Y011290D03*
X020170Y011290D03*
X020160Y011290D03*
X020150Y011290D03*
X020140Y011290D03*
X020130Y011290D03*
X020120Y011290D03*
X020110Y011290D03*
X020100Y011290D03*
X020090Y011290D03*
X020080Y011290D03*
X020070Y011290D03*
X020060Y011290D03*
X020050Y011290D03*
X020040Y011290D03*
X020030Y011290D03*
X020020Y011290D03*
X020010Y011290D03*
X020000Y011290D03*
X019990Y011290D03*
X019980Y011290D03*
X019970Y011290D03*
X020020Y011620D03*
X020030Y011620D03*
X020040Y011620D03*
X020050Y011620D03*
X020060Y011620D03*
X020070Y011620D03*
X020080Y011620D03*
X020090Y011620D03*
X020100Y011620D03*
X020110Y011620D03*
X020120Y011620D03*
X020130Y011620D03*
X020140Y011620D03*
X020150Y011620D03*
X020160Y011620D03*
X020170Y011620D03*
X020180Y011620D03*
X020240Y011620D03*
X020250Y011620D03*
X020260Y011620D03*
X020270Y011620D03*
X020280Y011620D03*
X020290Y011620D03*
X020300Y011620D03*
X020310Y011620D03*
X020320Y011620D03*
X020330Y011620D03*
X020340Y011620D03*
X020350Y011620D03*
X020360Y011620D03*
X020370Y011620D03*
X020380Y011620D03*
X020390Y011620D03*
X020390Y011950D03*
X020380Y011950D03*
X020370Y011950D03*
X020360Y011950D03*
X020350Y011950D03*
X020340Y011950D03*
X020330Y011950D03*
X020320Y011950D03*
X020310Y011950D03*
X020300Y011950D03*
X020290Y011950D03*
X020280Y011950D03*
X020270Y011950D03*
X020260Y011950D03*
X020250Y011950D03*
X020240Y011950D03*
X020180Y011950D03*
X020170Y011950D03*
X020160Y011950D03*
X020150Y011950D03*
X020140Y011950D03*
X020130Y011950D03*
X020120Y011950D03*
X020110Y011950D03*
X020100Y011950D03*
X020090Y011950D03*
X020080Y011950D03*
X020070Y011950D03*
X020060Y011950D03*
X020050Y011950D03*
X020040Y011950D03*
X020030Y011950D03*
X020020Y011950D03*
X020060Y012170D03*
X020130Y012170D03*
X020140Y012170D03*
X020160Y012160D03*
X020270Y012150D03*
X020310Y012160D03*
X020320Y012160D03*
X020320Y012300D03*
X020330Y012300D03*
X020310Y012300D03*
X020300Y012300D03*
X020360Y012310D03*
X020350Y012490D03*
X020280Y012490D03*
X020250Y012480D03*
X020310Y012630D03*
X020320Y012630D03*
X020330Y012630D03*
X020360Y012640D03*
X020370Y012800D03*
X020350Y012810D03*
X020320Y012820D03*
X020310Y012820D03*
X020300Y012820D03*
X020290Y012820D03*
X020370Y012970D03*
X020110Y012820D03*
X020100Y012820D03*
X020090Y012820D03*
X020080Y012820D03*
X020050Y012810D03*
X020040Y012640D03*
X020070Y012630D03*
X020080Y012630D03*
X020090Y012630D03*
X020870Y012110D03*
X020880Y012110D03*
X020890Y012110D03*
X020900Y012110D03*
X021110Y012120D03*
X021120Y012120D03*
X021140Y012340D03*
X020390Y013310D03*
X020380Y013310D03*
X020370Y013310D03*
X020360Y013310D03*
X020350Y013310D03*
X020340Y013310D03*
X020330Y013310D03*
X020320Y013310D03*
X020310Y013310D03*
X020300Y013310D03*
X020290Y013310D03*
X020280Y013300D03*
X020270Y013300D03*
X020260Y013300D03*
X020200Y013300D03*
X020190Y013300D03*
X020090Y013290D03*
X020080Y013290D03*
X020070Y013290D03*
X020040Y013300D03*
X020040Y013470D03*
X020070Y013480D03*
X020080Y013480D03*
X020150Y013480D03*
X020160Y013480D03*
X020270Y013400D03*
D12*
X020010Y012405D03*
X020000Y012405D03*
X019990Y012405D03*
X019980Y012405D03*
X019970Y012405D03*
X020770Y011895D03*
X020780Y011895D03*
X020790Y011895D03*
X020800Y011895D03*
X020810Y011895D03*
X021200Y011895D03*
X021210Y011895D03*
X021220Y011895D03*
X021230Y011895D03*
X021240Y011895D03*
X020440Y011725D03*
X020430Y011725D03*
X020420Y011725D03*
X020410Y011725D03*
X020400Y011725D03*
X020400Y011395D03*
X020410Y011395D03*
X020420Y011395D03*
X020430Y011395D03*
X020440Y011395D03*
X020010Y011725D03*
X020000Y011725D03*
X019990Y011725D03*
X019980Y011725D03*
X019970Y011725D03*
D13*
X019970Y012015D03*
X020780Y012235D03*
X020400Y012725D03*
X020000Y012725D03*
X020000Y013385D03*
X019990Y013385D03*
D14*
X019970Y012720D03*
X020430Y012720D03*
X020900Y011570D03*
X020910Y011570D03*
X020900Y011350D03*
X020890Y011350D03*
X021110Y011460D03*
D15*
X021020Y012195D03*
X020990Y012255D03*
X020980Y012275D03*
X020430Y012405D03*
X019970Y013385D03*
D16*
X020230Y013380D03*
X020400Y013390D03*
X021200Y012230D03*
X020420Y012030D03*
X020220Y012030D03*
X020210Y012030D03*
X019980Y012030D03*
D17*
X020770Y012235D03*
X020420Y012725D03*
X019980Y012725D03*
X019980Y013385D03*
D18*
X019990Y012040D03*
X020200Y012040D03*
X020410Y012040D03*
X020800Y012230D03*
X020990Y011880D03*
X021000Y011880D03*
X021010Y011880D03*
X021020Y011880D03*
X021030Y011880D03*
X020230Y011710D03*
X020220Y011710D03*
X020210Y011710D03*
X020200Y011710D03*
X020190Y011710D03*
X020190Y011380D03*
X020200Y011380D03*
X020210Y011380D03*
X020220Y011380D03*
X020180Y011380D03*
D19*
X019990Y012725D03*
X020410Y012725D03*
D20*
X020400Y012045D03*
X020190Y012045D03*
X020000Y012045D03*
D21*
X020010Y012050D03*
D22*
X020180Y012140D03*
X020240Y012120D03*
X020380Y012140D03*
X020390Y012330D03*
X020440Y012400D03*
X020390Y012660D03*
X020010Y012660D03*
X020100Y012380D03*
X020060Y012350D03*
X020050Y012340D03*
X020030Y012330D03*
X020020Y012320D03*
X020820Y012330D03*
X020940Y012330D03*
X020950Y012320D03*
X021050Y012150D03*
X021060Y012140D03*
X021180Y012140D03*
X021240Y012230D03*
X021180Y012320D03*
X020830Y012130D03*
X020820Y012140D03*
X020810Y011570D03*
X020810Y011350D03*
X020820Y011350D03*
X020800Y011350D03*
X020790Y011350D03*
X021180Y011460D03*
X021190Y011460D03*
X020430Y013060D03*
X020220Y013310D03*
X020220Y013450D03*
X020210Y013460D03*
X020020Y013460D03*
X020010Y013450D03*
X020010Y013320D03*
X020020Y013310D03*
D23*
X020390Y012465D03*
X020390Y012125D03*
X020020Y012145D03*
X020760Y012235D03*
X020810Y012155D03*
X020810Y012315D03*
X021190Y012305D03*
X021190Y012155D03*
X020840Y011575D03*
X020830Y011575D03*
X020820Y011575D03*
X020830Y011355D03*
X021160Y011465D03*
X021170Y011465D03*
D24*
X021100Y011495D03*
X021010Y011515D03*
X020970Y011525D03*
X020930Y011535D03*
X020950Y011395D03*
X020990Y011405D03*
X021030Y011415D03*
X020910Y011385D03*
X020180Y013295D03*
D25*
X020230Y012035D03*
D26*
X020430Y012025D03*
X020790Y012235D03*
X020430Y013395D03*
X020420Y013395D03*
X020410Y013395D03*
X020240Y013375D03*
D27*
X020250Y013370D03*
X020400Y012400D03*
X021210Y012230D03*
D28*
X021030Y012175D03*
X020970Y012295D03*
X020890Y011575D03*
X020880Y011575D03*
X020870Y011575D03*
X020870Y011355D03*
X020880Y011355D03*
X021120Y011465D03*
X021130Y011465D03*
X020260Y013405D03*
D29*
X020380Y013020D03*
X020390Y013020D03*
X020400Y013020D03*
X020410Y013020D03*
X020420Y012400D03*
D30*
X020410Y012400D03*
X020440Y012010D03*
X021220Y012230D03*
D31*
X021230Y012230D03*
X021010Y012220D03*
X021000Y012240D03*
X020420Y013030D03*
D32*
X020440Y013085D03*
D33*
X020960Y012310D03*
X021040Y012160D03*
X020860Y011570D03*
X020850Y011570D03*
X020850Y011350D03*
X020860Y011350D03*
X020840Y011350D03*
X021140Y011460D03*
X021150Y011460D03*
D34*
X020650Y007213D03*
D35*
X014650Y005088D03*
X015650Y018963D03*
D36*
X015400Y003463D03*
X015400Y003463D03*
D37*
X009400Y006525D02*
X009400Y006900D01*
X008650Y007650D01*
X005150Y007650D01*
X005275Y006400D02*
X003525Y008150D01*
X003525Y010275D01*
X003900Y010650D01*
X004025Y010650D01*
X009650Y012150D02*
X009650Y015150D01*
X007900Y006400D02*
X006650Y006400D01*
X005650Y006400D02*
X005275Y006400D01*
X021650Y004900D02*
X022400Y004900D01*
X022650Y005150D01*
X024400Y005150D01*
X025025Y005775D01*
X023525Y007150D02*
X022900Y007150D01*
X023650Y007275D02*
X024025Y007650D01*
X024025Y011400D01*
D38*
X024776Y010650D03*
X025524Y010650D03*
X025524Y009650D03*
X024776Y009650D03*
X023024Y009650D03*
X022276Y009650D03*
X022276Y010650D03*
X023024Y010650D03*
X020524Y010650D03*
X019776Y010650D03*
X019776Y009650D03*
X020524Y009650D03*
X018024Y009650D03*
X017276Y009650D03*
X017276Y010650D03*
X018024Y010650D03*
X018526Y014400D03*
X019274Y014400D03*
X019274Y015400D03*
X018526Y015400D03*
X016774Y015400D03*
X016026Y015400D03*
X016026Y014400D03*
X016774Y014400D03*
X021026Y014400D03*
X021774Y014400D03*
X021774Y015400D03*
X021026Y015400D03*
X023526Y015400D03*
X024274Y015400D03*
X024274Y014400D03*
X023526Y014400D03*
X026026Y014525D03*
X026774Y014525D03*
X026774Y013525D03*
X026026Y013525D03*
X027276Y010650D03*
X028024Y010650D03*
X028024Y009650D03*
X027276Y009650D03*
X008524Y014650D03*
X007776Y014650D03*
X007776Y015650D03*
X008524Y015650D03*
X005524Y015650D03*
X004776Y015650D03*
X004776Y014650D03*
X005524Y014650D03*
X005524Y013650D03*
X004776Y013650D03*
X004776Y012650D03*
X005524Y012650D03*
D39*
X007526Y008275D03*
X008274Y008275D03*
X008315Y006400D03*
X008985Y006400D03*
X008985Y005650D03*
X008315Y005650D03*
X008276Y004775D03*
X009024Y004775D03*
X009024Y003900D03*
X008276Y003900D03*
X006524Y006400D03*
X005776Y006400D03*
X016026Y013400D03*
X016774Y013400D03*
X018526Y013400D03*
X019274Y013400D03*
X021026Y013400D03*
X021774Y013400D03*
X023526Y013400D03*
X024274Y013400D03*
X026026Y012525D03*
X026774Y012525D03*
X027276Y008650D03*
X028024Y008650D03*
X025524Y008650D03*
X024776Y008650D03*
X023024Y008650D03*
X022276Y008650D03*
X020524Y008650D03*
X019776Y008650D03*
X018024Y008650D03*
X017276Y008650D03*
D40*
X004525Y004525D03*
X004525Y018025D03*
X028775Y018025D03*
X028775Y004525D03*
D41*
X026201Y017525D03*
X025099Y017525D03*
X023201Y017525D03*
X022099Y017525D03*
D42*
X012650Y016150D03*
D43*
X011650Y016150D03*
X010650Y016150D03*
X010650Y015150D03*
X011650Y015150D03*
X012650Y015150D03*
D44*
X012150Y017650D03*
X013150Y017650D03*
X014150Y017650D03*
X015150Y017650D03*
X016150Y017650D03*
X017150Y017650D03*
X018150Y017650D03*
X019150Y017650D03*
X019150Y018650D03*
X018150Y018650D03*
X017150Y018650D03*
X016150Y018650D03*
X015150Y018650D03*
X014150Y018650D03*
X013150Y018650D03*
X012150Y018650D03*
D45*
X009150Y018525D03*
X011900Y004325D03*
D46*
X009150Y017525D03*
X008150Y017525D03*
X007150Y017525D03*
X007150Y018525D03*
X008150Y018525D03*
D47*
X012900Y004225D03*
X013900Y004325D03*
X014900Y004225D03*
X015900Y004325D03*
X016900Y004225D03*
X017900Y004325D03*
X018900Y004225D03*
D48*
X005201Y010650D03*
X004099Y010650D03*
D49*
X009650Y008024D03*
X009650Y007276D03*
X022650Y004610D03*
X022650Y003940D03*
X010525Y017690D03*
X010525Y018360D03*
X020275Y018610D03*
X020275Y017940D03*
D50*
X009713Y010294D03*
X009713Y009506D03*
D51*
X006062Y010650D03*
X005738Y010650D03*
D52*
X019740Y004805D03*
X020650Y004805D03*
X021560Y004805D03*
D53*
X020650Y007245D03*
D54*
X023725Y004044D03*
X025575Y004044D03*
D55*
X025400Y005849D03*
X023900Y006099D03*
X025400Y006951D03*
X023900Y007201D03*
X026900Y006951D03*
X026900Y005849D03*
X008338Y009349D03*
X008338Y010451D03*
D56*
X022775Y007121D03*
X022775Y005429D03*
D57*
X023142Y018650D03*
X022158Y018650D03*
X025158Y018650D03*
X026142Y018650D03*
D58*
X026525Y015400D03*
X027650Y014525D03*
X028650Y014150D03*
X028150Y013400D03*
X029275Y013400D03*
X028900Y010650D03*
X029400Y009400D03*
X028650Y008525D03*
X028025Y007775D03*
X025900Y007900D03*
X025650Y008650D03*
X023400Y007900D03*
X023150Y008650D03*
X020900Y007900D03*
X020650Y008650D03*
X018400Y007900D03*
X018150Y008650D03*
X016525Y008650D03*
X016150Y008150D03*
X015650Y007650D03*
X016150Y007150D03*
X017150Y006650D03*
X017650Y006150D03*
X017275Y005650D03*
X012650Y006150D03*
X011525Y007400D03*
X011525Y007775D03*
X010650Y007525D03*
X009400Y006463D03*
X009400Y006150D03*
X009400Y005838D03*
X007900Y005838D03*
X007900Y006150D03*
X007900Y006463D03*
X008400Y007025D03*
X008900Y008400D03*
X008838Y009150D03*
X009150Y009150D03*
X008525Y009150D03*
X008275Y009400D03*
X007963Y009400D03*
X007275Y008900D03*
X007025Y010275D03*
X007400Y010588D03*
X007400Y012400D03*
X007025Y012775D03*
X006525Y012650D03*
X005650Y013400D03*
X004900Y013025D03*
X004650Y013525D03*
X005900Y014900D03*
X007025Y014150D03*
X007525Y014650D03*
X009275Y014525D03*
X009150Y013775D03*
X009150Y013150D03*
X008775Y012775D03*
X008150Y012400D03*
X010150Y013025D03*
X011025Y013400D03*
X011025Y013775D03*
X010650Y014275D03*
X010150Y014150D03*
X011650Y013775D03*
X012525Y013525D03*
X013525Y012525D03*
X013900Y012150D03*
X012900Y011900D03*
X012150Y011213D03*
X012650Y010650D03*
X011650Y010400D03*
X011650Y010025D03*
X011650Y009275D03*
X010775Y009650D03*
X011150Y010838D03*
X010775Y011025D03*
X014150Y013150D03*
X014275Y013650D03*
X014275Y014025D03*
X013900Y015400D03*
X016900Y013400D03*
X017150Y012650D03*
X019400Y013400D03*
X019650Y012650D03*
X021900Y013400D03*
X022150Y012650D03*
X024400Y013400D03*
X024650Y012650D03*
X015400Y010900D03*
X015025Y011025D03*
X008900Y015900D03*
X009650Y016275D03*
X010275Y017525D03*
X010650Y017525D03*
X010650Y018525D03*
X010275Y018525D03*
X004775Y015775D03*
X004650Y009900D03*
X004275Y008900D03*
X005150Y007275D03*
X005525Y007275D03*
X006150Y007025D03*
D59*
X006775Y005775D03*
X007275Y005775D03*
X010025Y005775D03*
X010525Y005775D03*
X010525Y003650D03*
X010025Y003650D03*
X007275Y003650D03*
X006775Y003650D03*
X019775Y004900D03*
X019775Y005400D03*
X020525Y005900D03*
X021025Y005900D03*
X022275Y006525D03*
X022775Y006525D03*
X023025Y006025D03*
X023525Y006025D03*
X023650Y005400D03*
X024150Y005400D03*
X025150Y006650D03*
X025650Y006650D03*
X026150Y006650D03*
X024025Y011400D03*
X023650Y011400D03*
M02*
