G75*
G70*
%OFA0B0*%
%FSLAX24Y24*%
%IPPOS*%
%LPD*%
%AMOC8*
5,1,8,0,0,1.08239X$1,22.5*
%
%ADD10R,0.0060X0.0010*%
%ADD11R,0.0090X0.0010*%
%ADD12R,0.0260X0.0010*%
%ADD13R,0.0280X0.0010*%
%ADD14R,0.0180X0.0010*%
%ADD15R,0.0110X0.0010*%
%ADD16R,0.0120X0.0010*%
%ADD17R,0.0040X0.0010*%
%ADD18R,0.0210X0.0010*%
%ADD19R,0.0100X0.0010*%
%ADD20R,0.0140X0.0010*%
%ADD21R,0.0230X0.0010*%
%ADD22R,0.0050X0.0010*%
%ADD23R,0.0240X0.0010*%
%ADD24R,0.0250X0.0010*%
%ADD25R,0.0270X0.0010*%
%ADD26R,0.0030X0.0010*%
%ADD27R,0.0190X0.0010*%
%ADD28R,0.0170X0.0010*%
%ADD29R,0.0150X0.0010*%
%ADD30R,0.0130X0.0010*%
%ADD31R,0.0290X0.0010*%
%ADD32R,0.0070X0.0010*%
%ADD33R,0.0020X0.0010*%
%ADD34R,0.0080X0.0010*%
%ADD35R,0.0500X0.0010*%
%ADD36R,0.0300X0.0010*%
%ADD37R,0.0340X0.0010*%
%ADD38R,0.0360X0.0010*%
%ADD39R,0.0400X0.0010*%
%ADD40R,0.0160X0.0010*%
%ADD41R,0.0490X0.0010*%
%ADD42R,0.0480X0.0010*%
%ADD43R,0.0470X0.0010*%
%ADD44R,0.0460X0.0010*%
%ADD45R,0.0450X0.0010*%
%ADD46R,0.0200X0.0010*%
%ADD47R,0.0370X0.0010*%
%ADD48R,0.0350X0.0010*%
%ADD49R,0.0320X0.0010*%
%ADD50R,0.0500X0.0250*%
%ADD51R,0.0500X0.0625*%
%ADD52R,0.0625X0.0625*%
%ADD53R,0.0625X0.0250*%
%ADD54R,0.0625X0.0875*%
%ADD55C,0.0240*%
%ADD56R,0.9250X0.0375*%
%ADD57C,0.1340*%
%ADD58R,0.0237X0.0356*%
%ADD59R,0.0631X0.0434*%
%ADD60R,0.0300X0.0580*%
%ADD61R,0.0580X0.0300*%
%ADD62C,0.0197*%
%ADD63C,0.0040*%
%ADD64R,0.0592X0.0671*%
%ADD65R,0.0710X0.0592*%
%ADD66R,0.0680X0.0680*%
%ADD67C,0.0680*%
%ADD68R,0.0580X0.0330*%
%ADD69R,0.0330X0.0580*%
%ADD70R,0.0356X0.0749*%
%ADD71R,0.0340X0.0880*%
%ADD72C,0.0674*%
%ADD73R,0.0820X0.0820*%
%ADD74OC8,0.0820*%
%ADD75C,0.0820*%
%ADD76R,0.0592X0.0710*%
%ADD77R,0.0474X0.0671*%
%ADD78C,0.0474*%
%ADD79R,0.0434X0.0395*%
%ADD80R,0.0395X0.0434*%
%ADD81R,0.1064X0.0946*%
%ADD82R,0.0277X0.0867*%
%ADD83R,0.0552X0.1340*%
%ADD84R,0.0946X0.2285*%
%ADD85C,0.0513*%
%ADD86R,0.1143X0.0710*%
%ADD87C,0.0730*%
%ADD88R,0.0552X0.0552*%
%ADD89R,0.0671X0.0592*%
%ADD90OC8,0.0358*%
%ADD91OC8,0.0437*%
D10*
X023865Y016070D03*
X023865Y016550D03*
X024075Y016880D03*
X024075Y016890D03*
X024105Y017000D03*
X024115Y017010D03*
X024115Y017020D03*
X024115Y017030D03*
X024125Y017050D03*
X024125Y017060D03*
X024135Y017080D03*
X024135Y017090D03*
X024145Y017110D03*
X024145Y017120D03*
X024155Y017140D03*
X024155Y017150D03*
X024165Y017170D03*
X024165Y017180D03*
X024175Y017200D03*
X024175Y017210D03*
X024185Y017240D03*
X024195Y017270D03*
X024205Y017300D03*
X024215Y017330D03*
X024225Y017360D03*
X024235Y017390D03*
X023945Y017280D03*
X023955Y017250D03*
X023965Y017220D03*
X023975Y017190D03*
X023985Y017160D03*
X023995Y017130D03*
X024005Y017100D03*
X024005Y017090D03*
X024015Y017070D03*
X024015Y017060D03*
X024025Y017040D03*
X024025Y017030D03*
X024035Y017010D03*
X024035Y017000D03*
X021035Y017050D03*
X020955Y017040D03*
X020955Y017030D03*
X020945Y017080D03*
X020935Y017130D03*
X020925Y017170D03*
X020895Y017300D03*
X020885Y017340D03*
X020865Y017430D03*
X020855Y017470D03*
X020845Y017510D03*
X020835Y017560D03*
X020825Y017600D03*
X020815Y017640D03*
X020815Y017650D03*
X020805Y017680D03*
X020735Y017680D03*
X020725Y017640D03*
X020665Y017380D03*
X020625Y017210D03*
X020615Y017170D03*
X020605Y017120D03*
X020595Y017080D03*
X020585Y017040D03*
X020585Y017030D03*
D11*
X020690Y016550D03*
X020690Y016540D03*
X020690Y016530D03*
X020690Y016520D03*
X020690Y016510D03*
X020690Y016500D03*
X020690Y016490D03*
X020690Y016480D03*
X020690Y016470D03*
X020690Y016460D03*
X020690Y016450D03*
X020690Y016440D03*
X020690Y016430D03*
X020690Y016420D03*
X020690Y016410D03*
X020690Y016400D03*
X020690Y016390D03*
X020690Y016380D03*
X020690Y016370D03*
X020690Y016360D03*
X020690Y016350D03*
X020690Y016340D03*
X020690Y016330D03*
X020690Y016320D03*
X020690Y016310D03*
X020690Y016300D03*
X020690Y016290D03*
X020690Y016280D03*
X020690Y016270D03*
X020690Y016260D03*
X020690Y016250D03*
X020690Y016240D03*
X020690Y016230D03*
X020690Y016220D03*
X020690Y016210D03*
X020690Y016200D03*
X020690Y016190D03*
X020690Y016180D03*
X020690Y016170D03*
X020690Y016160D03*
X020690Y016150D03*
X020690Y016140D03*
X020690Y016130D03*
X020690Y016120D03*
X020690Y016110D03*
X020690Y016100D03*
X020690Y016090D03*
X020690Y016080D03*
X020860Y016150D03*
X020860Y016160D03*
X020860Y016170D03*
X020860Y016180D03*
X020860Y016190D03*
X020860Y016200D03*
X020860Y016210D03*
X020860Y016220D03*
X020860Y016230D03*
X020860Y016240D03*
X020860Y016250D03*
X020860Y016260D03*
X020860Y016270D03*
X020860Y016280D03*
X020860Y016290D03*
X020860Y016300D03*
X020860Y016310D03*
X020860Y016320D03*
X020860Y016330D03*
X020860Y016340D03*
X020860Y016350D03*
X020860Y016360D03*
X020860Y016370D03*
X020860Y016380D03*
X020860Y016390D03*
X020860Y016400D03*
X020860Y016410D03*
X020860Y016420D03*
X020860Y016430D03*
X020860Y016440D03*
X020860Y016450D03*
X020860Y016460D03*
X020860Y016470D03*
X020860Y016480D03*
X020860Y016490D03*
X020860Y016500D03*
X020860Y016510D03*
X020860Y016520D03*
X020860Y016530D03*
X020860Y016540D03*
X020860Y016550D03*
X021180Y016480D03*
X021180Y016470D03*
X021180Y016460D03*
X021180Y016450D03*
X021180Y016440D03*
X021180Y016430D03*
X021180Y016420D03*
X021180Y016410D03*
X021180Y016400D03*
X021180Y016390D03*
X021180Y016380D03*
X021180Y016370D03*
X021180Y016360D03*
X021180Y016280D03*
X021180Y016270D03*
X021180Y016260D03*
X021180Y016250D03*
X021180Y016240D03*
X021180Y016230D03*
X021180Y016220D03*
X021180Y016210D03*
X021180Y016200D03*
X021180Y016190D03*
X021180Y016180D03*
X021180Y016170D03*
X021180Y016160D03*
X021180Y016150D03*
X021500Y016150D03*
X021500Y016160D03*
X021500Y016170D03*
X021500Y016180D03*
X021500Y016190D03*
X021500Y016200D03*
X021500Y016210D03*
X021500Y016220D03*
X021500Y016230D03*
X021500Y016240D03*
X021500Y016250D03*
X021500Y016260D03*
X021500Y016270D03*
X021500Y016280D03*
X021500Y016290D03*
X021500Y016300D03*
X021500Y016310D03*
X021500Y016320D03*
X021500Y016330D03*
X021500Y016340D03*
X021500Y016350D03*
X021500Y016360D03*
X021500Y016370D03*
X021500Y016380D03*
X021500Y016390D03*
X021500Y016400D03*
X021500Y016410D03*
X021500Y016420D03*
X021500Y016430D03*
X021500Y016440D03*
X021500Y016450D03*
X021500Y016460D03*
X021500Y016470D03*
X021500Y016480D03*
X021710Y016420D03*
X021710Y016410D03*
X021720Y016370D03*
X021720Y016360D03*
X021720Y016350D03*
X021720Y016340D03*
X021720Y016330D03*
X021720Y016320D03*
X021720Y016310D03*
X021720Y016300D03*
X021720Y016290D03*
X021720Y016280D03*
X021720Y016270D03*
X021720Y016260D03*
X021710Y016220D03*
X021710Y016210D03*
X021880Y016210D03*
X021880Y016220D03*
X021880Y016230D03*
X021880Y016240D03*
X021880Y016250D03*
X021880Y016260D03*
X021880Y016270D03*
X021880Y016280D03*
X021880Y016360D03*
X021880Y016370D03*
X021880Y016380D03*
X021880Y016390D03*
X021880Y016400D03*
X021880Y016410D03*
X021880Y016420D03*
X021880Y016430D03*
X021880Y016440D03*
X021880Y016450D03*
X021880Y016460D03*
X021880Y016470D03*
X021880Y016480D03*
X022210Y016480D03*
X022210Y016470D03*
X022210Y016460D03*
X022210Y016450D03*
X022210Y016440D03*
X022210Y016430D03*
X022210Y016420D03*
X022210Y016410D03*
X022210Y016400D03*
X022210Y016390D03*
X022210Y016380D03*
X022210Y016370D03*
X022210Y016360D03*
X022210Y016350D03*
X022210Y016340D03*
X022210Y016330D03*
X022210Y016250D03*
X022210Y016240D03*
X022210Y016230D03*
X022210Y016220D03*
X022210Y016210D03*
X022210Y016200D03*
X022210Y016190D03*
X022210Y016180D03*
X022210Y016170D03*
X022210Y016160D03*
X022210Y016150D03*
X022210Y016140D03*
X022210Y016130D03*
X022210Y016120D03*
X022210Y016110D03*
X022210Y016100D03*
X022210Y016090D03*
X022210Y016080D03*
X021880Y016150D03*
X021880Y016160D03*
X021880Y016170D03*
X021880Y016180D03*
X021880Y016190D03*
X021880Y016200D03*
X022430Y016370D03*
X022430Y016380D03*
X022430Y016390D03*
X022430Y016420D03*
X022430Y016430D03*
X022430Y016440D03*
X022580Y016440D03*
X022580Y016450D03*
X022580Y016460D03*
X022580Y016470D03*
X022580Y016480D03*
X022580Y016430D03*
X022580Y016420D03*
X022580Y016410D03*
X022580Y016400D03*
X022580Y016390D03*
X022580Y016380D03*
X022580Y016370D03*
X022580Y016360D03*
X022580Y016280D03*
X022580Y016270D03*
X022580Y016260D03*
X022580Y016250D03*
X022580Y016240D03*
X022580Y016230D03*
X022580Y016220D03*
X022580Y016210D03*
X022580Y016200D03*
X022580Y016190D03*
X022580Y016180D03*
X022580Y016170D03*
X022580Y016160D03*
X022580Y016150D03*
X022910Y016150D03*
X022910Y016160D03*
X022910Y016170D03*
X022910Y016180D03*
X022910Y016190D03*
X022910Y016200D03*
X022910Y016210D03*
X022910Y016220D03*
X022910Y016230D03*
X022910Y016240D03*
X022910Y016250D03*
X022910Y016260D03*
X022910Y016270D03*
X022910Y016280D03*
X022910Y016290D03*
X022910Y016300D03*
X022910Y016310D03*
X022910Y016320D03*
X022910Y016330D03*
X022910Y016340D03*
X022910Y016350D03*
X022910Y016360D03*
X022910Y016370D03*
X022910Y016380D03*
X022910Y016390D03*
X022910Y016400D03*
X022910Y016410D03*
X022910Y016420D03*
X022910Y016430D03*
X022910Y016440D03*
X022910Y016450D03*
X022910Y016460D03*
X022910Y016470D03*
X022910Y016480D03*
X022910Y016490D03*
X022910Y016500D03*
X022910Y016510D03*
X022910Y016520D03*
X022910Y016530D03*
X022910Y016540D03*
X022910Y016550D03*
X023110Y016460D03*
X023120Y016440D03*
X023130Y016420D03*
X023130Y016410D03*
X023140Y016400D03*
X023140Y016390D03*
X023240Y016390D03*
X023240Y016400D03*
X023250Y016420D03*
X023240Y016240D03*
X023250Y016220D03*
X023140Y016240D03*
X023130Y016220D03*
X023120Y016190D03*
X023110Y016170D03*
X022910Y016140D03*
X022910Y016130D03*
X022910Y016120D03*
X022910Y016110D03*
X022910Y016100D03*
X022910Y016090D03*
X022910Y016080D03*
X023460Y016150D03*
X023460Y016160D03*
X023460Y016170D03*
X023460Y016180D03*
X023460Y016190D03*
X023460Y016200D03*
X023460Y016210D03*
X023460Y016220D03*
X023460Y016230D03*
X023460Y016240D03*
X023460Y016250D03*
X023460Y016260D03*
X023460Y016270D03*
X023460Y016280D03*
X023460Y016360D03*
X023460Y016370D03*
X023460Y016380D03*
X023460Y016390D03*
X023460Y016400D03*
X023460Y016410D03*
X023460Y016420D03*
X023460Y016430D03*
X023460Y016440D03*
X023460Y016450D03*
X023460Y016460D03*
X023460Y016470D03*
X023460Y016480D03*
X024070Y016930D03*
X023240Y017790D03*
X023240Y017800D03*
X022470Y017690D03*
X022460Y017710D03*
X022450Y017720D03*
X022090Y017720D03*
X022080Y017710D03*
X022070Y017700D03*
X022070Y017690D03*
X022060Y017670D03*
X022050Y017640D03*
X022050Y017540D03*
X022060Y017510D03*
X022070Y017490D03*
X022470Y017240D03*
X022480Y017230D03*
X022480Y017220D03*
X022490Y017210D03*
X022500Y017190D03*
X022500Y017040D03*
X022490Y017020D03*
X022490Y017010D03*
X022480Y017000D03*
X022740Y016980D03*
X022740Y016970D03*
X022740Y016960D03*
X022740Y016950D03*
X022740Y016940D03*
X022740Y016930D03*
X022740Y016920D03*
X022740Y016910D03*
X022740Y016900D03*
X022740Y016890D03*
X022740Y016880D03*
X022070Y016990D03*
X022060Y017000D03*
X022050Y017010D03*
X022050Y017020D03*
X020770Y017770D03*
X020770Y017780D03*
X020770Y017790D03*
X020770Y017800D03*
X020360Y016480D03*
X020360Y016470D03*
X020360Y016460D03*
X020360Y016450D03*
X020360Y016440D03*
X020360Y016430D03*
X020360Y016420D03*
X020360Y016410D03*
X020360Y016400D03*
X020360Y016390D03*
X020360Y016380D03*
X020360Y016370D03*
X020360Y016360D03*
X020360Y016350D03*
X020360Y016270D03*
X020360Y016260D03*
X020360Y016250D03*
X020360Y016240D03*
X020360Y016230D03*
X020360Y016220D03*
X020360Y016210D03*
X020360Y016200D03*
X020360Y016190D03*
X020360Y016180D03*
X020360Y016170D03*
X020360Y016160D03*
X020360Y016150D03*
X020360Y016140D03*
X020360Y016130D03*
X020360Y016120D03*
X020360Y016110D03*
X020360Y016100D03*
X020360Y016090D03*
X020360Y016080D03*
D12*
X020945Y016080D03*
X020945Y016090D03*
X020945Y016100D03*
X020945Y016110D03*
X020945Y016120D03*
X020945Y016130D03*
X020945Y016140D03*
X021585Y016130D03*
X021585Y016500D03*
X022275Y016890D03*
D13*
X022305Y016510D03*
X022305Y016300D03*
X021975Y016140D03*
X021975Y016130D03*
X021975Y016120D03*
X021975Y016110D03*
X021975Y016100D03*
X021975Y016090D03*
X021975Y016080D03*
X021975Y016490D03*
X021975Y016500D03*
X021975Y016510D03*
X021975Y016520D03*
X021975Y016530D03*
X021975Y016540D03*
X021975Y016550D03*
X021275Y016550D03*
X021275Y016540D03*
X021275Y016530D03*
X021275Y016520D03*
X021275Y016510D03*
X021275Y016500D03*
X021275Y016490D03*
X021275Y016140D03*
X021275Y016130D03*
X021275Y016120D03*
X021275Y016110D03*
X021275Y016100D03*
X021275Y016090D03*
X021275Y016080D03*
X020455Y016490D03*
X020455Y016500D03*
X020455Y016510D03*
X020455Y016520D03*
X020455Y016530D03*
X020455Y016540D03*
X020455Y016550D03*
X022675Y016550D03*
X022675Y016540D03*
X022675Y016530D03*
X022675Y016520D03*
X022675Y016510D03*
X022675Y016500D03*
X022675Y016490D03*
X022675Y016140D03*
X022675Y016130D03*
X022675Y016120D03*
X022675Y016110D03*
X022675Y016100D03*
X022675Y016090D03*
X022675Y016080D03*
X023555Y016080D03*
X023555Y016090D03*
X023555Y016100D03*
X023555Y016110D03*
X023555Y016120D03*
X023555Y016130D03*
X023555Y016140D03*
X023555Y016490D03*
X023555Y016500D03*
X023555Y016510D03*
X023555Y016520D03*
X023555Y016530D03*
X023555Y016540D03*
X023555Y016550D03*
D14*
X022355Y017320D03*
X022205Y017390D03*
X021545Y016550D03*
X021545Y016080D03*
D15*
X022410Y016330D03*
X022410Y016480D03*
X022090Y016970D03*
X022080Y016980D03*
X022440Y017270D03*
X022450Y017260D03*
X022430Y017740D03*
X022270Y017830D03*
X022110Y017740D03*
X022100Y017730D03*
X023240Y017760D03*
X023240Y017770D03*
X023760Y017790D03*
X023760Y017800D03*
X023760Y017810D03*
X024380Y017790D03*
X024380Y017780D03*
X024380Y017770D03*
X024070Y016960D03*
X023310Y016550D03*
X023300Y016540D03*
X023290Y016510D03*
X023280Y016490D03*
X023090Y016510D03*
X023080Y016530D03*
X023070Y016550D03*
X023190Y016320D03*
X023280Y016150D03*
X023290Y016130D03*
X023290Y016120D03*
X023300Y016110D03*
X023300Y016100D03*
X023310Y016090D03*
X023310Y016080D03*
X023080Y016100D03*
X023070Y016080D03*
X020990Y016960D03*
X020550Y016960D03*
X020770Y017730D03*
X020770Y017740D03*
X020770Y017750D03*
X020770Y017760D03*
D16*
X020545Y017000D03*
X020545Y016990D03*
X020545Y016980D03*
X020545Y016970D03*
X020995Y016970D03*
X020995Y016980D03*
X020995Y016990D03*
X020995Y017000D03*
X021675Y016480D03*
X021675Y016150D03*
X022275Y016870D03*
X022105Y016960D03*
X022445Y016960D03*
X022115Y017440D03*
X022105Y017450D03*
X022125Y017750D03*
X022415Y017750D03*
X023245Y017750D03*
X023245Y017740D03*
X023765Y017760D03*
X023765Y017770D03*
X023765Y017780D03*
X024375Y017760D03*
X024375Y017750D03*
X024375Y017740D03*
X024075Y016980D03*
X024075Y016970D03*
X024155Y016530D03*
X023865Y016540D03*
X023865Y016080D03*
X023185Y016310D03*
D17*
X023765Y016310D03*
X023765Y016320D03*
X023765Y016330D03*
X023765Y016340D03*
X023765Y016350D03*
X023765Y016360D03*
X023765Y016370D03*
X023765Y016380D03*
X023765Y016390D03*
X023765Y016400D03*
X023765Y016410D03*
X023765Y016420D03*
X023765Y016430D03*
X023765Y016440D03*
X023775Y016460D03*
X023775Y016470D03*
X023785Y016490D03*
X023795Y016500D03*
X023935Y016500D03*
X023945Y016490D03*
X023955Y016470D03*
X023955Y016460D03*
X023965Y016440D03*
X023965Y016430D03*
X023965Y016420D03*
X023965Y016410D03*
X023965Y016400D03*
X023965Y016390D03*
X023965Y016380D03*
X023965Y016370D03*
X023965Y016360D03*
X023965Y016350D03*
X023965Y016340D03*
X023965Y016330D03*
X023965Y016320D03*
X023965Y016310D03*
X023965Y016300D03*
X023965Y016290D03*
X023965Y016280D03*
X023965Y016270D03*
X023965Y016260D03*
X023965Y016250D03*
X023965Y016240D03*
X023965Y016230D03*
X023965Y016220D03*
X023965Y016210D03*
X023965Y016200D03*
X023965Y016190D03*
X023965Y016180D03*
X023955Y016160D03*
X023955Y016150D03*
X023945Y016130D03*
X023935Y016120D03*
X023795Y016120D03*
X023785Y016130D03*
X023785Y016140D03*
X023775Y016150D03*
X023775Y016160D03*
X023765Y016180D03*
X023765Y016190D03*
X023765Y016200D03*
X023765Y016210D03*
X023765Y016220D03*
X023765Y016230D03*
X023765Y016240D03*
X023765Y016250D03*
X023765Y016260D03*
X023765Y016270D03*
X023765Y016280D03*
X023765Y016290D03*
X023765Y016300D03*
X024095Y016500D03*
X024195Y016500D03*
X024195Y016490D03*
X024195Y016480D03*
X024195Y016470D03*
X024195Y016460D03*
X024195Y016450D03*
X024195Y016440D03*
X024195Y016430D03*
X024195Y016420D03*
X024195Y016410D03*
X024195Y016400D03*
X024195Y016390D03*
X024195Y016380D03*
X024195Y016370D03*
X024195Y016360D03*
X024195Y016350D03*
X024195Y016340D03*
X024195Y016330D03*
X024195Y016320D03*
X024195Y016310D03*
X024195Y016300D03*
X024195Y016290D03*
X024195Y016280D03*
X024195Y016270D03*
X024195Y016260D03*
X024195Y016250D03*
X024195Y016240D03*
X024195Y016230D03*
X024195Y016220D03*
X024195Y016210D03*
X024195Y016200D03*
X024195Y016190D03*
X024195Y016180D03*
X024195Y016170D03*
X024195Y016160D03*
X024195Y016150D03*
X024195Y016140D03*
X024195Y016130D03*
X024195Y016120D03*
X024195Y016110D03*
X024195Y016100D03*
X024195Y016090D03*
X024195Y016080D03*
D18*
X022280Y016880D03*
X022270Y016550D03*
X022270Y016260D03*
X021560Y016090D03*
X021560Y016540D03*
X022290Y017350D03*
X022270Y017360D03*
X022250Y017370D03*
D19*
X022095Y017460D03*
X022085Y017470D03*
X022075Y017480D03*
X022435Y017730D03*
X022465Y017250D03*
X022475Y016990D03*
X022465Y016980D03*
X022455Y016970D03*
X022415Y016470D03*
X022425Y016460D03*
X022425Y016450D03*
X022435Y016410D03*
X022435Y016400D03*
X022425Y016360D03*
X022425Y016350D03*
X022415Y016340D03*
X023075Y016540D03*
X023085Y016520D03*
X023095Y016500D03*
X023095Y016490D03*
X023105Y016480D03*
X023105Y016470D03*
X023115Y016450D03*
X023125Y016430D03*
X023245Y016410D03*
X023255Y016430D03*
X023255Y016440D03*
X023265Y016450D03*
X023265Y016460D03*
X023275Y016470D03*
X023275Y016480D03*
X023285Y016500D03*
X023295Y016520D03*
X023295Y016530D03*
X023245Y016230D03*
X023255Y016210D03*
X023255Y016200D03*
X023265Y016190D03*
X023265Y016180D03*
X023275Y016170D03*
X023275Y016160D03*
X023285Y016140D03*
X023125Y016200D03*
X023125Y016210D03*
X023135Y016230D03*
X023115Y016180D03*
X023105Y016160D03*
X023105Y016150D03*
X023095Y016140D03*
X023095Y016130D03*
X023085Y016120D03*
X023085Y016110D03*
X023075Y016090D03*
X024075Y016940D03*
X024075Y016950D03*
X024385Y017800D03*
X024385Y017810D03*
X024385Y017820D03*
X023755Y017820D03*
X023245Y017780D03*
X021695Y016460D03*
X021695Y016450D03*
X021705Y016440D03*
X021705Y016430D03*
X021715Y016400D03*
X021715Y016390D03*
X021715Y016380D03*
X021685Y016470D03*
X021715Y016250D03*
X021715Y016240D03*
X021715Y016230D03*
X021705Y016200D03*
X021705Y016190D03*
X021695Y016180D03*
X021695Y016170D03*
X021685Y016160D03*
X020995Y016920D03*
X020995Y016930D03*
X020995Y016940D03*
X020995Y016950D03*
X020545Y016950D03*
X020545Y016940D03*
X020545Y016930D03*
X020545Y016920D03*
D20*
X020545Y017020D03*
X020995Y017020D03*
X022145Y017420D03*
X022395Y017300D03*
X022415Y017290D03*
X022395Y017760D03*
X022145Y017760D03*
X023245Y017720D03*
X023245Y017710D03*
X023775Y017710D03*
X023775Y017720D03*
X023775Y017700D03*
X024365Y017700D03*
X024365Y017690D03*
X024365Y017680D03*
X024145Y016520D03*
X024145Y016510D03*
X023865Y016530D03*
X023865Y016090D03*
D21*
X021570Y016100D03*
X021570Y016530D03*
D22*
X023800Y016510D03*
X023810Y016520D03*
X023920Y016520D03*
X023930Y016510D03*
X023930Y016110D03*
X023920Y016100D03*
X023810Y016100D03*
X023800Y016110D03*
D23*
X022285Y016270D03*
X022285Y016540D03*
X021575Y016520D03*
X021575Y016110D03*
D24*
X021580Y016120D03*
X021260Y016290D03*
X021260Y016300D03*
X021260Y016310D03*
X021260Y016320D03*
X021260Y016330D03*
X021260Y016340D03*
X021260Y016350D03*
X021580Y016510D03*
X021960Y016350D03*
X021960Y016340D03*
X021960Y016330D03*
X021960Y016320D03*
X021960Y016310D03*
X021960Y016300D03*
X021960Y016290D03*
X022290Y016280D03*
X022290Y016530D03*
X022660Y016350D03*
X022660Y016340D03*
X022660Y016330D03*
X022660Y016320D03*
X022660Y016310D03*
X022660Y016300D03*
X022660Y016290D03*
X023540Y016290D03*
X023540Y016300D03*
X023540Y016310D03*
X023540Y016320D03*
X023540Y016330D03*
X023540Y016340D03*
X023540Y016350D03*
X022270Y017810D03*
X020440Y016340D03*
X020440Y016330D03*
X020440Y016320D03*
X020440Y016310D03*
X020440Y016300D03*
X020440Y016290D03*
X020440Y016280D03*
D25*
X021590Y016140D03*
X021590Y016490D03*
X022300Y016520D03*
X022300Y016290D03*
D26*
X023770Y016170D03*
X023950Y016140D03*
X023960Y016170D03*
X023960Y016450D03*
X023950Y016480D03*
X023780Y016480D03*
X023770Y016450D03*
D27*
X023190Y016250D03*
X022330Y017330D03*
X022270Y017820D03*
D28*
X022180Y017400D03*
X023190Y016380D03*
X023190Y016370D03*
X023190Y016270D03*
X023190Y016260D03*
D29*
X023190Y016280D03*
X023190Y016290D03*
X023190Y016350D03*
X023190Y016360D03*
X022160Y017410D03*
X023240Y017700D03*
X023780Y017690D03*
X024360Y017670D03*
D30*
X024370Y017710D03*
X024370Y017720D03*
X024370Y017730D03*
X023770Y017730D03*
X023770Y017740D03*
X023770Y017750D03*
X023240Y017730D03*
X022430Y017280D03*
X022430Y016950D03*
X022120Y016950D03*
X022130Y017430D03*
X020990Y017010D03*
X020550Y017010D03*
X020770Y017690D03*
X020770Y017700D03*
X020770Y017710D03*
X020770Y017720D03*
X023190Y016340D03*
X023190Y016330D03*
X023190Y016300D03*
X024070Y016990D03*
D31*
X022310Y016500D03*
X022310Y016490D03*
X022310Y016320D03*
X022310Y016310D03*
X022270Y017800D03*
D32*
X022500Y017620D03*
X022500Y017610D03*
X022510Y017140D03*
X022510Y017130D03*
X022510Y017090D03*
X022020Y017120D03*
X022020Y017130D03*
X022020Y017140D03*
X021420Y017140D03*
X021420Y017150D03*
X021420Y017160D03*
X021420Y017170D03*
X021420Y017180D03*
X021420Y017190D03*
X021420Y017200D03*
X021420Y017210D03*
X021420Y017220D03*
X021420Y017230D03*
X021420Y017240D03*
X021420Y017250D03*
X021420Y017260D03*
X021420Y017270D03*
X021420Y017280D03*
X021420Y017290D03*
X021420Y017300D03*
X021420Y017310D03*
X021420Y017320D03*
X021420Y017330D03*
X021420Y017410D03*
X021420Y017420D03*
X021420Y017430D03*
X021420Y017440D03*
X021420Y017450D03*
X021420Y017460D03*
X021420Y017470D03*
X021420Y017480D03*
X021420Y017490D03*
X021420Y017500D03*
X021420Y017510D03*
X021420Y017520D03*
X021420Y017530D03*
X021420Y017540D03*
X021420Y017550D03*
X021420Y017560D03*
X021420Y017570D03*
X021420Y017580D03*
X021420Y017590D03*
X021420Y017600D03*
X021420Y017610D03*
X021420Y017620D03*
X021420Y017630D03*
X021420Y017640D03*
X021420Y017650D03*
X021420Y017660D03*
X021420Y017670D03*
X021420Y017680D03*
X021420Y017690D03*
X021420Y017700D03*
X021420Y017710D03*
X021420Y017720D03*
X021420Y017730D03*
X021420Y017740D03*
X021420Y017750D03*
X021180Y017780D03*
X021170Y017730D03*
X021160Y017680D03*
X021150Y017630D03*
X021140Y017580D03*
X021130Y017540D03*
X021130Y017530D03*
X021120Y017490D03*
X021120Y017480D03*
X021120Y017470D03*
X021110Y017440D03*
X021110Y017430D03*
X021110Y017420D03*
X021100Y017390D03*
X021100Y017380D03*
X021100Y017370D03*
X021090Y017340D03*
X021090Y017330D03*
X021090Y017320D03*
X021080Y017300D03*
X021080Y017290D03*
X021080Y017280D03*
X021080Y017270D03*
X021070Y017250D03*
X021070Y017240D03*
X021070Y017230D03*
X021070Y017220D03*
X021060Y017200D03*
X021060Y017190D03*
X021060Y017180D03*
X021060Y017170D03*
X021050Y017150D03*
X021050Y017140D03*
X021050Y017130D03*
X021050Y017120D03*
X021050Y017110D03*
X021040Y017100D03*
X021040Y017090D03*
X021040Y017080D03*
X021040Y017070D03*
X021040Y017060D03*
X021030Y017040D03*
X021030Y017030D03*
X020950Y017050D03*
X020950Y017060D03*
X020950Y017070D03*
X020940Y017090D03*
X020940Y017100D03*
X020940Y017110D03*
X020940Y017120D03*
X020930Y017140D03*
X020930Y017150D03*
X020930Y017160D03*
X020920Y017180D03*
X020920Y017190D03*
X020920Y017200D03*
X020920Y017210D03*
X020910Y017220D03*
X020910Y017230D03*
X020910Y017240D03*
X020910Y017250D03*
X020900Y017260D03*
X020900Y017270D03*
X020900Y017280D03*
X020900Y017290D03*
X020890Y017310D03*
X020890Y017320D03*
X020890Y017330D03*
X020880Y017350D03*
X020880Y017360D03*
X020880Y017370D03*
X020880Y017380D03*
X020870Y017390D03*
X020870Y017400D03*
X020870Y017410D03*
X020870Y017420D03*
X020860Y017440D03*
X020860Y017450D03*
X020860Y017460D03*
X020850Y017480D03*
X020850Y017490D03*
X020850Y017500D03*
X020840Y017520D03*
X020840Y017530D03*
X020840Y017540D03*
X020840Y017550D03*
X020830Y017570D03*
X020830Y017580D03*
X020830Y017590D03*
X020820Y017610D03*
X020820Y017620D03*
X020820Y017630D03*
X020810Y017660D03*
X020810Y017670D03*
X020730Y017670D03*
X020730Y017660D03*
X020730Y017650D03*
X020720Y017630D03*
X020720Y017620D03*
X020720Y017610D03*
X020720Y017600D03*
X020710Y017590D03*
X020710Y017580D03*
X020710Y017570D03*
X020710Y017560D03*
X020700Y017550D03*
X020700Y017540D03*
X020700Y017530D03*
X020700Y017520D03*
X020700Y017510D03*
X020690Y017500D03*
X020690Y017490D03*
X020690Y017480D03*
X020690Y017470D03*
X020680Y017460D03*
X020680Y017450D03*
X020680Y017440D03*
X020680Y017430D03*
X020670Y017420D03*
X020670Y017410D03*
X020670Y017400D03*
X020670Y017390D03*
X020660Y017370D03*
X020660Y017360D03*
X020660Y017350D03*
X020660Y017340D03*
X020650Y017330D03*
X020650Y017320D03*
X020650Y017310D03*
X020650Y017300D03*
X020640Y017290D03*
X020640Y017280D03*
X020640Y017270D03*
X020640Y017260D03*
X020630Y017250D03*
X020630Y017240D03*
X020630Y017230D03*
X020630Y017220D03*
X020620Y017200D03*
X020620Y017190D03*
X020620Y017180D03*
X020610Y017160D03*
X020610Y017150D03*
X020610Y017140D03*
X020610Y017130D03*
X020600Y017110D03*
X020600Y017100D03*
X020600Y017090D03*
X020590Y017070D03*
X020590Y017060D03*
X020590Y017050D03*
X020510Y017050D03*
X020510Y017040D03*
X020510Y017030D03*
X020500Y017060D03*
X020500Y017070D03*
X020500Y017080D03*
X020500Y017090D03*
X020500Y017100D03*
X020490Y017120D03*
X020490Y017130D03*
X020490Y017140D03*
X020490Y017150D03*
X020480Y017180D03*
X020480Y017190D03*
X020480Y017200D03*
X020470Y017230D03*
X020470Y017240D03*
X020470Y017250D03*
X020460Y017280D03*
X020460Y017290D03*
X020460Y017300D03*
X020450Y017330D03*
X020450Y017340D03*
X020440Y017380D03*
X020440Y017390D03*
X020430Y017430D03*
X020430Y017440D03*
X020420Y017480D03*
X020420Y017490D03*
X020410Y017530D03*
X020410Y017540D03*
X020400Y017580D03*
X020400Y017590D03*
X020390Y017630D03*
X020380Y017680D03*
X020370Y017730D03*
X020360Y017780D03*
X020770Y017810D03*
X020770Y017820D03*
X021420Y017130D03*
X021420Y017120D03*
X021420Y017110D03*
X021420Y017100D03*
X021420Y017090D03*
X021420Y017080D03*
X021420Y017070D03*
X021420Y017060D03*
X021420Y017050D03*
X021420Y017040D03*
X021420Y017030D03*
X021420Y017020D03*
X021420Y017010D03*
X021420Y017000D03*
X021420Y016990D03*
X021420Y016980D03*
X021420Y016970D03*
X021420Y016960D03*
X021420Y016950D03*
X022980Y016980D03*
X022990Y017010D03*
X023010Y017080D03*
X023020Y017110D03*
X023030Y017140D03*
X023060Y017240D03*
X023070Y017270D03*
X023080Y017300D03*
X023090Y017330D03*
X023090Y017340D03*
X023100Y017360D03*
X023100Y017370D03*
X023110Y017390D03*
X023110Y017400D03*
X023120Y017430D03*
X023130Y017460D03*
X023130Y017470D03*
X023140Y017490D03*
X023140Y017500D03*
X023150Y017520D03*
X023150Y017530D03*
X023160Y017550D03*
X023160Y017560D03*
X023170Y017590D03*
X023170Y017600D03*
X023180Y017620D03*
X023180Y017630D03*
X023190Y017650D03*
X023190Y017660D03*
X023200Y017680D03*
X023200Y017690D03*
X023290Y017670D03*
X023290Y017660D03*
X023300Y017640D03*
X023300Y017630D03*
X023310Y017610D03*
X023310Y017600D03*
X023320Y017580D03*
X023320Y017570D03*
X023330Y017540D03*
X023330Y017530D03*
X023340Y017510D03*
X023340Y017500D03*
X023350Y017480D03*
X023350Y017470D03*
X023360Y017450D03*
X023360Y017440D03*
X023370Y017410D03*
X023380Y017380D03*
X023380Y017370D03*
X023390Y017350D03*
X023390Y017340D03*
X023400Y017320D03*
X023400Y017310D03*
X023410Y017280D03*
X023420Y017250D03*
X023430Y017220D03*
X023460Y017120D03*
X023480Y017050D03*
X023490Y017020D03*
X023980Y017170D03*
X023980Y017180D03*
X023970Y017200D03*
X023970Y017210D03*
X023960Y017230D03*
X023960Y017240D03*
X023950Y017260D03*
X023950Y017270D03*
X023940Y017290D03*
X023940Y017300D03*
X023940Y017310D03*
X023930Y017320D03*
X023930Y017330D03*
X023930Y017340D03*
X023920Y017350D03*
X023920Y017360D03*
X023920Y017370D03*
X023910Y017380D03*
X023910Y017390D03*
X023910Y017400D03*
X023900Y017410D03*
X023900Y017420D03*
X023900Y017430D03*
X023890Y017440D03*
X023890Y017450D03*
X023890Y017460D03*
X023880Y017470D03*
X023880Y017480D03*
X023880Y017490D03*
X023870Y017510D03*
X023870Y017520D03*
X023860Y017540D03*
X023860Y017550D03*
X023860Y017560D03*
X023850Y017570D03*
X023850Y017580D03*
X023850Y017590D03*
X023840Y017600D03*
X023840Y017610D03*
X023840Y017620D03*
X023830Y017630D03*
X023830Y017640D03*
X023830Y017650D03*
X023820Y017660D03*
X023820Y017670D03*
X023820Y017680D03*
X023740Y017680D03*
X023740Y017670D03*
X023740Y017660D03*
X023740Y017650D03*
X023740Y017640D03*
X023740Y017630D03*
X023740Y017620D03*
X023740Y017610D03*
X023740Y017600D03*
X023740Y017590D03*
X023740Y017580D03*
X023740Y017570D03*
X023740Y017560D03*
X023740Y017550D03*
X023740Y017540D03*
X023740Y017530D03*
X023740Y017520D03*
X023740Y017510D03*
X023990Y017150D03*
X023990Y017140D03*
X024000Y017120D03*
X024000Y017110D03*
X024010Y017080D03*
X024020Y017050D03*
X024030Y017020D03*
X024120Y017040D03*
X024130Y017070D03*
X024140Y017100D03*
X024150Y017130D03*
X024160Y017160D03*
X024170Y017190D03*
X024180Y017220D03*
X024180Y017230D03*
X024190Y017250D03*
X024190Y017260D03*
X024200Y017280D03*
X024200Y017290D03*
X024210Y017310D03*
X024210Y017320D03*
X024220Y017340D03*
X024220Y017350D03*
X024230Y017370D03*
X024230Y017380D03*
X024240Y017400D03*
X024240Y017410D03*
X024240Y017420D03*
X024250Y017430D03*
X024250Y017440D03*
X024250Y017450D03*
X024260Y017460D03*
X024260Y017470D03*
X024260Y017480D03*
X024270Y017490D03*
X024270Y017500D03*
X024270Y017510D03*
X024280Y017520D03*
X024280Y017530D03*
X024280Y017540D03*
X024290Y017550D03*
X024290Y017560D03*
X024290Y017570D03*
X024300Y017580D03*
X024300Y017590D03*
X024300Y017600D03*
X024310Y017610D03*
X024310Y017620D03*
X024310Y017630D03*
X024320Y017650D03*
X024320Y017660D03*
X024400Y017660D03*
X024400Y017650D03*
X024400Y017640D03*
X024400Y017630D03*
X024400Y017620D03*
X024400Y017610D03*
X024400Y017600D03*
X024400Y017590D03*
X024400Y017580D03*
X024400Y017570D03*
X024400Y017560D03*
X024400Y017550D03*
X024400Y017540D03*
X024400Y017530D03*
X024400Y017520D03*
X024400Y017510D03*
X024400Y017500D03*
X024400Y017490D03*
X024400Y017480D03*
X024400Y017470D03*
X024400Y017460D03*
X024400Y017450D03*
X024400Y017440D03*
X024400Y017430D03*
X024400Y017420D03*
X024400Y017410D03*
X024400Y017400D03*
X024400Y017390D03*
X024400Y017380D03*
X024400Y017370D03*
X024400Y017360D03*
X024400Y017350D03*
X024400Y017340D03*
X024400Y017330D03*
X024400Y017320D03*
X024400Y017310D03*
X024400Y017300D03*
X024400Y017290D03*
X024400Y017280D03*
X024400Y017270D03*
X024400Y017260D03*
X024400Y017250D03*
X024400Y017240D03*
X024400Y017230D03*
X024400Y017220D03*
X024400Y017210D03*
X024400Y017200D03*
X024400Y017190D03*
X024400Y017180D03*
X024400Y017170D03*
X024400Y017160D03*
X024400Y017150D03*
X024400Y017140D03*
X024400Y017130D03*
X024400Y017120D03*
X024400Y017110D03*
X024400Y017100D03*
X024400Y017090D03*
X024400Y017080D03*
X024400Y017070D03*
X024400Y017060D03*
X024400Y017050D03*
X024400Y017040D03*
X024400Y017030D03*
X024400Y017020D03*
X024400Y017010D03*
X024400Y017000D03*
X024400Y016990D03*
X024400Y016980D03*
X024400Y016970D03*
X024400Y016960D03*
X024400Y016950D03*
X024400Y016940D03*
X024400Y016930D03*
X024400Y016920D03*
X024400Y016910D03*
X024400Y016900D03*
X024400Y016890D03*
X024400Y016880D03*
X024070Y016900D03*
X024180Y016540D03*
X023240Y017820D03*
D33*
X024205Y016550D03*
D34*
X023745Y016880D03*
X023745Y016890D03*
X023745Y016900D03*
X023745Y016910D03*
X023745Y016920D03*
X023745Y016930D03*
X023745Y016940D03*
X023745Y016950D03*
X023745Y016960D03*
X023745Y016970D03*
X023745Y016980D03*
X023745Y016990D03*
X023745Y017000D03*
X023745Y017010D03*
X023745Y017020D03*
X023745Y017030D03*
X023745Y017040D03*
X023745Y017050D03*
X023745Y017060D03*
X023745Y017070D03*
X023745Y017080D03*
X023745Y017090D03*
X023745Y017100D03*
X023745Y017110D03*
X023745Y017120D03*
X023745Y017130D03*
X023745Y017140D03*
X023745Y017150D03*
X023745Y017160D03*
X023745Y017170D03*
X023745Y017180D03*
X023745Y017190D03*
X023745Y017200D03*
X023745Y017210D03*
X023745Y017220D03*
X023745Y017230D03*
X023745Y017240D03*
X023745Y017250D03*
X023745Y017260D03*
X023745Y017270D03*
X023745Y017280D03*
X023745Y017290D03*
X023745Y017300D03*
X023745Y017310D03*
X023745Y017320D03*
X023745Y017330D03*
X023745Y017340D03*
X023745Y017350D03*
X023745Y017360D03*
X023745Y017370D03*
X023745Y017380D03*
X023745Y017390D03*
X023745Y017400D03*
X023745Y017410D03*
X023745Y017420D03*
X023745Y017430D03*
X023745Y017440D03*
X023745Y017450D03*
X023745Y017460D03*
X023745Y017470D03*
X023745Y017480D03*
X023745Y017490D03*
X023745Y017500D03*
X023865Y017530D03*
X023875Y017500D03*
X024315Y017640D03*
X023375Y017400D03*
X023375Y017390D03*
X023365Y017420D03*
X023365Y017430D03*
X023355Y017460D03*
X023345Y017490D03*
X023335Y017520D03*
X023325Y017550D03*
X023325Y017560D03*
X023315Y017590D03*
X023305Y017620D03*
X023295Y017650D03*
X023285Y017680D03*
X023285Y017690D03*
X023195Y017670D03*
X023185Y017640D03*
X023175Y017610D03*
X023165Y017580D03*
X023165Y017570D03*
X023155Y017540D03*
X023145Y017510D03*
X023135Y017480D03*
X023125Y017450D03*
X023125Y017440D03*
X023115Y017420D03*
X023115Y017410D03*
X023105Y017380D03*
X023095Y017350D03*
X023085Y017320D03*
X023085Y017310D03*
X023075Y017290D03*
X023075Y017280D03*
X023065Y017260D03*
X023065Y017250D03*
X023055Y017230D03*
X023055Y017220D03*
X023025Y017130D03*
X023025Y017120D03*
X023015Y017100D03*
X023015Y017090D03*
X023005Y017070D03*
X023005Y017060D03*
X023005Y017050D03*
X022995Y017040D03*
X022995Y017030D03*
X022995Y017020D03*
X022985Y017000D03*
X022985Y016990D03*
X022975Y016970D03*
X022975Y016960D03*
X022975Y016950D03*
X022965Y016940D03*
X022965Y016930D03*
X022965Y016920D03*
X022955Y016910D03*
X022955Y016900D03*
X022955Y016890D03*
X022945Y016880D03*
X022505Y017050D03*
X022505Y017060D03*
X022505Y017070D03*
X022505Y017080D03*
X022515Y017100D03*
X022515Y017110D03*
X022515Y017120D03*
X022505Y017150D03*
X022505Y017160D03*
X022505Y017170D03*
X022505Y017180D03*
X022495Y017200D03*
X022495Y017030D03*
X022045Y017030D03*
X022035Y017040D03*
X022035Y017050D03*
X022035Y017060D03*
X022025Y017070D03*
X022025Y017080D03*
X022025Y017090D03*
X022025Y017100D03*
X022025Y017110D03*
X022065Y017500D03*
X022055Y017520D03*
X022055Y017530D03*
X022045Y017550D03*
X022045Y017560D03*
X022045Y017570D03*
X022045Y017580D03*
X022045Y017590D03*
X022045Y017600D03*
X022045Y017610D03*
X022045Y017620D03*
X022045Y017630D03*
X022055Y017650D03*
X022055Y017660D03*
X022065Y017680D03*
X022465Y017700D03*
X022475Y017680D03*
X022485Y017670D03*
X022485Y017660D03*
X022495Y017650D03*
X022495Y017640D03*
X022495Y017630D03*
X022505Y017600D03*
X022505Y017590D03*
X022505Y017580D03*
X022505Y017570D03*
X022505Y017560D03*
X023245Y017810D03*
X023385Y017360D03*
X023395Y017330D03*
X023405Y017300D03*
X023405Y017290D03*
X023415Y017270D03*
X023415Y017260D03*
X023425Y017240D03*
X023425Y017230D03*
X023455Y017140D03*
X023455Y017130D03*
X023465Y017110D03*
X023465Y017100D03*
X023465Y017090D03*
X023475Y017080D03*
X023475Y017070D03*
X023475Y017060D03*
X023485Y017040D03*
X023485Y017030D03*
X023495Y017010D03*
X023495Y017000D03*
X023495Y016990D03*
X023505Y016980D03*
X023505Y016970D03*
X023505Y016960D03*
X023515Y016950D03*
X023515Y016940D03*
X023515Y016930D03*
X023525Y016920D03*
X023525Y016910D03*
X023525Y016900D03*
X023525Y016890D03*
X023535Y016880D03*
X024075Y016910D03*
X024075Y016920D03*
X021145Y017590D03*
X021145Y017600D03*
X021145Y017610D03*
X021145Y017620D03*
X021155Y017640D03*
X021155Y017650D03*
X021155Y017660D03*
X021155Y017670D03*
X021165Y017690D03*
X021165Y017700D03*
X021165Y017710D03*
X021165Y017720D03*
X021175Y017740D03*
X021175Y017750D03*
X021175Y017760D03*
X021175Y017770D03*
X021185Y017790D03*
X021185Y017800D03*
X021185Y017810D03*
X021185Y017820D03*
X021135Y017570D03*
X021135Y017560D03*
X021135Y017550D03*
X021125Y017520D03*
X021125Y017510D03*
X021125Y017500D03*
X021115Y017460D03*
X021115Y017450D03*
X021105Y017410D03*
X021105Y017400D03*
X021095Y017360D03*
X021095Y017350D03*
X021085Y017310D03*
X021075Y017260D03*
X021065Y017210D03*
X021055Y017160D03*
X020995Y016910D03*
X020995Y016900D03*
X020995Y016890D03*
X020995Y016880D03*
X020545Y016880D03*
X020545Y016890D03*
X020545Y016900D03*
X020545Y016910D03*
X020495Y017110D03*
X020485Y017160D03*
X020485Y017170D03*
X020475Y017210D03*
X020475Y017220D03*
X020465Y017260D03*
X020465Y017270D03*
X020455Y017310D03*
X020455Y017320D03*
X020445Y017350D03*
X020445Y017360D03*
X020445Y017370D03*
X020435Y017400D03*
X020435Y017410D03*
X020435Y017420D03*
X020425Y017450D03*
X020425Y017460D03*
X020425Y017470D03*
X020415Y017500D03*
X020415Y017510D03*
X020415Y017520D03*
X020405Y017550D03*
X020405Y017560D03*
X020405Y017570D03*
X020395Y017600D03*
X020395Y017610D03*
X020395Y017620D03*
X020385Y017640D03*
X020385Y017650D03*
X020385Y017660D03*
X020385Y017670D03*
X020375Y017690D03*
X020375Y017700D03*
X020375Y017710D03*
X020375Y017720D03*
X020365Y017740D03*
X020365Y017750D03*
X020365Y017760D03*
X020365Y017770D03*
X020355Y017790D03*
X020355Y017800D03*
X020355Y017810D03*
X020355Y017820D03*
D35*
X021635Y017820D03*
X021635Y017810D03*
X021635Y017800D03*
X021635Y017790D03*
X021635Y017780D03*
X021635Y017770D03*
X021635Y017760D03*
X021635Y016940D03*
X021635Y016930D03*
X021635Y016920D03*
X021635Y016910D03*
X021635Y016900D03*
X021635Y016890D03*
X021635Y016880D03*
D36*
X022275Y016900D03*
D37*
X022275Y016910D03*
D38*
X022275Y016920D03*
D39*
X022275Y016930D03*
D40*
X022405Y016940D03*
X022145Y016940D03*
X022375Y017310D03*
D41*
X023240Y017160D03*
X023240Y017150D03*
D42*
X023245Y017170D03*
D43*
X023240Y017180D03*
X023240Y017190D03*
D44*
X023245Y017200D03*
D45*
X023240Y017210D03*
X021610Y017340D03*
X021610Y017350D03*
X021610Y017360D03*
X021610Y017370D03*
X021610Y017380D03*
X021610Y017390D03*
X021610Y017400D03*
D46*
X022225Y017380D03*
X022315Y017340D03*
D47*
X022270Y017770D03*
D48*
X022270Y017780D03*
D49*
X022265Y017790D03*
D50*
X004525Y008775D03*
D51*
X004525Y009338D03*
D52*
X005088Y009713D03*
X006213Y007588D03*
D53*
X006713Y009400D03*
D54*
X006713Y008213D03*
D55*
X019900Y005275D02*
X020400Y004775D01*
X021400Y004775D01*
X021775Y005150D01*
X021775Y006025D01*
X022275Y006525D01*
X024025Y011400D02*
X026400Y011400D01*
X026400Y012900D01*
X025900Y013400D01*
X025900Y015775D01*
D56*
X016150Y003463D03*
D57*
X004525Y004525D03*
X004525Y018025D03*
X028775Y018025D03*
X028775Y004525D03*
D58*
X028894Y007815D03*
X029406Y007815D03*
X029406Y008485D03*
X029150Y008485D03*
X028894Y008485D03*
X027406Y008485D03*
X027150Y008485D03*
X026894Y008485D03*
X026894Y007815D03*
X027406Y007815D03*
X025406Y009565D03*
X024894Y009565D03*
X024894Y010235D03*
X025150Y010235D03*
X025406Y010235D03*
X022906Y010235D03*
X022650Y010235D03*
X022394Y010235D03*
X022394Y009565D03*
X022906Y009565D03*
X020406Y009565D03*
X019894Y009565D03*
X019894Y010235D03*
X020150Y010235D03*
X020406Y010235D03*
X017906Y010235D03*
X017650Y010235D03*
X017394Y010235D03*
X017394Y009565D03*
X017906Y009565D03*
X018644Y014315D03*
X019156Y014315D03*
X019156Y014985D03*
X018900Y014985D03*
X018644Y014985D03*
X016656Y014985D03*
X016400Y014985D03*
X016144Y014985D03*
X016144Y014315D03*
X016656Y014315D03*
X021144Y014315D03*
X021656Y014315D03*
X021656Y014985D03*
X021400Y014985D03*
X021144Y014985D03*
X023644Y014985D03*
X023900Y014985D03*
X024156Y014985D03*
X024156Y014315D03*
X023644Y014315D03*
D59*
X027650Y014276D03*
X027650Y015024D03*
X028650Y015024D03*
X028650Y014276D03*
D60*
X012752Y011840D03*
X012437Y011840D03*
X012122Y011840D03*
X011807Y011840D03*
X011493Y011840D03*
X011178Y011840D03*
X010863Y011840D03*
X010548Y011840D03*
X010548Y008460D03*
X010863Y008460D03*
X011178Y008460D03*
X011493Y008460D03*
X011807Y008460D03*
X012122Y008460D03*
X012437Y008460D03*
X012752Y008460D03*
D61*
X013340Y009048D03*
X013340Y009363D03*
X013340Y009678D03*
X013340Y009993D03*
X013340Y010307D03*
X013340Y010622D03*
X013340Y010937D03*
X013340Y011252D03*
X009960Y011252D03*
X009960Y010937D03*
X009960Y010622D03*
X009960Y010307D03*
X009960Y009993D03*
X009960Y009678D03*
X009960Y009363D03*
X009960Y009048D03*
D62*
X006172Y009011D02*
X005128Y009011D01*
X005128Y009172D02*
X005128Y008128D01*
X006172Y008128D01*
X006172Y009172D01*
X005128Y009172D01*
X005128Y008815D02*
X006172Y008815D01*
X006172Y008620D02*
X005128Y008620D01*
X005128Y008424D02*
X006172Y008424D01*
X006172Y008229D02*
X005128Y008229D01*
D63*
X004843Y008197D02*
X004843Y008119D01*
X004646Y008119D01*
X004646Y008197D01*
X004843Y008197D01*
X004843Y008194D02*
X004646Y008194D01*
X004646Y008155D02*
X004843Y008155D01*
X004843Y008000D02*
X004646Y008000D01*
X004646Y007922D01*
X004823Y007922D01*
X004843Y007941D01*
X004843Y008000D01*
X004843Y007963D02*
X004646Y007963D01*
X004646Y007924D02*
X004826Y007924D01*
X004922Y007823D02*
X004941Y007843D01*
X005000Y007843D01*
X005000Y007646D01*
X004922Y007646D01*
X004922Y007823D01*
X004922Y007809D02*
X005000Y007809D01*
X005000Y007770D02*
X004922Y007770D01*
X004922Y007732D02*
X005000Y007732D01*
X005000Y007693D02*
X004922Y007693D01*
X004922Y007655D02*
X005000Y007655D01*
X005119Y007655D02*
X005197Y007655D01*
X005197Y007646D02*
X005119Y007646D01*
X005119Y007843D01*
X005197Y007843D01*
X005197Y007646D01*
X005197Y007693D02*
X005119Y007693D01*
X005119Y007732D02*
X005197Y007732D01*
X005197Y007770D02*
X005119Y007770D01*
X005119Y007809D02*
X005197Y007809D01*
X005315Y007809D02*
X005394Y007809D01*
X005394Y007843D02*
X005394Y007646D01*
X005315Y007646D01*
X005315Y007843D01*
X005394Y007843D01*
X005394Y007770D02*
X005315Y007770D01*
X005315Y007732D02*
X005394Y007732D01*
X005394Y007693D02*
X005315Y007693D01*
X005315Y007655D02*
X005394Y007655D01*
X005512Y007655D02*
X005591Y007655D01*
X005591Y007646D02*
X005512Y007646D01*
X005512Y007843D01*
X005591Y007843D01*
X005591Y007646D01*
X005591Y007693D02*
X005512Y007693D01*
X005512Y007732D02*
X005591Y007732D01*
X005591Y007770D02*
X005512Y007770D01*
X005512Y007809D02*
X005591Y007809D01*
X005709Y007809D02*
X005788Y007809D01*
X005788Y007843D02*
X005788Y007646D01*
X005709Y007646D01*
X005709Y007843D01*
X005788Y007843D01*
X005788Y007770D02*
X005709Y007770D01*
X005709Y007732D02*
X005788Y007732D01*
X005788Y007693D02*
X005709Y007693D01*
X005709Y007655D02*
X005788Y007655D01*
X005906Y007655D02*
X005985Y007655D01*
X005985Y007646D02*
X005906Y007646D01*
X005906Y007843D01*
X005985Y007843D01*
X005985Y007646D01*
X005985Y007693D02*
X005906Y007693D01*
X005906Y007732D02*
X005985Y007732D01*
X005985Y007770D02*
X005906Y007770D01*
X005906Y007809D02*
X005985Y007809D01*
X006103Y007809D02*
X006181Y007809D01*
X006181Y007843D02*
X006181Y007646D01*
X006103Y007646D01*
X006103Y007843D01*
X006181Y007843D01*
X006181Y007770D02*
X006103Y007770D01*
X006103Y007732D02*
X006181Y007732D01*
X006181Y007693D02*
X006103Y007693D01*
X006103Y007655D02*
X006181Y007655D01*
X006300Y007655D02*
X006378Y007655D01*
X006378Y007646D02*
X006300Y007646D01*
X006300Y007843D01*
X006359Y007843D01*
X006378Y007823D01*
X006378Y007646D01*
X006378Y007693D02*
X006300Y007693D01*
X006300Y007732D02*
X006378Y007732D01*
X006378Y007770D02*
X006300Y007770D01*
X006300Y007809D02*
X006378Y007809D01*
X006477Y007922D02*
X006457Y007941D01*
X006457Y008000D01*
X006654Y008000D01*
X006654Y007922D01*
X006477Y007922D01*
X006474Y007924D02*
X006654Y007924D01*
X006654Y007963D02*
X006457Y007963D01*
X006457Y008119D02*
X006457Y008197D01*
X006654Y008197D01*
X006654Y008119D01*
X006457Y008119D01*
X006457Y008155D02*
X006654Y008155D01*
X006654Y008194D02*
X006457Y008194D01*
X006457Y008315D02*
X006457Y008394D01*
X006654Y008394D01*
X006654Y008315D01*
X006457Y008315D01*
X006457Y008348D02*
X006654Y008348D01*
X006654Y008386D02*
X006457Y008386D01*
X006457Y008512D02*
X006457Y008591D01*
X006654Y008591D01*
X006654Y008512D01*
X006457Y008512D01*
X006457Y008540D02*
X006654Y008540D01*
X006654Y008579D02*
X006457Y008579D01*
X006457Y008709D02*
X006457Y008788D01*
X006654Y008788D01*
X006654Y008709D01*
X006457Y008709D01*
X006457Y008733D02*
X006654Y008733D01*
X006654Y008771D02*
X006457Y008771D01*
X006457Y008906D02*
X006457Y008985D01*
X006654Y008985D01*
X006654Y008906D01*
X006457Y008906D01*
X006457Y008925D02*
X006654Y008925D01*
X006654Y008964D02*
X006457Y008964D01*
X006457Y009103D02*
X006457Y009181D01*
X006654Y009181D01*
X006654Y009103D01*
X006457Y009103D01*
X006457Y009118D02*
X006654Y009118D01*
X006654Y009156D02*
X006457Y009156D01*
X006457Y009300D02*
X006654Y009300D01*
X006654Y009378D01*
X006477Y009378D01*
X006457Y009359D01*
X006457Y009300D01*
X006457Y009310D02*
X006654Y009310D01*
X006654Y009349D02*
X006457Y009349D01*
X006359Y009457D02*
X006300Y009457D01*
X006300Y009654D01*
X006378Y009654D01*
X006378Y009477D01*
X006359Y009457D01*
X006366Y009464D02*
X006300Y009464D01*
X006300Y009503D02*
X006378Y009503D01*
X006378Y009541D02*
X006300Y009541D01*
X006300Y009580D02*
X006378Y009580D01*
X006378Y009618D02*
X006300Y009618D01*
X006181Y009618D02*
X006103Y009618D01*
X006103Y009654D02*
X006181Y009654D01*
X006181Y009457D01*
X006103Y009457D01*
X006103Y009654D01*
X006103Y009580D02*
X006181Y009580D01*
X006181Y009541D02*
X006103Y009541D01*
X006103Y009503D02*
X006181Y009503D01*
X006181Y009464D02*
X006103Y009464D01*
X005985Y009464D02*
X005906Y009464D01*
X005906Y009457D02*
X005906Y009654D01*
X005985Y009654D01*
X005985Y009457D01*
X005906Y009457D01*
X005906Y009503D02*
X005985Y009503D01*
X005985Y009541D02*
X005906Y009541D01*
X005906Y009580D02*
X005985Y009580D01*
X005985Y009618D02*
X005906Y009618D01*
X005788Y009618D02*
X005709Y009618D01*
X005709Y009654D02*
X005788Y009654D01*
X005788Y009457D01*
X005709Y009457D01*
X005709Y009654D01*
X005709Y009580D02*
X005788Y009580D01*
X005788Y009541D02*
X005709Y009541D01*
X005709Y009503D02*
X005788Y009503D01*
X005788Y009464D02*
X005709Y009464D01*
X005591Y009464D02*
X005512Y009464D01*
X005512Y009457D02*
X005512Y009654D01*
X005591Y009654D01*
X005591Y009457D01*
X005512Y009457D01*
X005512Y009503D02*
X005591Y009503D01*
X005591Y009541D02*
X005512Y009541D01*
X005512Y009580D02*
X005591Y009580D01*
X005591Y009618D02*
X005512Y009618D01*
X005394Y009618D02*
X005315Y009618D01*
X005315Y009654D02*
X005394Y009654D01*
X005394Y009457D01*
X005315Y009457D01*
X005315Y009654D01*
X005315Y009580D02*
X005394Y009580D01*
X005394Y009541D02*
X005315Y009541D01*
X005315Y009503D02*
X005394Y009503D01*
X005394Y009464D02*
X005315Y009464D01*
X005197Y009464D02*
X005119Y009464D01*
X005119Y009457D02*
X005119Y009654D01*
X005197Y009654D01*
X005197Y009457D01*
X005119Y009457D01*
X005119Y009503D02*
X005197Y009503D01*
X005197Y009541D02*
X005119Y009541D01*
X005119Y009580D02*
X005197Y009580D01*
X005197Y009618D02*
X005119Y009618D01*
X005000Y009618D02*
X004922Y009618D01*
X004922Y009654D02*
X005000Y009654D01*
X005000Y009457D01*
X004941Y009457D01*
X004922Y009477D01*
X004922Y009654D01*
X004922Y009580D02*
X005000Y009580D01*
X005000Y009541D02*
X004922Y009541D01*
X004922Y009503D02*
X005000Y009503D01*
X005000Y009464D02*
X004934Y009464D01*
X004843Y009359D02*
X004843Y009300D01*
X004646Y009300D01*
X004646Y009378D01*
X004823Y009378D01*
X004843Y009359D01*
X004843Y009349D02*
X004646Y009349D01*
X004646Y009310D02*
X004843Y009310D01*
X004843Y009181D02*
X004843Y009103D01*
X004646Y009103D01*
X004646Y009181D01*
X004843Y009181D01*
X004843Y009156D02*
X004646Y009156D01*
X004646Y009118D02*
X004843Y009118D01*
X004843Y008985D02*
X004843Y008906D01*
X004646Y008906D01*
X004646Y008985D01*
X004843Y008985D01*
X004843Y008964D02*
X004646Y008964D01*
X004646Y008925D02*
X004843Y008925D01*
X004843Y008788D02*
X004843Y008709D01*
X004646Y008709D01*
X004646Y008788D01*
X004843Y008788D01*
X004843Y008771D02*
X004646Y008771D01*
X004646Y008733D02*
X004843Y008733D01*
X004843Y008591D02*
X004843Y008512D01*
X004646Y008512D01*
X004646Y008591D01*
X004843Y008591D01*
X004843Y008579D02*
X004646Y008579D01*
X004646Y008540D02*
X004843Y008540D01*
X004843Y008394D02*
X004843Y008315D01*
X004646Y008315D01*
X004646Y008394D01*
X004843Y008394D01*
X004843Y008386D02*
X004646Y008386D01*
X004646Y008348D02*
X004843Y008348D01*
D64*
X007565Y008900D03*
X008235Y008900D03*
X008235Y007650D03*
X007565Y007650D03*
X010815Y006900D03*
X011485Y006900D03*
X012315Y013025D03*
X012985Y013025D03*
D65*
X008400Y012024D03*
X008400Y011276D03*
X007400Y011276D03*
X007400Y012024D03*
X006400Y012024D03*
X006400Y011276D03*
X005400Y011276D03*
X005400Y012024D03*
X004400Y012024D03*
X004400Y011276D03*
X014400Y006149D03*
X014400Y005401D03*
X015400Y005401D03*
X015400Y006149D03*
X024775Y011381D03*
X024775Y012169D03*
D66*
X012650Y016150D03*
D67*
X011650Y016150D03*
X010650Y016150D03*
X010650Y015150D03*
X011650Y015150D03*
X012650Y015150D03*
D68*
X017650Y015250D03*
X017650Y014900D03*
X017650Y014550D03*
X020150Y014550D03*
X020150Y014900D03*
X020150Y015250D03*
X022650Y015250D03*
X022650Y014900D03*
X022650Y014550D03*
X025150Y014550D03*
X025150Y014900D03*
X025150Y015250D03*
X023900Y010500D03*
X023900Y010150D03*
X023900Y009800D03*
X021400Y009800D03*
X021400Y010150D03*
X021400Y010500D03*
X018900Y010500D03*
X018900Y010150D03*
X018900Y009800D03*
X026400Y009800D03*
X026400Y010150D03*
X026400Y010500D03*
D69*
X024077Y012650D03*
X023723Y012650D03*
X021577Y012650D03*
X021223Y012650D03*
X019077Y012650D03*
X018723Y012650D03*
X016577Y012650D03*
X016223Y012650D03*
X017363Y016525D03*
X017687Y016525D03*
X017827Y007900D03*
X017473Y007900D03*
X019973Y007900D03*
X020327Y007900D03*
X022473Y007900D03*
X022827Y007900D03*
X024973Y007900D03*
X025327Y007900D03*
D70*
X013872Y007400D03*
X013400Y007400D03*
X012928Y007400D03*
D71*
X027400Y009690D03*
X027900Y009690D03*
X028400Y009690D03*
X028900Y009690D03*
X028900Y012110D03*
X028400Y012110D03*
X027900Y012110D03*
X027400Y012110D03*
D72*
X019150Y017650D03*
X018150Y017650D03*
X017150Y017650D03*
X016150Y017650D03*
X015150Y017650D03*
X014150Y017650D03*
X013150Y017650D03*
X012150Y017650D03*
X012150Y018650D03*
X013150Y018650D03*
X014150Y018650D03*
X015150Y018650D03*
X016150Y018650D03*
X017150Y018650D03*
X018150Y018650D03*
X019150Y018650D03*
D73*
X009150Y018525D03*
X011900Y004325D03*
D74*
X009150Y017525D03*
X008150Y017525D03*
X007150Y017525D03*
X007150Y018525D03*
X008150Y018525D03*
D75*
X012900Y004225D03*
X013900Y004325D03*
X014900Y004225D03*
X015900Y004325D03*
X016900Y004225D03*
X017900Y004325D03*
X018900Y004225D03*
D76*
X012649Y005525D03*
X011901Y005525D03*
X015776Y016525D03*
X016524Y016525D03*
D77*
X016400Y006145D03*
X016400Y005405D03*
D78*
X014275Y009650D03*
D79*
X006544Y013776D03*
X005717Y014150D03*
X005044Y013776D03*
X004217Y014150D03*
X005044Y014524D03*
X005044Y015276D03*
X005717Y015650D03*
X005044Y016024D03*
X004217Y015650D03*
X006544Y015276D03*
X006544Y014524D03*
X006544Y016024D03*
D80*
X007776Y015256D03*
X008524Y015256D03*
X008150Y014583D03*
X007776Y013756D03*
X008524Y013756D03*
X008150Y016083D03*
D81*
X006996Y005937D03*
X006996Y003851D03*
X010304Y003851D03*
X010304Y005937D03*
D82*
X009280Y006036D03*
X008965Y006036D03*
X008650Y006036D03*
X008335Y006036D03*
X008020Y006036D03*
D83*
X024158Y006150D03*
X025142Y006150D03*
D84*
X026422Y004496D03*
X022878Y004496D03*
D85*
X023725Y004044D03*
X025575Y004044D03*
D86*
X020775Y004724D03*
X020775Y005826D03*
X015025Y014474D03*
X015025Y015576D03*
X010650Y017474D03*
X010650Y018576D03*
D87*
X022158Y018650D03*
X023142Y018650D03*
X025158Y018650D03*
X026142Y018650D03*
D88*
X014938Y016525D03*
X014112Y016525D03*
D89*
X004025Y008610D03*
X004025Y007940D03*
D90*
X005150Y007275D03*
X005525Y007275D03*
X006150Y007025D03*
X007900Y006463D03*
X007900Y006150D03*
X007900Y005838D03*
X008400Y007025D03*
X009400Y006463D03*
X009400Y006150D03*
X009400Y005838D03*
X011525Y007400D03*
X011525Y007775D03*
X010650Y007525D03*
X008900Y008400D03*
X008838Y009150D03*
X009150Y009150D03*
X008525Y009150D03*
X008275Y009400D03*
X007963Y009400D03*
X007275Y008900D03*
X007025Y010275D03*
X007400Y010588D03*
X007400Y012400D03*
X007025Y012775D03*
X006525Y012650D03*
X005650Y013400D03*
X004900Y013025D03*
X004650Y013525D03*
X005900Y014900D03*
X007025Y014150D03*
X007525Y014650D03*
X009275Y014525D03*
X009150Y013775D03*
X009150Y013150D03*
X008775Y012775D03*
X008150Y012400D03*
X010150Y013025D03*
X011025Y013400D03*
X011025Y013775D03*
X010650Y014275D03*
X010150Y014150D03*
X011650Y013775D03*
X012525Y013525D03*
X013525Y012525D03*
X013900Y012150D03*
X012900Y011900D03*
X012150Y011213D03*
X012650Y010650D03*
X011650Y010400D03*
X011650Y010025D03*
X011650Y009275D03*
X010775Y009650D03*
X011150Y010838D03*
X010775Y011025D03*
X014150Y013150D03*
X014275Y013650D03*
X014275Y014025D03*
X013900Y015400D03*
X016900Y013400D03*
X017150Y012650D03*
X019400Y013400D03*
X019650Y012650D03*
X021900Y013400D03*
X022150Y012650D03*
X024400Y013400D03*
X024650Y012650D03*
X027650Y014525D03*
X028650Y014150D03*
X028150Y013400D03*
X029275Y013400D03*
X026525Y015400D03*
X028900Y010650D03*
X029400Y009400D03*
X028650Y008525D03*
X028025Y007775D03*
X025900Y007900D03*
X025650Y008650D03*
X023400Y007900D03*
X023150Y008650D03*
X020900Y007900D03*
X020650Y008650D03*
X018400Y007900D03*
X018150Y008650D03*
X016525Y008650D03*
X016150Y008150D03*
X015650Y007650D03*
X016150Y007150D03*
X017150Y006650D03*
X017650Y006150D03*
X017275Y005650D03*
X012650Y006150D03*
X015025Y011025D03*
X015400Y010900D03*
X008900Y015900D03*
X009650Y016275D03*
X010275Y017525D03*
X010650Y017525D03*
X010650Y018525D03*
X010275Y018525D03*
X004775Y015775D03*
X004650Y009900D03*
X004275Y008900D03*
D91*
X006775Y005775D03*
X007275Y005775D03*
X010025Y005775D03*
X010525Y005775D03*
X010525Y003650D03*
X010025Y003650D03*
X007275Y003650D03*
X006775Y003650D03*
X019775Y004900D03*
X019775Y005400D03*
X020525Y005900D03*
X021025Y005900D03*
X022275Y006525D03*
X022775Y006525D03*
X023025Y006025D03*
X023525Y006025D03*
X023650Y005400D03*
X024150Y005400D03*
X025150Y006650D03*
X025650Y006650D03*
X026150Y006650D03*
X024025Y011400D03*
X023650Y011400D03*
M02*
