G75*
G70*
%OFA0B0*%
%FSLAX24Y24*%
%IPPOS*%
%LPD*%
%AMOC8*
5,1,8,0,0,1.08239X$1,22.5*
%
%ADD10C,0.0080*%
%ADD11C,0.0060*%
D10*
X004400Y010350D02*
X004900Y010350D01*
X004900Y010950D02*
X004400Y010950D01*
X019360Y006725D02*
X019360Y005325D01*
X021940Y005325D01*
X021940Y006725D01*
X019360Y006725D01*
X022204Y007181D02*
X022204Y005369D01*
X022381Y005369D01*
X022381Y005881D02*
X023169Y005881D01*
X023169Y005369D02*
X023346Y005369D01*
X023346Y007181D01*
X023169Y007181D01*
X022381Y007181D02*
X022204Y007181D01*
D11*
X006333Y010355D02*
X006333Y010945D01*
X006334Y010945D02*
X006330Y010964D01*
X006324Y010981D01*
X006314Y010998D01*
X006302Y011012D01*
X006287Y011024D01*
X006271Y011034D01*
X006253Y011040D01*
X006234Y011044D01*
X006215Y011044D01*
X005585Y011044D01*
X005585Y011045D02*
X005566Y011045D01*
X005547Y011041D01*
X005529Y011035D01*
X005513Y011026D01*
X005498Y011013D01*
X005486Y010999D01*
X005476Y010982D01*
X005470Y010964D01*
X005466Y010946D01*
X005467Y010945D02*
X005467Y010355D01*
X005466Y010355D02*
X005470Y010336D01*
X005476Y010319D01*
X005486Y010302D01*
X005498Y010288D01*
X005513Y010276D01*
X005529Y010266D01*
X005547Y010260D01*
X005566Y010256D01*
X005585Y010256D01*
X006215Y010256D01*
X006234Y010256D01*
X006253Y010260D01*
X006271Y010266D01*
X006287Y010276D01*
X006302Y010288D01*
X006314Y010302D01*
X006324Y010319D01*
X006330Y010336D01*
X006334Y010355D01*
M02*
