G75*
G70*
%OFA0B0*%
%FSLAX24Y24*%
%IPPOS*%
%LPD*%
%AMOC8*
5,1,8,0,0,1.08239X$1,22.5*
%
%ADD10C,0.0060*%
%ADD11C,0.0080*%
%ADD12C,0.0050*%
%ADD13C,0.0040*%
%ADD14C,0.0118*%
%ADD15C,0.0025*%
%ADD16C,0.0020*%
%ADD17R,0.0118X0.0059*%
%ADD18R,0.0118X0.0118*%
D10*
X003175Y004525D02*
X003177Y004598D01*
X003183Y004671D01*
X003193Y004743D01*
X003207Y004815D01*
X003224Y004886D01*
X003246Y004956D01*
X003271Y005025D01*
X003300Y005092D01*
X003332Y005157D01*
X003368Y005221D01*
X003408Y005283D01*
X003450Y005342D01*
X003496Y005399D01*
X003545Y005453D01*
X003597Y005505D01*
X003651Y005554D01*
X003708Y005600D01*
X003767Y005642D01*
X003829Y005682D01*
X003893Y005718D01*
X003958Y005750D01*
X004025Y005779D01*
X004094Y005804D01*
X004164Y005826D01*
X004235Y005843D01*
X004307Y005857D01*
X004379Y005867D01*
X004452Y005873D01*
X004525Y005875D01*
X004598Y005873D01*
X004671Y005867D01*
X004743Y005857D01*
X004815Y005843D01*
X004886Y005826D01*
X004956Y005804D01*
X005025Y005779D01*
X005092Y005750D01*
X005157Y005718D01*
X005221Y005682D01*
X005283Y005642D01*
X005342Y005600D01*
X005399Y005554D01*
X005453Y005505D01*
X005505Y005453D01*
X005554Y005399D01*
X005600Y005342D01*
X005642Y005283D01*
X005682Y005221D01*
X005718Y005157D01*
X005750Y005092D01*
X005779Y005025D01*
X005804Y004956D01*
X005826Y004886D01*
X005843Y004815D01*
X005857Y004743D01*
X005867Y004671D01*
X005873Y004598D01*
X005875Y004525D01*
X005873Y004452D01*
X005867Y004379D01*
X005857Y004307D01*
X005843Y004235D01*
X005826Y004164D01*
X005804Y004094D01*
X005779Y004025D01*
X005750Y003958D01*
X005718Y003893D01*
X005682Y003829D01*
X005642Y003767D01*
X005600Y003708D01*
X005554Y003651D01*
X005505Y003597D01*
X005453Y003545D01*
X005399Y003496D01*
X005342Y003450D01*
X005283Y003408D01*
X005221Y003368D01*
X005157Y003332D01*
X005092Y003300D01*
X005025Y003271D01*
X004956Y003246D01*
X004886Y003224D01*
X004815Y003207D01*
X004743Y003193D01*
X004671Y003183D01*
X004598Y003177D01*
X004525Y003175D01*
X004452Y003177D01*
X004379Y003183D01*
X004307Y003193D01*
X004235Y003207D01*
X004164Y003224D01*
X004094Y003246D01*
X004025Y003271D01*
X003958Y003300D01*
X003893Y003332D01*
X003829Y003368D01*
X003767Y003408D01*
X003708Y003450D01*
X003651Y003496D01*
X003597Y003545D01*
X003545Y003597D01*
X003496Y003651D01*
X003450Y003708D01*
X003408Y003767D01*
X003368Y003829D01*
X003332Y003893D01*
X003300Y003958D01*
X003271Y004025D01*
X003246Y004094D01*
X003224Y004164D01*
X003207Y004235D01*
X003193Y004307D01*
X003183Y004379D01*
X003177Y004452D01*
X003175Y004525D01*
X010270Y008910D02*
X010410Y008770D01*
X013030Y008770D01*
X013030Y011530D01*
X010270Y011530D01*
X010270Y008910D01*
X010429Y009070D02*
X010431Y009093D01*
X010437Y009116D01*
X010446Y009137D01*
X010459Y009157D01*
X010475Y009174D01*
X010493Y009188D01*
X010513Y009199D01*
X010535Y009207D01*
X010558Y009211D01*
X010582Y009211D01*
X010605Y009207D01*
X010627Y009199D01*
X010647Y009188D01*
X010665Y009174D01*
X010681Y009157D01*
X010694Y009137D01*
X010703Y009116D01*
X010709Y009093D01*
X010711Y009070D01*
X010709Y009047D01*
X010703Y009024D01*
X010694Y009003D01*
X010681Y008983D01*
X010665Y008966D01*
X010647Y008952D01*
X010627Y008941D01*
X010605Y008933D01*
X010582Y008929D01*
X010558Y008929D01*
X010535Y008933D01*
X010513Y008941D01*
X010493Y008952D01*
X010475Y008966D01*
X010459Y008983D01*
X010446Y009003D01*
X010437Y009024D01*
X010431Y009047D01*
X010429Y009070D01*
X017350Y014300D02*
X017950Y014300D01*
X017967Y014302D01*
X017984Y014306D01*
X018000Y014313D01*
X018014Y014323D01*
X018027Y014336D01*
X018037Y014350D01*
X018044Y014366D01*
X018048Y014383D01*
X018050Y014400D01*
X018050Y015400D01*
X018048Y015417D01*
X018044Y015434D01*
X018037Y015450D01*
X018027Y015464D01*
X018014Y015477D01*
X018000Y015487D01*
X017984Y015494D01*
X017967Y015498D01*
X017950Y015500D01*
X017350Y015500D01*
X017333Y015498D01*
X017316Y015494D01*
X017300Y015487D01*
X017286Y015477D01*
X017273Y015464D01*
X017263Y015450D01*
X017256Y015434D01*
X017252Y015417D01*
X017250Y015400D01*
X017250Y014400D01*
X017252Y014383D01*
X017256Y014366D01*
X017263Y014350D01*
X017273Y014336D01*
X017286Y014323D01*
X017300Y014313D01*
X017316Y014306D01*
X017333Y014302D01*
X017350Y014300D01*
X019750Y014400D02*
X019750Y015400D01*
X019752Y015417D01*
X019756Y015434D01*
X019763Y015450D01*
X019773Y015464D01*
X019786Y015477D01*
X019800Y015487D01*
X019816Y015494D01*
X019833Y015498D01*
X019850Y015500D01*
X020450Y015500D01*
X020467Y015498D01*
X020484Y015494D01*
X020500Y015487D01*
X020514Y015477D01*
X020527Y015464D01*
X020537Y015450D01*
X020544Y015434D01*
X020548Y015417D01*
X020550Y015400D01*
X020550Y014400D01*
X020548Y014383D01*
X020544Y014366D01*
X020537Y014350D01*
X020527Y014336D01*
X020514Y014323D01*
X020500Y014313D01*
X020484Y014306D01*
X020467Y014302D01*
X020450Y014300D01*
X019850Y014300D01*
X019833Y014302D01*
X019816Y014306D01*
X019800Y014313D01*
X019786Y014323D01*
X019773Y014336D01*
X019763Y014350D01*
X019756Y014366D01*
X019752Y014383D01*
X019750Y014400D01*
X022250Y014400D02*
X022250Y015400D01*
X022252Y015417D01*
X022256Y015434D01*
X022263Y015450D01*
X022273Y015464D01*
X022286Y015477D01*
X022300Y015487D01*
X022316Y015494D01*
X022333Y015498D01*
X022350Y015500D01*
X022950Y015500D01*
X022967Y015498D01*
X022984Y015494D01*
X023000Y015487D01*
X023014Y015477D01*
X023027Y015464D01*
X023037Y015450D01*
X023044Y015434D01*
X023048Y015417D01*
X023050Y015400D01*
X023050Y014400D01*
X023048Y014383D01*
X023044Y014366D01*
X023037Y014350D01*
X023027Y014336D01*
X023014Y014323D01*
X023000Y014313D01*
X022984Y014306D01*
X022967Y014302D01*
X022950Y014300D01*
X022350Y014300D01*
X022333Y014302D01*
X022316Y014306D01*
X022300Y014313D01*
X022286Y014323D01*
X022273Y014336D01*
X022263Y014350D01*
X022256Y014366D01*
X022252Y014383D01*
X022250Y014400D01*
X024750Y014400D02*
X024750Y015400D01*
X024752Y015417D01*
X024756Y015434D01*
X024763Y015450D01*
X024773Y015464D01*
X024786Y015477D01*
X024800Y015487D01*
X024816Y015494D01*
X024833Y015498D01*
X024850Y015500D01*
X025450Y015500D01*
X025467Y015498D01*
X025484Y015494D01*
X025500Y015487D01*
X025514Y015477D01*
X025527Y015464D01*
X025537Y015450D01*
X025544Y015434D01*
X025548Y015417D01*
X025550Y015400D01*
X025550Y014400D01*
X025548Y014383D01*
X025544Y014366D01*
X025537Y014350D01*
X025527Y014336D01*
X025514Y014323D01*
X025500Y014313D01*
X025484Y014306D01*
X025467Y014302D01*
X025450Y014300D01*
X024850Y014300D01*
X024833Y014302D01*
X024816Y014306D01*
X024800Y014313D01*
X024786Y014323D01*
X024773Y014336D01*
X024763Y014350D01*
X024756Y014366D01*
X024752Y014383D01*
X024750Y014400D01*
X027150Y011600D02*
X027150Y010200D01*
X027152Y010183D01*
X027156Y010166D01*
X027163Y010150D01*
X027173Y010136D01*
X027186Y010123D01*
X027200Y010113D01*
X027216Y010106D01*
X027233Y010102D01*
X027250Y010100D01*
X027600Y010100D02*
X027700Y010100D01*
X028100Y010100D02*
X028200Y010100D01*
X028600Y010100D02*
X028700Y010100D01*
X029050Y010100D02*
X029067Y010102D01*
X029084Y010106D01*
X029100Y010113D01*
X029114Y010123D01*
X029127Y010136D01*
X029137Y010150D01*
X029144Y010166D01*
X029148Y010183D01*
X029150Y010200D01*
X029150Y011600D01*
X029148Y011617D01*
X029144Y011634D01*
X029137Y011650D01*
X029127Y011664D01*
X029114Y011677D01*
X029100Y011687D01*
X029084Y011694D01*
X029067Y011698D01*
X029050Y011700D01*
X028700Y011700D02*
X028600Y011700D01*
X028200Y011700D02*
X028100Y011700D01*
X027700Y011700D02*
X027600Y011700D01*
X027250Y011700D02*
X027233Y011698D01*
X027216Y011694D01*
X027200Y011687D01*
X027186Y011677D01*
X027173Y011664D01*
X027163Y011650D01*
X027156Y011634D01*
X027152Y011617D01*
X027150Y011600D01*
X026700Y010750D02*
X026100Y010750D01*
X026083Y010748D01*
X026066Y010744D01*
X026050Y010737D01*
X026036Y010727D01*
X026023Y010714D01*
X026013Y010700D01*
X026006Y010684D01*
X026002Y010667D01*
X026000Y010650D01*
X026000Y009650D01*
X026002Y009633D01*
X026006Y009616D01*
X026013Y009600D01*
X026023Y009586D01*
X026036Y009573D01*
X026050Y009563D01*
X026066Y009556D01*
X026083Y009552D01*
X026100Y009550D01*
X026700Y009550D01*
X026717Y009552D01*
X026734Y009556D01*
X026750Y009563D01*
X026764Y009573D01*
X026777Y009586D01*
X026787Y009600D01*
X026794Y009616D01*
X026798Y009633D01*
X026800Y009650D01*
X026800Y010650D01*
X026798Y010667D01*
X026794Y010684D01*
X026787Y010700D01*
X026777Y010714D01*
X026764Y010727D01*
X026750Y010737D01*
X026734Y010744D01*
X026717Y010748D01*
X026700Y010750D01*
X028700Y011300D02*
X028702Y011324D01*
X028708Y011348D01*
X028717Y011370D01*
X028730Y011390D01*
X028746Y011408D01*
X028765Y011423D01*
X028786Y011436D01*
X028808Y011444D01*
X028832Y011449D01*
X028856Y011450D01*
X028880Y011447D01*
X028903Y011440D01*
X028925Y011430D01*
X028945Y011416D01*
X028962Y011399D01*
X028977Y011380D01*
X028988Y011359D01*
X028996Y011336D01*
X029000Y011312D01*
X029000Y011288D01*
X028996Y011264D01*
X028988Y011241D01*
X028977Y011220D01*
X028962Y011201D01*
X028945Y011184D01*
X028925Y011170D01*
X028903Y011160D01*
X028880Y011153D01*
X028856Y011150D01*
X028832Y011151D01*
X028808Y011156D01*
X028786Y011164D01*
X028765Y011177D01*
X028746Y011192D01*
X028730Y011210D01*
X028717Y011230D01*
X028708Y011252D01*
X028702Y011276D01*
X028700Y011300D01*
X024300Y010650D02*
X024300Y009650D01*
X024298Y009633D01*
X024294Y009616D01*
X024287Y009600D01*
X024277Y009586D01*
X024264Y009573D01*
X024250Y009563D01*
X024234Y009556D01*
X024217Y009552D01*
X024200Y009550D01*
X023600Y009550D01*
X023583Y009552D01*
X023566Y009556D01*
X023550Y009563D01*
X023536Y009573D01*
X023523Y009586D01*
X023513Y009600D01*
X023506Y009616D01*
X023502Y009633D01*
X023500Y009650D01*
X023500Y010650D01*
X023502Y010667D01*
X023506Y010684D01*
X023513Y010700D01*
X023523Y010714D01*
X023536Y010727D01*
X023550Y010737D01*
X023566Y010744D01*
X023583Y010748D01*
X023600Y010750D01*
X024200Y010750D01*
X024217Y010748D01*
X024234Y010744D01*
X024250Y010737D01*
X024264Y010727D01*
X024277Y010714D01*
X024287Y010700D01*
X024294Y010684D01*
X024298Y010667D01*
X024300Y010650D01*
X021800Y010650D02*
X021800Y009650D01*
X021798Y009633D01*
X021794Y009616D01*
X021787Y009600D01*
X021777Y009586D01*
X021764Y009573D01*
X021750Y009563D01*
X021734Y009556D01*
X021717Y009552D01*
X021700Y009550D01*
X021100Y009550D01*
X021083Y009552D01*
X021066Y009556D01*
X021050Y009563D01*
X021036Y009573D01*
X021023Y009586D01*
X021013Y009600D01*
X021006Y009616D01*
X021002Y009633D01*
X021000Y009650D01*
X021000Y010650D01*
X021002Y010667D01*
X021006Y010684D01*
X021013Y010700D01*
X021023Y010714D01*
X021036Y010727D01*
X021050Y010737D01*
X021066Y010744D01*
X021083Y010748D01*
X021100Y010750D01*
X021700Y010750D01*
X021717Y010748D01*
X021734Y010744D01*
X021750Y010737D01*
X021764Y010727D01*
X021777Y010714D01*
X021787Y010700D01*
X021794Y010684D01*
X021798Y010667D01*
X021800Y010650D01*
X019300Y010650D02*
X019300Y009650D01*
X019298Y009633D01*
X019294Y009616D01*
X019287Y009600D01*
X019277Y009586D01*
X019264Y009573D01*
X019250Y009563D01*
X019234Y009556D01*
X019217Y009552D01*
X019200Y009550D01*
X018600Y009550D01*
X018583Y009552D01*
X018566Y009556D01*
X018550Y009563D01*
X018536Y009573D01*
X018523Y009586D01*
X018513Y009600D01*
X018506Y009616D01*
X018502Y009633D01*
X018500Y009650D01*
X018500Y010650D01*
X018502Y010667D01*
X018506Y010684D01*
X018513Y010700D01*
X018523Y010714D01*
X018536Y010727D01*
X018550Y010737D01*
X018566Y010744D01*
X018583Y010748D01*
X018600Y010750D01*
X019200Y010750D01*
X019217Y010748D01*
X019234Y010744D01*
X019250Y010737D01*
X019264Y010727D01*
X019277Y010714D01*
X019287Y010700D01*
X019294Y010684D01*
X019298Y010667D01*
X019300Y010650D01*
X013150Y014650D02*
X010150Y014650D01*
X010150Y016650D01*
X012150Y016650D01*
X012150Y015650D01*
X013150Y015650D01*
X013150Y014650D01*
X013150Y015650D02*
X013150Y016650D01*
X012150Y016650D01*
X017092Y016820D02*
X017092Y016230D01*
X017091Y016229D02*
X017095Y016211D01*
X017101Y016193D01*
X017111Y016176D01*
X017123Y016162D01*
X017138Y016149D01*
X017154Y016140D01*
X017172Y016134D01*
X017191Y016130D01*
X017210Y016130D01*
X017210Y016131D02*
X017840Y016131D01*
X017859Y016131D01*
X017878Y016135D01*
X017896Y016141D01*
X017912Y016151D01*
X017927Y016163D01*
X017939Y016177D01*
X017949Y016194D01*
X017955Y016211D01*
X017959Y016230D01*
X017958Y016230D02*
X017958Y016820D01*
X017959Y016820D02*
X017955Y016839D01*
X017949Y016856D01*
X017939Y016873D01*
X017927Y016887D01*
X017912Y016899D01*
X017896Y016909D01*
X017878Y016915D01*
X017859Y016919D01*
X017840Y016919D01*
X017210Y016919D01*
X017191Y016919D01*
X017172Y016915D01*
X017154Y016909D01*
X017138Y016899D01*
X017123Y016887D01*
X017111Y016873D01*
X017101Y016856D01*
X017095Y016839D01*
X017091Y016820D01*
X027425Y018025D02*
X027427Y018098D01*
X027433Y018171D01*
X027443Y018243D01*
X027457Y018315D01*
X027474Y018386D01*
X027496Y018456D01*
X027521Y018525D01*
X027550Y018592D01*
X027582Y018657D01*
X027618Y018721D01*
X027658Y018783D01*
X027700Y018842D01*
X027746Y018899D01*
X027795Y018953D01*
X027847Y019005D01*
X027901Y019054D01*
X027958Y019100D01*
X028017Y019142D01*
X028079Y019182D01*
X028143Y019218D01*
X028208Y019250D01*
X028275Y019279D01*
X028344Y019304D01*
X028414Y019326D01*
X028485Y019343D01*
X028557Y019357D01*
X028629Y019367D01*
X028702Y019373D01*
X028775Y019375D01*
X028848Y019373D01*
X028921Y019367D01*
X028993Y019357D01*
X029065Y019343D01*
X029136Y019326D01*
X029206Y019304D01*
X029275Y019279D01*
X029342Y019250D01*
X029407Y019218D01*
X029471Y019182D01*
X029533Y019142D01*
X029592Y019100D01*
X029649Y019054D01*
X029703Y019005D01*
X029755Y018953D01*
X029804Y018899D01*
X029850Y018842D01*
X029892Y018783D01*
X029932Y018721D01*
X029968Y018657D01*
X030000Y018592D01*
X030029Y018525D01*
X030054Y018456D01*
X030076Y018386D01*
X030093Y018315D01*
X030107Y018243D01*
X030117Y018171D01*
X030123Y018098D01*
X030125Y018025D01*
X030123Y017952D01*
X030117Y017879D01*
X030107Y017807D01*
X030093Y017735D01*
X030076Y017664D01*
X030054Y017594D01*
X030029Y017525D01*
X030000Y017458D01*
X029968Y017393D01*
X029932Y017329D01*
X029892Y017267D01*
X029850Y017208D01*
X029804Y017151D01*
X029755Y017097D01*
X029703Y017045D01*
X029649Y016996D01*
X029592Y016950D01*
X029533Y016908D01*
X029471Y016868D01*
X029407Y016832D01*
X029342Y016800D01*
X029275Y016771D01*
X029206Y016746D01*
X029136Y016724D01*
X029065Y016707D01*
X028993Y016693D01*
X028921Y016683D01*
X028848Y016677D01*
X028775Y016675D01*
X028702Y016677D01*
X028629Y016683D01*
X028557Y016693D01*
X028485Y016707D01*
X028414Y016724D01*
X028344Y016746D01*
X028275Y016771D01*
X028208Y016800D01*
X028143Y016832D01*
X028079Y016868D01*
X028017Y016908D01*
X027958Y016950D01*
X027901Y016996D01*
X027847Y017045D01*
X027795Y017097D01*
X027746Y017151D01*
X027700Y017208D01*
X027658Y017267D01*
X027618Y017329D01*
X027582Y017393D01*
X027550Y017458D01*
X027521Y017525D01*
X027496Y017594D01*
X027474Y017664D01*
X027457Y017735D01*
X027443Y017807D01*
X027433Y017879D01*
X027427Y017952D01*
X027425Y018025D01*
X027425Y004525D02*
X027427Y004598D01*
X027433Y004671D01*
X027443Y004743D01*
X027457Y004815D01*
X027474Y004886D01*
X027496Y004956D01*
X027521Y005025D01*
X027550Y005092D01*
X027582Y005157D01*
X027618Y005221D01*
X027658Y005283D01*
X027700Y005342D01*
X027746Y005399D01*
X027795Y005453D01*
X027847Y005505D01*
X027901Y005554D01*
X027958Y005600D01*
X028017Y005642D01*
X028079Y005682D01*
X028143Y005718D01*
X028208Y005750D01*
X028275Y005779D01*
X028344Y005804D01*
X028414Y005826D01*
X028485Y005843D01*
X028557Y005857D01*
X028629Y005867D01*
X028702Y005873D01*
X028775Y005875D01*
X028848Y005873D01*
X028921Y005867D01*
X028993Y005857D01*
X029065Y005843D01*
X029136Y005826D01*
X029206Y005804D01*
X029275Y005779D01*
X029342Y005750D01*
X029407Y005718D01*
X029471Y005682D01*
X029533Y005642D01*
X029592Y005600D01*
X029649Y005554D01*
X029703Y005505D01*
X029755Y005453D01*
X029804Y005399D01*
X029850Y005342D01*
X029892Y005283D01*
X029932Y005221D01*
X029968Y005157D01*
X030000Y005092D01*
X030029Y005025D01*
X030054Y004956D01*
X030076Y004886D01*
X030093Y004815D01*
X030107Y004743D01*
X030117Y004671D01*
X030123Y004598D01*
X030125Y004525D01*
X030123Y004452D01*
X030117Y004379D01*
X030107Y004307D01*
X030093Y004235D01*
X030076Y004164D01*
X030054Y004094D01*
X030029Y004025D01*
X030000Y003958D01*
X029968Y003893D01*
X029932Y003829D01*
X029892Y003767D01*
X029850Y003708D01*
X029804Y003651D01*
X029755Y003597D01*
X029703Y003545D01*
X029649Y003496D01*
X029592Y003450D01*
X029533Y003408D01*
X029471Y003368D01*
X029407Y003332D01*
X029342Y003300D01*
X029275Y003271D01*
X029206Y003246D01*
X029136Y003224D01*
X029065Y003207D01*
X028993Y003193D01*
X028921Y003183D01*
X028848Y003177D01*
X028775Y003175D01*
X028702Y003177D01*
X028629Y003183D01*
X028557Y003193D01*
X028485Y003207D01*
X028414Y003224D01*
X028344Y003246D01*
X028275Y003271D01*
X028208Y003300D01*
X028143Y003332D01*
X028079Y003368D01*
X028017Y003408D01*
X027958Y003450D01*
X027901Y003496D01*
X027847Y003545D01*
X027795Y003597D01*
X027746Y003651D01*
X027700Y003708D01*
X027658Y003767D01*
X027618Y003829D01*
X027582Y003893D01*
X027550Y003958D01*
X027521Y004025D01*
X027496Y004094D01*
X027474Y004164D01*
X027457Y004235D01*
X027443Y004307D01*
X027433Y004379D01*
X027427Y004452D01*
X027425Y004525D01*
X003175Y018025D02*
X003177Y018098D01*
X003183Y018171D01*
X003193Y018243D01*
X003207Y018315D01*
X003224Y018386D01*
X003246Y018456D01*
X003271Y018525D01*
X003300Y018592D01*
X003332Y018657D01*
X003368Y018721D01*
X003408Y018783D01*
X003450Y018842D01*
X003496Y018899D01*
X003545Y018953D01*
X003597Y019005D01*
X003651Y019054D01*
X003708Y019100D01*
X003767Y019142D01*
X003829Y019182D01*
X003893Y019218D01*
X003958Y019250D01*
X004025Y019279D01*
X004094Y019304D01*
X004164Y019326D01*
X004235Y019343D01*
X004307Y019357D01*
X004379Y019367D01*
X004452Y019373D01*
X004525Y019375D01*
X004598Y019373D01*
X004671Y019367D01*
X004743Y019357D01*
X004815Y019343D01*
X004886Y019326D01*
X004956Y019304D01*
X005025Y019279D01*
X005092Y019250D01*
X005157Y019218D01*
X005221Y019182D01*
X005283Y019142D01*
X005342Y019100D01*
X005399Y019054D01*
X005453Y019005D01*
X005505Y018953D01*
X005554Y018899D01*
X005600Y018842D01*
X005642Y018783D01*
X005682Y018721D01*
X005718Y018657D01*
X005750Y018592D01*
X005779Y018525D01*
X005804Y018456D01*
X005826Y018386D01*
X005843Y018315D01*
X005857Y018243D01*
X005867Y018171D01*
X005873Y018098D01*
X005875Y018025D01*
X005873Y017952D01*
X005867Y017879D01*
X005857Y017807D01*
X005843Y017735D01*
X005826Y017664D01*
X005804Y017594D01*
X005779Y017525D01*
X005750Y017458D01*
X005718Y017393D01*
X005682Y017329D01*
X005642Y017267D01*
X005600Y017208D01*
X005554Y017151D01*
X005505Y017097D01*
X005453Y017045D01*
X005399Y016996D01*
X005342Y016950D01*
X005283Y016908D01*
X005221Y016868D01*
X005157Y016832D01*
X005092Y016800D01*
X005025Y016771D01*
X004956Y016746D01*
X004886Y016724D01*
X004815Y016707D01*
X004743Y016693D01*
X004671Y016683D01*
X004598Y016677D01*
X004525Y016675D01*
X004452Y016677D01*
X004379Y016683D01*
X004307Y016693D01*
X004235Y016707D01*
X004164Y016724D01*
X004094Y016746D01*
X004025Y016771D01*
X003958Y016800D01*
X003893Y016832D01*
X003829Y016868D01*
X003767Y016908D01*
X003708Y016950D01*
X003651Y016996D01*
X003597Y017045D01*
X003545Y017097D01*
X003496Y017151D01*
X003450Y017208D01*
X003408Y017267D01*
X003368Y017329D01*
X003332Y017393D01*
X003300Y017458D01*
X003271Y017525D01*
X003246Y017594D01*
X003224Y017664D01*
X003207Y017735D01*
X003193Y017807D01*
X003183Y017879D01*
X003177Y017952D01*
X003175Y018025D01*
D11*
X003856Y004525D02*
X003858Y004576D01*
X003864Y004627D01*
X003874Y004677D01*
X003887Y004727D01*
X003905Y004775D01*
X003925Y004822D01*
X003950Y004867D01*
X003978Y004910D01*
X004009Y004951D01*
X004043Y004989D01*
X004080Y005024D01*
X004119Y005057D01*
X004161Y005087D01*
X004205Y005113D01*
X004251Y005135D01*
X004299Y005155D01*
X004348Y005170D01*
X004398Y005182D01*
X004448Y005190D01*
X004499Y005194D01*
X004551Y005194D01*
X004602Y005190D01*
X004652Y005182D01*
X004702Y005170D01*
X004751Y005155D01*
X004799Y005135D01*
X004845Y005113D01*
X004889Y005087D01*
X004931Y005057D01*
X004970Y005024D01*
X005007Y004989D01*
X005041Y004951D01*
X005072Y004910D01*
X005100Y004867D01*
X005125Y004822D01*
X005145Y004775D01*
X005163Y004727D01*
X005176Y004677D01*
X005186Y004627D01*
X005192Y004576D01*
X005194Y004525D01*
X005192Y004474D01*
X005186Y004423D01*
X005176Y004373D01*
X005163Y004323D01*
X005145Y004275D01*
X005125Y004228D01*
X005100Y004183D01*
X005072Y004140D01*
X005041Y004099D01*
X005007Y004061D01*
X004970Y004026D01*
X004931Y003993D01*
X004889Y003963D01*
X004845Y003937D01*
X004799Y003915D01*
X004751Y003895D01*
X004702Y003880D01*
X004652Y003868D01*
X004602Y003860D01*
X004551Y003856D01*
X004499Y003856D01*
X004448Y003860D01*
X004398Y003868D01*
X004348Y003880D01*
X004299Y003895D01*
X004251Y003915D01*
X004205Y003937D01*
X004161Y003963D01*
X004119Y003993D01*
X004080Y004026D01*
X004043Y004061D01*
X004009Y004099D01*
X003978Y004140D01*
X003950Y004183D01*
X003925Y004228D01*
X003905Y004275D01*
X003887Y004323D01*
X003874Y004373D01*
X003864Y004423D01*
X003858Y004474D01*
X003856Y004525D01*
X011400Y004525D02*
X011400Y004025D01*
X011650Y003775D01*
X012150Y003775D01*
X012400Y004025D01*
X012650Y003775D01*
X013150Y003775D01*
X013400Y004025D01*
X013650Y003775D01*
X014150Y003775D01*
X014400Y004025D01*
X014650Y003775D01*
X015150Y003775D01*
X015400Y004025D01*
X015650Y003775D01*
X016150Y003775D01*
X016400Y004025D01*
X016650Y003775D01*
X017150Y003775D01*
X017400Y004025D01*
X017650Y003775D01*
X018150Y003775D01*
X018400Y004025D01*
X018650Y003775D01*
X019150Y003775D01*
X019400Y004025D01*
X019400Y004525D01*
X019150Y004775D01*
X018650Y004775D01*
X018400Y004525D01*
X018150Y004775D01*
X017650Y004775D01*
X017400Y004525D01*
X017150Y004775D01*
X016650Y004775D01*
X016400Y004525D01*
X016150Y004775D01*
X015650Y004775D01*
X015400Y004525D01*
X015150Y004775D01*
X014650Y004775D01*
X014400Y004525D01*
X014150Y004775D01*
X013650Y004775D01*
X013400Y004525D01*
X013150Y004775D01*
X012650Y004775D01*
X012400Y004525D01*
X012150Y004775D01*
X011650Y004775D01*
X011400Y004525D01*
X012691Y007144D02*
X012691Y007656D01*
X014109Y007656D02*
X014109Y007144D01*
X017335Y007506D02*
X017965Y007506D01*
X017965Y007507D02*
X017981Y007512D01*
X017997Y007520D01*
X018011Y007530D01*
X018023Y007542D01*
X018033Y007557D01*
X018040Y007573D01*
X018044Y007590D01*
X018045Y007607D01*
X018043Y007625D01*
X017335Y007507D02*
X017319Y007512D01*
X017303Y007520D01*
X017289Y007530D01*
X017277Y007542D01*
X017267Y007557D01*
X017260Y007573D01*
X017256Y007590D01*
X017255Y007607D01*
X017257Y007625D01*
X017257Y008175D02*
X017255Y008193D01*
X017256Y008210D01*
X017260Y008227D01*
X017267Y008243D01*
X017277Y008258D01*
X017289Y008270D01*
X017303Y008280D01*
X017319Y008288D01*
X017335Y008293D01*
X017335Y008294D02*
X017965Y008294D01*
X017965Y008293D02*
X017981Y008288D01*
X017997Y008280D01*
X018011Y008270D01*
X018023Y008258D01*
X018033Y008243D01*
X018040Y008227D01*
X018044Y008210D01*
X018045Y008193D01*
X018043Y008175D01*
X019835Y008294D02*
X020465Y008294D01*
X020465Y008293D02*
X020481Y008288D01*
X020497Y008280D01*
X020511Y008270D01*
X020523Y008258D01*
X020533Y008243D01*
X020540Y008227D01*
X020544Y008210D01*
X020545Y008193D01*
X020543Y008175D01*
X019835Y008293D02*
X019819Y008288D01*
X019803Y008280D01*
X019789Y008270D01*
X019777Y008258D01*
X019767Y008243D01*
X019760Y008227D01*
X019756Y008210D01*
X019755Y008193D01*
X019757Y008175D01*
X019757Y007625D02*
X019755Y007607D01*
X019756Y007590D01*
X019760Y007573D01*
X019767Y007557D01*
X019777Y007542D01*
X019789Y007530D01*
X019803Y007520D01*
X019819Y007512D01*
X019835Y007507D01*
X019835Y007506D02*
X020465Y007506D01*
X020465Y007507D02*
X020481Y007512D01*
X020497Y007520D01*
X020511Y007530D01*
X020523Y007542D01*
X020533Y007557D01*
X020540Y007573D01*
X020544Y007590D01*
X020545Y007607D01*
X020543Y007625D01*
X022335Y007506D02*
X022965Y007506D01*
X022965Y007507D02*
X022981Y007512D01*
X022997Y007520D01*
X023011Y007530D01*
X023023Y007542D01*
X023033Y007557D01*
X023040Y007573D01*
X023044Y007590D01*
X023045Y007607D01*
X023043Y007625D01*
X022335Y007507D02*
X022319Y007512D01*
X022303Y007520D01*
X022289Y007530D01*
X022277Y007542D01*
X022267Y007557D01*
X022260Y007573D01*
X022256Y007590D01*
X022255Y007607D01*
X022257Y007625D01*
X022257Y008175D02*
X022255Y008193D01*
X022256Y008210D01*
X022260Y008227D01*
X022267Y008243D01*
X022277Y008258D01*
X022289Y008270D01*
X022303Y008280D01*
X022319Y008288D01*
X022335Y008293D01*
X022335Y008294D02*
X022965Y008294D01*
X022965Y008293D02*
X022981Y008288D01*
X022997Y008280D01*
X023011Y008270D01*
X023023Y008258D01*
X023033Y008243D01*
X023040Y008227D01*
X023044Y008210D01*
X023045Y008193D01*
X023043Y008175D01*
X024835Y008294D02*
X025465Y008294D01*
X025465Y008293D02*
X025481Y008288D01*
X025497Y008280D01*
X025511Y008270D01*
X025523Y008258D01*
X025533Y008243D01*
X025540Y008227D01*
X025544Y008210D01*
X025545Y008193D01*
X025543Y008175D01*
X024835Y008293D02*
X024819Y008288D01*
X024803Y008280D01*
X024789Y008270D01*
X024777Y008258D01*
X024767Y008243D01*
X024760Y008227D01*
X024756Y008210D01*
X024755Y008193D01*
X024757Y008175D01*
X024757Y007625D02*
X024755Y007607D01*
X024756Y007590D01*
X024760Y007573D01*
X024767Y007557D01*
X024777Y007542D01*
X024789Y007530D01*
X024803Y007520D01*
X024819Y007512D01*
X024835Y007507D01*
X024835Y007506D02*
X025465Y007506D01*
X025465Y007507D02*
X025481Y007512D01*
X025497Y007520D01*
X025511Y007530D01*
X025523Y007542D01*
X025533Y007557D01*
X025540Y007573D01*
X025544Y007590D01*
X025545Y007607D01*
X025543Y007625D01*
X028106Y004525D02*
X028108Y004576D01*
X028114Y004627D01*
X028124Y004677D01*
X028137Y004727D01*
X028155Y004775D01*
X028175Y004822D01*
X028200Y004867D01*
X028228Y004910D01*
X028259Y004951D01*
X028293Y004989D01*
X028330Y005024D01*
X028369Y005057D01*
X028411Y005087D01*
X028455Y005113D01*
X028501Y005135D01*
X028549Y005155D01*
X028598Y005170D01*
X028648Y005182D01*
X028698Y005190D01*
X028749Y005194D01*
X028801Y005194D01*
X028852Y005190D01*
X028902Y005182D01*
X028952Y005170D01*
X029001Y005155D01*
X029049Y005135D01*
X029095Y005113D01*
X029139Y005087D01*
X029181Y005057D01*
X029220Y005024D01*
X029257Y004989D01*
X029291Y004951D01*
X029322Y004910D01*
X029350Y004867D01*
X029375Y004822D01*
X029395Y004775D01*
X029413Y004727D01*
X029426Y004677D01*
X029436Y004627D01*
X029442Y004576D01*
X029444Y004525D01*
X029442Y004474D01*
X029436Y004423D01*
X029426Y004373D01*
X029413Y004323D01*
X029395Y004275D01*
X029375Y004228D01*
X029350Y004183D01*
X029322Y004140D01*
X029291Y004099D01*
X029257Y004061D01*
X029220Y004026D01*
X029181Y003993D01*
X029139Y003963D01*
X029095Y003937D01*
X029049Y003915D01*
X029001Y003895D01*
X028952Y003880D01*
X028902Y003868D01*
X028852Y003860D01*
X028801Y003856D01*
X028749Y003856D01*
X028698Y003860D01*
X028648Y003868D01*
X028598Y003880D01*
X028549Y003895D01*
X028501Y003915D01*
X028455Y003937D01*
X028411Y003963D01*
X028369Y003993D01*
X028330Y004026D01*
X028293Y004061D01*
X028259Y004099D01*
X028228Y004140D01*
X028200Y004183D01*
X028175Y004228D01*
X028155Y004275D01*
X028137Y004323D01*
X028124Y004373D01*
X028114Y004423D01*
X028108Y004474D01*
X028106Y004525D01*
X024215Y012256D02*
X023585Y012256D01*
X023585Y012257D02*
X023569Y012262D01*
X023553Y012270D01*
X023539Y012280D01*
X023527Y012292D01*
X023517Y012307D01*
X023510Y012323D01*
X023506Y012340D01*
X023505Y012357D01*
X023507Y012375D01*
X023507Y012925D02*
X023505Y012943D01*
X023506Y012960D01*
X023510Y012977D01*
X023517Y012993D01*
X023527Y013008D01*
X023539Y013020D01*
X023553Y013030D01*
X023569Y013038D01*
X023585Y013043D01*
X023585Y013044D02*
X024215Y013044D01*
X024215Y013043D02*
X024231Y013038D01*
X024247Y013030D01*
X024261Y013020D01*
X024273Y013008D01*
X024283Y012993D01*
X024290Y012977D01*
X024294Y012960D01*
X024295Y012943D01*
X024293Y012925D01*
X024293Y012375D02*
X024295Y012357D01*
X024294Y012340D01*
X024290Y012323D01*
X024283Y012307D01*
X024273Y012292D01*
X024261Y012280D01*
X024247Y012270D01*
X024231Y012262D01*
X024215Y012257D01*
X021715Y012256D02*
X021085Y012256D01*
X021085Y012257D02*
X021069Y012262D01*
X021053Y012270D01*
X021039Y012280D01*
X021027Y012292D01*
X021017Y012307D01*
X021010Y012323D01*
X021006Y012340D01*
X021005Y012357D01*
X021007Y012375D01*
X021007Y012925D02*
X021005Y012943D01*
X021006Y012960D01*
X021010Y012977D01*
X021017Y012993D01*
X021027Y013008D01*
X021039Y013020D01*
X021053Y013030D01*
X021069Y013038D01*
X021085Y013043D01*
X021085Y013044D02*
X021715Y013044D01*
X021715Y013043D02*
X021731Y013038D01*
X021747Y013030D01*
X021761Y013020D01*
X021773Y013008D01*
X021783Y012993D01*
X021790Y012977D01*
X021794Y012960D01*
X021795Y012943D01*
X021793Y012925D01*
X021793Y012375D02*
X021795Y012357D01*
X021794Y012340D01*
X021790Y012323D01*
X021783Y012307D01*
X021773Y012292D01*
X021761Y012280D01*
X021747Y012270D01*
X021731Y012262D01*
X021715Y012257D01*
X019215Y012256D02*
X018585Y012256D01*
X018585Y012257D02*
X018569Y012262D01*
X018553Y012270D01*
X018539Y012280D01*
X018527Y012292D01*
X018517Y012307D01*
X018510Y012323D01*
X018506Y012340D01*
X018505Y012357D01*
X018507Y012375D01*
X018507Y012925D02*
X018505Y012943D01*
X018506Y012960D01*
X018510Y012977D01*
X018517Y012993D01*
X018527Y013008D01*
X018539Y013020D01*
X018553Y013030D01*
X018569Y013038D01*
X018585Y013043D01*
X018585Y013044D02*
X019215Y013044D01*
X019215Y013043D02*
X019231Y013038D01*
X019247Y013030D01*
X019261Y013020D01*
X019273Y013008D01*
X019283Y012993D01*
X019290Y012977D01*
X019294Y012960D01*
X019295Y012943D01*
X019293Y012925D01*
X019293Y012375D02*
X019295Y012357D01*
X019294Y012340D01*
X019290Y012323D01*
X019283Y012307D01*
X019273Y012292D01*
X019261Y012280D01*
X019247Y012270D01*
X019231Y012262D01*
X019215Y012257D01*
X016715Y012256D02*
X016085Y012256D01*
X016085Y012257D02*
X016069Y012262D01*
X016053Y012270D01*
X016039Y012280D01*
X016027Y012292D01*
X016017Y012307D01*
X016010Y012323D01*
X016006Y012340D01*
X016005Y012357D01*
X016007Y012375D01*
X016007Y012925D02*
X016005Y012943D01*
X016006Y012960D01*
X016010Y012977D01*
X016017Y012993D01*
X016027Y013008D01*
X016039Y013020D01*
X016053Y013030D01*
X016069Y013038D01*
X016085Y013043D01*
X016085Y013044D02*
X016715Y013044D01*
X016715Y013043D02*
X016731Y013038D01*
X016747Y013030D01*
X016761Y013020D01*
X016773Y013008D01*
X016783Y012993D01*
X016790Y012977D01*
X016794Y012960D01*
X016795Y012943D01*
X016793Y012925D01*
X016793Y012375D02*
X016795Y012357D01*
X016794Y012340D01*
X016790Y012323D01*
X016783Y012307D01*
X016773Y012292D01*
X016761Y012280D01*
X016747Y012270D01*
X016731Y012262D01*
X016715Y012257D01*
X008701Y014111D02*
X008701Y014426D01*
X008465Y014426D01*
X007835Y014426D02*
X007599Y014426D01*
X007599Y014111D01*
X006189Y013599D02*
X005874Y013599D01*
X005874Y013835D01*
X005874Y014465D02*
X005874Y014701D01*
X006189Y014701D01*
X006189Y015099D02*
X005874Y015099D01*
X005874Y015335D01*
X005874Y015965D02*
X005874Y016201D01*
X006189Y016201D01*
X007599Y015926D02*
X007599Y015611D01*
X007599Y015926D02*
X007835Y015926D01*
X008465Y015926D02*
X008701Y015926D01*
X008701Y015611D01*
X004689Y015099D02*
X004374Y015099D01*
X004374Y015335D01*
X004374Y015965D02*
X004374Y016201D01*
X004689Y016201D01*
X004689Y014701D02*
X004374Y014701D01*
X004374Y014465D01*
X004374Y013835D02*
X004374Y013599D01*
X004689Y013599D01*
X003856Y018025D02*
X003858Y018076D01*
X003864Y018127D01*
X003874Y018177D01*
X003887Y018227D01*
X003905Y018275D01*
X003925Y018322D01*
X003950Y018367D01*
X003978Y018410D01*
X004009Y018451D01*
X004043Y018489D01*
X004080Y018524D01*
X004119Y018557D01*
X004161Y018587D01*
X004205Y018613D01*
X004251Y018635D01*
X004299Y018655D01*
X004348Y018670D01*
X004398Y018682D01*
X004448Y018690D01*
X004499Y018694D01*
X004551Y018694D01*
X004602Y018690D01*
X004652Y018682D01*
X004702Y018670D01*
X004751Y018655D01*
X004799Y018635D01*
X004845Y018613D01*
X004889Y018587D01*
X004931Y018557D01*
X004970Y018524D01*
X005007Y018489D01*
X005041Y018451D01*
X005072Y018410D01*
X005100Y018367D01*
X005125Y018322D01*
X005145Y018275D01*
X005163Y018227D01*
X005176Y018177D01*
X005186Y018127D01*
X005192Y018076D01*
X005194Y018025D01*
X005192Y017974D01*
X005186Y017923D01*
X005176Y017873D01*
X005163Y017823D01*
X005145Y017775D01*
X005125Y017728D01*
X005100Y017683D01*
X005072Y017640D01*
X005041Y017599D01*
X005007Y017561D01*
X004970Y017526D01*
X004931Y017493D01*
X004889Y017463D01*
X004845Y017437D01*
X004799Y017415D01*
X004751Y017395D01*
X004702Y017380D01*
X004652Y017368D01*
X004602Y017360D01*
X004551Y017356D01*
X004499Y017356D01*
X004448Y017360D01*
X004398Y017368D01*
X004348Y017380D01*
X004299Y017395D01*
X004251Y017415D01*
X004205Y017437D01*
X004161Y017463D01*
X004119Y017493D01*
X004080Y017526D01*
X004043Y017561D01*
X004009Y017599D01*
X003978Y017640D01*
X003950Y017683D01*
X003925Y017728D01*
X003905Y017775D01*
X003887Y017823D01*
X003874Y017873D01*
X003864Y017923D01*
X003858Y017974D01*
X003856Y018025D01*
X010213Y018888D02*
X011608Y018888D01*
X010213Y018888D02*
X010213Y022510D01*
X013406Y022510D01*
X013406Y022128D01*
X013988Y022128D01*
X013988Y022510D01*
X013406Y022510D01*
X013988Y022510D02*
X014909Y022510D01*
X016391Y022510D01*
X016391Y019729D01*
X014909Y019729D01*
X014909Y022510D01*
X016391Y022510D02*
X018406Y022510D01*
X018406Y022128D01*
X018988Y022128D01*
X018988Y022510D01*
X018406Y022510D01*
X018988Y022510D02*
X021087Y022510D01*
X021087Y018888D01*
X019687Y018888D01*
X012612Y022383D02*
X011684Y022383D01*
X011646Y022459D02*
X012148Y021445D01*
X012650Y022459D01*
X011646Y022459D01*
X011723Y022304D02*
X012573Y022304D01*
X012534Y022226D02*
X011762Y022226D01*
X011801Y022147D02*
X012496Y022147D01*
X012457Y022069D02*
X011839Y022069D01*
X011878Y021990D02*
X012418Y021990D01*
X012379Y021912D02*
X011917Y021912D01*
X011956Y021833D02*
X012340Y021833D01*
X012301Y021755D02*
X011995Y021755D01*
X012034Y021676D02*
X012262Y021676D01*
X012223Y021598D02*
X012073Y021598D01*
X012111Y021519D02*
X012185Y021519D01*
X028106Y018025D02*
X028108Y018076D01*
X028114Y018127D01*
X028124Y018177D01*
X028137Y018227D01*
X028155Y018275D01*
X028175Y018322D01*
X028200Y018367D01*
X028228Y018410D01*
X028259Y018451D01*
X028293Y018489D01*
X028330Y018524D01*
X028369Y018557D01*
X028411Y018587D01*
X028455Y018613D01*
X028501Y018635D01*
X028549Y018655D01*
X028598Y018670D01*
X028648Y018682D01*
X028698Y018690D01*
X028749Y018694D01*
X028801Y018694D01*
X028852Y018690D01*
X028902Y018682D01*
X028952Y018670D01*
X029001Y018655D01*
X029049Y018635D01*
X029095Y018613D01*
X029139Y018587D01*
X029181Y018557D01*
X029220Y018524D01*
X029257Y018489D01*
X029291Y018451D01*
X029322Y018410D01*
X029350Y018367D01*
X029375Y018322D01*
X029395Y018275D01*
X029413Y018227D01*
X029426Y018177D01*
X029436Y018127D01*
X029442Y018076D01*
X029444Y018025D01*
X029442Y017974D01*
X029436Y017923D01*
X029426Y017873D01*
X029413Y017823D01*
X029395Y017775D01*
X029375Y017728D01*
X029350Y017683D01*
X029322Y017640D01*
X029291Y017599D01*
X029257Y017561D01*
X029220Y017526D01*
X029181Y017493D01*
X029139Y017463D01*
X029095Y017437D01*
X029049Y017415D01*
X029001Y017395D01*
X028952Y017380D01*
X028902Y017368D01*
X028852Y017360D01*
X028801Y017356D01*
X028749Y017356D01*
X028698Y017360D01*
X028648Y017368D01*
X028598Y017380D01*
X028549Y017395D01*
X028501Y017415D01*
X028455Y017437D01*
X028411Y017463D01*
X028369Y017493D01*
X028330Y017526D01*
X028293Y017561D01*
X028259Y017599D01*
X028228Y017640D01*
X028200Y017683D01*
X028175Y017728D01*
X028155Y017775D01*
X028137Y017823D01*
X028124Y017873D01*
X028114Y017923D01*
X028108Y017974D01*
X028106Y018025D01*
D12*
X024294Y014867D02*
X024294Y014433D01*
X023506Y014433D02*
X023506Y014867D01*
X021794Y014867D02*
X021794Y014433D01*
X021006Y014433D02*
X021006Y014867D01*
X019294Y014867D02*
X019294Y014433D01*
X018506Y014433D02*
X018506Y014867D01*
X016794Y014867D02*
X016794Y014433D01*
X016006Y014433D02*
X016006Y014867D01*
X017256Y010117D02*
X017256Y009683D01*
X018044Y009683D02*
X018044Y010117D01*
X019756Y010117D02*
X019756Y009683D01*
X020544Y009683D02*
X020544Y010117D01*
X022256Y010117D02*
X022256Y009683D01*
X023044Y009683D02*
X023044Y010117D01*
X024756Y010117D02*
X024756Y009683D01*
X025544Y009683D02*
X025544Y010117D01*
X026756Y008367D02*
X026756Y007933D01*
X027544Y007933D02*
X027544Y008367D01*
X028756Y008367D02*
X028756Y007933D01*
X029544Y007933D02*
X029544Y008367D01*
D13*
X010579Y006094D02*
X010579Y006094D01*
X010580Y006094D02*
X010579Y006107D01*
X010574Y006120D01*
X010567Y006132D01*
X010557Y006142D01*
X010545Y006149D01*
X010532Y006154D01*
X010519Y006155D01*
X010518Y006154D02*
X010149Y006154D01*
X010149Y004074D01*
X010518Y004074D01*
X010519Y004073D02*
X010532Y004072D01*
X010545Y004067D01*
X010556Y004060D01*
X010566Y004050D01*
X010573Y004039D01*
X010578Y004026D01*
X010579Y004013D01*
X010579Y004013D01*
X010577Y003998D01*
X010572Y003984D01*
X010565Y003972D01*
X010554Y003961D01*
X010542Y003954D01*
X010528Y003949D01*
X010513Y003947D01*
X010452Y003947D01*
X010452Y003946D02*
X010435Y003944D01*
X010418Y003939D01*
X010403Y003931D01*
X010390Y003920D01*
X010379Y003907D01*
X010371Y003892D01*
X010366Y003875D01*
X010364Y003858D01*
X010364Y003847D01*
X010366Y003830D01*
X010371Y003813D01*
X010379Y003798D01*
X010390Y003785D01*
X010403Y003774D01*
X010418Y003766D01*
X010435Y003761D01*
X010452Y003759D01*
X010518Y003759D01*
X010532Y003757D01*
X010544Y003753D01*
X010556Y003746D01*
X010566Y003736D01*
X010573Y003724D01*
X010577Y003712D01*
X010579Y003698D01*
X010577Y003683D01*
X010572Y003669D01*
X010565Y003657D01*
X010554Y003646D01*
X010542Y003639D01*
X010528Y003634D01*
X010513Y003632D01*
X010171Y003632D01*
X010149Y004074D02*
X010149Y002650D01*
X007152Y002650D01*
X007152Y006154D01*
X007648Y006154D01*
X007670Y006152D01*
X007692Y006147D01*
X007713Y006138D01*
X007732Y006127D01*
X007749Y006112D01*
X007764Y006095D01*
X007775Y006076D01*
X007784Y006055D01*
X007789Y006033D01*
X007791Y006011D01*
X007792Y006011D02*
X007792Y005801D01*
X007152Y005713D02*
X006782Y005713D01*
X006782Y005712D02*
X006769Y005714D01*
X006756Y005718D01*
X006744Y005725D01*
X006734Y005735D01*
X006727Y005747D01*
X006722Y005760D01*
X006721Y005773D01*
X006721Y005774D02*
X006721Y005774D01*
X006723Y005789D01*
X006728Y005803D01*
X006735Y005815D01*
X006746Y005826D01*
X006758Y005833D01*
X006772Y005838D01*
X006787Y005840D01*
X006848Y005840D01*
X006865Y005842D01*
X006882Y005847D01*
X006897Y005855D01*
X006910Y005866D01*
X006921Y005879D01*
X006929Y005894D01*
X006934Y005911D01*
X006936Y005928D01*
X006936Y005939D01*
X006934Y005956D01*
X006929Y005973D01*
X006921Y005988D01*
X006910Y006001D01*
X006897Y006012D01*
X006882Y006020D01*
X006865Y006025D01*
X006848Y006027D01*
X006782Y006027D01*
X006768Y006029D01*
X006756Y006033D01*
X006744Y006040D01*
X006734Y006050D01*
X006727Y006062D01*
X006723Y006074D01*
X006721Y006088D01*
X006723Y006103D01*
X006728Y006117D01*
X006735Y006129D01*
X006746Y006140D01*
X006758Y006147D01*
X006772Y006152D01*
X006787Y006154D01*
X007157Y006154D01*
X008355Y004896D02*
X008934Y004896D01*
X008957Y004894D01*
X008978Y004889D01*
X008999Y004880D01*
X009019Y004868D01*
X009036Y004854D01*
X009050Y004837D01*
X009062Y004817D01*
X009071Y004796D01*
X009076Y004775D01*
X009078Y004752D01*
X009161Y003179D01*
X009160Y003179D02*
X009158Y003166D01*
X009152Y003153D01*
X009143Y003142D01*
X009132Y003134D01*
X009119Y003129D01*
X009105Y003127D01*
X009091Y003129D01*
X009078Y003134D01*
X009067Y003142D01*
X009058Y003153D01*
X009052Y003166D01*
X009050Y003179D01*
X008995Y004377D01*
X008995Y004405D01*
X008993Y004429D01*
X008988Y004452D01*
X008980Y004474D01*
X008969Y004495D01*
X008954Y004514D01*
X008938Y004530D01*
X008919Y004545D01*
X008898Y004556D01*
X008876Y004564D01*
X008853Y004569D01*
X008829Y004571D01*
X008829Y004570D02*
X008482Y004570D01*
X008458Y004568D01*
X008434Y004563D01*
X008411Y004555D01*
X008390Y004543D01*
X008370Y004528D01*
X008353Y004511D01*
X008338Y004491D01*
X008326Y004470D01*
X008318Y004447D01*
X008313Y004423D01*
X008311Y004399D01*
X008244Y003174D01*
X008245Y003174D02*
X008242Y003161D01*
X008236Y003148D01*
X008227Y003138D01*
X008216Y003130D01*
X008203Y003125D01*
X008189Y003124D01*
X008176Y003127D01*
X008163Y003133D01*
X008153Y003142D01*
X008145Y003153D01*
X008140Y003166D01*
X008139Y003180D01*
X008140Y003179D02*
X008222Y004764D01*
X008222Y004763D02*
X008224Y004784D01*
X008229Y004804D01*
X008237Y004823D01*
X008247Y004841D01*
X008261Y004857D01*
X008277Y004871D01*
X008295Y004881D01*
X008314Y004889D01*
X008334Y004894D01*
X008355Y004896D01*
X007985Y004719D02*
X007919Y003273D01*
X007919Y003257D01*
X007917Y003235D01*
X007912Y003214D01*
X007904Y003194D01*
X007893Y003176D01*
X007879Y003159D01*
X007862Y003145D01*
X007844Y003134D01*
X007824Y003126D01*
X007803Y003121D01*
X007781Y003119D01*
X007174Y003119D01*
X007588Y003395D02*
X007499Y004736D01*
X007497Y004748D01*
X007491Y004759D01*
X007483Y004768D01*
X007473Y004775D01*
X007462Y004779D01*
X007450Y004780D01*
X007174Y004780D01*
X007869Y004725D02*
X007781Y003389D01*
X007781Y003390D02*
X007778Y003371D01*
X007771Y003354D01*
X007762Y003338D01*
X007749Y003324D01*
X007734Y003313D01*
X007718Y003305D01*
X007700Y003300D01*
X007681Y003299D01*
X007663Y003301D01*
X007645Y003307D01*
X007629Y003316D01*
X007615Y003328D01*
X007603Y003343D01*
X007594Y003359D01*
X007589Y003377D01*
X007587Y003395D01*
X007152Y003632D02*
X006782Y003632D01*
X006782Y003633D02*
X006769Y003634D01*
X006756Y003639D01*
X006745Y003646D01*
X006735Y003656D01*
X006728Y003667D01*
X006723Y003680D01*
X006722Y003693D01*
X006721Y003693D02*
X006721Y003693D01*
X006723Y003708D01*
X006728Y003722D01*
X006735Y003734D01*
X006746Y003745D01*
X006758Y003752D01*
X006772Y003757D01*
X006787Y003759D01*
X006848Y003759D01*
X006865Y003761D01*
X006882Y003766D01*
X006897Y003774D01*
X006910Y003785D01*
X006921Y003798D01*
X006929Y003813D01*
X006934Y003830D01*
X006936Y003847D01*
X006936Y003858D01*
X006934Y003875D01*
X006929Y003892D01*
X006921Y003907D01*
X006910Y003920D01*
X006897Y003931D01*
X006882Y003939D01*
X006865Y003944D01*
X006848Y003946D01*
X006848Y003947D02*
X006782Y003947D01*
X006782Y003946D02*
X006768Y003948D01*
X006756Y003952D01*
X006744Y003959D01*
X006734Y003969D01*
X006727Y003981D01*
X006723Y003993D01*
X006721Y004007D01*
X006723Y004022D01*
X006728Y004036D01*
X006735Y004048D01*
X006746Y004059D01*
X006758Y004066D01*
X006772Y004071D01*
X006787Y004073D01*
X006787Y004074D02*
X007130Y004074D01*
X007869Y004725D02*
X007871Y004739D01*
X007877Y004751D01*
X007886Y004763D01*
X007896Y004771D01*
X007909Y004777D01*
X007923Y004780D01*
X007937Y004779D01*
X007950Y004775D01*
X007962Y004768D01*
X007972Y004758D01*
X007980Y004747D01*
X007984Y004733D01*
X007985Y004719D01*
X009315Y004719D02*
X009381Y003273D01*
X009381Y003257D01*
X009383Y003235D01*
X009388Y003214D01*
X009396Y003194D01*
X009407Y003176D01*
X009421Y003159D01*
X009438Y003145D01*
X009456Y003134D01*
X009476Y003126D01*
X009497Y003121D01*
X009519Y003119D01*
X010127Y003119D01*
X009713Y003395D02*
X009801Y004736D01*
X009803Y004748D01*
X009809Y004759D01*
X009817Y004768D01*
X009827Y004775D01*
X009838Y004779D01*
X009850Y004780D01*
X009851Y004780D02*
X010127Y004780D01*
X009431Y004725D02*
X009519Y003389D01*
X009519Y003390D02*
X009522Y003371D01*
X009529Y003354D01*
X009538Y003338D01*
X009551Y003324D01*
X009566Y003313D01*
X009582Y003305D01*
X009600Y003300D01*
X009619Y003299D01*
X009637Y003301D01*
X009655Y003307D01*
X009671Y003316D01*
X009685Y003328D01*
X009697Y003343D01*
X009706Y003359D01*
X009711Y003377D01*
X009713Y003395D01*
X009431Y004725D02*
X009429Y004739D01*
X009423Y004751D01*
X009414Y004763D01*
X009404Y004771D01*
X009391Y004777D01*
X009377Y004780D01*
X009363Y004779D01*
X009350Y004775D01*
X009338Y004768D01*
X009328Y004758D01*
X009320Y004747D01*
X009316Y004733D01*
X009315Y004719D01*
X009508Y005785D02*
X009508Y006016D01*
X009510Y006038D01*
X009515Y006059D01*
X009523Y006079D01*
X009534Y006097D01*
X009548Y006114D01*
X009565Y006128D01*
X009583Y006139D01*
X009603Y006147D01*
X009624Y006152D01*
X009646Y006154D01*
X010149Y006154D01*
X010364Y005939D02*
X010364Y005928D01*
X010366Y005911D01*
X010371Y005894D01*
X010379Y005879D01*
X010390Y005866D01*
X010403Y005855D01*
X010418Y005847D01*
X010435Y005842D01*
X010452Y005840D01*
X010518Y005840D01*
X010532Y005838D01*
X010544Y005834D01*
X010556Y005827D01*
X010566Y005817D01*
X010573Y005805D01*
X010577Y005793D01*
X010579Y005779D01*
X010577Y005764D01*
X010572Y005750D01*
X010565Y005738D01*
X010554Y005727D01*
X010542Y005720D01*
X010528Y005715D01*
X010513Y005713D01*
X010171Y005713D01*
X010364Y005939D02*
X010366Y005956D01*
X010371Y005973D01*
X010379Y005988D01*
X010390Y006001D01*
X010403Y006012D01*
X010418Y006020D01*
X010435Y006025D01*
X010452Y006027D01*
X010513Y006027D01*
X010513Y006028D02*
X010528Y006030D01*
X010542Y006035D01*
X010554Y006042D01*
X010565Y006053D01*
X010572Y006065D01*
X010577Y006079D01*
X010579Y006094D01*
X006615Y007685D02*
X006457Y007685D01*
X006615Y007685D02*
X006615Y007843D01*
X004843Y007685D02*
X004685Y007685D01*
X004685Y007843D01*
X004685Y009457D02*
X004685Y009615D01*
X004843Y009615D01*
X006457Y009615D02*
X006615Y009615D01*
X006615Y009457D01*
D14*
X004794Y009506D03*
D15*
X012400Y017150D02*
X012650Y016900D01*
X012900Y017150D01*
X012400Y017150D01*
X012417Y017133D02*
X012883Y017133D01*
X012859Y017109D02*
X012441Y017109D01*
X012464Y017086D02*
X012836Y017086D01*
X012812Y017062D02*
X012488Y017062D01*
X012511Y017039D02*
X012789Y017039D01*
X012765Y017015D02*
X012535Y017015D01*
X012558Y016992D02*
X012742Y016992D01*
X012718Y016968D02*
X012582Y016968D01*
X012605Y016945D02*
X012695Y016945D01*
X012672Y016922D02*
X012628Y016922D01*
D16*
X027150Y011530D02*
X029150Y011530D01*
D17*
X014466Y016289D03*
X014466Y016761D03*
D18*
X014466Y016525D03*
M02*
