G75*
G70*
%OFA0B0*%
%FSLAX24Y24*%
%IPPOS*%
%LPD*%
%AMOC8*
5,1,8,0,0,1.08239X$1,22.5*
%
%ADD10C,0.0000*%
%ADD11R,0.0669X0.0669*%
%ADD12C,0.0089*%
%ADD13R,0.0591X0.0512*%
%ADD14R,0.0512X0.0591*%
%ADD15OC8,0.0520*%
%ADD16R,0.0500X0.0250*%
%ADD17OC8,0.0660*%
%ADD18R,0.1575X0.0630*%
%ADD19R,0.1063X0.0630*%
%ADD20C,0.0600*%
%ADD21C,0.0594*%
%ADD22R,0.0250X0.0500*%
%ADD23C,0.0300*%
%ADD24R,0.0472X0.0472*%
%ADD25C,0.0160*%
%ADD26OC8,0.0278*%
%ADD27C,0.0080*%
%ADD28C,0.0100*%
%ADD29C,0.0300*%
D10*
X001700Y000325D02*
X025942Y000325D01*
X026014Y000327D01*
X026086Y000333D01*
X026157Y000342D01*
X026228Y000355D01*
X026298Y000372D01*
X026367Y000392D01*
X026435Y000416D01*
X026501Y000444D01*
X026566Y000475D01*
X026630Y000509D01*
X026691Y000547D01*
X026750Y000588D01*
X026807Y000631D01*
X026862Y000678D01*
X026914Y000728D01*
X026964Y000780D01*
X027011Y000835D01*
X027054Y000892D01*
X027095Y000951D01*
X027133Y001013D01*
X027167Y001076D01*
X027198Y001141D01*
X027226Y001207D01*
X027250Y001275D01*
X027270Y001344D01*
X027287Y001414D01*
X027300Y001485D01*
X027309Y001556D01*
X027315Y001628D01*
X027317Y001700D01*
X027317Y015195D01*
X025320Y015200D02*
X025322Y015250D01*
X025328Y015300D01*
X025338Y015349D01*
X025352Y015397D01*
X025369Y015444D01*
X025390Y015489D01*
X025415Y015533D01*
X025443Y015574D01*
X025475Y015613D01*
X025509Y015650D01*
X025546Y015684D01*
X025586Y015714D01*
X025628Y015741D01*
X025672Y015765D01*
X025718Y015786D01*
X025765Y015802D01*
X025813Y015815D01*
X025863Y015824D01*
X025912Y015829D01*
X025963Y015830D01*
X026013Y015827D01*
X026062Y015820D01*
X026111Y015809D01*
X026159Y015794D01*
X026205Y015776D01*
X026250Y015754D01*
X026293Y015728D01*
X026334Y015699D01*
X026373Y015667D01*
X026409Y015632D01*
X026441Y015594D01*
X026471Y015554D01*
X026498Y015511D01*
X026521Y015467D01*
X026540Y015421D01*
X026556Y015373D01*
X026568Y015324D01*
X026576Y015275D01*
X026580Y015225D01*
X026580Y015175D01*
X026576Y015125D01*
X026568Y015076D01*
X026556Y015027D01*
X026540Y014979D01*
X026521Y014933D01*
X026498Y014889D01*
X026471Y014846D01*
X026441Y014806D01*
X026409Y014768D01*
X026373Y014733D01*
X026334Y014701D01*
X026293Y014672D01*
X026250Y014646D01*
X026205Y014624D01*
X026159Y014606D01*
X026111Y014591D01*
X026062Y014580D01*
X026013Y014573D01*
X025963Y014570D01*
X025912Y014571D01*
X025863Y014576D01*
X025813Y014585D01*
X025765Y014598D01*
X025718Y014614D01*
X025672Y014635D01*
X025628Y014659D01*
X025586Y014686D01*
X025546Y014716D01*
X025509Y014750D01*
X025475Y014787D01*
X025443Y014826D01*
X025415Y014867D01*
X025390Y014911D01*
X025369Y014956D01*
X025352Y015003D01*
X025338Y015051D01*
X025328Y015100D01*
X025322Y015150D01*
X025320Y015200D01*
X025942Y016570D02*
X026014Y016568D01*
X026086Y016562D01*
X026157Y016553D01*
X026228Y016540D01*
X026298Y016523D01*
X026367Y016503D01*
X026435Y016479D01*
X026501Y016451D01*
X026566Y016420D01*
X026630Y016386D01*
X026691Y016348D01*
X026750Y016307D01*
X026807Y016264D01*
X026862Y016217D01*
X026914Y016167D01*
X026964Y016115D01*
X027011Y016060D01*
X027054Y016003D01*
X027095Y015944D01*
X027133Y015883D01*
X027167Y015819D01*
X027198Y015754D01*
X027226Y015688D01*
X027250Y015620D01*
X027270Y015551D01*
X027287Y015481D01*
X027300Y015410D01*
X027309Y015339D01*
X027315Y015267D01*
X027317Y015195D01*
X025942Y016570D02*
X001700Y016570D01*
X001070Y015200D02*
X001072Y015250D01*
X001078Y015300D01*
X001088Y015349D01*
X001102Y015397D01*
X001119Y015444D01*
X001140Y015489D01*
X001165Y015533D01*
X001193Y015574D01*
X001225Y015613D01*
X001259Y015650D01*
X001296Y015684D01*
X001336Y015714D01*
X001378Y015741D01*
X001422Y015765D01*
X001468Y015786D01*
X001515Y015802D01*
X001563Y015815D01*
X001613Y015824D01*
X001662Y015829D01*
X001713Y015830D01*
X001763Y015827D01*
X001812Y015820D01*
X001861Y015809D01*
X001909Y015794D01*
X001955Y015776D01*
X002000Y015754D01*
X002043Y015728D01*
X002084Y015699D01*
X002123Y015667D01*
X002159Y015632D01*
X002191Y015594D01*
X002221Y015554D01*
X002248Y015511D01*
X002271Y015467D01*
X002290Y015421D01*
X002306Y015373D01*
X002318Y015324D01*
X002326Y015275D01*
X002330Y015225D01*
X002330Y015175D01*
X002326Y015125D01*
X002318Y015076D01*
X002306Y015027D01*
X002290Y014979D01*
X002271Y014933D01*
X002248Y014889D01*
X002221Y014846D01*
X002191Y014806D01*
X002159Y014768D01*
X002123Y014733D01*
X002084Y014701D01*
X002043Y014672D01*
X002000Y014646D01*
X001955Y014624D01*
X001909Y014606D01*
X001861Y014591D01*
X001812Y014580D01*
X001763Y014573D01*
X001713Y014570D01*
X001662Y014571D01*
X001613Y014576D01*
X001563Y014585D01*
X001515Y014598D01*
X001468Y014614D01*
X001422Y014635D01*
X001378Y014659D01*
X001336Y014686D01*
X001296Y014716D01*
X001259Y014750D01*
X001225Y014787D01*
X001193Y014826D01*
X001165Y014867D01*
X001140Y014911D01*
X001119Y014956D01*
X001102Y015003D01*
X001088Y015051D01*
X001078Y015100D01*
X001072Y015150D01*
X001070Y015200D01*
X000325Y015195D02*
X000325Y001700D01*
X001070Y001700D02*
X001072Y001750D01*
X001078Y001800D01*
X001088Y001849D01*
X001102Y001897D01*
X001119Y001944D01*
X001140Y001989D01*
X001165Y002033D01*
X001193Y002074D01*
X001225Y002113D01*
X001259Y002150D01*
X001296Y002184D01*
X001336Y002214D01*
X001378Y002241D01*
X001422Y002265D01*
X001468Y002286D01*
X001515Y002302D01*
X001563Y002315D01*
X001613Y002324D01*
X001662Y002329D01*
X001713Y002330D01*
X001763Y002327D01*
X001812Y002320D01*
X001861Y002309D01*
X001909Y002294D01*
X001955Y002276D01*
X002000Y002254D01*
X002043Y002228D01*
X002084Y002199D01*
X002123Y002167D01*
X002159Y002132D01*
X002191Y002094D01*
X002221Y002054D01*
X002248Y002011D01*
X002271Y001967D01*
X002290Y001921D01*
X002306Y001873D01*
X002318Y001824D01*
X002326Y001775D01*
X002330Y001725D01*
X002330Y001675D01*
X002326Y001625D01*
X002318Y001576D01*
X002306Y001527D01*
X002290Y001479D01*
X002271Y001433D01*
X002248Y001389D01*
X002221Y001346D01*
X002191Y001306D01*
X002159Y001268D01*
X002123Y001233D01*
X002084Y001201D01*
X002043Y001172D01*
X002000Y001146D01*
X001955Y001124D01*
X001909Y001106D01*
X001861Y001091D01*
X001812Y001080D01*
X001763Y001073D01*
X001713Y001070D01*
X001662Y001071D01*
X001613Y001076D01*
X001563Y001085D01*
X001515Y001098D01*
X001468Y001114D01*
X001422Y001135D01*
X001378Y001159D01*
X001336Y001186D01*
X001296Y001216D01*
X001259Y001250D01*
X001225Y001287D01*
X001193Y001326D01*
X001165Y001367D01*
X001140Y001411D01*
X001119Y001456D01*
X001102Y001503D01*
X001088Y001551D01*
X001078Y001600D01*
X001072Y001650D01*
X001070Y001700D01*
X000325Y001700D02*
X000327Y001628D01*
X000333Y001556D01*
X000342Y001485D01*
X000355Y001414D01*
X000372Y001344D01*
X000392Y001275D01*
X000416Y001207D01*
X000444Y001141D01*
X000475Y001076D01*
X000509Y001013D01*
X000547Y000951D01*
X000588Y000892D01*
X000631Y000835D01*
X000678Y000780D01*
X000728Y000728D01*
X000780Y000678D01*
X000835Y000631D01*
X000892Y000588D01*
X000951Y000547D01*
X001012Y000509D01*
X001076Y000475D01*
X001141Y000444D01*
X001207Y000416D01*
X001275Y000392D01*
X001344Y000372D01*
X001414Y000355D01*
X001485Y000342D01*
X001556Y000333D01*
X001628Y000327D01*
X001700Y000325D01*
X025320Y001700D02*
X025322Y001750D01*
X025328Y001800D01*
X025338Y001849D01*
X025352Y001897D01*
X025369Y001944D01*
X025390Y001989D01*
X025415Y002033D01*
X025443Y002074D01*
X025475Y002113D01*
X025509Y002150D01*
X025546Y002184D01*
X025586Y002214D01*
X025628Y002241D01*
X025672Y002265D01*
X025718Y002286D01*
X025765Y002302D01*
X025813Y002315D01*
X025863Y002324D01*
X025912Y002329D01*
X025963Y002330D01*
X026013Y002327D01*
X026062Y002320D01*
X026111Y002309D01*
X026159Y002294D01*
X026205Y002276D01*
X026250Y002254D01*
X026293Y002228D01*
X026334Y002199D01*
X026373Y002167D01*
X026409Y002132D01*
X026441Y002094D01*
X026471Y002054D01*
X026498Y002011D01*
X026521Y001967D01*
X026540Y001921D01*
X026556Y001873D01*
X026568Y001824D01*
X026576Y001775D01*
X026580Y001725D01*
X026580Y001675D01*
X026576Y001625D01*
X026568Y001576D01*
X026556Y001527D01*
X026540Y001479D01*
X026521Y001433D01*
X026498Y001389D01*
X026471Y001346D01*
X026441Y001306D01*
X026409Y001268D01*
X026373Y001233D01*
X026334Y001201D01*
X026293Y001172D01*
X026250Y001146D01*
X026205Y001124D01*
X026159Y001106D01*
X026111Y001091D01*
X026062Y001080D01*
X026013Y001073D01*
X025963Y001070D01*
X025912Y001071D01*
X025863Y001076D01*
X025813Y001085D01*
X025765Y001098D01*
X025718Y001114D01*
X025672Y001135D01*
X025628Y001159D01*
X025586Y001186D01*
X025546Y001216D01*
X025509Y001250D01*
X025475Y001287D01*
X025443Y001326D01*
X025415Y001367D01*
X025390Y001411D01*
X025369Y001456D01*
X025352Y001503D01*
X025338Y001551D01*
X025328Y001600D01*
X025322Y001650D01*
X025320Y001700D01*
X001700Y016570D02*
X001628Y016568D01*
X001556Y016562D01*
X001485Y016553D01*
X001414Y016540D01*
X001344Y016523D01*
X001275Y016503D01*
X001207Y016479D01*
X001141Y016451D01*
X001076Y016420D01*
X001012Y016386D01*
X000951Y016348D01*
X000892Y016307D01*
X000835Y016264D01*
X000780Y016217D01*
X000728Y016167D01*
X000678Y016115D01*
X000631Y016060D01*
X000588Y016003D01*
X000547Y015944D01*
X000509Y015883D01*
X000475Y015819D01*
X000444Y015754D01*
X000416Y015688D01*
X000392Y015620D01*
X000372Y015551D01*
X000355Y015481D01*
X000342Y015410D01*
X000333Y015339D01*
X000327Y015267D01*
X000325Y015195D01*
D11*
X007575Y013325D03*
X009825Y005575D03*
D12*
X009367Y005462D02*
X009121Y005462D01*
X009121Y005492D01*
X009367Y005492D01*
X009367Y005462D01*
X009367Y005265D02*
X009121Y005265D01*
X009121Y005295D01*
X009367Y005295D01*
X009367Y005265D01*
X009545Y005117D02*
X009545Y004871D01*
X009515Y004871D01*
X009515Y005117D01*
X009545Y005117D01*
X009545Y004959D02*
X009515Y004959D01*
X009515Y005047D02*
X009545Y005047D01*
X009742Y005117D02*
X009742Y004871D01*
X009712Y004871D01*
X009712Y005117D01*
X009742Y005117D01*
X009742Y004959D02*
X009712Y004959D01*
X009712Y005047D02*
X009742Y005047D01*
X009938Y005117D02*
X009938Y004871D01*
X009908Y004871D01*
X009908Y005117D01*
X009938Y005117D01*
X009938Y004959D02*
X009908Y004959D01*
X009908Y005047D02*
X009938Y005047D01*
X010135Y005117D02*
X010135Y004871D01*
X010105Y004871D01*
X010105Y005117D01*
X010135Y005117D01*
X010135Y004959D02*
X010105Y004959D01*
X010105Y005047D02*
X010135Y005047D01*
X010283Y005295D02*
X010529Y005295D01*
X010529Y005265D01*
X010283Y005265D01*
X010283Y005295D01*
X010283Y005492D02*
X010529Y005492D01*
X010529Y005462D01*
X010283Y005462D01*
X010283Y005492D01*
X010283Y005688D02*
X010529Y005688D01*
X010529Y005658D01*
X010283Y005658D01*
X010283Y005688D01*
X010283Y005885D02*
X010529Y005885D01*
X010529Y005855D01*
X010283Y005855D01*
X010283Y005885D01*
X010105Y006033D02*
X010105Y006279D01*
X010135Y006279D01*
X010135Y006033D01*
X010105Y006033D01*
X010105Y006121D02*
X010135Y006121D01*
X010135Y006209D02*
X010105Y006209D01*
X009908Y006279D02*
X009908Y006033D01*
X009908Y006279D02*
X009938Y006279D01*
X009938Y006033D01*
X009908Y006033D01*
X009908Y006121D02*
X009938Y006121D01*
X009938Y006209D02*
X009908Y006209D01*
X009712Y006279D02*
X009712Y006033D01*
X009712Y006279D02*
X009742Y006279D01*
X009742Y006033D01*
X009712Y006033D01*
X009712Y006121D02*
X009742Y006121D01*
X009742Y006209D02*
X009712Y006209D01*
X009515Y006279D02*
X009515Y006033D01*
X009515Y006279D02*
X009545Y006279D01*
X009545Y006033D01*
X009515Y006033D01*
X009515Y006121D02*
X009545Y006121D01*
X009545Y006209D02*
X009515Y006209D01*
X009367Y005855D02*
X009121Y005855D01*
X009121Y005885D01*
X009367Y005885D01*
X009367Y005855D01*
X009367Y005658D02*
X009121Y005658D01*
X009121Y005688D01*
X009367Y005688D01*
X009367Y005658D01*
X007885Y012621D02*
X007885Y012867D01*
X007885Y012621D02*
X007855Y012621D01*
X007855Y012867D01*
X007885Y012867D01*
X007885Y012709D02*
X007855Y012709D01*
X007855Y012797D02*
X007885Y012797D01*
X007688Y012867D02*
X007688Y012621D01*
X007658Y012621D01*
X007658Y012867D01*
X007688Y012867D01*
X007688Y012709D02*
X007658Y012709D01*
X007658Y012797D02*
X007688Y012797D01*
X007492Y012867D02*
X007492Y012621D01*
X007462Y012621D01*
X007462Y012867D01*
X007492Y012867D01*
X007492Y012709D02*
X007462Y012709D01*
X007462Y012797D02*
X007492Y012797D01*
X007295Y012867D02*
X007295Y012621D01*
X007265Y012621D01*
X007265Y012867D01*
X007295Y012867D01*
X007295Y012709D02*
X007265Y012709D01*
X007265Y012797D02*
X007295Y012797D01*
X007117Y013015D02*
X006871Y013015D01*
X006871Y013045D01*
X007117Y013045D01*
X007117Y013015D01*
X007117Y013212D02*
X006871Y013212D01*
X006871Y013242D01*
X007117Y013242D01*
X007117Y013212D01*
X007117Y013408D02*
X006871Y013408D01*
X006871Y013438D01*
X007117Y013438D01*
X007117Y013408D01*
X007117Y013605D02*
X006871Y013605D01*
X006871Y013635D01*
X007117Y013635D01*
X007117Y013605D01*
X007265Y013783D02*
X007265Y014029D01*
X007295Y014029D01*
X007295Y013783D01*
X007265Y013783D01*
X007265Y013871D02*
X007295Y013871D01*
X007295Y013959D02*
X007265Y013959D01*
X007462Y014029D02*
X007462Y013783D01*
X007462Y014029D02*
X007492Y014029D01*
X007492Y013783D01*
X007462Y013783D01*
X007462Y013871D02*
X007492Y013871D01*
X007492Y013959D02*
X007462Y013959D01*
X007658Y014029D02*
X007658Y013783D01*
X007658Y014029D02*
X007688Y014029D01*
X007688Y013783D01*
X007658Y013783D01*
X007658Y013871D02*
X007688Y013871D01*
X007688Y013959D02*
X007658Y013959D01*
X007855Y014029D02*
X007855Y013783D01*
X007855Y014029D02*
X007885Y014029D01*
X007885Y013783D01*
X007855Y013783D01*
X007855Y013871D02*
X007885Y013871D01*
X007885Y013959D02*
X007855Y013959D01*
X008033Y013635D02*
X008279Y013635D01*
X008279Y013605D01*
X008033Y013605D01*
X008033Y013635D01*
X008033Y013438D02*
X008279Y013438D01*
X008279Y013408D01*
X008033Y013408D01*
X008033Y013438D01*
X008033Y013242D02*
X008279Y013242D01*
X008279Y013212D01*
X008033Y013212D01*
X008033Y013242D01*
X008033Y013045D02*
X008279Y013045D01*
X008279Y013015D01*
X008033Y013015D01*
X008033Y013045D01*
D13*
X004575Y013240D03*
X004575Y013910D03*
X009325Y010449D03*
X009325Y009701D03*
X010325Y009701D03*
X010325Y010449D03*
X010700Y007949D03*
X010700Y007201D03*
X009075Y007240D03*
X009075Y007910D03*
X007825Y006410D03*
X007825Y005740D03*
X007825Y004660D03*
X007825Y003990D03*
X006700Y002285D03*
X006700Y001615D03*
X011200Y003701D03*
X011200Y004449D03*
D14*
X010160Y003825D03*
X009490Y003825D03*
X012201Y002325D03*
X012949Y002325D03*
X017951Y007825D03*
X018699Y007825D03*
X018699Y008825D03*
X017951Y008825D03*
X017951Y009825D03*
X018699Y009825D03*
X021701Y009825D03*
X022449Y009825D03*
X022449Y008825D03*
X021701Y008825D03*
X021701Y007825D03*
X022449Y007825D03*
X006160Y015325D03*
X005490Y015325D03*
X004535Y012075D03*
X003865Y012075D03*
D15*
X012450Y006700D03*
X014450Y006700D03*
X014450Y004450D03*
X012450Y004450D03*
D16*
X011325Y009913D03*
X011325Y010237D03*
X008325Y010237D03*
X008325Y009913D03*
D17*
X006075Y004825D03*
X005325Y004325D03*
X006075Y003825D03*
D18*
X006723Y008450D03*
X003927Y008450D03*
D19*
X008200Y002501D03*
X008200Y001399D03*
D20*
X016575Y004275D02*
X016575Y004875D01*
X017575Y004875D02*
X017575Y004275D01*
X018575Y004275D02*
X018575Y004875D01*
X020325Y004875D02*
X020325Y004275D01*
X021325Y004275D02*
X021325Y004875D01*
X022325Y004875D02*
X022325Y004275D01*
X014575Y012775D02*
X014575Y013375D01*
X013575Y013375D02*
X013575Y012775D01*
X012575Y012775D02*
X012575Y013375D01*
D21*
X017825Y013372D02*
X017825Y012778D01*
X018825Y012778D02*
X018825Y013372D01*
X021575Y013372D02*
X021575Y012778D01*
X022575Y012778D02*
X022575Y013372D01*
D22*
X020737Y009825D03*
X020413Y009825D03*
X020413Y008825D03*
X020737Y008825D03*
X020737Y007825D03*
X020413Y007825D03*
X016987Y007825D03*
X016663Y007825D03*
X016663Y008825D03*
X016987Y008825D03*
X016987Y009825D03*
X016663Y009825D03*
X014237Y002325D03*
X013913Y002325D03*
D23*
X007075Y011575D03*
X007700Y012075D03*
X008325Y012075D03*
X008950Y012700D03*
X009575Y013075D03*
X008950Y013450D03*
X009575Y013825D03*
X008950Y014200D03*
X007950Y014575D03*
X007200Y015075D03*
X006825Y014450D03*
X006200Y013950D03*
X005575Y013575D03*
X006200Y013200D03*
X005575Y012825D03*
X006700Y012325D03*
X003075Y012075D03*
X004825Y015325D03*
D24*
X010162Y002325D03*
X010988Y002325D03*
D25*
X012201Y002325D01*
X011805Y002105D02*
X011805Y001972D01*
X011887Y001890D01*
X012515Y001890D01*
X012575Y001950D01*
X012635Y001890D01*
X013263Y001890D01*
X013345Y001972D01*
X013345Y002105D01*
X013648Y002105D01*
X013648Y002017D01*
X013730Y001935D01*
X014096Y001935D01*
X014178Y002017D01*
X014178Y002633D01*
X014096Y002715D01*
X013730Y002715D01*
X013648Y002633D01*
X013648Y002545D01*
X013345Y002545D01*
X013345Y002678D01*
X013263Y002760D01*
X012635Y002760D01*
X012575Y002700D01*
X012515Y002760D01*
X011887Y002760D01*
X011805Y002678D01*
X011805Y002545D01*
X011365Y002545D01*
X011365Y002619D01*
X011283Y002701D01*
X010694Y002701D01*
X010612Y002619D01*
X010612Y002031D01*
X010694Y001949D01*
X011283Y001949D01*
X011365Y002031D01*
X011365Y002105D01*
X011805Y002105D01*
X011805Y002069D02*
X011365Y002069D01*
X011867Y001910D02*
X009221Y001910D01*
X009166Y001855D02*
X009295Y001984D01*
X009295Y002105D01*
X009785Y002105D01*
X009785Y002031D01*
X009867Y001949D01*
X010456Y001949D01*
X010538Y002031D01*
X010538Y002619D01*
X010456Y002701D01*
X009867Y002701D01*
X009785Y002619D01*
X009785Y002545D01*
X009295Y002545D01*
X009295Y003135D01*
X009545Y003385D01*
X009779Y003385D01*
X009783Y003390D01*
X009804Y003390D01*
X009886Y003472D01*
X009886Y003493D01*
X009890Y003496D01*
X009890Y004759D01*
X009923Y004793D01*
X010029Y004687D01*
X010211Y004687D01*
X010319Y004795D01*
X010319Y004804D01*
X010576Y004804D01*
X010765Y004616D01*
X010765Y004135D01*
X010825Y004075D01*
X010765Y004015D01*
X010765Y003387D01*
X010847Y003305D01*
X011553Y003305D01*
X011635Y003387D01*
X011635Y003481D01*
X012792Y003481D01*
X013420Y004109D01*
X013420Y007609D01*
X014795Y008984D01*
X014795Y012390D01*
X014824Y012402D01*
X014948Y012526D01*
X015015Y012687D01*
X015015Y013463D01*
X014948Y013624D01*
X014824Y013748D01*
X014663Y013815D01*
X014487Y013815D01*
X014326Y013748D01*
X014202Y013624D01*
X014135Y013463D01*
X014135Y012687D01*
X014202Y012526D01*
X014326Y012402D01*
X014355Y012390D01*
X014355Y009166D01*
X013109Y007920D01*
X012980Y007791D01*
X012980Y004291D01*
X012610Y003921D01*
X011635Y003921D01*
X011635Y004015D01*
X011575Y004075D01*
X011635Y004135D01*
X011635Y004763D01*
X011868Y004763D01*
X011710Y004922D02*
X010996Y004922D01*
X011073Y004845D02*
X010828Y005090D01*
X011542Y005090D01*
X012050Y004581D01*
X012050Y004284D01*
X012284Y004050D01*
X012616Y004050D01*
X012850Y004284D01*
X012850Y004616D01*
X012616Y004850D01*
X012319Y004850D01*
X011699Y005470D01*
X010614Y005470D01*
X010605Y005479D01*
X010300Y005479D01*
X010300Y005671D01*
X010605Y005671D01*
X010614Y005680D01*
X011699Y005680D01*
X012319Y006300D01*
X012616Y006300D01*
X012850Y006534D01*
X012850Y006866D01*
X012616Y007100D01*
X012284Y007100D01*
X012050Y006866D01*
X012050Y006569D01*
X011542Y006060D01*
X010614Y006060D01*
X010605Y006069D01*
X010319Y006069D01*
X010319Y006086D01*
X010779Y006545D01*
X010890Y006657D01*
X010890Y006805D01*
X011053Y006805D01*
X011135Y006887D01*
X011135Y007515D01*
X011075Y007575D01*
X011135Y007635D01*
X011135Y007729D01*
X012540Y007729D01*
X013666Y008855D01*
X013795Y008984D01*
X013795Y012390D01*
X013824Y012402D01*
X013948Y012526D01*
X014015Y012687D01*
X014015Y013463D01*
X013948Y013624D01*
X013824Y013748D01*
X013663Y013815D01*
X013487Y013815D01*
X013326Y013748D01*
X013202Y013624D01*
X013135Y013463D01*
X013135Y012687D01*
X013202Y012526D01*
X013326Y012402D01*
X013355Y012390D01*
X013355Y009166D01*
X012358Y008169D01*
X011135Y008169D01*
X011135Y008263D01*
X011053Y008345D01*
X010347Y008345D01*
X010265Y008263D01*
X010265Y007635D01*
X010325Y007575D01*
X010265Y007515D01*
X010265Y006887D01*
X010347Y006805D01*
X010501Y006805D01*
X010159Y006463D01*
X010113Y006463D01*
X010113Y008595D01*
X010404Y008885D01*
X010515Y008996D01*
X010515Y009305D01*
X010678Y009305D01*
X010760Y009387D01*
X010760Y009511D01*
X011192Y009511D01*
X011329Y009648D01*
X011633Y009648D01*
X011715Y009730D01*
X011715Y010096D01*
X011633Y010178D01*
X011017Y010178D01*
X011015Y010176D01*
X011015Y011154D01*
X010904Y011265D01*
X008746Y011265D01*
X008635Y011154D01*
X008635Y010765D01*
X006371Y010765D01*
X005246Y009640D01*
X005135Y009529D01*
X005135Y006746D01*
X006635Y005246D01*
X006635Y004654D01*
X006273Y004292D01*
X006270Y004295D01*
X005880Y004295D01*
X005605Y004020D01*
X005605Y003630D01*
X005775Y003461D01*
X005730Y003416D01*
X005730Y001984D01*
X005859Y001855D01*
X009166Y001855D01*
X009075Y002075D02*
X005950Y002075D01*
X005950Y003325D01*
X009075Y003325D01*
X009075Y002075D01*
X009075Y002227D02*
X005950Y002227D01*
X005950Y002386D02*
X009075Y002386D01*
X009075Y002325D02*
X010162Y002325D01*
X009785Y002069D02*
X009295Y002069D01*
X009075Y002544D02*
X005950Y002544D01*
X005950Y002703D02*
X009075Y002703D01*
X009075Y002861D02*
X005950Y002861D01*
X005950Y003020D02*
X009075Y003020D01*
X009075Y003178D02*
X005950Y003178D01*
X005730Y003178D02*
X002462Y003178D01*
X002314Y003264D02*
X001826Y003375D01*
X001326Y003338D01*
X000860Y003155D01*
X000805Y003111D01*
X000805Y013789D01*
X000860Y013745D01*
X001326Y013562D01*
X001326Y013562D01*
X001826Y013525D01*
X002314Y013636D01*
X002747Y013887D01*
X003088Y014254D01*
X003305Y014705D01*
X003380Y015200D01*
X003305Y015695D01*
X003305Y015695D01*
X003115Y016090D01*
X024546Y016090D01*
X024436Y015929D01*
X024289Y015450D01*
X024289Y014950D01*
X024436Y014471D01*
X024718Y014057D01*
X024718Y014057D01*
X024718Y014057D01*
X025110Y013745D01*
X025576Y013562D01*
X025576Y013562D01*
X026076Y013525D01*
X026564Y013636D01*
X026837Y013794D01*
X026837Y003106D01*
X026564Y003264D01*
X026564Y003264D01*
X026076Y003375D01*
X026076Y003375D01*
X025576Y003338D01*
X025110Y003155D01*
X024718Y002843D01*
X024436Y002429D01*
X024289Y001950D01*
X024289Y001450D01*
X024436Y000971D01*
X024550Y000805D01*
X003113Y000805D01*
X003305Y001205D01*
X003380Y001700D01*
X003305Y002195D01*
X003305Y002195D01*
X003088Y002646D01*
X002747Y003013D01*
X002314Y003264D01*
X001996Y003337D02*
X005730Y003337D01*
X005740Y003495D02*
X000805Y003495D01*
X000805Y003337D02*
X001323Y003337D01*
X000919Y003178D02*
X000805Y003178D01*
X000860Y003155D02*
X000860Y003155D01*
X000805Y003654D02*
X005605Y003654D01*
X005605Y003812D02*
X000805Y003812D01*
X000805Y003971D02*
X005605Y003971D01*
X005714Y004129D02*
X000805Y004129D01*
X000805Y004288D02*
X005873Y004288D01*
X005880Y004355D02*
X006270Y004355D01*
X006545Y004630D01*
X006545Y005020D01*
X006270Y005295D01*
X006015Y005295D01*
X004217Y007093D01*
X004217Y007995D01*
X004773Y007995D01*
X004855Y008077D01*
X004855Y008823D01*
X004773Y008905D01*
X003082Y008905D01*
X003000Y008823D01*
X003000Y008077D01*
X003082Y007995D01*
X003637Y007995D01*
X003637Y006915D01*
X003682Y006808D01*
X005605Y004885D01*
X005605Y004630D01*
X005880Y004355D01*
X005789Y004446D02*
X000805Y004446D01*
X000805Y004605D02*
X005631Y004605D01*
X005605Y004763D02*
X000805Y004763D01*
X000805Y004922D02*
X005568Y004922D01*
X005410Y005080D02*
X000805Y005080D01*
X000805Y005239D02*
X005251Y005239D01*
X005093Y005397D02*
X000805Y005397D01*
X000805Y005556D02*
X004934Y005556D01*
X004776Y005714D02*
X000805Y005714D01*
X000805Y005873D02*
X004617Y005873D01*
X004459Y006031D02*
X000805Y006031D01*
X000805Y006190D02*
X004300Y006190D01*
X004142Y006348D02*
X000805Y006348D01*
X000805Y006507D02*
X003983Y006507D01*
X003825Y006665D02*
X000805Y006665D01*
X000805Y006824D02*
X003675Y006824D01*
X003637Y006982D02*
X000805Y006982D01*
X000805Y007141D02*
X003637Y007141D01*
X003637Y007299D02*
X000805Y007299D01*
X000805Y007458D02*
X003637Y007458D01*
X003637Y007616D02*
X000805Y007616D01*
X000805Y007775D02*
X003637Y007775D01*
X003637Y007933D02*
X000805Y007933D01*
X000805Y008092D02*
X003000Y008092D01*
X003000Y008250D02*
X000805Y008250D01*
X000805Y008409D02*
X003000Y008409D01*
X003000Y008567D02*
X000805Y008567D01*
X000805Y008726D02*
X003000Y008726D01*
X003061Y008884D02*
X000805Y008884D01*
X000805Y009043D02*
X005135Y009043D01*
X005135Y009201D02*
X000805Y009201D01*
X000805Y009360D02*
X005135Y009360D01*
X005135Y009518D02*
X000805Y009518D01*
X000805Y009677D02*
X005283Y009677D01*
X005441Y009835D02*
X000805Y009835D01*
X000805Y009994D02*
X005600Y009994D01*
X005758Y010152D02*
X000805Y010152D01*
X000805Y010311D02*
X005917Y010311D01*
X006075Y010469D02*
X000805Y010469D01*
X000805Y010628D02*
X006234Y010628D01*
X006529Y010385D02*
X008635Y010385D01*
X008635Y010176D01*
X008633Y010178D01*
X008017Y010178D01*
X007935Y010096D01*
X007935Y009730D01*
X008017Y009648D01*
X008321Y009648D01*
X008458Y009511D01*
X008890Y009511D01*
X008890Y009387D01*
X008972Y009305D01*
X009135Y009305D01*
X009135Y008996D01*
X009246Y008885D01*
X009246Y008885D01*
X009537Y008595D01*
X009537Y006463D01*
X009491Y006463D01*
X009265Y006689D01*
X009265Y006844D01*
X009428Y006844D01*
X009510Y006926D01*
X009510Y007554D01*
X009428Y007636D01*
X008722Y007636D01*
X008640Y007554D01*
X008640Y006926D01*
X008722Y006844D01*
X008885Y006844D01*
X008885Y006532D01*
X008996Y006420D01*
X009331Y006086D01*
X009331Y006069D01*
X009314Y006069D01*
X008784Y006600D01*
X008260Y006600D01*
X008260Y006724D01*
X008178Y006806D01*
X007472Y006806D01*
X007390Y006724D01*
X007390Y006096D01*
X007410Y006075D01*
X007390Y006054D01*
X007390Y005426D01*
X007472Y005344D01*
X007952Y005344D01*
X008010Y005287D01*
X008183Y005287D01*
X007952Y005056D01*
X007472Y005056D01*
X007390Y004974D01*
X007390Y004346D01*
X007472Y004264D01*
X008178Y004264D01*
X008260Y004346D01*
X008260Y004826D01*
X008524Y005090D01*
X009036Y005090D01*
X009045Y005081D01*
X009135Y005081D01*
X009135Y004219D01*
X009094Y004178D01*
X009094Y003755D01*
X008885Y003545D01*
X006460Y003545D01*
X006545Y003630D01*
X006545Y004020D01*
X006542Y004023D01*
X007015Y004496D01*
X007015Y004654D01*
X007015Y005404D01*
X006904Y005515D01*
X005515Y006904D01*
X005515Y009371D01*
X006529Y010385D01*
X006454Y010311D02*
X008635Y010311D01*
X008635Y010786D02*
X000805Y010786D01*
X000805Y010945D02*
X008635Y010945D01*
X008635Y011103D02*
X000805Y011103D01*
X000805Y011262D02*
X008743Y011262D01*
X008489Y011829D02*
X008571Y011911D01*
X008615Y012017D01*
X008615Y012133D01*
X008571Y012239D01*
X008489Y012321D01*
X008383Y012365D01*
X008290Y012365D01*
X008069Y012585D01*
X008069Y012831D01*
X008355Y012831D01*
X008374Y012850D01*
X008546Y012850D01*
X008660Y012735D01*
X008660Y012642D01*
X008704Y012536D01*
X008786Y012454D01*
X008892Y012410D01*
X009008Y012410D01*
X009114Y012454D01*
X009196Y012536D01*
X009240Y012642D01*
X009240Y012758D01*
X009196Y012864D01*
X009165Y012895D01*
X009345Y012895D01*
X009411Y012829D01*
X009517Y012785D01*
X009633Y012785D01*
X009739Y012829D01*
X009821Y012911D01*
X009865Y013017D01*
X009865Y013133D01*
X009821Y013239D01*
X009739Y013321D01*
X009633Y013365D01*
X009517Y013365D01*
X009411Y013321D01*
X009345Y013255D01*
X009165Y013255D01*
X009196Y013286D01*
X009240Y013392D01*
X009240Y013508D01*
X009196Y013614D01*
X009165Y013645D01*
X009345Y013645D01*
X009411Y013579D01*
X009517Y013535D01*
X009633Y013535D01*
X009739Y013579D01*
X009821Y013661D01*
X009865Y013767D01*
X009865Y013883D01*
X009821Y013989D01*
X009739Y014071D01*
X009633Y014115D01*
X009517Y014115D01*
X009411Y014071D01*
X009345Y014005D01*
X009165Y014005D01*
X009196Y014036D01*
X009240Y014142D01*
X009240Y014258D01*
X009196Y014364D01*
X009114Y014446D01*
X009008Y014490D01*
X008892Y014490D01*
X008786Y014446D01*
X008720Y014380D01*
X008165Y014380D01*
X008196Y014411D01*
X008240Y014517D01*
X008240Y014633D01*
X008196Y014739D01*
X008114Y014821D01*
X008008Y014865D01*
X007892Y014865D01*
X007786Y014821D01*
X007704Y014739D01*
X007660Y014633D01*
X007660Y014540D01*
X007657Y014536D01*
X007657Y014873D01*
X007490Y015040D01*
X007490Y015133D01*
X007446Y015239D01*
X007364Y015321D01*
X007258Y015365D01*
X007142Y015365D01*
X007036Y015321D01*
X006954Y015239D01*
X006910Y015133D01*
X006910Y015017D01*
X006954Y014911D01*
X007036Y014829D01*
X007142Y014785D01*
X007235Y014785D01*
X007297Y014724D01*
X007297Y014233D01*
X007115Y014415D01*
X007115Y014508D01*
X007071Y014614D01*
X007005Y014680D01*
X007005Y014734D01*
X006556Y015184D01*
X006556Y015678D01*
X006474Y015760D01*
X005846Y015760D01*
X005825Y015740D01*
X005804Y015760D01*
X005176Y015760D01*
X005094Y015678D01*
X005094Y015505D01*
X005055Y015505D01*
X004989Y015571D01*
X004883Y015615D01*
X004767Y015615D01*
X004661Y015571D01*
X004579Y015489D01*
X004535Y015383D01*
X004535Y015267D01*
X004579Y015161D01*
X004661Y015079D01*
X004767Y015035D01*
X004883Y015035D01*
X004989Y015079D01*
X005055Y015145D01*
X005094Y015145D01*
X005094Y014972D01*
X005176Y014890D01*
X005804Y014890D01*
X005825Y014910D01*
X005846Y014890D01*
X006340Y014890D01*
X006597Y014633D01*
X006579Y014614D01*
X006535Y014508D01*
X006535Y014392D01*
X006579Y014286D01*
X006661Y014204D01*
X006767Y014160D01*
X006860Y014160D01*
X007081Y013940D01*
X007081Y013819D01*
X006795Y013819D01*
X006776Y013800D01*
X006604Y013800D01*
X006490Y013915D01*
X006490Y014008D01*
X006446Y014114D01*
X006364Y014196D01*
X006258Y014240D01*
X006142Y014240D01*
X006036Y014196D01*
X005970Y014130D01*
X005010Y014130D01*
X005010Y014224D01*
X004928Y014306D01*
X004222Y014306D01*
X004140Y014224D01*
X004140Y013596D01*
X004160Y013575D01*
X004140Y013554D01*
X004140Y012926D01*
X004222Y012844D01*
X004928Y012844D01*
X005010Y012926D01*
X005010Y013020D01*
X005360Y013020D01*
X005329Y012989D01*
X005285Y012883D01*
X005285Y012790D01*
X004927Y012432D01*
X004849Y012510D01*
X004221Y012510D01*
X004200Y012490D01*
X004179Y012510D01*
X003551Y012510D01*
X003469Y012428D01*
X003469Y012255D01*
X003305Y012255D01*
X003239Y012321D01*
X003133Y012365D01*
X003017Y012365D01*
X002911Y012321D01*
X002829Y012239D01*
X002785Y012133D01*
X002785Y012017D01*
X002829Y011911D01*
X002911Y011829D01*
X003017Y011785D01*
X003133Y011785D01*
X003239Y011829D01*
X003305Y011895D01*
X003469Y011895D01*
X003469Y011722D01*
X003551Y011640D01*
X004179Y011640D01*
X004200Y011660D01*
X004221Y011640D01*
X004849Y011640D01*
X004931Y011722D01*
X004931Y011918D01*
X004950Y011932D01*
X004953Y011949D01*
X005540Y012535D01*
X005633Y012535D01*
X005739Y012579D01*
X005805Y012645D01*
X006864Y012645D01*
X007050Y012831D01*
X007081Y012831D01*
X007081Y012630D01*
X006750Y012630D01*
X006735Y012615D01*
X006642Y012615D01*
X006536Y012571D01*
X006454Y012489D01*
X006410Y012383D01*
X006410Y012267D01*
X006454Y012161D01*
X006536Y012079D01*
X006642Y012035D01*
X006758Y012035D01*
X006864Y012079D01*
X006946Y012161D01*
X006990Y012267D01*
X006990Y012270D01*
X007145Y012270D01*
X007145Y011900D01*
X007110Y011865D01*
X007017Y011865D01*
X006911Y011821D01*
X006829Y011739D01*
X006785Y011633D01*
X006785Y011517D01*
X006829Y011411D01*
X006911Y011329D01*
X007017Y011285D01*
X007133Y011285D01*
X007239Y011329D01*
X007321Y011411D01*
X007365Y011517D01*
X007365Y011610D01*
X007400Y011645D01*
X007505Y011750D01*
X007505Y011860D01*
X007536Y011829D01*
X007642Y011785D01*
X007758Y011785D01*
X007864Y011829D01*
X007946Y011911D01*
X007990Y012017D01*
X007990Y012133D01*
X007974Y012172D01*
X008035Y012110D01*
X008035Y012017D01*
X008079Y011911D01*
X008161Y011829D01*
X008267Y011785D01*
X008383Y011785D01*
X008489Y011829D01*
X008556Y011896D02*
X013355Y011896D01*
X013355Y012054D02*
X008615Y012054D01*
X008582Y012213D02*
X013355Y012213D01*
X013355Y012371D02*
X008284Y012371D01*
X008125Y012530D02*
X008710Y012530D01*
X008660Y012688D02*
X008069Y012688D01*
X008371Y012847D02*
X008549Y012847D01*
X009203Y012847D02*
X009393Y012847D01*
X009240Y012688D02*
X013135Y012688D01*
X013135Y012847D02*
X009757Y012847D01*
X009860Y013005D02*
X013135Y013005D01*
X013135Y013164D02*
X009852Y013164D01*
X009736Y013322D02*
X013135Y013322D01*
X013142Y013481D02*
X009240Y013481D01*
X009211Y013322D02*
X009414Y013322D01*
X009351Y013639D02*
X009171Y013639D01*
X009799Y013639D02*
X013217Y013639D01*
X013445Y013798D02*
X009865Y013798D01*
X009835Y013956D02*
X024845Y013956D01*
X024679Y014115D02*
X009634Y014115D01*
X009516Y014115D02*
X009228Y014115D01*
X009234Y014273D02*
X024571Y014273D01*
X024463Y014432D02*
X009129Y014432D01*
X008771Y014432D02*
X008204Y014432D01*
X008240Y014590D02*
X024400Y014590D01*
X024436Y014471D02*
X024436Y014471D01*
X024351Y014749D02*
X008187Y014749D01*
X007713Y014749D02*
X007657Y014749D01*
X007657Y014590D02*
X007660Y014590D01*
X007297Y014590D02*
X007081Y014590D01*
X007115Y014432D02*
X007297Y014432D01*
X007297Y014273D02*
X007257Y014273D01*
X007064Y013956D02*
X006490Y013956D01*
X006446Y014115D02*
X006906Y014115D01*
X006592Y014273D02*
X004961Y014273D01*
X004189Y014273D02*
X003097Y014273D01*
X003088Y014254D02*
X003088Y014254D01*
X002959Y014115D02*
X004140Y014115D01*
X004140Y013956D02*
X002812Y013956D01*
X002747Y013887D02*
X002747Y013887D01*
X002747Y013887D01*
X002593Y013798D02*
X004140Y013798D01*
X004140Y013639D02*
X002319Y013639D01*
X002314Y013636D02*
X002314Y013636D01*
X001826Y013525D02*
X001826Y013525D01*
X001130Y013639D02*
X000805Y013639D01*
X000860Y013745D02*
X000860Y013745D01*
X000805Y013481D02*
X004140Y013481D01*
X004140Y013322D02*
X000805Y013322D01*
X000805Y013164D02*
X004140Y013164D01*
X004140Y013005D02*
X000805Y013005D01*
X000805Y012847D02*
X004220Y012847D01*
X004930Y012847D02*
X005285Y012847D01*
X005345Y013005D02*
X005010Y013005D01*
X005183Y012688D02*
X000805Y012688D01*
X000805Y012530D02*
X005025Y012530D01*
X005376Y012371D02*
X006410Y012371D01*
X006433Y012213D02*
X005217Y012213D01*
X005059Y012054D02*
X006596Y012054D01*
X006804Y012054D02*
X007145Y012054D01*
X007145Y012213D02*
X006967Y012213D01*
X007141Y011896D02*
X004931Y011896D01*
X004931Y011737D02*
X006828Y011737D01*
X006785Y011579D02*
X000805Y011579D01*
X000805Y011737D02*
X003469Y011737D01*
X002844Y011896D02*
X000805Y011896D01*
X000805Y012054D02*
X002785Y012054D01*
X002818Y012213D02*
X000805Y012213D01*
X000805Y012371D02*
X003469Y012371D01*
X005534Y012530D02*
X006494Y012530D01*
X006907Y012688D02*
X007081Y012688D01*
X007990Y012054D02*
X008035Y012054D01*
X008094Y011896D02*
X007931Y011896D01*
X007492Y011737D02*
X013355Y011737D01*
X013355Y011579D02*
X007365Y011579D01*
X007325Y011420D02*
X013355Y011420D01*
X013355Y011262D02*
X010907Y011262D01*
X011015Y011103D02*
X013355Y011103D01*
X013355Y010945D02*
X011015Y010945D01*
X011015Y010786D02*
X013355Y010786D01*
X013355Y010628D02*
X011015Y010628D01*
X011015Y010469D02*
X013355Y010469D01*
X013355Y010311D02*
X011015Y010311D01*
X011659Y010152D02*
X013355Y010152D01*
X013355Y009994D02*
X011715Y009994D01*
X011715Y009835D02*
X013355Y009835D01*
X013355Y009677D02*
X011662Y009677D01*
X011199Y009518D02*
X013355Y009518D01*
X013355Y009360D02*
X010733Y009360D01*
X010515Y009201D02*
X013355Y009201D01*
X013231Y009043D02*
X010515Y009043D01*
X010403Y008884D02*
X013073Y008884D01*
X012914Y008726D02*
X010244Y008726D01*
X010113Y008567D02*
X012756Y008567D01*
X012597Y008409D02*
X010113Y008409D01*
X010113Y008250D02*
X010265Y008250D01*
X010265Y008092D02*
X010113Y008092D01*
X010113Y007933D02*
X010265Y007933D01*
X010265Y007775D02*
X010113Y007775D01*
X010113Y007616D02*
X010284Y007616D01*
X010265Y007458D02*
X010113Y007458D01*
X010113Y007299D02*
X010265Y007299D01*
X010265Y007141D02*
X010113Y007141D01*
X010113Y006982D02*
X010265Y006982D01*
X010328Y006824D02*
X010113Y006824D01*
X010113Y006665D02*
X010361Y006665D01*
X010202Y006507D02*
X010113Y006507D01*
X010423Y006190D02*
X011671Y006190D01*
X011829Y006348D02*
X010581Y006348D01*
X010740Y006507D02*
X011988Y006507D01*
X012050Y006665D02*
X010890Y006665D01*
X010779Y006545D02*
X010779Y006545D01*
X011072Y006824D02*
X012050Y006824D01*
X012166Y006982D02*
X011135Y006982D01*
X011135Y007141D02*
X012980Y007141D01*
X012980Y007299D02*
X011135Y007299D01*
X011135Y007458D02*
X012980Y007458D01*
X012980Y007616D02*
X011116Y007616D01*
X010700Y007949D02*
X012449Y007949D01*
X013575Y009075D01*
X013575Y013075D01*
X014015Y013005D02*
X014135Y013005D01*
X014135Y012847D02*
X014015Y012847D01*
X014015Y012688D02*
X014135Y012688D01*
X014200Y012530D02*
X013950Y012530D01*
X013795Y012371D02*
X014355Y012371D01*
X014355Y012213D02*
X013795Y012213D01*
X013795Y012054D02*
X014355Y012054D01*
X014355Y011896D02*
X013795Y011896D01*
X013795Y011737D02*
X014355Y011737D01*
X014355Y011579D02*
X013795Y011579D01*
X013795Y011420D02*
X014355Y011420D01*
X014355Y011262D02*
X013795Y011262D01*
X013795Y011103D02*
X014355Y011103D01*
X014355Y010945D02*
X013795Y010945D01*
X013795Y010786D02*
X014355Y010786D01*
X014355Y010628D02*
X013795Y010628D01*
X013795Y010469D02*
X014355Y010469D01*
X014355Y010311D02*
X013795Y010311D01*
X013795Y010152D02*
X014355Y010152D01*
X014355Y009994D02*
X013795Y009994D01*
X013795Y009835D02*
X014355Y009835D01*
X014355Y009677D02*
X013795Y009677D01*
X013795Y009518D02*
X014355Y009518D01*
X014355Y009360D02*
X013795Y009360D01*
X013795Y009201D02*
X014355Y009201D01*
X014231Y009043D02*
X013795Y009043D01*
X013695Y008884D02*
X014073Y008884D01*
X013914Y008726D02*
X013537Y008726D01*
X013378Y008567D02*
X013756Y008567D01*
X013597Y008409D02*
X013220Y008409D01*
X013061Y008250D02*
X013439Y008250D01*
X013280Y008092D02*
X012903Y008092D01*
X012744Y007933D02*
X013122Y007933D01*
X012980Y007775D02*
X012586Y007775D01*
X012439Y008250D02*
X011135Y008250D01*
X009537Y008250D02*
X005515Y008250D01*
X005515Y008092D02*
X009537Y008092D01*
X009537Y007933D02*
X005515Y007933D01*
X005515Y007775D02*
X009537Y007775D01*
X009537Y007616D02*
X009449Y007616D01*
X009510Y007458D02*
X009537Y007458D01*
X009537Y007299D02*
X009510Y007299D01*
X009510Y007141D02*
X009537Y007141D01*
X009537Y006982D02*
X009510Y006982D01*
X009537Y006824D02*
X009265Y006824D01*
X009289Y006665D02*
X009537Y006665D01*
X009537Y006507D02*
X009448Y006507D01*
X009227Y006190D02*
X009194Y006190D01*
X009069Y006348D02*
X009035Y006348D01*
X008910Y006507D02*
X008877Y006507D01*
X008885Y006665D02*
X008260Y006665D01*
X008640Y006982D02*
X005515Y006982D01*
X005515Y007141D02*
X008640Y007141D01*
X008640Y007299D02*
X005515Y007299D01*
X005515Y007458D02*
X008640Y007458D01*
X008701Y007616D02*
X005515Y007616D01*
X005135Y007616D02*
X004217Y007616D01*
X004217Y007458D02*
X005135Y007458D01*
X005135Y007299D02*
X004217Y007299D01*
X004217Y007141D02*
X005135Y007141D01*
X005135Y006982D02*
X004328Y006982D01*
X004487Y006824D02*
X005135Y006824D01*
X005216Y006665D02*
X004645Y006665D01*
X004804Y006507D02*
X005375Y006507D01*
X005533Y006348D02*
X004962Y006348D01*
X005121Y006190D02*
X005692Y006190D01*
X005850Y006031D02*
X005279Y006031D01*
X005438Y005873D02*
X006009Y005873D01*
X006167Y005714D02*
X005596Y005714D01*
X005755Y005556D02*
X006326Y005556D01*
X006484Y005397D02*
X005913Y005397D01*
X006326Y005239D02*
X006635Y005239D01*
X006635Y005080D02*
X006485Y005080D01*
X006545Y004922D02*
X006635Y004922D01*
X006635Y004763D02*
X006545Y004763D01*
X006519Y004605D02*
X006586Y004605D01*
X006427Y004446D02*
X006361Y004446D01*
X006806Y004288D02*
X007448Y004288D01*
X007390Y004446D02*
X006965Y004446D01*
X007015Y004605D02*
X007390Y004605D01*
X007390Y004763D02*
X007015Y004763D01*
X007015Y004922D02*
X007390Y004922D01*
X007015Y005080D02*
X007977Y005080D01*
X008135Y005239D02*
X007015Y005239D01*
X007015Y005397D02*
X007419Y005397D01*
X007390Y005556D02*
X006863Y005556D01*
X006705Y005714D02*
X007390Y005714D01*
X007390Y005873D02*
X006546Y005873D01*
X006388Y006031D02*
X007390Y006031D01*
X007390Y006190D02*
X006229Y006190D01*
X006071Y006348D02*
X007390Y006348D01*
X007390Y006507D02*
X005912Y006507D01*
X005754Y006665D02*
X007390Y006665D01*
X008260Y006220D02*
X008626Y006220D01*
X008937Y005909D01*
X008937Y005779D01*
X009043Y005673D01*
X009036Y005667D01*
X008260Y005667D01*
X008260Y006054D01*
X008240Y006075D01*
X008260Y006096D01*
X008260Y006220D01*
X008260Y006190D02*
X008656Y006190D01*
X008815Y006031D02*
X008260Y006031D01*
X008260Y005873D02*
X008937Y005873D01*
X009002Y005714D02*
X008260Y005714D01*
X008514Y005080D02*
X009135Y005080D01*
X009135Y004922D02*
X008356Y004922D01*
X008260Y004763D02*
X009135Y004763D01*
X009135Y004605D02*
X008260Y004605D01*
X008260Y004446D02*
X009135Y004446D01*
X009135Y004288D02*
X008202Y004288D01*
X009094Y004129D02*
X006648Y004129D01*
X006545Y003971D02*
X009094Y003971D01*
X009094Y003812D02*
X006545Y003812D01*
X006545Y003654D02*
X008993Y003654D01*
X009497Y003337D02*
X010815Y003337D01*
X010765Y003495D02*
X009889Y003495D01*
X009890Y003654D02*
X010765Y003654D01*
X010765Y003812D02*
X009890Y003812D01*
X009890Y003971D02*
X010765Y003971D01*
X010771Y004129D02*
X009890Y004129D01*
X009890Y004288D02*
X010765Y004288D01*
X010765Y004446D02*
X009890Y004446D01*
X009890Y004605D02*
X010765Y004605D01*
X010617Y004763D02*
X010287Y004763D01*
X009953Y004763D02*
X009894Y004763D01*
X010300Y005556D02*
X012980Y005556D01*
X012980Y005714D02*
X011733Y005714D01*
X011891Y005873D02*
X012980Y005873D01*
X012980Y006031D02*
X012050Y006031D01*
X012208Y006190D02*
X012980Y006190D01*
X012980Y006348D02*
X012664Y006348D01*
X012822Y006507D02*
X012980Y006507D01*
X012980Y006665D02*
X012850Y006665D01*
X012850Y006824D02*
X012980Y006824D01*
X012980Y006982D02*
X012734Y006982D01*
X013420Y006982D02*
X014166Y006982D01*
X014050Y006866D02*
X014050Y006534D01*
X014284Y006300D01*
X014539Y006300D01*
X015355Y005484D01*
X015355Y003984D01*
X015855Y003484D01*
X015984Y003355D01*
X017166Y003355D01*
X017646Y003835D01*
X017663Y003835D01*
X017824Y003902D01*
X017948Y004026D01*
X018015Y004187D01*
X018015Y004963D01*
X017948Y005124D01*
X017824Y005248D01*
X017795Y005260D01*
X017795Y007390D01*
X018265Y007390D01*
X018325Y007450D01*
X018385Y007390D01*
X019013Y007390D01*
X019095Y007472D01*
X019095Y008178D01*
X019013Y008260D01*
X018919Y008260D01*
X018919Y008390D01*
X019013Y008390D01*
X019095Y008472D01*
X019095Y009178D01*
X019013Y009260D01*
X018919Y009260D01*
X018919Y009390D01*
X019013Y009390D01*
X019095Y009472D01*
X019095Y010178D01*
X019013Y010260D01*
X018919Y010260D01*
X018919Y010734D01*
X019045Y010860D01*
X019045Y012396D01*
X019072Y012408D01*
X019195Y012531D01*
X019262Y012691D01*
X019262Y013459D01*
X019195Y013619D01*
X019072Y013742D01*
X018912Y013809D01*
X018738Y013809D01*
X018578Y013742D01*
X018455Y013619D01*
X018388Y013459D01*
X018388Y012691D01*
X018455Y012531D01*
X018578Y012408D01*
X018605Y012396D01*
X018605Y011042D01*
X018479Y010916D01*
X018479Y010260D01*
X018385Y010260D01*
X018325Y010200D01*
X018265Y010260D01*
X017637Y010260D01*
X017555Y010178D01*
X017555Y010045D01*
X017252Y010045D01*
X017252Y010133D01*
X017170Y010215D01*
X016480Y010215D01*
X016398Y010133D01*
X016398Y010045D01*
X016234Y010045D01*
X015984Y009795D01*
X015855Y009666D01*
X015855Y004984D01*
X015984Y004855D01*
X016135Y004704D01*
X016135Y004187D01*
X016202Y004026D01*
X016326Y003902D01*
X016487Y003835D01*
X016663Y003835D01*
X016824Y003902D01*
X016948Y004026D01*
X017015Y004187D01*
X017015Y004963D01*
X016948Y005124D01*
X016824Y005248D01*
X016663Y005315D01*
X016487Y005315D01*
X016326Y005248D01*
X016295Y005217D01*
X016295Y007605D01*
X016398Y007605D01*
X016398Y007517D01*
X016480Y007435D01*
X017170Y007435D01*
X017252Y007517D01*
X017252Y007605D01*
X017355Y007605D01*
X017355Y005260D01*
X017326Y005248D01*
X017202Y005124D01*
X017135Y004963D01*
X017135Y004187D01*
X017202Y004026D01*
X017208Y004019D01*
X016984Y003795D01*
X016166Y003795D01*
X015795Y004166D01*
X015795Y005666D01*
X015666Y005795D01*
X014850Y006611D01*
X014850Y006866D01*
X014616Y007100D01*
X014284Y007100D01*
X014050Y006866D01*
X014050Y006824D02*
X013420Y006824D01*
X013420Y006665D02*
X014050Y006665D01*
X014078Y006507D02*
X013420Y006507D01*
X013420Y006348D02*
X014236Y006348D01*
X014649Y006190D02*
X013420Y006190D01*
X013420Y006031D02*
X014808Y006031D01*
X014966Y005873D02*
X013420Y005873D01*
X013420Y005714D02*
X015125Y005714D01*
X015283Y005556D02*
X013420Y005556D01*
X013420Y005397D02*
X015355Y005397D01*
X015355Y005239D02*
X013420Y005239D01*
X013420Y005080D02*
X015355Y005080D01*
X015355Y004922D02*
X013420Y004922D01*
X013420Y004763D02*
X014197Y004763D01*
X014284Y004850D02*
X014050Y004616D01*
X014050Y004284D01*
X014284Y004050D01*
X014539Y004050D01*
X015605Y002984D01*
X015734Y002855D01*
X020416Y002855D01*
X021396Y003835D01*
X021413Y003835D01*
X021574Y003902D01*
X021698Y004026D01*
X021765Y004187D01*
X021765Y004963D01*
X021698Y005124D01*
X021574Y005248D01*
X021545Y005260D01*
X021545Y007390D01*
X022015Y007390D01*
X022075Y007450D01*
X022135Y007390D01*
X022763Y007390D01*
X022845Y007472D01*
X022845Y008178D01*
X022763Y008260D01*
X022669Y008260D01*
X022669Y008390D01*
X022763Y008390D01*
X022845Y008472D01*
X022845Y009178D01*
X022763Y009260D01*
X022669Y009260D01*
X022669Y009390D01*
X022763Y009390D01*
X022845Y009472D01*
X022845Y010178D01*
X022763Y010260D01*
X022669Y010260D01*
X022669Y010734D01*
X022795Y010860D01*
X022795Y012396D01*
X022822Y012408D01*
X022945Y012531D01*
X023012Y012691D01*
X023012Y013459D01*
X022945Y013619D01*
X022822Y013742D01*
X022662Y013809D01*
X022488Y013809D01*
X022328Y013742D01*
X022205Y013619D01*
X022138Y013459D01*
X022138Y012691D01*
X022205Y012531D01*
X022328Y012408D01*
X022355Y012396D01*
X022355Y011042D01*
X022229Y010916D01*
X022229Y010260D01*
X022135Y010260D01*
X022075Y010200D01*
X022015Y010260D01*
X021387Y010260D01*
X021305Y010178D01*
X021305Y010045D01*
X021002Y010045D01*
X021002Y010133D01*
X020920Y010215D01*
X020230Y010215D01*
X020148Y010133D01*
X020148Y010045D01*
X019984Y010045D01*
X019734Y009795D01*
X019605Y009666D01*
X019605Y004984D01*
X019734Y004855D01*
X019885Y004704D01*
X019885Y004187D01*
X019952Y004026D01*
X020076Y003902D01*
X020237Y003835D01*
X020413Y003835D01*
X020574Y003902D01*
X020698Y004026D01*
X020765Y004187D01*
X020765Y004963D01*
X020698Y005124D01*
X020574Y005248D01*
X020413Y005315D01*
X020237Y005315D01*
X020076Y005248D01*
X020045Y005217D01*
X020045Y007605D01*
X020148Y007605D01*
X020148Y007517D01*
X020230Y007435D01*
X020920Y007435D01*
X021002Y007517D01*
X021002Y007605D01*
X021105Y007605D01*
X021105Y005260D01*
X021076Y005248D01*
X020952Y005124D01*
X020885Y004963D01*
X020885Y004187D01*
X020952Y004026D01*
X020958Y004019D01*
X020234Y003295D01*
X015916Y003295D01*
X014850Y004361D01*
X014850Y004616D01*
X014616Y004850D01*
X014284Y004850D01*
X014050Y004605D02*
X013420Y004605D01*
X013420Y004446D02*
X014050Y004446D01*
X014050Y004288D02*
X013420Y004288D01*
X013420Y004129D02*
X014205Y004129D01*
X014618Y003971D02*
X013282Y003971D01*
X013123Y003812D02*
X014777Y003812D01*
X014935Y003654D02*
X012965Y003654D01*
X012806Y003495D02*
X015094Y003495D01*
X015252Y003337D02*
X011585Y003337D01*
X011200Y003701D02*
X012701Y003701D01*
X013200Y004200D01*
X013200Y007700D01*
X014575Y009075D01*
X014575Y013075D01*
X014135Y013164D02*
X014015Y013164D01*
X014015Y013322D02*
X014135Y013322D01*
X014142Y013481D02*
X014008Y013481D01*
X013933Y013639D02*
X014217Y013639D01*
X014445Y013798D02*
X013705Y013798D01*
X014705Y013798D02*
X018711Y013798D01*
X018939Y013798D02*
X022461Y013798D01*
X022689Y013798D02*
X025044Y013798D01*
X025110Y013745D02*
X025110Y013745D01*
X025380Y013639D02*
X022926Y013639D01*
X023003Y013481D02*
X026837Y013481D01*
X026837Y013639D02*
X026569Y013639D01*
X026564Y013636D02*
X026564Y013636D01*
X026837Y013322D02*
X023012Y013322D01*
X023012Y013164D02*
X026837Y013164D01*
X026837Y013005D02*
X023012Y013005D01*
X023012Y012847D02*
X026837Y012847D01*
X026837Y012688D02*
X023011Y012688D01*
X022944Y012530D02*
X026837Y012530D01*
X026837Y012371D02*
X022795Y012371D01*
X022795Y012213D02*
X026837Y012213D01*
X026837Y012054D02*
X022795Y012054D01*
X022795Y011896D02*
X026837Y011896D01*
X026837Y011737D02*
X022795Y011737D01*
X022795Y011579D02*
X026837Y011579D01*
X026837Y011420D02*
X022795Y011420D01*
X022795Y011262D02*
X026837Y011262D01*
X026837Y011103D02*
X022795Y011103D01*
X022795Y010945D02*
X026837Y010945D01*
X026837Y010786D02*
X022721Y010786D01*
X022669Y010628D02*
X026837Y010628D01*
X026837Y010469D02*
X022669Y010469D01*
X022669Y010311D02*
X026837Y010311D01*
X026837Y010152D02*
X022845Y010152D01*
X022845Y009994D02*
X026837Y009994D01*
X026837Y009835D02*
X022845Y009835D01*
X022845Y009677D02*
X026837Y009677D01*
X026837Y009518D02*
X022845Y009518D01*
X022669Y009360D02*
X026837Y009360D01*
X026837Y009201D02*
X022822Y009201D01*
X022845Y009043D02*
X026837Y009043D01*
X026837Y008884D02*
X022845Y008884D01*
X022845Y008726D02*
X026837Y008726D01*
X026837Y008567D02*
X022845Y008567D01*
X022782Y008409D02*
X026837Y008409D01*
X026837Y008250D02*
X022773Y008250D01*
X022845Y008092D02*
X026837Y008092D01*
X026837Y007933D02*
X022845Y007933D01*
X022845Y007775D02*
X026837Y007775D01*
X026837Y007616D02*
X022845Y007616D01*
X022831Y007458D02*
X026837Y007458D01*
X026837Y007299D02*
X021545Y007299D01*
X021545Y007141D02*
X026837Y007141D01*
X026837Y006982D02*
X021545Y006982D01*
X021545Y006824D02*
X026837Y006824D01*
X026837Y006665D02*
X021545Y006665D01*
X021545Y006507D02*
X026837Y006507D01*
X026837Y006348D02*
X021545Y006348D01*
X021545Y006190D02*
X026837Y006190D01*
X026837Y006031D02*
X021545Y006031D01*
X021545Y005873D02*
X026837Y005873D01*
X026837Y005714D02*
X021545Y005714D01*
X021545Y005556D02*
X026837Y005556D01*
X026837Y005397D02*
X021545Y005397D01*
X021584Y005239D02*
X026837Y005239D01*
X026837Y005080D02*
X021716Y005080D01*
X021765Y004922D02*
X026837Y004922D01*
X026837Y004763D02*
X021765Y004763D01*
X021765Y004605D02*
X026837Y004605D01*
X026837Y004446D02*
X021765Y004446D01*
X021765Y004288D02*
X026837Y004288D01*
X026837Y004129D02*
X021741Y004129D01*
X021643Y003971D02*
X026837Y003971D01*
X026837Y003812D02*
X021373Y003812D01*
X021215Y003654D02*
X026837Y003654D01*
X026837Y003495D02*
X021056Y003495D01*
X020898Y003337D02*
X025573Y003337D01*
X025576Y003338D02*
X025576Y003338D01*
X025169Y003178D02*
X020739Y003178D01*
X020581Y003020D02*
X024940Y003020D01*
X025110Y003155D02*
X025110Y003155D01*
X024741Y002861D02*
X020422Y002861D01*
X020325Y003075D02*
X021325Y004075D01*
X021325Y004575D01*
X021325Y007825D01*
X020737Y007825D01*
X020413Y007825D02*
X019825Y007825D01*
X019825Y005075D01*
X020325Y004575D01*
X020765Y004605D02*
X020885Y004605D01*
X020885Y004763D02*
X020765Y004763D01*
X020765Y004922D02*
X020885Y004922D01*
X020934Y005080D02*
X020716Y005080D01*
X020584Y005239D02*
X021066Y005239D01*
X021105Y005397D02*
X020045Y005397D01*
X020045Y005239D02*
X020066Y005239D01*
X020045Y005556D02*
X021105Y005556D01*
X021105Y005714D02*
X020045Y005714D01*
X020045Y005873D02*
X021105Y005873D01*
X021105Y006031D02*
X020045Y006031D01*
X020045Y006190D02*
X021105Y006190D01*
X021105Y006348D02*
X020045Y006348D01*
X020045Y006507D02*
X021105Y006507D01*
X021105Y006665D02*
X020045Y006665D01*
X020045Y006824D02*
X021105Y006824D01*
X021105Y006982D02*
X020045Y006982D01*
X020045Y007141D02*
X021105Y007141D01*
X021105Y007299D02*
X020045Y007299D01*
X020045Y007458D02*
X020207Y007458D01*
X019825Y007825D02*
X019825Y008825D01*
X020413Y008825D01*
X020737Y008825D02*
X021701Y008825D01*
X022449Y008825D02*
X022449Y009825D01*
X022449Y010825D01*
X022575Y010951D01*
X022575Y013075D01*
X022138Y013005D02*
X019262Y013005D01*
X019262Y012847D02*
X022138Y012847D01*
X022139Y012688D02*
X019261Y012688D01*
X019194Y012530D02*
X022206Y012530D01*
X022355Y012371D02*
X019045Y012371D01*
X019045Y012213D02*
X022355Y012213D01*
X022355Y012054D02*
X019045Y012054D01*
X019045Y011896D02*
X022355Y011896D01*
X022355Y011737D02*
X019045Y011737D01*
X019045Y011579D02*
X022355Y011579D01*
X022355Y011420D02*
X019045Y011420D01*
X019045Y011262D02*
X022355Y011262D01*
X022355Y011103D02*
X019045Y011103D01*
X019045Y010945D02*
X022257Y010945D01*
X022229Y010786D02*
X018971Y010786D01*
X018919Y010628D02*
X022229Y010628D01*
X022229Y010469D02*
X018919Y010469D01*
X018919Y010311D02*
X022229Y010311D01*
X022449Y009825D02*
X022449Y007825D01*
X021701Y007825D02*
X021325Y007825D01*
X021105Y007458D02*
X020943Y007458D01*
X019605Y007458D02*
X019081Y007458D01*
X019095Y007616D02*
X019605Y007616D01*
X019605Y007775D02*
X019095Y007775D01*
X019095Y007933D02*
X019605Y007933D01*
X019605Y008092D02*
X019095Y008092D01*
X019023Y008250D02*
X019605Y008250D01*
X019605Y008409D02*
X019032Y008409D01*
X019095Y008567D02*
X019605Y008567D01*
X019605Y008726D02*
X019095Y008726D01*
X019095Y008884D02*
X019605Y008884D01*
X019605Y009043D02*
X019095Y009043D01*
X019072Y009201D02*
X019605Y009201D01*
X019605Y009360D02*
X018919Y009360D01*
X019095Y009518D02*
X019605Y009518D01*
X019615Y009677D02*
X019095Y009677D01*
X019095Y009835D02*
X019774Y009835D01*
X019932Y009994D02*
X019095Y009994D01*
X019095Y010152D02*
X020167Y010152D01*
X020075Y009825D02*
X019825Y009575D01*
X019825Y008825D01*
X018699Y008825D02*
X018699Y009825D01*
X018699Y010825D01*
X018825Y010951D01*
X018825Y013075D01*
X019262Y013164D02*
X022138Y013164D01*
X022138Y013322D02*
X019262Y013322D01*
X019253Y013481D02*
X022147Y013481D01*
X022224Y013639D02*
X019176Y013639D01*
X018474Y013639D02*
X014933Y013639D01*
X015008Y013481D02*
X018397Y013481D01*
X018388Y013322D02*
X015015Y013322D01*
X015015Y013164D02*
X018388Y013164D01*
X018388Y013005D02*
X015015Y013005D01*
X015015Y012847D02*
X018388Y012847D01*
X018389Y012688D02*
X015015Y012688D01*
X014950Y012530D02*
X018456Y012530D01*
X018605Y012371D02*
X014795Y012371D01*
X014795Y012213D02*
X018605Y012213D01*
X018605Y012054D02*
X014795Y012054D01*
X014795Y011896D02*
X018605Y011896D01*
X018605Y011737D02*
X014795Y011737D01*
X014795Y011579D02*
X018605Y011579D01*
X018605Y011420D02*
X014795Y011420D01*
X014795Y011262D02*
X018605Y011262D01*
X018605Y011103D02*
X014795Y011103D01*
X014795Y010945D02*
X018507Y010945D01*
X018479Y010786D02*
X014795Y010786D01*
X014795Y010628D02*
X018479Y010628D01*
X018479Y010469D02*
X014795Y010469D01*
X014795Y010311D02*
X018479Y010311D01*
X018699Y009825D02*
X018699Y007825D01*
X017951Y007825D02*
X017575Y007825D01*
X017575Y004575D01*
X017575Y004075D01*
X017075Y003575D01*
X016075Y003575D01*
X015575Y004075D01*
X015575Y005575D01*
X014450Y006700D01*
X014850Y006665D02*
X015855Y006665D01*
X015855Y006507D02*
X014955Y006507D01*
X015113Y006348D02*
X015855Y006348D01*
X015855Y006190D02*
X015272Y006190D01*
X015430Y006031D02*
X015855Y006031D01*
X015855Y005873D02*
X015589Y005873D01*
X015747Y005714D02*
X015855Y005714D01*
X015855Y005556D02*
X015795Y005556D01*
X015795Y005397D02*
X015855Y005397D01*
X015855Y005239D02*
X015795Y005239D01*
X015795Y005080D02*
X015855Y005080D01*
X015795Y004922D02*
X015917Y004922D01*
X015795Y004763D02*
X016076Y004763D01*
X016135Y004605D02*
X015795Y004605D01*
X015795Y004446D02*
X016135Y004446D01*
X016135Y004288D02*
X015795Y004288D01*
X015832Y004129D02*
X016159Y004129D01*
X016257Y003971D02*
X015991Y003971D01*
X016149Y003812D02*
X017001Y003812D01*
X016893Y003971D02*
X017159Y003971D01*
X017159Y004129D02*
X016991Y004129D01*
X017015Y004288D02*
X017135Y004288D01*
X017135Y004446D02*
X017015Y004446D01*
X017015Y004605D02*
X017135Y004605D01*
X017135Y004763D02*
X017015Y004763D01*
X017015Y004922D02*
X017135Y004922D01*
X017184Y005080D02*
X016966Y005080D01*
X016834Y005239D02*
X017316Y005239D01*
X017355Y005397D02*
X016295Y005397D01*
X016295Y005239D02*
X016316Y005239D01*
X016075Y005075D02*
X016075Y007825D01*
X016663Y007825D01*
X016987Y007825D02*
X017575Y007825D01*
X017355Y007458D02*
X017193Y007458D01*
X017355Y007299D02*
X016295Y007299D01*
X016295Y007141D02*
X017355Y007141D01*
X017355Y006982D02*
X016295Y006982D01*
X016295Y006824D02*
X017355Y006824D01*
X017355Y006665D02*
X016295Y006665D01*
X016295Y006507D02*
X017355Y006507D01*
X017355Y006348D02*
X016295Y006348D01*
X016295Y006190D02*
X017355Y006190D01*
X017355Y006031D02*
X016295Y006031D01*
X016295Y005873D02*
X017355Y005873D01*
X017355Y005714D02*
X016295Y005714D01*
X016295Y005556D02*
X017355Y005556D01*
X017795Y005556D02*
X019605Y005556D01*
X019605Y005714D02*
X017795Y005714D01*
X017795Y005873D02*
X019605Y005873D01*
X019605Y006031D02*
X017795Y006031D01*
X017795Y006190D02*
X019605Y006190D01*
X019605Y006348D02*
X017795Y006348D01*
X017795Y006507D02*
X019605Y006507D01*
X019605Y006665D02*
X017795Y006665D01*
X017795Y006824D02*
X019605Y006824D01*
X019605Y006982D02*
X017795Y006982D01*
X017795Y007141D02*
X019605Y007141D01*
X019605Y007299D02*
X017795Y007299D01*
X016457Y007458D02*
X016295Y007458D01*
X015855Y007458D02*
X013420Y007458D01*
X013427Y007616D02*
X015855Y007616D01*
X015855Y007775D02*
X013586Y007775D01*
X013744Y007933D02*
X015855Y007933D01*
X015855Y008092D02*
X013903Y008092D01*
X014061Y008250D02*
X015855Y008250D01*
X015855Y008409D02*
X014220Y008409D01*
X014378Y008567D02*
X015855Y008567D01*
X015855Y008726D02*
X014537Y008726D01*
X014695Y008884D02*
X015855Y008884D01*
X015855Y009043D02*
X014795Y009043D01*
X014795Y009201D02*
X015855Y009201D01*
X015855Y009360D02*
X014795Y009360D01*
X014795Y009518D02*
X015855Y009518D01*
X015865Y009677D02*
X014795Y009677D01*
X014795Y009835D02*
X016024Y009835D01*
X016182Y009994D02*
X014795Y009994D01*
X014795Y010152D02*
X016417Y010152D01*
X016325Y009825D02*
X016075Y009575D01*
X016075Y008825D01*
X016663Y008825D01*
X016987Y008825D02*
X017951Y008825D01*
X017951Y009825D02*
X016987Y009825D01*
X016663Y009825D02*
X016325Y009825D01*
X017233Y010152D02*
X017555Y010152D01*
X016075Y008825D02*
X016075Y007825D01*
X015855Y007299D02*
X013420Y007299D01*
X013420Y007141D02*
X015855Y007141D01*
X015855Y006982D02*
X014734Y006982D01*
X014850Y006824D02*
X015855Y006824D01*
X017795Y005397D02*
X019605Y005397D01*
X019605Y005239D02*
X017834Y005239D01*
X017966Y005080D02*
X019605Y005080D01*
X019667Y004922D02*
X018015Y004922D01*
X018015Y004763D02*
X019826Y004763D01*
X019885Y004605D02*
X018015Y004605D01*
X018015Y004446D02*
X019885Y004446D01*
X019885Y004288D02*
X018015Y004288D01*
X017991Y004129D02*
X019909Y004129D01*
X020007Y003971D02*
X017893Y003971D01*
X017623Y003812D02*
X020751Y003812D01*
X020643Y003971D02*
X020909Y003971D01*
X020909Y004129D02*
X020741Y004129D01*
X020765Y004288D02*
X020885Y004288D01*
X020885Y004446D02*
X020765Y004446D01*
X020592Y003654D02*
X017465Y003654D01*
X017306Y003495D02*
X020434Y003495D01*
X020275Y003337D02*
X015875Y003337D01*
X015844Y003495D02*
X015716Y003495D01*
X015685Y003654D02*
X015558Y003654D01*
X015527Y003812D02*
X015399Y003812D01*
X015368Y003971D02*
X015241Y003971D01*
X015355Y004129D02*
X015082Y004129D01*
X014924Y004288D02*
X015355Y004288D01*
X015355Y004446D02*
X014850Y004446D01*
X014850Y004605D02*
X015355Y004605D01*
X015355Y004763D02*
X014703Y004763D01*
X014450Y004450D02*
X015825Y003075D01*
X020325Y003075D01*
X016575Y004575D02*
X016075Y005075D01*
X015411Y003178D02*
X009338Y003178D01*
X009295Y003020D02*
X015569Y003020D01*
X015728Y002861D02*
X009295Y002861D01*
X009295Y002703D02*
X011829Y002703D01*
X012573Y002703D02*
X012577Y002703D01*
X012949Y002325D02*
X013913Y002325D01*
X014178Y002386D02*
X024423Y002386D01*
X024436Y002429D02*
X024436Y002429D01*
X024515Y002544D02*
X014178Y002544D01*
X014108Y002703D02*
X024623Y002703D01*
X024718Y002843D02*
X024718Y002843D01*
X024374Y002227D02*
X014178Y002227D01*
X014178Y002069D02*
X024325Y002069D01*
X024289Y001910D02*
X013283Y001910D01*
X013345Y002069D02*
X013648Y002069D01*
X013717Y002703D02*
X013321Y002703D01*
X012615Y001910D02*
X012535Y001910D01*
X010612Y002069D02*
X010538Y002069D01*
X010538Y002227D02*
X010612Y002227D01*
X010612Y002386D02*
X010538Y002386D01*
X010538Y002544D02*
X010612Y002544D01*
X011635Y003971D02*
X012659Y003971D01*
X012695Y004129D02*
X012818Y004129D01*
X012850Y004288D02*
X012976Y004288D01*
X012980Y004446D02*
X012850Y004446D01*
X012850Y004605D02*
X012980Y004605D01*
X012980Y004763D02*
X012703Y004763D01*
X012980Y004922D02*
X012247Y004922D01*
X012089Y005080D02*
X012980Y005080D01*
X012980Y005239D02*
X011930Y005239D01*
X011772Y005397D02*
X012980Y005397D01*
X012027Y004605D02*
X011635Y004605D01*
X011635Y004763D02*
X011553Y004845D01*
X011073Y004845D01*
X010838Y005080D02*
X011551Y005080D01*
X011635Y004446D02*
X012050Y004446D01*
X012050Y004288D02*
X011635Y004288D01*
X011629Y004129D02*
X012205Y004129D01*
X008885Y006824D02*
X005595Y006824D01*
X005135Y007775D02*
X004217Y007775D01*
X004217Y007933D02*
X005135Y007933D01*
X005135Y008092D02*
X004855Y008092D01*
X004855Y008250D02*
X005135Y008250D01*
X005135Y008409D02*
X004855Y008409D01*
X004855Y008567D02*
X005135Y008567D01*
X005135Y008726D02*
X004855Y008726D01*
X004794Y008884D02*
X005135Y008884D01*
X005515Y008884D02*
X009247Y008884D01*
X009135Y009043D02*
X005515Y009043D01*
X005515Y009201D02*
X009135Y009201D01*
X008917Y009360D02*
X005515Y009360D01*
X005662Y009518D02*
X008451Y009518D01*
X007988Y009677D02*
X005820Y009677D01*
X005979Y009835D02*
X007935Y009835D01*
X007935Y009994D02*
X006137Y009994D01*
X006296Y010152D02*
X007991Y010152D01*
X006825Y011420D02*
X000805Y011420D01*
X005515Y008726D02*
X009406Y008726D01*
X009537Y008567D02*
X005515Y008567D01*
X005515Y008409D02*
X009537Y008409D01*
X009190Y012530D02*
X013200Y012530D01*
X007623Y014907D02*
X024302Y014907D01*
X024289Y015066D02*
X007490Y015066D01*
X007452Y015224D02*
X024289Y015224D01*
X024289Y015383D02*
X006556Y015383D01*
X006556Y015541D02*
X024317Y015541D01*
X024366Y015700D02*
X006534Y015700D01*
X006556Y015224D02*
X006948Y015224D01*
X006910Y015066D02*
X006674Y015066D01*
X006832Y014907D02*
X006958Y014907D01*
X006991Y014749D02*
X007272Y014749D01*
X006569Y014590D02*
X003250Y014590D01*
X003305Y014705D02*
X003305Y014705D01*
X003312Y014749D02*
X006482Y014749D01*
X006535Y014432D02*
X003174Y014432D01*
X003336Y014907D02*
X005159Y014907D01*
X005094Y015066D02*
X004956Y015066D01*
X004694Y015066D02*
X003360Y015066D01*
X003376Y015224D02*
X004553Y015224D01*
X004535Y015383D02*
X003352Y015383D01*
X003329Y015541D02*
X004631Y015541D01*
X005019Y015541D02*
X005094Y015541D01*
X005116Y015700D02*
X003303Y015700D01*
X003227Y015858D02*
X024415Y015858D01*
X024436Y015929D02*
X024436Y015929D01*
X024496Y016017D02*
X003151Y016017D01*
X005822Y014907D02*
X005828Y014907D01*
X020075Y009825D02*
X020413Y009825D01*
X020737Y009825D02*
X021701Y009825D01*
X021305Y010152D02*
X020983Y010152D01*
X026076Y013525D02*
X026076Y013525D01*
X026246Y003337D02*
X026837Y003337D01*
X026837Y003178D02*
X026712Y003178D01*
X024289Y001752D02*
X003372Y001752D01*
X003364Y001593D02*
X024289Y001593D01*
X024293Y001435D02*
X003340Y001435D01*
X003316Y001276D02*
X024342Y001276D01*
X024391Y001118D02*
X003263Y001118D01*
X003305Y001205D02*
X003305Y001205D01*
X003187Y000959D02*
X024445Y000959D01*
X005804Y001910D02*
X003348Y001910D01*
X003324Y002069D02*
X005730Y002069D01*
X005730Y002227D02*
X003290Y002227D01*
X003214Y002386D02*
X005730Y002386D01*
X005730Y002544D02*
X003137Y002544D01*
X003088Y002646D02*
X003088Y002646D01*
X003088Y002646D01*
X003036Y002703D02*
X005730Y002703D01*
X005730Y002861D02*
X002889Y002861D01*
X002737Y003020D02*
X005730Y003020D01*
D26*
X007575Y003825D03*
X008075Y003825D03*
X009575Y004075D03*
X010075Y004450D03*
X010450Y004450D03*
X010700Y005575D03*
X011075Y005575D03*
X008825Y005825D03*
X008450Y005825D03*
D27*
X008825Y005825D02*
X008977Y005673D01*
X009244Y005673D01*
X009923Y004994D02*
X009923Y004602D01*
X010075Y004450D01*
X007075Y011575D02*
X007325Y011825D01*
X007325Y012325D01*
X007477Y012477D01*
X007477Y012744D01*
X007673Y012744D02*
X007673Y012102D01*
X007700Y012075D01*
X007280Y012530D02*
X007200Y012450D01*
X006825Y012450D01*
X006700Y012325D01*
X007280Y012530D02*
X007280Y012744D01*
X006994Y013030D02*
X006790Y012825D01*
X005575Y012825D01*
X004785Y012035D01*
X004535Y012075D01*
X003865Y012075D02*
X003075Y012075D01*
X004575Y013240D02*
X004615Y013200D01*
X006200Y013200D01*
X006227Y013227D01*
X006994Y013227D01*
X006994Y013423D02*
X006477Y013423D01*
X006325Y013575D01*
X005575Y013575D01*
X006200Y013950D02*
X004615Y013950D01*
X004575Y013910D01*
X006200Y013950D02*
X006530Y013620D01*
X006994Y013620D01*
X007280Y013906D02*
X007280Y013995D01*
X006825Y014450D01*
X006825Y014660D01*
X006160Y015325D01*
X005490Y015325D02*
X004825Y015325D01*
X007200Y015075D02*
X007477Y014798D01*
X007477Y013906D01*
X007673Y013906D02*
X007673Y014298D01*
X007950Y014575D01*
X008165Y014200D02*
X008950Y014200D01*
X008825Y013825D02*
X008620Y013620D01*
X008156Y013620D01*
X008156Y013423D02*
X008923Y013423D01*
X008950Y013450D01*
X008673Y013227D02*
X008156Y013227D01*
X008156Y013030D02*
X008620Y013030D01*
X008950Y012700D01*
X008825Y013075D02*
X008673Y013227D01*
X008825Y013075D02*
X009575Y013075D01*
X009575Y013825D02*
X008825Y013825D01*
X008165Y014200D02*
X007870Y013906D01*
X007870Y012744D02*
X007870Y012530D01*
X008325Y012075D01*
D28*
X008825Y011075D02*
X010825Y011075D01*
X010825Y010075D01*
X008825Y010075D01*
X008825Y011075D01*
X008825Y011062D02*
X010825Y011062D01*
X010825Y010963D02*
X008825Y010963D01*
X008825Y010865D02*
X010825Y010865D01*
X010825Y010766D02*
X008825Y010766D01*
X008825Y010668D02*
X010825Y010668D01*
X010825Y010569D02*
X008825Y010569D01*
X008825Y010471D02*
X010825Y010471D01*
X010825Y010372D02*
X008825Y010372D01*
X008825Y010274D02*
X010825Y010274D01*
X010825Y010175D02*
X008825Y010175D01*
X008825Y010077D02*
X010825Y010077D01*
X011113Y009701D02*
X011325Y009913D01*
X011113Y009701D02*
X010325Y009701D01*
X010325Y009075D01*
X009923Y008673D01*
X009923Y006156D01*
X009727Y006156D02*
X009727Y008673D01*
X009325Y009075D01*
X009325Y009701D01*
X008537Y009701D01*
X008325Y009913D01*
X009325Y010449D02*
X009325Y010575D01*
X006450Y010575D01*
X005325Y009450D01*
X005325Y006825D01*
X006825Y005325D01*
X006825Y004575D01*
X006075Y003825D01*
X007825Y004660D02*
X008445Y005280D01*
X009244Y005280D01*
X009244Y005477D02*
X008089Y005477D01*
X007825Y005740D01*
X007825Y006410D02*
X008705Y006410D01*
X009244Y005870D01*
X009530Y006156D02*
X009075Y006610D01*
X009075Y007240D01*
X010120Y006156D02*
X010700Y006735D01*
X010700Y007201D01*
X011620Y005870D02*
X012450Y006700D01*
X011620Y005870D02*
X010406Y005870D01*
X010406Y005280D02*
X011620Y005280D01*
X012450Y004450D01*
X011200Y004449D02*
X010655Y004994D01*
X010120Y004994D01*
X009700Y004955D02*
X009325Y004955D01*
X009325Y005053D02*
X009700Y005053D01*
X009700Y005075D02*
X009700Y003575D01*
X009325Y003575D01*
X009325Y005075D01*
X009700Y005075D01*
X009700Y004856D02*
X009325Y004856D01*
X009325Y004758D02*
X009700Y004758D01*
X009700Y004659D02*
X009325Y004659D01*
X009325Y004561D02*
X009700Y004561D01*
X009700Y004462D02*
X009325Y004462D01*
X009325Y004364D02*
X009700Y004364D01*
X009700Y004265D02*
X009325Y004265D01*
X009325Y004167D02*
X009700Y004167D01*
X009700Y004068D02*
X009325Y004068D01*
X009325Y003970D02*
X009700Y003970D01*
X009700Y003871D02*
X009325Y003871D01*
X009325Y003773D02*
X009700Y003773D01*
X009700Y003674D02*
X009325Y003674D01*
X009325Y003576D02*
X009700Y003576D01*
D29*
X009575Y003825D02*
X008825Y003075D01*
X006075Y003075D01*
X006075Y003825D01*
X006075Y004825D02*
X003927Y006973D01*
X003927Y008450D01*
M02*
