%
M48
M72
T01C0.0118
T02C0.0320
T03C0.0394
T04C0.0400
T05C0.1260
%
T01
X7575Y3825
X8075Y3825
X9575Y4075
X10075Y4450
X10450Y4450
X10700Y5575
X11075Y5575
X8825Y5825
X8450Y5825
T02
X6075Y4825
X5325Y4325
X6075Y3825
X12450Y4450
X14450Y4450
X14450Y6700
X12450Y6700
T03
X17825Y13075
X18825Y13075
X21575Y13075
X22575Y13075
T04
X14575Y13075
X13575Y13075
X12575Y13075
X16575Y4575
X17575Y4575
X18575Y4575
X20325Y4575
X21325Y4575
X22325Y4575
T05
X1700Y1700
X1700Y15200
X25950Y15200
X25950Y1700
M30
