G75*
G70*
%OFA0B0*%
%FSLAX24Y24*%
%IPPOS*%
%LPD*%
%AMOC8*
5,1,8,0,0,1.08239X$1,22.5*
%
%ADD10R,0.0080X0.0010*%
%ADD11R,0.0090X0.0010*%
%ADD12R,0.0060X0.0010*%
%ADD13R,0.0330X0.0010*%
%ADD14R,0.0130X0.0010*%
%ADD15R,0.0150X0.0010*%
%ADD16R,0.0170X0.0010*%
%ADD17R,0.0190X0.0010*%
%ADD18R,0.0210X0.0010*%
%ADD19R,0.0230X0.0010*%
%ADD20R,0.0250X0.0010*%
%ADD21R,0.0100X0.0010*%
%ADD22R,0.0110X0.0010*%
%ADD23R,0.0120X0.0010*%
%ADD24R,0.0070X0.0010*%
%ADD25R,0.0340X0.0010*%
%ADD26R,0.0320X0.0010*%
%ADD27R,0.0310X0.0010*%
%ADD28R,0.0290X0.0010*%
%ADD29R,0.0280X0.0010*%
%ADD30R,0.0300X0.0010*%
%ADD31R,0.0270X0.0010*%
%ADD32R,0.0260X0.0010*%
%ADD33R,0.0140X0.0010*%
%ADD34R,0.0160X0.0010*%
%ADD35R,0.0200X0.0010*%
%ADD36R,0.0180X0.0010*%
%ADD37R,0.0030X0.0010*%
%ADD38R,0.0220X0.0010*%
%ADD39R,0.0240X0.0010*%
%ADD40C,0.1340*%
%ADD41OC8,0.0600*%
%ADD42OC8,0.0740*%
%ADD43C,0.0680*%
%ADD44C,0.0674*%
%ADD45OC8,0.0358*%
D10*
X018960Y002195D03*
X018960Y002205D03*
X018960Y002215D03*
X018960Y002225D03*
X018960Y002235D03*
X018960Y002245D03*
X018960Y002255D03*
X018960Y002265D03*
X018960Y002275D03*
X018960Y002285D03*
X018960Y002295D03*
X018960Y002305D03*
X018960Y002315D03*
X018960Y002325D03*
X018960Y002335D03*
X018960Y002345D03*
X018960Y002355D03*
X018960Y002365D03*
X018960Y002375D03*
X018960Y002385D03*
X018960Y002395D03*
X018960Y002405D03*
X018960Y002475D03*
X018960Y002485D03*
X018960Y002495D03*
X018960Y002505D03*
X018960Y002515D03*
X018960Y002525D03*
X018960Y002535D03*
X018960Y002545D03*
X018960Y002555D03*
X018960Y002565D03*
X018960Y002575D03*
X018960Y002585D03*
X018960Y002595D03*
X018960Y002605D03*
X018960Y002615D03*
X018960Y002625D03*
X018960Y002635D03*
X018960Y002645D03*
X018960Y002655D03*
X019380Y002655D03*
X019380Y002645D03*
X019380Y002635D03*
X019380Y002625D03*
X019380Y002615D03*
X019380Y002605D03*
X019380Y002595D03*
X019380Y002585D03*
X019380Y002575D03*
X019380Y002565D03*
X019380Y002555D03*
X019380Y002545D03*
X019380Y002535D03*
X019380Y002525D03*
X019380Y002515D03*
X019380Y002505D03*
X019380Y002495D03*
X019380Y002485D03*
X019380Y002475D03*
X019380Y002405D03*
X019380Y002395D03*
X019380Y002385D03*
X019380Y002375D03*
X019380Y002365D03*
X019380Y002355D03*
X019380Y002345D03*
X019380Y002335D03*
X019380Y002325D03*
X019380Y002315D03*
X019380Y002305D03*
X019380Y002295D03*
X019380Y002285D03*
X019380Y002275D03*
X019380Y002265D03*
X019380Y002255D03*
X019380Y002245D03*
X019380Y002235D03*
X019380Y002225D03*
X019380Y002215D03*
X019380Y002205D03*
X019380Y002195D03*
X019760Y002195D03*
X019760Y002205D03*
X019760Y002215D03*
X019760Y002225D03*
X019760Y002235D03*
X019760Y002245D03*
X019760Y002255D03*
X019760Y002265D03*
X019760Y002275D03*
X019760Y002285D03*
X019760Y002295D03*
X019760Y002305D03*
X019760Y002315D03*
X019760Y002325D03*
X019760Y002335D03*
X019760Y002345D03*
X019760Y002355D03*
X019760Y002365D03*
X019760Y002375D03*
X019760Y002385D03*
X019760Y002395D03*
X019760Y002405D03*
X019760Y002415D03*
X019760Y002425D03*
X019760Y002435D03*
X019760Y002445D03*
X019760Y002455D03*
X019760Y002465D03*
X019760Y002475D03*
X019760Y002485D03*
X019760Y002495D03*
X019760Y002505D03*
X019760Y002515D03*
X019760Y002525D03*
X019760Y002535D03*
X019760Y002545D03*
X019760Y002555D03*
X019760Y002565D03*
X019760Y002575D03*
X019760Y002585D03*
X019760Y002595D03*
X019760Y002605D03*
X019760Y002615D03*
X019760Y002625D03*
X019760Y002635D03*
X019760Y002645D03*
X019760Y002655D03*
X019760Y002665D03*
X019760Y002675D03*
X019760Y002685D03*
X019760Y002695D03*
X019760Y002705D03*
X019760Y002715D03*
X020150Y002605D03*
X020160Y002585D03*
X020170Y002565D03*
X020170Y002555D03*
X020180Y002535D03*
X020190Y002515D03*
X020200Y002495D03*
X020200Y002485D03*
X020210Y002475D03*
X020210Y002465D03*
X020220Y002455D03*
X020220Y002445D03*
X020310Y002445D03*
X020320Y002455D03*
X020320Y002465D03*
X020330Y002475D03*
X020330Y002485D03*
X020340Y002505D03*
X020350Y002525D03*
X020360Y002545D03*
X020360Y002555D03*
X020370Y002575D03*
X020380Y002595D03*
X020270Y002345D03*
X020270Y002335D03*
X020270Y002325D03*
X020270Y002315D03*
X020270Y002305D03*
X020270Y002295D03*
X020270Y002285D03*
X020270Y002275D03*
X020270Y002265D03*
X020270Y002255D03*
X020270Y002245D03*
X020270Y002235D03*
X020270Y002225D03*
X020270Y002215D03*
X020270Y002205D03*
X020270Y002195D03*
X020270Y002185D03*
X020270Y002175D03*
X020270Y002165D03*
X020270Y002155D03*
X020270Y002145D03*
X020270Y002135D03*
X020200Y001705D03*
X020520Y001625D03*
X020520Y001615D03*
X020520Y001605D03*
X020510Y001585D03*
X020510Y001575D03*
X020510Y001565D03*
X020510Y001555D03*
X020510Y001545D03*
X020510Y001535D03*
X020530Y001635D03*
X020630Y001725D03*
X020720Y001645D03*
X020730Y001625D03*
X020730Y001615D03*
X020740Y001605D03*
X020740Y001595D03*
X020740Y001585D03*
X020740Y001575D03*
X020750Y001565D03*
X020750Y001555D03*
X020750Y001545D03*
X020750Y001535D03*
X020750Y001525D03*
X020750Y001515D03*
X020750Y001505D03*
X020750Y001495D03*
X020750Y001485D03*
X020750Y001475D03*
X020750Y001465D03*
X020750Y001455D03*
X020750Y001445D03*
X020750Y001435D03*
X020750Y001425D03*
X020750Y001415D03*
X020750Y001405D03*
X020750Y001395D03*
X020750Y001385D03*
X020750Y001375D03*
X020750Y001365D03*
X020750Y001355D03*
X020750Y001345D03*
X020750Y001335D03*
X020750Y001325D03*
X020750Y001315D03*
X020750Y001305D03*
X020750Y001295D03*
X020750Y001285D03*
X020740Y001275D03*
X020740Y001265D03*
X020740Y001255D03*
X020740Y001245D03*
X020730Y001235D03*
X020730Y001225D03*
X020720Y001205D03*
X020630Y001125D03*
X020530Y001215D03*
X020520Y001225D03*
X020520Y001235D03*
X020520Y001245D03*
X020510Y001255D03*
X020510Y001265D03*
X020510Y001275D03*
X020510Y001285D03*
X020510Y001295D03*
X020510Y001305D03*
X020930Y001485D03*
X020930Y001495D03*
X020920Y001515D03*
X020920Y001525D03*
X020920Y001535D03*
X020920Y001545D03*
X020920Y001585D03*
X020920Y001595D03*
X020920Y001605D03*
X020920Y001615D03*
X020930Y001635D03*
X020940Y001465D03*
X020960Y001435D03*
X020980Y001405D03*
X021000Y001375D03*
X021160Y001555D03*
X021160Y001565D03*
X021160Y001575D03*
X021150Y001585D03*
X021150Y001595D03*
X021150Y001605D03*
X021150Y001615D03*
X021140Y001625D03*
X021140Y001635D03*
X021340Y001605D03*
X021340Y001595D03*
X021340Y001585D03*
X021350Y001625D03*
X021340Y001525D03*
X021340Y001515D03*
X021340Y001505D03*
X021350Y001485D03*
X021350Y001355D03*
X021340Y001335D03*
X021340Y001325D03*
X021340Y001315D03*
X021330Y001285D03*
X021330Y001275D03*
X021330Y001265D03*
X021330Y001255D03*
X021330Y001245D03*
X021330Y001235D03*
X021330Y001225D03*
X021330Y001215D03*
X021330Y001205D03*
X021330Y001195D03*
X021330Y001185D03*
X021330Y001175D03*
X021610Y001175D03*
X021610Y001165D03*
X021610Y001155D03*
X021610Y001145D03*
X021610Y001135D03*
X021610Y001185D03*
X021610Y001195D03*
X021610Y001205D03*
X021610Y001215D03*
X021610Y001225D03*
X021610Y001235D03*
X021610Y001245D03*
X021610Y001255D03*
X021610Y001265D03*
X021610Y001275D03*
X021610Y001285D03*
X021610Y001295D03*
X021610Y001305D03*
X021610Y001315D03*
X021610Y001325D03*
X021610Y001335D03*
X021610Y001345D03*
X021610Y001355D03*
X021610Y001365D03*
X021610Y001375D03*
X021610Y001385D03*
X021610Y001455D03*
X021610Y001465D03*
X021610Y001475D03*
X021610Y001485D03*
X021610Y001495D03*
X021610Y001505D03*
X021610Y001515D03*
X021610Y001525D03*
X021610Y001535D03*
X021610Y001545D03*
X021610Y001555D03*
X021610Y001565D03*
X021610Y001575D03*
X021610Y001585D03*
X021610Y001595D03*
X021610Y001605D03*
X021610Y001615D03*
X021610Y001625D03*
X021610Y001635D03*
X021610Y001645D03*
X021610Y001655D03*
X021890Y001575D03*
X021890Y001565D03*
X021880Y001545D03*
X021880Y001535D03*
X021880Y001525D03*
X021870Y001505D03*
X021870Y001495D03*
X021860Y001475D03*
X021860Y001465D03*
X021860Y001455D03*
X021850Y001445D03*
X021850Y001435D03*
X021850Y001425D03*
X021840Y001405D03*
X021840Y001395D03*
X021840Y001385D03*
X021830Y001375D03*
X021830Y001365D03*
X021830Y001355D03*
X021820Y001345D03*
X021800Y001275D03*
X021800Y001265D03*
X021800Y001255D03*
X021790Y001245D03*
X021790Y001235D03*
X021790Y001225D03*
X021780Y001205D03*
X021780Y001195D03*
X021770Y001175D03*
X021770Y001165D03*
X021770Y001155D03*
X021760Y001135D03*
X022080Y001245D03*
X022080Y001255D03*
X022080Y001265D03*
X022070Y001275D03*
X022090Y001235D03*
X022090Y001225D03*
X022090Y001215D03*
X022100Y001195D03*
X022100Y001185D03*
X022110Y001165D03*
X022110Y001155D03*
X022110Y001145D03*
X022050Y001345D03*
X022050Y001355D03*
X022050Y001365D03*
X022040Y001375D03*
X022040Y001385D03*
X022040Y001395D03*
X022030Y001415D03*
X022030Y001425D03*
X022030Y001435D03*
X022020Y001445D03*
X022020Y001455D03*
X022020Y001465D03*
X022010Y001485D03*
X022010Y001495D03*
X022000Y001515D03*
X022000Y001525D03*
X021990Y001555D03*
X021990Y001565D03*
X021980Y001585D03*
X021940Y001715D03*
X022270Y001565D03*
X022270Y001555D03*
X022270Y001545D03*
X022270Y001535D03*
X022270Y001525D03*
X022270Y001515D03*
X022270Y001505D03*
X022270Y001495D03*
X022270Y001485D03*
X022270Y001475D03*
X022270Y001465D03*
X022270Y001455D03*
X022270Y001445D03*
X022270Y001435D03*
X022270Y001425D03*
X022270Y001415D03*
X022270Y001405D03*
X022270Y001395D03*
X022480Y001185D03*
X022480Y001175D03*
X022480Y001165D03*
X022680Y001165D03*
X022680Y001175D03*
X022680Y001185D03*
X022680Y001195D03*
X022680Y001205D03*
X022680Y001215D03*
X022680Y001225D03*
X022680Y001235D03*
X022680Y001245D03*
X022680Y001255D03*
X022680Y001265D03*
X022680Y001275D03*
X022680Y001285D03*
X022680Y001295D03*
X022680Y001305D03*
X022680Y001315D03*
X022680Y001325D03*
X022680Y001335D03*
X022680Y001345D03*
X022680Y001355D03*
X022680Y001365D03*
X022680Y001375D03*
X022680Y001385D03*
X022680Y001395D03*
X022680Y001155D03*
X022680Y001145D03*
X022680Y001135D03*
X022610Y002135D03*
X022610Y002145D03*
X022560Y002315D03*
X022550Y002355D03*
X022540Y002405D03*
X022530Y002445D03*
X022520Y002485D03*
X022510Y002525D03*
X022410Y002465D03*
X022400Y002425D03*
X022390Y002385D03*
X022380Y002345D03*
X022290Y002325D03*
X022290Y002315D03*
X022280Y002355D03*
X022280Y002365D03*
X022280Y002375D03*
X022270Y002405D03*
X022270Y002415D03*
X022270Y002425D03*
X022260Y002455D03*
X022260Y002465D03*
X022260Y002475D03*
X022260Y002485D03*
X022250Y002505D03*
X022250Y002515D03*
X022250Y002525D03*
X022250Y002535D03*
X022240Y002555D03*
X022240Y002565D03*
X022240Y002575D03*
X022240Y002585D03*
X022230Y002605D03*
X022230Y002615D03*
X022230Y002625D03*
X022230Y002635D03*
X022230Y002645D03*
X022220Y002655D03*
X022220Y002665D03*
X022220Y002675D03*
X022220Y002685D03*
X022220Y002695D03*
X022210Y002705D03*
X022210Y002715D03*
X022050Y002655D03*
X022050Y002645D03*
X022050Y002635D03*
X022050Y002625D03*
X022050Y002615D03*
X022050Y002605D03*
X022050Y002595D03*
X022050Y002585D03*
X022050Y002575D03*
X022050Y002565D03*
X022050Y002555D03*
X022050Y002545D03*
X022050Y002535D03*
X022050Y002525D03*
X022050Y002515D03*
X022050Y002505D03*
X022050Y002495D03*
X022050Y002485D03*
X022050Y002475D03*
X022050Y002405D03*
X022050Y002395D03*
X022050Y002385D03*
X022050Y002375D03*
X022050Y002365D03*
X022050Y002355D03*
X022050Y002345D03*
X022050Y002335D03*
X022050Y002325D03*
X022050Y002315D03*
X022050Y002305D03*
X022050Y002295D03*
X022050Y002285D03*
X022050Y002275D03*
X022050Y002265D03*
X022050Y002255D03*
X022050Y002245D03*
X022050Y002235D03*
X022050Y002225D03*
X022050Y002215D03*
X022050Y002205D03*
X022050Y002195D03*
X022330Y002145D03*
X022330Y002135D03*
X022650Y002335D03*
X022650Y002345D03*
X022650Y002355D03*
X022660Y002385D03*
X022660Y002395D03*
X022660Y002405D03*
X022660Y002415D03*
X022670Y002435D03*
X022670Y002445D03*
X022670Y002455D03*
X022670Y002465D03*
X022680Y002485D03*
X022680Y002495D03*
X022680Y002505D03*
X022680Y002515D03*
X022690Y002535D03*
X022690Y002545D03*
X022690Y002555D03*
X022690Y002565D03*
X022700Y002585D03*
X022700Y002595D03*
X022700Y002605D03*
X022700Y002615D03*
X022700Y002625D03*
X022710Y002635D03*
X022710Y002645D03*
X022710Y002655D03*
X022710Y002665D03*
X022710Y002675D03*
X022720Y002685D03*
X022720Y002695D03*
X022720Y002705D03*
X022720Y002715D03*
X022470Y002695D03*
X022470Y002685D03*
X021640Y002605D03*
X021640Y002595D03*
X021640Y002585D03*
X021640Y002575D03*
X021640Y002565D03*
X021640Y002555D03*
X021640Y002545D03*
X021630Y002625D03*
X021380Y002625D03*
X021370Y002605D03*
X021370Y002595D03*
X021370Y002585D03*
X021360Y002565D03*
X021360Y002555D03*
X021190Y002555D03*
X021190Y002565D03*
X021190Y002575D03*
X021190Y002585D03*
X021190Y002595D03*
X021190Y002605D03*
X021190Y002615D03*
X021190Y002625D03*
X021190Y002635D03*
X021190Y002645D03*
X021190Y002655D03*
X021190Y002665D03*
X021190Y002675D03*
X021190Y002685D03*
X021190Y002695D03*
X021190Y002705D03*
X021190Y002715D03*
X021190Y002545D03*
X021190Y002535D03*
X021190Y002525D03*
X021190Y002515D03*
X021190Y002505D03*
X021190Y002495D03*
X021190Y002485D03*
X021190Y002475D03*
X021190Y002465D03*
X021190Y002455D03*
X021190Y002445D03*
X021190Y002435D03*
X021190Y002425D03*
X021190Y002415D03*
X021190Y002405D03*
X021190Y002395D03*
X021190Y002385D03*
X021190Y002375D03*
X021190Y002365D03*
X021190Y002355D03*
X021190Y002345D03*
X021190Y002335D03*
X021190Y002325D03*
X021190Y002315D03*
X021190Y002305D03*
X021190Y002295D03*
X021190Y002285D03*
X021190Y002275D03*
X021190Y002265D03*
X021190Y002255D03*
X021190Y002245D03*
X021190Y002235D03*
X021190Y002225D03*
X021190Y002215D03*
X021190Y002205D03*
X021190Y002195D03*
X021360Y002255D03*
X021360Y002265D03*
X021360Y002275D03*
X021360Y002285D03*
X021360Y002295D03*
X021370Y002325D03*
X021370Y002235D03*
X021370Y002225D03*
X021640Y002225D03*
X021650Y002245D03*
X021650Y002255D03*
X021650Y002265D03*
X021660Y002285D03*
X021660Y002295D03*
X020810Y002295D03*
X020810Y002305D03*
X020810Y002315D03*
X020810Y002325D03*
X020810Y002335D03*
X020810Y002345D03*
X020810Y002355D03*
X020810Y002365D03*
X020810Y002375D03*
X020810Y002385D03*
X020810Y002395D03*
X020810Y002405D03*
X020810Y002475D03*
X020810Y002485D03*
X020810Y002495D03*
X020810Y002505D03*
X020810Y002515D03*
X020810Y002525D03*
X020810Y002535D03*
X020810Y002545D03*
X020810Y002555D03*
X020810Y002565D03*
X020810Y002575D03*
X020810Y002585D03*
X020810Y002595D03*
X020810Y002605D03*
X020810Y002615D03*
X020810Y002625D03*
X020810Y002635D03*
X020810Y002645D03*
X020810Y002655D03*
X020810Y002285D03*
X020810Y002275D03*
X020810Y002265D03*
X020810Y002255D03*
X020810Y002245D03*
X020810Y002235D03*
X020810Y002225D03*
X020810Y002215D03*
X020810Y002205D03*
X020810Y002195D03*
X019900Y001595D03*
X019900Y001585D03*
X019900Y001575D03*
X019900Y001565D03*
X019910Y001485D03*
X019910Y001425D03*
X019910Y001415D03*
X019920Y001285D03*
X019920Y001275D03*
X019920Y001265D03*
X019920Y001255D03*
X019920Y001245D03*
X019920Y001235D03*
X019910Y001225D03*
X019910Y001215D03*
X019700Y001225D03*
X019690Y001245D03*
X019690Y001255D03*
X019690Y001265D03*
X019680Y001305D03*
X019680Y001315D03*
X019680Y001325D03*
X019690Y001365D03*
X019690Y001375D03*
X019690Y001385D03*
D11*
X019695Y001395D03*
X019695Y001405D03*
X019705Y001415D03*
X019705Y001425D03*
X019715Y001435D03*
X019685Y001355D03*
X019685Y001345D03*
X019685Y001335D03*
X019685Y001295D03*
X019685Y001285D03*
X019685Y001275D03*
X019695Y001235D03*
X019705Y001215D03*
X019705Y001205D03*
X019715Y001195D03*
X019805Y001125D03*
X019895Y001195D03*
X019905Y001205D03*
X019905Y001435D03*
X020205Y001435D03*
X020205Y001445D03*
X020205Y001455D03*
X020205Y001465D03*
X020205Y001475D03*
X020205Y001485D03*
X020205Y001495D03*
X020205Y001505D03*
X020205Y001515D03*
X020205Y001525D03*
X020205Y001535D03*
X020205Y001545D03*
X020205Y001555D03*
X020205Y001565D03*
X020205Y001575D03*
X020205Y001585D03*
X020205Y001595D03*
X020205Y001605D03*
X020205Y001615D03*
X020205Y001625D03*
X020205Y001425D03*
X020205Y001415D03*
X020205Y001405D03*
X020205Y001395D03*
X020205Y001385D03*
X020205Y001375D03*
X020205Y001365D03*
X020205Y001355D03*
X020205Y001345D03*
X020205Y001335D03*
X020205Y001325D03*
X020205Y001315D03*
X020205Y001305D03*
X020205Y001295D03*
X020205Y001285D03*
X020205Y001275D03*
X020205Y001265D03*
X020205Y001255D03*
X020205Y001245D03*
X020205Y001235D03*
X020205Y001225D03*
X020205Y001215D03*
X020205Y001205D03*
X020205Y001195D03*
X020205Y001185D03*
X020205Y001175D03*
X020205Y001165D03*
X020205Y001155D03*
X020205Y001145D03*
X020205Y001135D03*
X020535Y001205D03*
X020545Y001195D03*
X020505Y001315D03*
X020505Y001325D03*
X020505Y001335D03*
X020505Y001345D03*
X020505Y001355D03*
X020505Y001365D03*
X020505Y001375D03*
X020505Y001385D03*
X020505Y001395D03*
X020505Y001405D03*
X020505Y001415D03*
X020505Y001425D03*
X020505Y001435D03*
X020505Y001445D03*
X020505Y001455D03*
X020505Y001465D03*
X020505Y001475D03*
X020505Y001485D03*
X020505Y001495D03*
X020505Y001505D03*
X020505Y001515D03*
X020505Y001525D03*
X020535Y001645D03*
X020545Y001655D03*
X020555Y001665D03*
X020715Y001655D03*
X020725Y001635D03*
X020915Y001575D03*
X020915Y001565D03*
X020915Y001555D03*
X020925Y001505D03*
X020935Y001475D03*
X020945Y001455D03*
X020955Y001445D03*
X020965Y001425D03*
X020975Y001415D03*
X020985Y001395D03*
X020995Y001385D03*
X021005Y001365D03*
X021015Y001355D03*
X021025Y001345D03*
X021035Y001335D03*
X021035Y001325D03*
X021045Y001315D03*
X021055Y001305D03*
X021065Y001285D03*
X021075Y001275D03*
X021095Y001245D03*
X021105Y001235D03*
X021125Y001205D03*
X021315Y001145D03*
X021315Y001135D03*
X021325Y001155D03*
X021325Y001165D03*
X021335Y001295D03*
X021335Y001305D03*
X021345Y001345D03*
X021355Y001365D03*
X021365Y001375D03*
X021365Y001465D03*
X021355Y001475D03*
X021345Y001495D03*
X021335Y001535D03*
X021335Y001545D03*
X021335Y001555D03*
X021335Y001565D03*
X021335Y001575D03*
X021345Y001615D03*
X021355Y001635D03*
X021135Y001645D03*
X021125Y001655D03*
X021035Y001725D03*
X020945Y001655D03*
X020935Y001645D03*
X020925Y001625D03*
X020725Y001215D03*
X020715Y001195D03*
X021765Y001145D03*
X021775Y001185D03*
X021785Y001215D03*
X022095Y001205D03*
X022105Y001175D03*
X022115Y001135D03*
X022275Y001135D03*
X022275Y001145D03*
X022275Y001155D03*
X022275Y001165D03*
X022275Y001175D03*
X022275Y001185D03*
X022275Y001195D03*
X022275Y001205D03*
X022275Y001215D03*
X022275Y001225D03*
X022275Y001235D03*
X022275Y001245D03*
X022275Y001255D03*
X022275Y001265D03*
X022275Y001275D03*
X022275Y001285D03*
X022275Y001295D03*
X022275Y001305D03*
X022275Y001315D03*
X022275Y001325D03*
X022275Y001335D03*
X022275Y001345D03*
X022275Y001355D03*
X022275Y001365D03*
X022275Y001375D03*
X022275Y001385D03*
X021935Y001705D03*
X022325Y002155D03*
X022325Y002165D03*
X022605Y002165D03*
X022605Y002175D03*
X022605Y002155D03*
X022465Y002665D03*
X022465Y002675D03*
X021635Y002615D03*
X021625Y002635D03*
X021615Y002645D03*
X021635Y002535D03*
X021635Y002525D03*
X021625Y002515D03*
X021625Y002505D03*
X021655Y002275D03*
X021645Y002235D03*
X021635Y002215D03*
X021625Y002205D03*
X021385Y002205D03*
X021375Y002215D03*
X021365Y002245D03*
X021365Y002305D03*
X021365Y002315D03*
X021375Y002335D03*
X021365Y002575D03*
X021375Y002615D03*
X021385Y002635D03*
X021395Y002645D03*
X021505Y002725D03*
X020435Y002715D03*
X020425Y002705D03*
X020425Y002695D03*
X020415Y002685D03*
X020415Y002675D03*
X020415Y002665D03*
X020405Y002655D03*
X020405Y002645D03*
X020395Y002635D03*
X020395Y002625D03*
X020385Y002615D03*
X020385Y002605D03*
X020375Y002585D03*
X020365Y002565D03*
X020355Y002535D03*
X020345Y002515D03*
X020335Y002495D03*
X020195Y002505D03*
X020185Y002525D03*
X020175Y002545D03*
X020165Y002575D03*
X020155Y002595D03*
X020145Y002615D03*
X020145Y002625D03*
X020135Y002635D03*
X020135Y002645D03*
X020125Y002655D03*
X020125Y002665D03*
X020115Y002675D03*
X020115Y002685D03*
X020115Y002695D03*
X020105Y002705D03*
X020265Y002355D03*
D12*
X022360Y001535D03*
X022370Y001505D03*
X022380Y001475D03*
X022380Y001465D03*
X022390Y001435D03*
X022400Y001405D03*
X022400Y001395D03*
X022410Y001375D03*
X022410Y001365D03*
X022420Y001345D03*
X022420Y001335D03*
X022420Y001325D03*
X022430Y001315D03*
X022430Y001305D03*
X022430Y001295D03*
X022440Y001275D03*
X022440Y001265D03*
X022440Y001255D03*
X022520Y001255D03*
X022520Y001265D03*
X022520Y001275D03*
X022530Y001295D03*
X022530Y001305D03*
X022530Y001315D03*
X022540Y001325D03*
X022540Y001335D03*
X022540Y001345D03*
X022550Y001365D03*
X022550Y001375D03*
X022560Y001395D03*
X022560Y001405D03*
X022570Y001435D03*
X022580Y001465D03*
X022580Y001475D03*
X022590Y001505D03*
X022600Y001535D03*
X022480Y001155D03*
X022480Y001145D03*
X022480Y001135D03*
D13*
X021935Y001315D03*
X021025Y001185D03*
X021025Y001175D03*
X021025Y001165D03*
X021025Y001155D03*
X021025Y001145D03*
X021025Y001135D03*
X020685Y002135D03*
X020685Y002145D03*
X020685Y002155D03*
X020685Y002165D03*
X020685Y002175D03*
X020685Y002185D03*
X020685Y002665D03*
X020685Y002675D03*
X020685Y002685D03*
X020685Y002695D03*
X020685Y002705D03*
X020685Y002715D03*
X021925Y002715D03*
X021925Y002705D03*
X021925Y002695D03*
X021925Y002685D03*
X021925Y002675D03*
X021925Y002665D03*
X021925Y002185D03*
X021925Y002175D03*
X021925Y002165D03*
X021925Y002155D03*
X021925Y002145D03*
X021925Y002135D03*
X019255Y002135D03*
X019255Y002145D03*
X019255Y002155D03*
X019255Y002165D03*
X019255Y002175D03*
X019255Y002185D03*
X018835Y002185D03*
X018835Y002175D03*
X018835Y002165D03*
X018835Y002155D03*
X018835Y002145D03*
X018835Y002135D03*
X018835Y002665D03*
X018835Y002675D03*
X018835Y002685D03*
X018835Y002695D03*
X018835Y002705D03*
X018835Y002715D03*
X019255Y002715D03*
X019255Y002705D03*
X019255Y002695D03*
X019255Y002685D03*
X019255Y002675D03*
X019255Y002665D03*
D14*
X020265Y002395D03*
X020225Y001695D03*
X020625Y001715D03*
X019785Y001495D03*
X020625Y001135D03*
X021935Y001635D03*
X022295Y001645D03*
X022295Y001655D03*
X022295Y001665D03*
X022655Y001635D03*
X022655Y001625D03*
X022655Y001615D03*
X022655Y001605D03*
X022605Y002235D03*
X022605Y002245D03*
X022605Y002255D03*
X022605Y002265D03*
X022465Y002575D03*
X022465Y002585D03*
X022465Y002595D03*
X021575Y002465D03*
X021425Y002385D03*
D15*
X022465Y002555D03*
X022605Y002305D03*
X022605Y002295D03*
X022605Y002285D03*
X022305Y001595D03*
X022305Y001585D03*
X022305Y001575D03*
X021935Y001605D03*
X020265Y002415D03*
X020265Y002425D03*
X019785Y001485D03*
X019805Y001135D03*
D16*
X020625Y001145D03*
X020625Y001705D03*
X020265Y002435D03*
X021485Y002415D03*
X021505Y002425D03*
D17*
X020625Y001695D03*
X020625Y001155D03*
X019805Y001145D03*
D18*
X019805Y001155D03*
X020625Y001165D03*
X020625Y001685D03*
X021035Y001695D03*
D19*
X021035Y001685D03*
X021535Y001715D03*
X020625Y001675D03*
X020625Y001175D03*
X019805Y001165D03*
X021505Y002695D03*
D20*
X021505Y002685D03*
X021035Y001675D03*
X019825Y001475D03*
X019805Y001175D03*
D21*
X019730Y001185D03*
X020550Y001185D03*
X020700Y001185D03*
X021060Y001295D03*
X021080Y001265D03*
X021090Y001255D03*
X021110Y001225D03*
X021120Y001215D03*
X021130Y001195D03*
X021110Y001665D03*
X020950Y001665D03*
X020700Y001665D03*
X021360Y001645D03*
X021940Y001685D03*
X021940Y001695D03*
X021500Y002125D03*
X021390Y002195D03*
X021380Y002345D03*
X021390Y002355D03*
X021400Y002365D03*
X021620Y002495D03*
X021610Y002655D03*
X021400Y002655D03*
X022330Y002195D03*
X022330Y002185D03*
X022330Y002175D03*
X022610Y002185D03*
X022670Y001715D03*
X022480Y001215D03*
X022480Y001205D03*
X022480Y001195D03*
X022470Y002645D03*
X022470Y002655D03*
X020270Y002365D03*
X020100Y002715D03*
D22*
X020265Y002375D03*
X021405Y002185D03*
X021615Y002195D03*
X021605Y002485D03*
X021595Y002665D03*
X021415Y002665D03*
X022325Y002205D03*
X022605Y002205D03*
X022605Y002215D03*
X022605Y002225D03*
X022605Y002195D03*
X022665Y001705D03*
X022665Y001695D03*
X022665Y001685D03*
X022665Y001675D03*
X022285Y001705D03*
X022285Y001715D03*
X021935Y001675D03*
X021935Y001665D03*
X021375Y001655D03*
X021385Y001455D03*
X021375Y001385D03*
X019895Y001445D03*
X019725Y001445D03*
X019885Y001185D03*
X022465Y002625D03*
X022465Y002635D03*
D23*
X022470Y002615D03*
X022470Y002605D03*
X022330Y002245D03*
X022330Y002235D03*
X022330Y002225D03*
X022330Y002215D03*
X021600Y002185D03*
X021410Y002375D03*
X021590Y002475D03*
X022290Y001695D03*
X022290Y001685D03*
X022290Y001675D03*
X021940Y001655D03*
X021940Y001645D03*
X022480Y001245D03*
X022480Y001235D03*
X022480Y001225D03*
X022660Y001645D03*
X022660Y001655D03*
X022660Y001665D03*
X020270Y002385D03*
D24*
X020325Y001625D03*
X020515Y001595D03*
X019915Y001405D03*
X019915Y001395D03*
X019905Y001495D03*
X019905Y001505D03*
X019905Y001515D03*
X019905Y001525D03*
X019905Y001535D03*
X019905Y001545D03*
X019905Y001555D03*
X019895Y001605D03*
X019895Y001615D03*
X019895Y001625D03*
X019895Y001635D03*
X019895Y001645D03*
X019895Y001655D03*
X019785Y001505D03*
X021845Y001415D03*
X021865Y001485D03*
X021875Y001515D03*
X021885Y001555D03*
X021895Y001585D03*
X021985Y001575D03*
X021995Y001545D03*
X021995Y001535D03*
X022005Y001505D03*
X022015Y001475D03*
X022035Y001405D03*
X022365Y001515D03*
X022365Y001525D03*
X022355Y001545D03*
X022355Y001555D03*
X022355Y001565D03*
X022375Y001495D03*
X022375Y001485D03*
X022385Y001455D03*
X022385Y001445D03*
X022395Y001425D03*
X022395Y001415D03*
X022405Y001385D03*
X022415Y001355D03*
X022435Y001285D03*
X022525Y001285D03*
X022545Y001355D03*
X022555Y001385D03*
X022565Y001415D03*
X022565Y001425D03*
X022575Y001445D03*
X022575Y001455D03*
X022585Y001485D03*
X022585Y001495D03*
X022595Y001515D03*
X022595Y001525D03*
X022605Y001545D03*
X022605Y001555D03*
X022605Y001565D03*
X022685Y001565D03*
X022685Y001555D03*
X022685Y001545D03*
X022685Y001535D03*
X022685Y001525D03*
X022685Y001515D03*
X022685Y001505D03*
X022685Y001495D03*
X022685Y001485D03*
X022685Y001475D03*
X022685Y001465D03*
X022685Y001455D03*
X022685Y001445D03*
X022685Y001435D03*
X022685Y001425D03*
X022685Y001415D03*
X022685Y001405D03*
X022645Y002315D03*
X022645Y002325D03*
X022655Y002365D03*
X022655Y002375D03*
X022665Y002425D03*
X022675Y002475D03*
X022685Y002525D03*
X022695Y002575D03*
X022515Y002515D03*
X022515Y002505D03*
X022515Y002495D03*
X022525Y002475D03*
X022525Y002465D03*
X022525Y002455D03*
X022535Y002435D03*
X022535Y002425D03*
X022535Y002415D03*
X022545Y002395D03*
X022545Y002385D03*
X022545Y002375D03*
X022545Y002365D03*
X022555Y002345D03*
X022555Y002335D03*
X022555Y002325D03*
X022385Y002355D03*
X022385Y002365D03*
X022385Y002375D03*
X022395Y002395D03*
X022395Y002405D03*
X022395Y002415D03*
X022405Y002435D03*
X022405Y002445D03*
X022405Y002455D03*
X022415Y002475D03*
X022415Y002485D03*
X022415Y002495D03*
X022415Y002505D03*
X022425Y002515D03*
X022425Y002525D03*
X022425Y002535D03*
X022425Y002545D03*
X022505Y002545D03*
X022505Y002535D03*
X022465Y002705D03*
X022465Y002715D03*
X022235Y002595D03*
X022245Y002545D03*
X022255Y002495D03*
X022265Y002445D03*
X022265Y002435D03*
X022275Y002395D03*
X022275Y002385D03*
X022285Y002345D03*
X022285Y002335D03*
X022375Y002335D03*
X022375Y002325D03*
X022375Y002315D03*
D25*
X021940Y001305D03*
X021940Y001295D03*
X021940Y001285D03*
D26*
X021940Y001325D03*
X021940Y001335D03*
X021490Y001395D03*
X021490Y001665D03*
D27*
X021495Y001675D03*
X021495Y001445D03*
X021495Y001405D03*
X021075Y002135D03*
X021075Y002145D03*
X021075Y002155D03*
X021075Y002165D03*
X021075Y002175D03*
X021075Y002185D03*
X019645Y002185D03*
X019645Y002175D03*
X019645Y002165D03*
X019645Y002155D03*
X019645Y002145D03*
X019645Y002135D03*
D28*
X021505Y002175D03*
X021505Y001695D03*
X021505Y001415D03*
D29*
X021510Y001425D03*
D30*
X021500Y001435D03*
X021500Y001685D03*
X021940Y002415D03*
X021940Y002425D03*
X021940Y002435D03*
X021940Y002445D03*
X021940Y002455D03*
X021940Y002465D03*
X020700Y002465D03*
X020700Y002455D03*
X020700Y002445D03*
X020700Y002435D03*
X020700Y002425D03*
X020700Y002415D03*
X019270Y002415D03*
X019270Y002425D03*
X019270Y002435D03*
X019270Y002445D03*
X019270Y002455D03*
X019270Y002465D03*
X018850Y002465D03*
X018850Y002455D03*
X018850Y002445D03*
X018850Y002435D03*
X018850Y002425D03*
X018850Y002415D03*
D31*
X019795Y001715D03*
X019795Y001705D03*
X019795Y001695D03*
X019795Y001685D03*
X019795Y001675D03*
X019795Y001665D03*
X019815Y001455D03*
X021515Y001705D03*
X021505Y002165D03*
X021505Y002675D03*
D32*
X019820Y001465D03*
D33*
X021030Y001715D03*
X021940Y001625D03*
X021940Y001615D03*
X022300Y001615D03*
X022300Y001625D03*
X022300Y001635D03*
X022300Y001605D03*
X022650Y001595D03*
X022650Y001585D03*
X022650Y001575D03*
X022600Y002275D03*
X022330Y002275D03*
X022330Y002285D03*
X022330Y002295D03*
X022330Y002265D03*
X022330Y002255D03*
X022470Y002565D03*
X021560Y002455D03*
X021440Y002395D03*
X020270Y002405D03*
D34*
X021460Y002405D03*
X021520Y002435D03*
X021540Y002445D03*
X021510Y002715D03*
X022330Y002305D03*
X021500Y002135D03*
X021940Y001595D03*
D35*
X020260Y001635D03*
X020260Y001645D03*
X020260Y001655D03*
X020260Y001665D03*
X020260Y001675D03*
X021510Y002705D03*
D36*
X021030Y001705D03*
X020250Y001685D03*
D37*
X020175Y001715D03*
D38*
X021500Y002145D03*
D39*
X021500Y002155D03*
D40*
X001700Y001700D03*
X001700Y015200D03*
X025950Y015200D03*
X025950Y001700D03*
D41*
X014450Y004450D03*
X012450Y004450D03*
X012450Y006700D03*
X014450Y006700D03*
D42*
X006075Y004825D03*
X005325Y004325D03*
X006075Y003825D03*
D43*
X016575Y004275D02*
X016575Y004875D01*
X017575Y004875D02*
X017575Y004275D01*
X018575Y004275D02*
X018575Y004875D01*
X020325Y004875D02*
X020325Y004275D01*
X021325Y004275D02*
X021325Y004875D01*
X022325Y004875D02*
X022325Y004275D01*
X014575Y012775D02*
X014575Y013375D01*
X013575Y013375D02*
X013575Y012775D01*
X012575Y012775D02*
X012575Y013375D01*
D44*
X017825Y013372D02*
X017825Y012778D01*
X018825Y012778D02*
X018825Y013372D01*
X021575Y013372D02*
X021575Y012778D01*
X022575Y012778D02*
X022575Y013372D01*
D45*
X011075Y005575D03*
X010700Y005575D03*
X010450Y004450D03*
X010075Y004450D03*
X009575Y004075D03*
X008075Y003825D03*
X007575Y003825D03*
X008450Y005825D03*
X008825Y005825D03*
M02*
